G04 #@! TF.GenerationSoftware,KiCad,Pcbnew,(5.1.5)-2*
G04 #@! TF.CreationDate,2020-02-26T12:35:05-06:00*
G04 #@! TF.ProjectId,WirelessEStop_Tx,57697265-6c65-4737-9345-53746f705f54,rev?*
G04 #@! TF.SameCoordinates,Original*
G04 #@! TF.FileFunction,Soldermask,Top*
G04 #@! TF.FilePolarity,Negative*
%FSLAX46Y46*%
G04 Gerber Fmt 4.6, Leading zero omitted, Abs format (unit mm)*
G04 Created by KiCad (PCBNEW (5.1.5)-2) date 2020-02-26 12:35:05*
%MOMM*%
%LPD*%
G04 APERTURE LIST*
%ADD10C,0.100000*%
%ADD11R,2.000000X0.900000*%
%ADD12R,1.600000X1.400000*%
%ADD13R,1.210000X0.590000*%
%ADD14O,1.700000X2.000000*%
%ADD15O,1.700000X1.950000*%
%ADD16R,1.320800X0.558800*%
%ADD17R,1.270000X0.558800*%
%ADD18R,1.000000X0.300000*%
%ADD19R,1.350000X2.000000*%
%ADD20R,1.825000X0.700000*%
%ADD21R,2.000000X1.500000*%
%ADD22R,0.400000X1.650000*%
%ADD23O,1.100000X1.500000*%
%ADD24O,1.350000X1.700000*%
%ADD25R,1.430000X2.500000*%
%ADD26R,0.300000X1.400000*%
G04 APERTURE END LIST*
D10*
G36*
X129104000Y-155422000D02*
G01*
X129504000Y-155422000D01*
X129504000Y-156522000D01*
X129104000Y-156522000D01*
X129104000Y-155422000D01*
G37*
G36*
X129104000Y-155922000D02*
G01*
X129504000Y-155922000D01*
X129504000Y-157022000D01*
X129104000Y-157022000D01*
X129104000Y-155922000D01*
G37*
G36*
X129104000Y-156422000D02*
G01*
X129504000Y-156422000D01*
X129504000Y-157522000D01*
X129104000Y-157522000D01*
X129104000Y-156422000D01*
G37*
G36*
X129104000Y-156922000D02*
G01*
X129504000Y-156922000D01*
X129504000Y-158022000D01*
X129104000Y-158022000D01*
X129104000Y-156922000D01*
G37*
G36*
X129104000Y-157422000D02*
G01*
X129504000Y-157422000D01*
X129504000Y-158522000D01*
X129104000Y-158522000D01*
X129104000Y-157422000D01*
G37*
G36*
X125004000Y-157422000D02*
G01*
X125404000Y-157422000D01*
X125404000Y-158522000D01*
X125004000Y-158522000D01*
X125004000Y-157422000D01*
G37*
G36*
X125004000Y-156922000D02*
G01*
X125404000Y-156922000D01*
X125404000Y-158022000D01*
X125004000Y-158022000D01*
X125004000Y-156922000D01*
G37*
G36*
X125004000Y-156422000D02*
G01*
X125404000Y-156422000D01*
X125404000Y-157522000D01*
X125004000Y-157522000D01*
X125004000Y-156422000D01*
G37*
G36*
X125004000Y-155922000D02*
G01*
X125404000Y-155922000D01*
X125404000Y-157022000D01*
X125004000Y-157022000D01*
X125004000Y-155922000D01*
G37*
G36*
X125004000Y-155422000D02*
G01*
X125404000Y-155422000D01*
X125404000Y-156522000D01*
X125004000Y-156522000D01*
X125004000Y-155422000D01*
G37*
D11*
X122171500Y-134054000D03*
X122171500Y-135554000D03*
X122171500Y-137054000D03*
X122171500Y-138554000D03*
X122171500Y-140054000D03*
X122171500Y-141554000D03*
X122171500Y-143054000D03*
X122171500Y-144554000D03*
X122171500Y-146054000D03*
X139956500Y-146054000D03*
X139956500Y-144554000D03*
X139956500Y-143054000D03*
X139956500Y-141554000D03*
X139956500Y-140054000D03*
X139956500Y-138554000D03*
X139956500Y-137054000D03*
X139956500Y-135554000D03*
X139956500Y-134054000D03*
D12*
X104159500Y-153074500D03*
X111359500Y-153074500D03*
X104159500Y-150074500D03*
X111359500Y-150074500D03*
D10*
G36*
X115196279Y-134908144D02*
G01*
X115219334Y-134911563D01*
X115241943Y-134917227D01*
X115263887Y-134925079D01*
X115284957Y-134935044D01*
X115304948Y-134947026D01*
X115323668Y-134960910D01*
X115340938Y-134976562D01*
X115356590Y-134993832D01*
X115370474Y-135012552D01*
X115382456Y-135032543D01*
X115392421Y-135053613D01*
X115400273Y-135075557D01*
X115405937Y-135098166D01*
X115409356Y-135121221D01*
X115410500Y-135144500D01*
X115410500Y-135619500D01*
X115409356Y-135642779D01*
X115405937Y-135665834D01*
X115400273Y-135688443D01*
X115392421Y-135710387D01*
X115382456Y-135731457D01*
X115370474Y-135751448D01*
X115356590Y-135770168D01*
X115340938Y-135787438D01*
X115323668Y-135803090D01*
X115304948Y-135816974D01*
X115284957Y-135828956D01*
X115263887Y-135838921D01*
X115241943Y-135846773D01*
X115219334Y-135852437D01*
X115196279Y-135855856D01*
X115173000Y-135857000D01*
X114598000Y-135857000D01*
X114574721Y-135855856D01*
X114551666Y-135852437D01*
X114529057Y-135846773D01*
X114507113Y-135838921D01*
X114486043Y-135828956D01*
X114466052Y-135816974D01*
X114447332Y-135803090D01*
X114430062Y-135787438D01*
X114414410Y-135770168D01*
X114400526Y-135751448D01*
X114388544Y-135731457D01*
X114378579Y-135710387D01*
X114370727Y-135688443D01*
X114365063Y-135665834D01*
X114361644Y-135642779D01*
X114360500Y-135619500D01*
X114360500Y-135144500D01*
X114361644Y-135121221D01*
X114365063Y-135098166D01*
X114370727Y-135075557D01*
X114378579Y-135053613D01*
X114388544Y-135032543D01*
X114400526Y-135012552D01*
X114414410Y-134993832D01*
X114430062Y-134976562D01*
X114447332Y-134960910D01*
X114466052Y-134947026D01*
X114486043Y-134935044D01*
X114507113Y-134925079D01*
X114529057Y-134917227D01*
X114551666Y-134911563D01*
X114574721Y-134908144D01*
X114598000Y-134907000D01*
X115173000Y-134907000D01*
X115196279Y-134908144D01*
G37*
G36*
X116946279Y-134908144D02*
G01*
X116969334Y-134911563D01*
X116991943Y-134917227D01*
X117013887Y-134925079D01*
X117034957Y-134935044D01*
X117054948Y-134947026D01*
X117073668Y-134960910D01*
X117090938Y-134976562D01*
X117106590Y-134993832D01*
X117120474Y-135012552D01*
X117132456Y-135032543D01*
X117142421Y-135053613D01*
X117150273Y-135075557D01*
X117155937Y-135098166D01*
X117159356Y-135121221D01*
X117160500Y-135144500D01*
X117160500Y-135619500D01*
X117159356Y-135642779D01*
X117155937Y-135665834D01*
X117150273Y-135688443D01*
X117142421Y-135710387D01*
X117132456Y-135731457D01*
X117120474Y-135751448D01*
X117106590Y-135770168D01*
X117090938Y-135787438D01*
X117073668Y-135803090D01*
X117054948Y-135816974D01*
X117034957Y-135828956D01*
X117013887Y-135838921D01*
X116991943Y-135846773D01*
X116969334Y-135852437D01*
X116946279Y-135855856D01*
X116923000Y-135857000D01*
X116348000Y-135857000D01*
X116324721Y-135855856D01*
X116301666Y-135852437D01*
X116279057Y-135846773D01*
X116257113Y-135838921D01*
X116236043Y-135828956D01*
X116216052Y-135816974D01*
X116197332Y-135803090D01*
X116180062Y-135787438D01*
X116164410Y-135770168D01*
X116150526Y-135751448D01*
X116138544Y-135731457D01*
X116128579Y-135710387D01*
X116120727Y-135688443D01*
X116115063Y-135665834D01*
X116111644Y-135642779D01*
X116110500Y-135619500D01*
X116110500Y-135144500D01*
X116111644Y-135121221D01*
X116115063Y-135098166D01*
X116120727Y-135075557D01*
X116128579Y-135053613D01*
X116138544Y-135032543D01*
X116150526Y-135012552D01*
X116164410Y-134993832D01*
X116180062Y-134976562D01*
X116197332Y-134960910D01*
X116216052Y-134947026D01*
X116236043Y-134935044D01*
X116257113Y-134925079D01*
X116279057Y-134917227D01*
X116301666Y-134911563D01*
X116324721Y-134908144D01*
X116348000Y-134907000D01*
X116923000Y-134907000D01*
X116946279Y-134908144D01*
G37*
D13*
X128890000Y-128082000D03*
X128890000Y-129982000D03*
X126380000Y-129982000D03*
X126380000Y-129032000D03*
X126380000Y-128082000D03*
D10*
G36*
X116946279Y-136749644D02*
G01*
X116969334Y-136753063D01*
X116991943Y-136758727D01*
X117013887Y-136766579D01*
X117034957Y-136776544D01*
X117054948Y-136788526D01*
X117073668Y-136802410D01*
X117090938Y-136818062D01*
X117106590Y-136835332D01*
X117120474Y-136854052D01*
X117132456Y-136874043D01*
X117142421Y-136895113D01*
X117150273Y-136917057D01*
X117155937Y-136939666D01*
X117159356Y-136962721D01*
X117160500Y-136986000D01*
X117160500Y-137461000D01*
X117159356Y-137484279D01*
X117155937Y-137507334D01*
X117150273Y-137529943D01*
X117142421Y-137551887D01*
X117132456Y-137572957D01*
X117120474Y-137592948D01*
X117106590Y-137611668D01*
X117090938Y-137628938D01*
X117073668Y-137644590D01*
X117054948Y-137658474D01*
X117034957Y-137670456D01*
X117013887Y-137680421D01*
X116991943Y-137688273D01*
X116969334Y-137693937D01*
X116946279Y-137697356D01*
X116923000Y-137698500D01*
X116348000Y-137698500D01*
X116324721Y-137697356D01*
X116301666Y-137693937D01*
X116279057Y-137688273D01*
X116257113Y-137680421D01*
X116236043Y-137670456D01*
X116216052Y-137658474D01*
X116197332Y-137644590D01*
X116180062Y-137628938D01*
X116164410Y-137611668D01*
X116150526Y-137592948D01*
X116138544Y-137572957D01*
X116128579Y-137551887D01*
X116120727Y-137529943D01*
X116115063Y-137507334D01*
X116111644Y-137484279D01*
X116110500Y-137461000D01*
X116110500Y-136986000D01*
X116111644Y-136962721D01*
X116115063Y-136939666D01*
X116120727Y-136917057D01*
X116128579Y-136895113D01*
X116138544Y-136874043D01*
X116150526Y-136854052D01*
X116164410Y-136835332D01*
X116180062Y-136818062D01*
X116197332Y-136802410D01*
X116216052Y-136788526D01*
X116236043Y-136776544D01*
X116257113Y-136766579D01*
X116279057Y-136758727D01*
X116301666Y-136753063D01*
X116324721Y-136749644D01*
X116348000Y-136748500D01*
X116923000Y-136748500D01*
X116946279Y-136749644D01*
G37*
G36*
X115196279Y-136749644D02*
G01*
X115219334Y-136753063D01*
X115241943Y-136758727D01*
X115263887Y-136766579D01*
X115284957Y-136776544D01*
X115304948Y-136788526D01*
X115323668Y-136802410D01*
X115340938Y-136818062D01*
X115356590Y-136835332D01*
X115370474Y-136854052D01*
X115382456Y-136874043D01*
X115392421Y-136895113D01*
X115400273Y-136917057D01*
X115405937Y-136939666D01*
X115409356Y-136962721D01*
X115410500Y-136986000D01*
X115410500Y-137461000D01*
X115409356Y-137484279D01*
X115405937Y-137507334D01*
X115400273Y-137529943D01*
X115392421Y-137551887D01*
X115382456Y-137572957D01*
X115370474Y-137592948D01*
X115356590Y-137611668D01*
X115340938Y-137628938D01*
X115323668Y-137644590D01*
X115304948Y-137658474D01*
X115284957Y-137670456D01*
X115263887Y-137680421D01*
X115241943Y-137688273D01*
X115219334Y-137693937D01*
X115196279Y-137697356D01*
X115173000Y-137698500D01*
X114598000Y-137698500D01*
X114574721Y-137697356D01*
X114551666Y-137693937D01*
X114529057Y-137688273D01*
X114507113Y-137680421D01*
X114486043Y-137670456D01*
X114466052Y-137658474D01*
X114447332Y-137644590D01*
X114430062Y-137628938D01*
X114414410Y-137611668D01*
X114400526Y-137592948D01*
X114388544Y-137572957D01*
X114378579Y-137551887D01*
X114370727Y-137529943D01*
X114365063Y-137507334D01*
X114361644Y-137484279D01*
X114360500Y-137461000D01*
X114360500Y-136986000D01*
X114361644Y-136962721D01*
X114365063Y-136939666D01*
X114370727Y-136917057D01*
X114378579Y-136895113D01*
X114388544Y-136874043D01*
X114400526Y-136854052D01*
X114414410Y-136835332D01*
X114430062Y-136818062D01*
X114447332Y-136802410D01*
X114466052Y-136788526D01*
X114486043Y-136776544D01*
X114507113Y-136766579D01*
X114529057Y-136758727D01*
X114551666Y-136753063D01*
X114574721Y-136749644D01*
X114598000Y-136748500D01*
X115173000Y-136748500D01*
X115196279Y-136749644D01*
G37*
G36*
X115196279Y-133066644D02*
G01*
X115219334Y-133070063D01*
X115241943Y-133075727D01*
X115263887Y-133083579D01*
X115284957Y-133093544D01*
X115304948Y-133105526D01*
X115323668Y-133119410D01*
X115340938Y-133135062D01*
X115356590Y-133152332D01*
X115370474Y-133171052D01*
X115382456Y-133191043D01*
X115392421Y-133212113D01*
X115400273Y-133234057D01*
X115405937Y-133256666D01*
X115409356Y-133279721D01*
X115410500Y-133303000D01*
X115410500Y-133778000D01*
X115409356Y-133801279D01*
X115405937Y-133824334D01*
X115400273Y-133846943D01*
X115392421Y-133868887D01*
X115382456Y-133889957D01*
X115370474Y-133909948D01*
X115356590Y-133928668D01*
X115340938Y-133945938D01*
X115323668Y-133961590D01*
X115304948Y-133975474D01*
X115284957Y-133987456D01*
X115263887Y-133997421D01*
X115241943Y-134005273D01*
X115219334Y-134010937D01*
X115196279Y-134014356D01*
X115173000Y-134015500D01*
X114598000Y-134015500D01*
X114574721Y-134014356D01*
X114551666Y-134010937D01*
X114529057Y-134005273D01*
X114507113Y-133997421D01*
X114486043Y-133987456D01*
X114466052Y-133975474D01*
X114447332Y-133961590D01*
X114430062Y-133945938D01*
X114414410Y-133928668D01*
X114400526Y-133909948D01*
X114388544Y-133889957D01*
X114378579Y-133868887D01*
X114370727Y-133846943D01*
X114365063Y-133824334D01*
X114361644Y-133801279D01*
X114360500Y-133778000D01*
X114360500Y-133303000D01*
X114361644Y-133279721D01*
X114365063Y-133256666D01*
X114370727Y-133234057D01*
X114378579Y-133212113D01*
X114388544Y-133191043D01*
X114400526Y-133171052D01*
X114414410Y-133152332D01*
X114430062Y-133135062D01*
X114447332Y-133119410D01*
X114466052Y-133105526D01*
X114486043Y-133093544D01*
X114507113Y-133083579D01*
X114529057Y-133075727D01*
X114551666Y-133070063D01*
X114574721Y-133066644D01*
X114598000Y-133065500D01*
X115173000Y-133065500D01*
X115196279Y-133066644D01*
G37*
G36*
X116946279Y-133066644D02*
G01*
X116969334Y-133070063D01*
X116991943Y-133075727D01*
X117013887Y-133083579D01*
X117034957Y-133093544D01*
X117054948Y-133105526D01*
X117073668Y-133119410D01*
X117090938Y-133135062D01*
X117106590Y-133152332D01*
X117120474Y-133171052D01*
X117132456Y-133191043D01*
X117142421Y-133212113D01*
X117150273Y-133234057D01*
X117155937Y-133256666D01*
X117159356Y-133279721D01*
X117160500Y-133303000D01*
X117160500Y-133778000D01*
X117159356Y-133801279D01*
X117155937Y-133824334D01*
X117150273Y-133846943D01*
X117142421Y-133868887D01*
X117132456Y-133889957D01*
X117120474Y-133909948D01*
X117106590Y-133928668D01*
X117090938Y-133945938D01*
X117073668Y-133961590D01*
X117054948Y-133975474D01*
X117034957Y-133987456D01*
X117013887Y-133997421D01*
X116991943Y-134005273D01*
X116969334Y-134010937D01*
X116946279Y-134014356D01*
X116923000Y-134015500D01*
X116348000Y-134015500D01*
X116324721Y-134014356D01*
X116301666Y-134010937D01*
X116279057Y-134005273D01*
X116257113Y-133997421D01*
X116236043Y-133987456D01*
X116216052Y-133975474D01*
X116197332Y-133961590D01*
X116180062Y-133945938D01*
X116164410Y-133928668D01*
X116150526Y-133909948D01*
X116138544Y-133889957D01*
X116128579Y-133868887D01*
X116120727Y-133846943D01*
X116115063Y-133824334D01*
X116111644Y-133801279D01*
X116110500Y-133778000D01*
X116110500Y-133303000D01*
X116111644Y-133279721D01*
X116115063Y-133256666D01*
X116120727Y-133234057D01*
X116128579Y-133212113D01*
X116138544Y-133191043D01*
X116150526Y-133171052D01*
X116164410Y-133152332D01*
X116180062Y-133135062D01*
X116197332Y-133119410D01*
X116216052Y-133105526D01*
X116236043Y-133093544D01*
X116257113Y-133083579D01*
X116279057Y-133075727D01*
X116301666Y-133070063D01*
X116324721Y-133066644D01*
X116348000Y-133065500D01*
X116923000Y-133065500D01*
X116946279Y-133066644D01*
G37*
G36*
X116946279Y-138591144D02*
G01*
X116969334Y-138594563D01*
X116991943Y-138600227D01*
X117013887Y-138608079D01*
X117034957Y-138618044D01*
X117054948Y-138630026D01*
X117073668Y-138643910D01*
X117090938Y-138659562D01*
X117106590Y-138676832D01*
X117120474Y-138695552D01*
X117132456Y-138715543D01*
X117142421Y-138736613D01*
X117150273Y-138758557D01*
X117155937Y-138781166D01*
X117159356Y-138804221D01*
X117160500Y-138827500D01*
X117160500Y-139302500D01*
X117159356Y-139325779D01*
X117155937Y-139348834D01*
X117150273Y-139371443D01*
X117142421Y-139393387D01*
X117132456Y-139414457D01*
X117120474Y-139434448D01*
X117106590Y-139453168D01*
X117090938Y-139470438D01*
X117073668Y-139486090D01*
X117054948Y-139499974D01*
X117034957Y-139511956D01*
X117013887Y-139521921D01*
X116991943Y-139529773D01*
X116969334Y-139535437D01*
X116946279Y-139538856D01*
X116923000Y-139540000D01*
X116348000Y-139540000D01*
X116324721Y-139538856D01*
X116301666Y-139535437D01*
X116279057Y-139529773D01*
X116257113Y-139521921D01*
X116236043Y-139511956D01*
X116216052Y-139499974D01*
X116197332Y-139486090D01*
X116180062Y-139470438D01*
X116164410Y-139453168D01*
X116150526Y-139434448D01*
X116138544Y-139414457D01*
X116128579Y-139393387D01*
X116120727Y-139371443D01*
X116115063Y-139348834D01*
X116111644Y-139325779D01*
X116110500Y-139302500D01*
X116110500Y-138827500D01*
X116111644Y-138804221D01*
X116115063Y-138781166D01*
X116120727Y-138758557D01*
X116128579Y-138736613D01*
X116138544Y-138715543D01*
X116150526Y-138695552D01*
X116164410Y-138676832D01*
X116180062Y-138659562D01*
X116197332Y-138643910D01*
X116216052Y-138630026D01*
X116236043Y-138618044D01*
X116257113Y-138608079D01*
X116279057Y-138600227D01*
X116301666Y-138594563D01*
X116324721Y-138591144D01*
X116348000Y-138590000D01*
X116923000Y-138590000D01*
X116946279Y-138591144D01*
G37*
G36*
X115196279Y-138591144D02*
G01*
X115219334Y-138594563D01*
X115241943Y-138600227D01*
X115263887Y-138608079D01*
X115284957Y-138618044D01*
X115304948Y-138630026D01*
X115323668Y-138643910D01*
X115340938Y-138659562D01*
X115356590Y-138676832D01*
X115370474Y-138695552D01*
X115382456Y-138715543D01*
X115392421Y-138736613D01*
X115400273Y-138758557D01*
X115405937Y-138781166D01*
X115409356Y-138804221D01*
X115410500Y-138827500D01*
X115410500Y-139302500D01*
X115409356Y-139325779D01*
X115405937Y-139348834D01*
X115400273Y-139371443D01*
X115392421Y-139393387D01*
X115382456Y-139414457D01*
X115370474Y-139434448D01*
X115356590Y-139453168D01*
X115340938Y-139470438D01*
X115323668Y-139486090D01*
X115304948Y-139499974D01*
X115284957Y-139511956D01*
X115263887Y-139521921D01*
X115241943Y-139529773D01*
X115219334Y-139535437D01*
X115196279Y-139538856D01*
X115173000Y-139540000D01*
X114598000Y-139540000D01*
X114574721Y-139538856D01*
X114551666Y-139535437D01*
X114529057Y-139529773D01*
X114507113Y-139521921D01*
X114486043Y-139511956D01*
X114466052Y-139499974D01*
X114447332Y-139486090D01*
X114430062Y-139470438D01*
X114414410Y-139453168D01*
X114400526Y-139434448D01*
X114388544Y-139414457D01*
X114378579Y-139393387D01*
X114370727Y-139371443D01*
X114365063Y-139348834D01*
X114361644Y-139325779D01*
X114360500Y-139302500D01*
X114360500Y-138827500D01*
X114361644Y-138804221D01*
X114365063Y-138781166D01*
X114370727Y-138758557D01*
X114378579Y-138736613D01*
X114388544Y-138715543D01*
X114400526Y-138695552D01*
X114414410Y-138676832D01*
X114430062Y-138659562D01*
X114447332Y-138643910D01*
X114466052Y-138630026D01*
X114486043Y-138618044D01*
X114507113Y-138608079D01*
X114529057Y-138600227D01*
X114551666Y-138594563D01*
X114574721Y-138591144D01*
X114598000Y-138590000D01*
X115173000Y-138590000D01*
X115196279Y-138591144D01*
G37*
G36*
X133974504Y-121429204D02*
G01*
X133998773Y-121432804D01*
X134022571Y-121438765D01*
X134045671Y-121447030D01*
X134067849Y-121457520D01*
X134088893Y-121470133D01*
X134108598Y-121484747D01*
X134126777Y-121501223D01*
X134143253Y-121519402D01*
X134157867Y-121539107D01*
X134170480Y-121560151D01*
X134180970Y-121582329D01*
X134189235Y-121605429D01*
X134195196Y-121629227D01*
X134198796Y-121653496D01*
X134200000Y-121678000D01*
X134200000Y-123178000D01*
X134198796Y-123202504D01*
X134195196Y-123226773D01*
X134189235Y-123250571D01*
X134180970Y-123273671D01*
X134170480Y-123295849D01*
X134157867Y-123316893D01*
X134143253Y-123336598D01*
X134126777Y-123354777D01*
X134108598Y-123371253D01*
X134088893Y-123385867D01*
X134067849Y-123398480D01*
X134045671Y-123408970D01*
X134022571Y-123417235D01*
X133998773Y-123423196D01*
X133974504Y-123426796D01*
X133950000Y-123428000D01*
X132750000Y-123428000D01*
X132725496Y-123426796D01*
X132701227Y-123423196D01*
X132677429Y-123417235D01*
X132654329Y-123408970D01*
X132632151Y-123398480D01*
X132611107Y-123385867D01*
X132591402Y-123371253D01*
X132573223Y-123354777D01*
X132556747Y-123336598D01*
X132542133Y-123316893D01*
X132529520Y-123295849D01*
X132519030Y-123273671D01*
X132510765Y-123250571D01*
X132504804Y-123226773D01*
X132501204Y-123202504D01*
X132500000Y-123178000D01*
X132500000Y-121678000D01*
X132501204Y-121653496D01*
X132504804Y-121629227D01*
X132510765Y-121605429D01*
X132519030Y-121582329D01*
X132529520Y-121560151D01*
X132542133Y-121539107D01*
X132556747Y-121519402D01*
X132573223Y-121501223D01*
X132591402Y-121484747D01*
X132611107Y-121470133D01*
X132632151Y-121457520D01*
X132654329Y-121447030D01*
X132677429Y-121438765D01*
X132701227Y-121432804D01*
X132725496Y-121429204D01*
X132750000Y-121428000D01*
X133950000Y-121428000D01*
X133974504Y-121429204D01*
G37*
D14*
X135850000Y-122428000D03*
X108799000Y-122491500D03*
D10*
G36*
X106923504Y-121492704D02*
G01*
X106947773Y-121496304D01*
X106971571Y-121502265D01*
X106994671Y-121510530D01*
X107016849Y-121521020D01*
X107037893Y-121533633D01*
X107057598Y-121548247D01*
X107075777Y-121564723D01*
X107092253Y-121582902D01*
X107106867Y-121602607D01*
X107119480Y-121623651D01*
X107129970Y-121645829D01*
X107138235Y-121668929D01*
X107144196Y-121692727D01*
X107147796Y-121716996D01*
X107149000Y-121741500D01*
X107149000Y-123241500D01*
X107147796Y-123266004D01*
X107144196Y-123290273D01*
X107138235Y-123314071D01*
X107129970Y-123337171D01*
X107119480Y-123359349D01*
X107106867Y-123380393D01*
X107092253Y-123400098D01*
X107075777Y-123418277D01*
X107057598Y-123434753D01*
X107037893Y-123449367D01*
X107016849Y-123461980D01*
X106994671Y-123472470D01*
X106971571Y-123480735D01*
X106947773Y-123486696D01*
X106923504Y-123490296D01*
X106899000Y-123491500D01*
X105699000Y-123491500D01*
X105674496Y-123490296D01*
X105650227Y-123486696D01*
X105626429Y-123480735D01*
X105603329Y-123472470D01*
X105581151Y-123461980D01*
X105560107Y-123449367D01*
X105540402Y-123434753D01*
X105522223Y-123418277D01*
X105505747Y-123400098D01*
X105491133Y-123380393D01*
X105478520Y-123359349D01*
X105468030Y-123337171D01*
X105459765Y-123314071D01*
X105453804Y-123290273D01*
X105450204Y-123266004D01*
X105449000Y-123241500D01*
X105449000Y-121741500D01*
X105450204Y-121716996D01*
X105453804Y-121692727D01*
X105459765Y-121668929D01*
X105468030Y-121645829D01*
X105478520Y-121623651D01*
X105491133Y-121602607D01*
X105505747Y-121582902D01*
X105522223Y-121564723D01*
X105540402Y-121548247D01*
X105560107Y-121533633D01*
X105581151Y-121521020D01*
X105603329Y-121510530D01*
X105626429Y-121502265D01*
X105650227Y-121496304D01*
X105674496Y-121492704D01*
X105699000Y-121491500D01*
X106899000Y-121491500D01*
X106923504Y-121492704D01*
G37*
D14*
X147661000Y-128778000D03*
D10*
G36*
X145785504Y-127779204D02*
G01*
X145809773Y-127782804D01*
X145833571Y-127788765D01*
X145856671Y-127797030D01*
X145878849Y-127807520D01*
X145899893Y-127820133D01*
X145919598Y-127834747D01*
X145937777Y-127851223D01*
X145954253Y-127869402D01*
X145968867Y-127889107D01*
X145981480Y-127910151D01*
X145991970Y-127932329D01*
X146000235Y-127955429D01*
X146006196Y-127979227D01*
X146009796Y-128003496D01*
X146011000Y-128028000D01*
X146011000Y-129528000D01*
X146009796Y-129552504D01*
X146006196Y-129576773D01*
X146000235Y-129600571D01*
X145991970Y-129623671D01*
X145981480Y-129645849D01*
X145968867Y-129666893D01*
X145954253Y-129686598D01*
X145937777Y-129704777D01*
X145919598Y-129721253D01*
X145899893Y-129735867D01*
X145878849Y-129748480D01*
X145856671Y-129758970D01*
X145833571Y-129767235D01*
X145809773Y-129773196D01*
X145785504Y-129776796D01*
X145761000Y-129778000D01*
X144561000Y-129778000D01*
X144536496Y-129776796D01*
X144512227Y-129773196D01*
X144488429Y-129767235D01*
X144465329Y-129758970D01*
X144443151Y-129748480D01*
X144422107Y-129735867D01*
X144402402Y-129721253D01*
X144384223Y-129704777D01*
X144367747Y-129686598D01*
X144353133Y-129666893D01*
X144340520Y-129645849D01*
X144330030Y-129623671D01*
X144321765Y-129600571D01*
X144315804Y-129576773D01*
X144312204Y-129552504D01*
X144311000Y-129528000D01*
X144311000Y-128028000D01*
X144312204Y-128003496D01*
X144315804Y-127979227D01*
X144321765Y-127955429D01*
X144330030Y-127932329D01*
X144340520Y-127910151D01*
X144353133Y-127889107D01*
X144367747Y-127869402D01*
X144384223Y-127851223D01*
X144402402Y-127834747D01*
X144422107Y-127820133D01*
X144443151Y-127807520D01*
X144465329Y-127797030D01*
X144488429Y-127788765D01*
X144512227Y-127782804D01*
X144536496Y-127779204D01*
X144561000Y-127778000D01*
X145761000Y-127778000D01*
X145785504Y-127779204D01*
G37*
D14*
X108799000Y-128778000D03*
D10*
G36*
X106923504Y-127779204D02*
G01*
X106947773Y-127782804D01*
X106971571Y-127788765D01*
X106994671Y-127797030D01*
X107016849Y-127807520D01*
X107037893Y-127820133D01*
X107057598Y-127834747D01*
X107075777Y-127851223D01*
X107092253Y-127869402D01*
X107106867Y-127889107D01*
X107119480Y-127910151D01*
X107129970Y-127932329D01*
X107138235Y-127955429D01*
X107144196Y-127979227D01*
X107147796Y-128003496D01*
X107149000Y-128028000D01*
X107149000Y-129528000D01*
X107147796Y-129552504D01*
X107144196Y-129576773D01*
X107138235Y-129600571D01*
X107129970Y-129623671D01*
X107119480Y-129645849D01*
X107106867Y-129666893D01*
X107092253Y-129686598D01*
X107075777Y-129704777D01*
X107057598Y-129721253D01*
X107037893Y-129735867D01*
X107016849Y-129748480D01*
X106994671Y-129758970D01*
X106971571Y-129767235D01*
X106947773Y-129773196D01*
X106923504Y-129776796D01*
X106899000Y-129778000D01*
X105699000Y-129778000D01*
X105674496Y-129776796D01*
X105650227Y-129773196D01*
X105626429Y-129767235D01*
X105603329Y-129758970D01*
X105581151Y-129748480D01*
X105560107Y-129735867D01*
X105540402Y-129721253D01*
X105522223Y-129704777D01*
X105505747Y-129686598D01*
X105491133Y-129666893D01*
X105478520Y-129645849D01*
X105468030Y-129623671D01*
X105459765Y-129600571D01*
X105453804Y-129576773D01*
X105450204Y-129552504D01*
X105449000Y-129528000D01*
X105449000Y-128028000D01*
X105450204Y-128003496D01*
X105453804Y-127979227D01*
X105459765Y-127955429D01*
X105468030Y-127932329D01*
X105478520Y-127910151D01*
X105491133Y-127889107D01*
X105505747Y-127869402D01*
X105522223Y-127851223D01*
X105540402Y-127834747D01*
X105560107Y-127820133D01*
X105581151Y-127807520D01*
X105603329Y-127797030D01*
X105626429Y-127788765D01*
X105650227Y-127782804D01*
X105674496Y-127779204D01*
X105699000Y-127778000D01*
X106899000Y-127778000D01*
X106923504Y-127779204D01*
G37*
D14*
X147661000Y-122428000D03*
D10*
G36*
X145785504Y-121429204D02*
G01*
X145809773Y-121432804D01*
X145833571Y-121438765D01*
X145856671Y-121447030D01*
X145878849Y-121457520D01*
X145899893Y-121470133D01*
X145919598Y-121484747D01*
X145937777Y-121501223D01*
X145954253Y-121519402D01*
X145968867Y-121539107D01*
X145981480Y-121560151D01*
X145991970Y-121582329D01*
X146000235Y-121605429D01*
X146006196Y-121629227D01*
X146009796Y-121653496D01*
X146011000Y-121678000D01*
X146011000Y-123178000D01*
X146009796Y-123202504D01*
X146006196Y-123226773D01*
X146000235Y-123250571D01*
X145991970Y-123273671D01*
X145981480Y-123295849D01*
X145968867Y-123316893D01*
X145954253Y-123336598D01*
X145937777Y-123354777D01*
X145919598Y-123371253D01*
X145899893Y-123385867D01*
X145878849Y-123398480D01*
X145856671Y-123408970D01*
X145833571Y-123417235D01*
X145809773Y-123423196D01*
X145785504Y-123426796D01*
X145761000Y-123428000D01*
X144561000Y-123428000D01*
X144536496Y-123426796D01*
X144512227Y-123423196D01*
X144488429Y-123417235D01*
X144465329Y-123408970D01*
X144443151Y-123398480D01*
X144422107Y-123385867D01*
X144402402Y-123371253D01*
X144384223Y-123354777D01*
X144367747Y-123336598D01*
X144353133Y-123316893D01*
X144340520Y-123295849D01*
X144330030Y-123273671D01*
X144321765Y-123250571D01*
X144315804Y-123226773D01*
X144312204Y-123202504D01*
X144311000Y-123178000D01*
X144311000Y-121678000D01*
X144312204Y-121653496D01*
X144315804Y-121629227D01*
X144321765Y-121605429D01*
X144330030Y-121582329D01*
X144340520Y-121560151D01*
X144353133Y-121539107D01*
X144367747Y-121519402D01*
X144384223Y-121501223D01*
X144402402Y-121484747D01*
X144422107Y-121470133D01*
X144443151Y-121457520D01*
X144465329Y-121447030D01*
X144488429Y-121438765D01*
X144512227Y-121432804D01*
X144536496Y-121429204D01*
X144561000Y-121428000D01*
X145761000Y-121428000D01*
X145785504Y-121429204D01*
G37*
D15*
X123681500Y-122491500D03*
X121181500Y-122491500D03*
D10*
G36*
X119306004Y-121517704D02*
G01*
X119330273Y-121521304D01*
X119354071Y-121527265D01*
X119377171Y-121535530D01*
X119399349Y-121546020D01*
X119420393Y-121558633D01*
X119440098Y-121573247D01*
X119458277Y-121589723D01*
X119474753Y-121607902D01*
X119489367Y-121627607D01*
X119501980Y-121648651D01*
X119512470Y-121670829D01*
X119520735Y-121693929D01*
X119526696Y-121717727D01*
X119530296Y-121741996D01*
X119531500Y-121766500D01*
X119531500Y-123216500D01*
X119530296Y-123241004D01*
X119526696Y-123265273D01*
X119520735Y-123289071D01*
X119512470Y-123312171D01*
X119501980Y-123334349D01*
X119489367Y-123355393D01*
X119474753Y-123375098D01*
X119458277Y-123393277D01*
X119440098Y-123409753D01*
X119420393Y-123424367D01*
X119399349Y-123436980D01*
X119377171Y-123447470D01*
X119354071Y-123455735D01*
X119330273Y-123461696D01*
X119306004Y-123465296D01*
X119281500Y-123466500D01*
X118081500Y-123466500D01*
X118056996Y-123465296D01*
X118032727Y-123461696D01*
X118008929Y-123455735D01*
X117985829Y-123447470D01*
X117963651Y-123436980D01*
X117942607Y-123424367D01*
X117922902Y-123409753D01*
X117904723Y-123393277D01*
X117888247Y-123375098D01*
X117873633Y-123355393D01*
X117861020Y-123334349D01*
X117850530Y-123312171D01*
X117842265Y-123289071D01*
X117836304Y-123265273D01*
X117832704Y-123241004D01*
X117831500Y-123216500D01*
X117831500Y-121766500D01*
X117832704Y-121741996D01*
X117836304Y-121717727D01*
X117842265Y-121693929D01*
X117850530Y-121670829D01*
X117861020Y-121648651D01*
X117873633Y-121627607D01*
X117888247Y-121607902D01*
X117904723Y-121589723D01*
X117922902Y-121573247D01*
X117942607Y-121558633D01*
X117963651Y-121546020D01*
X117985829Y-121535530D01*
X118008929Y-121527265D01*
X118032727Y-121521304D01*
X118056996Y-121517704D01*
X118081500Y-121516500D01*
X119281500Y-121516500D01*
X119306004Y-121517704D01*
G37*
D16*
X122631200Y-128968500D03*
X120446800Y-129908300D03*
X120446800Y-128028700D03*
D17*
X138468100Y-157022800D03*
X138468100Y-155143200D03*
X141058900Y-155143200D03*
X141058900Y-156083000D03*
X141058900Y-157022800D03*
D18*
X129304000Y-155972000D03*
X129304000Y-156472000D03*
X129304000Y-156972000D03*
X129304000Y-157472000D03*
X129304000Y-157972000D03*
X125204000Y-157972000D03*
X125204000Y-157472000D03*
X125204000Y-156972000D03*
X125204000Y-156472000D03*
X125204000Y-155972000D03*
D12*
X104096000Y-160059500D03*
X111296000Y-160059500D03*
X104096000Y-157059500D03*
X111296000Y-157059500D03*
D10*
G36*
X134753779Y-127633144D02*
G01*
X134776834Y-127636563D01*
X134799443Y-127642227D01*
X134821387Y-127650079D01*
X134842457Y-127660044D01*
X134862448Y-127672026D01*
X134881168Y-127685910D01*
X134898438Y-127701562D01*
X134914090Y-127718832D01*
X134927974Y-127737552D01*
X134939956Y-127757543D01*
X134949921Y-127778613D01*
X134957773Y-127800557D01*
X134963437Y-127823166D01*
X134966856Y-127846221D01*
X134968000Y-127869500D01*
X134968000Y-128444500D01*
X134966856Y-128467779D01*
X134963437Y-128490834D01*
X134957773Y-128513443D01*
X134949921Y-128535387D01*
X134939956Y-128556457D01*
X134927974Y-128576448D01*
X134914090Y-128595168D01*
X134898438Y-128612438D01*
X134881168Y-128628090D01*
X134862448Y-128641974D01*
X134842457Y-128653956D01*
X134821387Y-128663921D01*
X134799443Y-128671773D01*
X134776834Y-128677437D01*
X134753779Y-128680856D01*
X134730500Y-128682000D01*
X134255500Y-128682000D01*
X134232221Y-128680856D01*
X134209166Y-128677437D01*
X134186557Y-128671773D01*
X134164613Y-128663921D01*
X134143543Y-128653956D01*
X134123552Y-128641974D01*
X134104832Y-128628090D01*
X134087562Y-128612438D01*
X134071910Y-128595168D01*
X134058026Y-128576448D01*
X134046044Y-128556457D01*
X134036079Y-128535387D01*
X134028227Y-128513443D01*
X134022563Y-128490834D01*
X134019144Y-128467779D01*
X134018000Y-128444500D01*
X134018000Y-127869500D01*
X134019144Y-127846221D01*
X134022563Y-127823166D01*
X134028227Y-127800557D01*
X134036079Y-127778613D01*
X134046044Y-127757543D01*
X134058026Y-127737552D01*
X134071910Y-127718832D01*
X134087562Y-127701562D01*
X134104832Y-127685910D01*
X134123552Y-127672026D01*
X134143543Y-127660044D01*
X134164613Y-127650079D01*
X134186557Y-127642227D01*
X134209166Y-127636563D01*
X134232221Y-127633144D01*
X134255500Y-127632000D01*
X134730500Y-127632000D01*
X134753779Y-127633144D01*
G37*
G36*
X134753779Y-129383144D02*
G01*
X134776834Y-129386563D01*
X134799443Y-129392227D01*
X134821387Y-129400079D01*
X134842457Y-129410044D01*
X134862448Y-129422026D01*
X134881168Y-129435910D01*
X134898438Y-129451562D01*
X134914090Y-129468832D01*
X134927974Y-129487552D01*
X134939956Y-129507543D01*
X134949921Y-129528613D01*
X134957773Y-129550557D01*
X134963437Y-129573166D01*
X134966856Y-129596221D01*
X134968000Y-129619500D01*
X134968000Y-130194500D01*
X134966856Y-130217779D01*
X134963437Y-130240834D01*
X134957773Y-130263443D01*
X134949921Y-130285387D01*
X134939956Y-130306457D01*
X134927974Y-130326448D01*
X134914090Y-130345168D01*
X134898438Y-130362438D01*
X134881168Y-130378090D01*
X134862448Y-130391974D01*
X134842457Y-130403956D01*
X134821387Y-130413921D01*
X134799443Y-130421773D01*
X134776834Y-130427437D01*
X134753779Y-130430856D01*
X134730500Y-130432000D01*
X134255500Y-130432000D01*
X134232221Y-130430856D01*
X134209166Y-130427437D01*
X134186557Y-130421773D01*
X134164613Y-130413921D01*
X134143543Y-130403956D01*
X134123552Y-130391974D01*
X134104832Y-130378090D01*
X134087562Y-130362438D01*
X134071910Y-130345168D01*
X134058026Y-130326448D01*
X134046044Y-130306457D01*
X134036079Y-130285387D01*
X134028227Y-130263443D01*
X134022563Y-130240834D01*
X134019144Y-130217779D01*
X134018000Y-130194500D01*
X134018000Y-129619500D01*
X134019144Y-129596221D01*
X134022563Y-129573166D01*
X134028227Y-129550557D01*
X134036079Y-129528613D01*
X134046044Y-129507543D01*
X134058026Y-129487552D01*
X134071910Y-129468832D01*
X134087562Y-129451562D01*
X134104832Y-129435910D01*
X134123552Y-129422026D01*
X134143543Y-129410044D01*
X134164613Y-129400079D01*
X134186557Y-129392227D01*
X134209166Y-129386563D01*
X134232221Y-129383144D01*
X134255500Y-129382000D01*
X134730500Y-129382000D01*
X134753779Y-129383144D01*
G37*
G36*
X132975779Y-129383144D02*
G01*
X132998834Y-129386563D01*
X133021443Y-129392227D01*
X133043387Y-129400079D01*
X133064457Y-129410044D01*
X133084448Y-129422026D01*
X133103168Y-129435910D01*
X133120438Y-129451562D01*
X133136090Y-129468832D01*
X133149974Y-129487552D01*
X133161956Y-129507543D01*
X133171921Y-129528613D01*
X133179773Y-129550557D01*
X133185437Y-129573166D01*
X133188856Y-129596221D01*
X133190000Y-129619500D01*
X133190000Y-130194500D01*
X133188856Y-130217779D01*
X133185437Y-130240834D01*
X133179773Y-130263443D01*
X133171921Y-130285387D01*
X133161956Y-130306457D01*
X133149974Y-130326448D01*
X133136090Y-130345168D01*
X133120438Y-130362438D01*
X133103168Y-130378090D01*
X133084448Y-130391974D01*
X133064457Y-130403956D01*
X133043387Y-130413921D01*
X133021443Y-130421773D01*
X132998834Y-130427437D01*
X132975779Y-130430856D01*
X132952500Y-130432000D01*
X132477500Y-130432000D01*
X132454221Y-130430856D01*
X132431166Y-130427437D01*
X132408557Y-130421773D01*
X132386613Y-130413921D01*
X132365543Y-130403956D01*
X132345552Y-130391974D01*
X132326832Y-130378090D01*
X132309562Y-130362438D01*
X132293910Y-130345168D01*
X132280026Y-130326448D01*
X132268044Y-130306457D01*
X132258079Y-130285387D01*
X132250227Y-130263443D01*
X132244563Y-130240834D01*
X132241144Y-130217779D01*
X132240000Y-130194500D01*
X132240000Y-129619500D01*
X132241144Y-129596221D01*
X132244563Y-129573166D01*
X132250227Y-129550557D01*
X132258079Y-129528613D01*
X132268044Y-129507543D01*
X132280026Y-129487552D01*
X132293910Y-129468832D01*
X132309562Y-129451562D01*
X132326832Y-129435910D01*
X132345552Y-129422026D01*
X132365543Y-129410044D01*
X132386613Y-129400079D01*
X132408557Y-129392227D01*
X132431166Y-129386563D01*
X132454221Y-129383144D01*
X132477500Y-129382000D01*
X132952500Y-129382000D01*
X132975779Y-129383144D01*
G37*
G36*
X132975779Y-127633144D02*
G01*
X132998834Y-127636563D01*
X133021443Y-127642227D01*
X133043387Y-127650079D01*
X133064457Y-127660044D01*
X133084448Y-127672026D01*
X133103168Y-127685910D01*
X133120438Y-127701562D01*
X133136090Y-127718832D01*
X133149974Y-127737552D01*
X133161956Y-127757543D01*
X133171921Y-127778613D01*
X133179773Y-127800557D01*
X133185437Y-127823166D01*
X133188856Y-127846221D01*
X133190000Y-127869500D01*
X133190000Y-128444500D01*
X133188856Y-128467779D01*
X133185437Y-128490834D01*
X133179773Y-128513443D01*
X133171921Y-128535387D01*
X133161956Y-128556457D01*
X133149974Y-128576448D01*
X133136090Y-128595168D01*
X133120438Y-128612438D01*
X133103168Y-128628090D01*
X133084448Y-128641974D01*
X133064457Y-128653956D01*
X133043387Y-128663921D01*
X133021443Y-128671773D01*
X132998834Y-128677437D01*
X132975779Y-128680856D01*
X132952500Y-128682000D01*
X132477500Y-128682000D01*
X132454221Y-128680856D01*
X132431166Y-128677437D01*
X132408557Y-128671773D01*
X132386613Y-128663921D01*
X132365543Y-128653956D01*
X132345552Y-128641974D01*
X132326832Y-128628090D01*
X132309562Y-128612438D01*
X132293910Y-128595168D01*
X132280026Y-128576448D01*
X132268044Y-128556457D01*
X132258079Y-128535387D01*
X132250227Y-128513443D01*
X132244563Y-128490834D01*
X132241144Y-128467779D01*
X132240000Y-128444500D01*
X132240000Y-127869500D01*
X132241144Y-127846221D01*
X132244563Y-127823166D01*
X132250227Y-127800557D01*
X132258079Y-127778613D01*
X132268044Y-127757543D01*
X132280026Y-127737552D01*
X132293910Y-127718832D01*
X132309562Y-127701562D01*
X132326832Y-127685910D01*
X132345552Y-127672026D01*
X132365543Y-127660044D01*
X132386613Y-127650079D01*
X132408557Y-127642227D01*
X132431166Y-127636563D01*
X132454221Y-127633144D01*
X132477500Y-127632000D01*
X132952500Y-127632000D01*
X132975779Y-127633144D01*
G37*
G36*
X117581279Y-156498144D02*
G01*
X117604334Y-156501563D01*
X117626943Y-156507227D01*
X117648887Y-156515079D01*
X117669957Y-156525044D01*
X117689948Y-156537026D01*
X117708668Y-156550910D01*
X117725938Y-156566562D01*
X117741590Y-156583832D01*
X117755474Y-156602552D01*
X117767456Y-156622543D01*
X117777421Y-156643613D01*
X117785273Y-156665557D01*
X117790937Y-156688166D01*
X117794356Y-156711221D01*
X117795500Y-156734500D01*
X117795500Y-157209500D01*
X117794356Y-157232779D01*
X117790937Y-157255834D01*
X117785273Y-157278443D01*
X117777421Y-157300387D01*
X117767456Y-157321457D01*
X117755474Y-157341448D01*
X117741590Y-157360168D01*
X117725938Y-157377438D01*
X117708668Y-157393090D01*
X117689948Y-157406974D01*
X117669957Y-157418956D01*
X117648887Y-157428921D01*
X117626943Y-157436773D01*
X117604334Y-157442437D01*
X117581279Y-157445856D01*
X117558000Y-157447000D01*
X116983000Y-157447000D01*
X116959721Y-157445856D01*
X116936666Y-157442437D01*
X116914057Y-157436773D01*
X116892113Y-157428921D01*
X116871043Y-157418956D01*
X116851052Y-157406974D01*
X116832332Y-157393090D01*
X116815062Y-157377438D01*
X116799410Y-157360168D01*
X116785526Y-157341448D01*
X116773544Y-157321457D01*
X116763579Y-157300387D01*
X116755727Y-157278443D01*
X116750063Y-157255834D01*
X116746644Y-157232779D01*
X116745500Y-157209500D01*
X116745500Y-156734500D01*
X116746644Y-156711221D01*
X116750063Y-156688166D01*
X116755727Y-156665557D01*
X116763579Y-156643613D01*
X116773544Y-156622543D01*
X116785526Y-156602552D01*
X116799410Y-156583832D01*
X116815062Y-156566562D01*
X116832332Y-156550910D01*
X116851052Y-156537026D01*
X116871043Y-156525044D01*
X116892113Y-156515079D01*
X116914057Y-156507227D01*
X116936666Y-156501563D01*
X116959721Y-156498144D01*
X116983000Y-156497000D01*
X117558000Y-156497000D01*
X117581279Y-156498144D01*
G37*
G36*
X115831279Y-156498144D02*
G01*
X115854334Y-156501563D01*
X115876943Y-156507227D01*
X115898887Y-156515079D01*
X115919957Y-156525044D01*
X115939948Y-156537026D01*
X115958668Y-156550910D01*
X115975938Y-156566562D01*
X115991590Y-156583832D01*
X116005474Y-156602552D01*
X116017456Y-156622543D01*
X116027421Y-156643613D01*
X116035273Y-156665557D01*
X116040937Y-156688166D01*
X116044356Y-156711221D01*
X116045500Y-156734500D01*
X116045500Y-157209500D01*
X116044356Y-157232779D01*
X116040937Y-157255834D01*
X116035273Y-157278443D01*
X116027421Y-157300387D01*
X116017456Y-157321457D01*
X116005474Y-157341448D01*
X115991590Y-157360168D01*
X115975938Y-157377438D01*
X115958668Y-157393090D01*
X115939948Y-157406974D01*
X115919957Y-157418956D01*
X115898887Y-157428921D01*
X115876943Y-157436773D01*
X115854334Y-157442437D01*
X115831279Y-157445856D01*
X115808000Y-157447000D01*
X115233000Y-157447000D01*
X115209721Y-157445856D01*
X115186666Y-157442437D01*
X115164057Y-157436773D01*
X115142113Y-157428921D01*
X115121043Y-157418956D01*
X115101052Y-157406974D01*
X115082332Y-157393090D01*
X115065062Y-157377438D01*
X115049410Y-157360168D01*
X115035526Y-157341448D01*
X115023544Y-157321457D01*
X115013579Y-157300387D01*
X115005727Y-157278443D01*
X115000063Y-157255834D01*
X114996644Y-157232779D01*
X114995500Y-157209500D01*
X114995500Y-156734500D01*
X114996644Y-156711221D01*
X115000063Y-156688166D01*
X115005727Y-156665557D01*
X115013579Y-156643613D01*
X115023544Y-156622543D01*
X115035526Y-156602552D01*
X115049410Y-156583832D01*
X115065062Y-156566562D01*
X115082332Y-156550910D01*
X115101052Y-156537026D01*
X115121043Y-156525044D01*
X115142113Y-156515079D01*
X115164057Y-156507227D01*
X115186666Y-156501563D01*
X115209721Y-156498144D01*
X115233000Y-156497000D01*
X115808000Y-156497000D01*
X115831279Y-156498144D01*
G37*
G36*
X150692279Y-139063144D02*
G01*
X150715334Y-139066563D01*
X150737943Y-139072227D01*
X150759887Y-139080079D01*
X150780957Y-139090044D01*
X150800948Y-139102026D01*
X150819668Y-139115910D01*
X150836938Y-139131562D01*
X150852590Y-139148832D01*
X150866474Y-139167552D01*
X150878456Y-139187543D01*
X150888421Y-139208613D01*
X150896273Y-139230557D01*
X150901937Y-139253166D01*
X150905356Y-139276221D01*
X150906500Y-139299500D01*
X150906500Y-139874500D01*
X150905356Y-139897779D01*
X150901937Y-139920834D01*
X150896273Y-139943443D01*
X150888421Y-139965387D01*
X150878456Y-139986457D01*
X150866474Y-140006448D01*
X150852590Y-140025168D01*
X150836938Y-140042438D01*
X150819668Y-140058090D01*
X150800948Y-140071974D01*
X150780957Y-140083956D01*
X150759887Y-140093921D01*
X150737943Y-140101773D01*
X150715334Y-140107437D01*
X150692279Y-140110856D01*
X150669000Y-140112000D01*
X150194000Y-140112000D01*
X150170721Y-140110856D01*
X150147666Y-140107437D01*
X150125057Y-140101773D01*
X150103113Y-140093921D01*
X150082043Y-140083956D01*
X150062052Y-140071974D01*
X150043332Y-140058090D01*
X150026062Y-140042438D01*
X150010410Y-140025168D01*
X149996526Y-140006448D01*
X149984544Y-139986457D01*
X149974579Y-139965387D01*
X149966727Y-139943443D01*
X149961063Y-139920834D01*
X149957644Y-139897779D01*
X149956500Y-139874500D01*
X149956500Y-139299500D01*
X149957644Y-139276221D01*
X149961063Y-139253166D01*
X149966727Y-139230557D01*
X149974579Y-139208613D01*
X149984544Y-139187543D01*
X149996526Y-139167552D01*
X150010410Y-139148832D01*
X150026062Y-139131562D01*
X150043332Y-139115910D01*
X150062052Y-139102026D01*
X150082043Y-139090044D01*
X150103113Y-139080079D01*
X150125057Y-139072227D01*
X150147666Y-139066563D01*
X150170721Y-139063144D01*
X150194000Y-139062000D01*
X150669000Y-139062000D01*
X150692279Y-139063144D01*
G37*
G36*
X150692279Y-140813144D02*
G01*
X150715334Y-140816563D01*
X150737943Y-140822227D01*
X150759887Y-140830079D01*
X150780957Y-140840044D01*
X150800948Y-140852026D01*
X150819668Y-140865910D01*
X150836938Y-140881562D01*
X150852590Y-140898832D01*
X150866474Y-140917552D01*
X150878456Y-140937543D01*
X150888421Y-140958613D01*
X150896273Y-140980557D01*
X150901937Y-141003166D01*
X150905356Y-141026221D01*
X150906500Y-141049500D01*
X150906500Y-141624500D01*
X150905356Y-141647779D01*
X150901937Y-141670834D01*
X150896273Y-141693443D01*
X150888421Y-141715387D01*
X150878456Y-141736457D01*
X150866474Y-141756448D01*
X150852590Y-141775168D01*
X150836938Y-141792438D01*
X150819668Y-141808090D01*
X150800948Y-141821974D01*
X150780957Y-141833956D01*
X150759887Y-141843921D01*
X150737943Y-141851773D01*
X150715334Y-141857437D01*
X150692279Y-141860856D01*
X150669000Y-141862000D01*
X150194000Y-141862000D01*
X150170721Y-141860856D01*
X150147666Y-141857437D01*
X150125057Y-141851773D01*
X150103113Y-141843921D01*
X150082043Y-141833956D01*
X150062052Y-141821974D01*
X150043332Y-141808090D01*
X150026062Y-141792438D01*
X150010410Y-141775168D01*
X149996526Y-141756448D01*
X149984544Y-141736457D01*
X149974579Y-141715387D01*
X149966727Y-141693443D01*
X149961063Y-141670834D01*
X149957644Y-141647779D01*
X149956500Y-141624500D01*
X149956500Y-141049500D01*
X149957644Y-141026221D01*
X149961063Y-141003166D01*
X149966727Y-140980557D01*
X149974579Y-140958613D01*
X149984544Y-140937543D01*
X149996526Y-140917552D01*
X150010410Y-140898832D01*
X150026062Y-140881562D01*
X150043332Y-140865910D01*
X150062052Y-140852026D01*
X150082043Y-140840044D01*
X150103113Y-140830079D01*
X150125057Y-140822227D01*
X150147666Y-140816563D01*
X150170721Y-140813144D01*
X150194000Y-140812000D01*
X150669000Y-140812000D01*
X150692279Y-140813144D01*
G37*
G36*
X150692279Y-142746144D02*
G01*
X150715334Y-142749563D01*
X150737943Y-142755227D01*
X150759887Y-142763079D01*
X150780957Y-142773044D01*
X150800948Y-142785026D01*
X150819668Y-142798910D01*
X150836938Y-142814562D01*
X150852590Y-142831832D01*
X150866474Y-142850552D01*
X150878456Y-142870543D01*
X150888421Y-142891613D01*
X150896273Y-142913557D01*
X150901937Y-142936166D01*
X150905356Y-142959221D01*
X150906500Y-142982500D01*
X150906500Y-143557500D01*
X150905356Y-143580779D01*
X150901937Y-143603834D01*
X150896273Y-143626443D01*
X150888421Y-143648387D01*
X150878456Y-143669457D01*
X150866474Y-143689448D01*
X150852590Y-143708168D01*
X150836938Y-143725438D01*
X150819668Y-143741090D01*
X150800948Y-143754974D01*
X150780957Y-143766956D01*
X150759887Y-143776921D01*
X150737943Y-143784773D01*
X150715334Y-143790437D01*
X150692279Y-143793856D01*
X150669000Y-143795000D01*
X150194000Y-143795000D01*
X150170721Y-143793856D01*
X150147666Y-143790437D01*
X150125057Y-143784773D01*
X150103113Y-143776921D01*
X150082043Y-143766956D01*
X150062052Y-143754974D01*
X150043332Y-143741090D01*
X150026062Y-143725438D01*
X150010410Y-143708168D01*
X149996526Y-143689448D01*
X149984544Y-143669457D01*
X149974579Y-143648387D01*
X149966727Y-143626443D01*
X149961063Y-143603834D01*
X149957644Y-143580779D01*
X149956500Y-143557500D01*
X149956500Y-142982500D01*
X149957644Y-142959221D01*
X149961063Y-142936166D01*
X149966727Y-142913557D01*
X149974579Y-142891613D01*
X149984544Y-142870543D01*
X149996526Y-142850552D01*
X150010410Y-142831832D01*
X150026062Y-142814562D01*
X150043332Y-142798910D01*
X150062052Y-142785026D01*
X150082043Y-142773044D01*
X150103113Y-142763079D01*
X150125057Y-142755227D01*
X150147666Y-142749563D01*
X150170721Y-142746144D01*
X150194000Y-142745000D01*
X150669000Y-142745000D01*
X150692279Y-142746144D01*
G37*
G36*
X150692279Y-144496144D02*
G01*
X150715334Y-144499563D01*
X150737943Y-144505227D01*
X150759887Y-144513079D01*
X150780957Y-144523044D01*
X150800948Y-144535026D01*
X150819668Y-144548910D01*
X150836938Y-144564562D01*
X150852590Y-144581832D01*
X150866474Y-144600552D01*
X150878456Y-144620543D01*
X150888421Y-144641613D01*
X150896273Y-144663557D01*
X150901937Y-144686166D01*
X150905356Y-144709221D01*
X150906500Y-144732500D01*
X150906500Y-145307500D01*
X150905356Y-145330779D01*
X150901937Y-145353834D01*
X150896273Y-145376443D01*
X150888421Y-145398387D01*
X150878456Y-145419457D01*
X150866474Y-145439448D01*
X150852590Y-145458168D01*
X150836938Y-145475438D01*
X150819668Y-145491090D01*
X150800948Y-145504974D01*
X150780957Y-145516956D01*
X150759887Y-145526921D01*
X150737943Y-145534773D01*
X150715334Y-145540437D01*
X150692279Y-145543856D01*
X150669000Y-145545000D01*
X150194000Y-145545000D01*
X150170721Y-145543856D01*
X150147666Y-145540437D01*
X150125057Y-145534773D01*
X150103113Y-145526921D01*
X150082043Y-145516956D01*
X150062052Y-145504974D01*
X150043332Y-145491090D01*
X150026062Y-145475438D01*
X150010410Y-145458168D01*
X149996526Y-145439448D01*
X149984544Y-145419457D01*
X149974579Y-145398387D01*
X149966727Y-145376443D01*
X149961063Y-145353834D01*
X149957644Y-145330779D01*
X149956500Y-145307500D01*
X149956500Y-144732500D01*
X149957644Y-144709221D01*
X149961063Y-144686166D01*
X149966727Y-144663557D01*
X149974579Y-144641613D01*
X149984544Y-144620543D01*
X149996526Y-144600552D01*
X150010410Y-144581832D01*
X150026062Y-144564562D01*
X150043332Y-144548910D01*
X150062052Y-144535026D01*
X150082043Y-144523044D01*
X150103113Y-144513079D01*
X150125057Y-144505227D01*
X150147666Y-144499563D01*
X150170721Y-144496144D01*
X150194000Y-144495000D01*
X150669000Y-144495000D01*
X150692279Y-144496144D01*
G37*
G36*
X110151779Y-135797144D02*
G01*
X110174834Y-135800563D01*
X110197443Y-135806227D01*
X110219387Y-135814079D01*
X110240457Y-135824044D01*
X110260448Y-135836026D01*
X110279168Y-135849910D01*
X110296438Y-135865562D01*
X110312090Y-135882832D01*
X110325974Y-135901552D01*
X110337956Y-135921543D01*
X110347921Y-135942613D01*
X110355773Y-135964557D01*
X110361437Y-135987166D01*
X110364856Y-136010221D01*
X110366000Y-136033500D01*
X110366000Y-136508500D01*
X110364856Y-136531779D01*
X110361437Y-136554834D01*
X110355773Y-136577443D01*
X110347921Y-136599387D01*
X110337956Y-136620457D01*
X110325974Y-136640448D01*
X110312090Y-136659168D01*
X110296438Y-136676438D01*
X110279168Y-136692090D01*
X110260448Y-136705974D01*
X110240457Y-136717956D01*
X110219387Y-136727921D01*
X110197443Y-136735773D01*
X110174834Y-136741437D01*
X110151779Y-136744856D01*
X110128500Y-136746000D01*
X109553500Y-136746000D01*
X109530221Y-136744856D01*
X109507166Y-136741437D01*
X109484557Y-136735773D01*
X109462613Y-136727921D01*
X109441543Y-136717956D01*
X109421552Y-136705974D01*
X109402832Y-136692090D01*
X109385562Y-136676438D01*
X109369910Y-136659168D01*
X109356026Y-136640448D01*
X109344044Y-136620457D01*
X109334079Y-136599387D01*
X109326227Y-136577443D01*
X109320563Y-136554834D01*
X109317144Y-136531779D01*
X109316000Y-136508500D01*
X109316000Y-136033500D01*
X109317144Y-136010221D01*
X109320563Y-135987166D01*
X109326227Y-135964557D01*
X109334079Y-135942613D01*
X109344044Y-135921543D01*
X109356026Y-135901552D01*
X109369910Y-135882832D01*
X109385562Y-135865562D01*
X109402832Y-135849910D01*
X109421552Y-135836026D01*
X109441543Y-135824044D01*
X109462613Y-135814079D01*
X109484557Y-135806227D01*
X109507166Y-135800563D01*
X109530221Y-135797144D01*
X109553500Y-135796000D01*
X110128500Y-135796000D01*
X110151779Y-135797144D01*
G37*
G36*
X108401779Y-135797144D02*
G01*
X108424834Y-135800563D01*
X108447443Y-135806227D01*
X108469387Y-135814079D01*
X108490457Y-135824044D01*
X108510448Y-135836026D01*
X108529168Y-135849910D01*
X108546438Y-135865562D01*
X108562090Y-135882832D01*
X108575974Y-135901552D01*
X108587956Y-135921543D01*
X108597921Y-135942613D01*
X108605773Y-135964557D01*
X108611437Y-135987166D01*
X108614856Y-136010221D01*
X108616000Y-136033500D01*
X108616000Y-136508500D01*
X108614856Y-136531779D01*
X108611437Y-136554834D01*
X108605773Y-136577443D01*
X108597921Y-136599387D01*
X108587956Y-136620457D01*
X108575974Y-136640448D01*
X108562090Y-136659168D01*
X108546438Y-136676438D01*
X108529168Y-136692090D01*
X108510448Y-136705974D01*
X108490457Y-136717956D01*
X108469387Y-136727921D01*
X108447443Y-136735773D01*
X108424834Y-136741437D01*
X108401779Y-136744856D01*
X108378500Y-136746000D01*
X107803500Y-136746000D01*
X107780221Y-136744856D01*
X107757166Y-136741437D01*
X107734557Y-136735773D01*
X107712613Y-136727921D01*
X107691543Y-136717956D01*
X107671552Y-136705974D01*
X107652832Y-136692090D01*
X107635562Y-136676438D01*
X107619910Y-136659168D01*
X107606026Y-136640448D01*
X107594044Y-136620457D01*
X107584079Y-136599387D01*
X107576227Y-136577443D01*
X107570563Y-136554834D01*
X107567144Y-136531779D01*
X107566000Y-136508500D01*
X107566000Y-136033500D01*
X107567144Y-136010221D01*
X107570563Y-135987166D01*
X107576227Y-135964557D01*
X107584079Y-135942613D01*
X107594044Y-135921543D01*
X107606026Y-135901552D01*
X107619910Y-135882832D01*
X107635562Y-135865562D01*
X107652832Y-135849910D01*
X107671552Y-135836026D01*
X107691543Y-135824044D01*
X107712613Y-135814079D01*
X107734557Y-135806227D01*
X107757166Y-135800563D01*
X107780221Y-135797144D01*
X107803500Y-135796000D01*
X108378500Y-135796000D01*
X108401779Y-135797144D01*
G37*
G36*
X114003779Y-152103944D02*
G01*
X114026834Y-152107363D01*
X114049443Y-152113027D01*
X114071387Y-152120879D01*
X114092457Y-152130844D01*
X114112448Y-152142826D01*
X114131168Y-152156710D01*
X114148438Y-152172362D01*
X114164090Y-152189632D01*
X114177974Y-152208352D01*
X114189956Y-152228343D01*
X114199921Y-152249413D01*
X114207773Y-152271357D01*
X114213437Y-152293966D01*
X114216856Y-152317021D01*
X114218000Y-152340300D01*
X114218000Y-152815300D01*
X114216856Y-152838579D01*
X114213437Y-152861634D01*
X114207773Y-152884243D01*
X114199921Y-152906187D01*
X114189956Y-152927257D01*
X114177974Y-152947248D01*
X114164090Y-152965968D01*
X114148438Y-152983238D01*
X114131168Y-152998890D01*
X114112448Y-153012774D01*
X114092457Y-153024756D01*
X114071387Y-153034721D01*
X114049443Y-153042573D01*
X114026834Y-153048237D01*
X114003779Y-153051656D01*
X113980500Y-153052800D01*
X113405500Y-153052800D01*
X113382221Y-153051656D01*
X113359166Y-153048237D01*
X113336557Y-153042573D01*
X113314613Y-153034721D01*
X113293543Y-153024756D01*
X113273552Y-153012774D01*
X113254832Y-152998890D01*
X113237562Y-152983238D01*
X113221910Y-152965968D01*
X113208026Y-152947248D01*
X113196044Y-152927257D01*
X113186079Y-152906187D01*
X113178227Y-152884243D01*
X113172563Y-152861634D01*
X113169144Y-152838579D01*
X113168000Y-152815300D01*
X113168000Y-152340300D01*
X113169144Y-152317021D01*
X113172563Y-152293966D01*
X113178227Y-152271357D01*
X113186079Y-152249413D01*
X113196044Y-152228343D01*
X113208026Y-152208352D01*
X113221910Y-152189632D01*
X113237562Y-152172362D01*
X113254832Y-152156710D01*
X113273552Y-152142826D01*
X113293543Y-152130844D01*
X113314613Y-152120879D01*
X113336557Y-152113027D01*
X113359166Y-152107363D01*
X113382221Y-152103944D01*
X113405500Y-152102800D01*
X113980500Y-152102800D01*
X114003779Y-152103944D01*
G37*
G36*
X115753779Y-152103944D02*
G01*
X115776834Y-152107363D01*
X115799443Y-152113027D01*
X115821387Y-152120879D01*
X115842457Y-152130844D01*
X115862448Y-152142826D01*
X115881168Y-152156710D01*
X115898438Y-152172362D01*
X115914090Y-152189632D01*
X115927974Y-152208352D01*
X115939956Y-152228343D01*
X115949921Y-152249413D01*
X115957773Y-152271357D01*
X115963437Y-152293966D01*
X115966856Y-152317021D01*
X115968000Y-152340300D01*
X115968000Y-152815300D01*
X115966856Y-152838579D01*
X115963437Y-152861634D01*
X115957773Y-152884243D01*
X115949921Y-152906187D01*
X115939956Y-152927257D01*
X115927974Y-152947248D01*
X115914090Y-152965968D01*
X115898438Y-152983238D01*
X115881168Y-152998890D01*
X115862448Y-153012774D01*
X115842457Y-153024756D01*
X115821387Y-153034721D01*
X115799443Y-153042573D01*
X115776834Y-153048237D01*
X115753779Y-153051656D01*
X115730500Y-153052800D01*
X115155500Y-153052800D01*
X115132221Y-153051656D01*
X115109166Y-153048237D01*
X115086557Y-153042573D01*
X115064613Y-153034721D01*
X115043543Y-153024756D01*
X115023552Y-153012774D01*
X115004832Y-152998890D01*
X114987562Y-152983238D01*
X114971910Y-152965968D01*
X114958026Y-152947248D01*
X114946044Y-152927257D01*
X114936079Y-152906187D01*
X114928227Y-152884243D01*
X114922563Y-152861634D01*
X114919144Y-152838579D01*
X114918000Y-152815300D01*
X114918000Y-152340300D01*
X114919144Y-152317021D01*
X114922563Y-152293966D01*
X114928227Y-152271357D01*
X114936079Y-152249413D01*
X114946044Y-152228343D01*
X114958026Y-152208352D01*
X114971910Y-152189632D01*
X114987562Y-152172362D01*
X115004832Y-152156710D01*
X115023552Y-152142826D01*
X115043543Y-152130844D01*
X115064613Y-152120879D01*
X115086557Y-152113027D01*
X115109166Y-152107363D01*
X115132221Y-152103944D01*
X115155500Y-152102800D01*
X115730500Y-152102800D01*
X115753779Y-152103944D01*
G37*
G36*
X112451779Y-146084144D02*
G01*
X112474834Y-146087563D01*
X112497443Y-146093227D01*
X112519387Y-146101079D01*
X112540457Y-146111044D01*
X112560448Y-146123026D01*
X112579168Y-146136910D01*
X112596438Y-146152562D01*
X112612090Y-146169832D01*
X112625974Y-146188552D01*
X112637956Y-146208543D01*
X112647921Y-146229613D01*
X112655773Y-146251557D01*
X112661437Y-146274166D01*
X112664856Y-146297221D01*
X112666000Y-146320500D01*
X112666000Y-146795500D01*
X112664856Y-146818779D01*
X112661437Y-146841834D01*
X112655773Y-146864443D01*
X112647921Y-146886387D01*
X112637956Y-146907457D01*
X112625974Y-146927448D01*
X112612090Y-146946168D01*
X112596438Y-146963438D01*
X112579168Y-146979090D01*
X112560448Y-146992974D01*
X112540457Y-147004956D01*
X112519387Y-147014921D01*
X112497443Y-147022773D01*
X112474834Y-147028437D01*
X112451779Y-147031856D01*
X112428500Y-147033000D01*
X111853500Y-147033000D01*
X111830221Y-147031856D01*
X111807166Y-147028437D01*
X111784557Y-147022773D01*
X111762613Y-147014921D01*
X111741543Y-147004956D01*
X111721552Y-146992974D01*
X111702832Y-146979090D01*
X111685562Y-146963438D01*
X111669910Y-146946168D01*
X111656026Y-146927448D01*
X111644044Y-146907457D01*
X111634079Y-146886387D01*
X111626227Y-146864443D01*
X111620563Y-146841834D01*
X111617144Y-146818779D01*
X111616000Y-146795500D01*
X111616000Y-146320500D01*
X111617144Y-146297221D01*
X111620563Y-146274166D01*
X111626227Y-146251557D01*
X111634079Y-146229613D01*
X111644044Y-146208543D01*
X111656026Y-146188552D01*
X111669910Y-146169832D01*
X111685562Y-146152562D01*
X111702832Y-146136910D01*
X111721552Y-146123026D01*
X111741543Y-146111044D01*
X111762613Y-146101079D01*
X111784557Y-146093227D01*
X111807166Y-146087563D01*
X111830221Y-146084144D01*
X111853500Y-146083000D01*
X112428500Y-146083000D01*
X112451779Y-146084144D01*
G37*
G36*
X114201779Y-146084144D02*
G01*
X114224834Y-146087563D01*
X114247443Y-146093227D01*
X114269387Y-146101079D01*
X114290457Y-146111044D01*
X114310448Y-146123026D01*
X114329168Y-146136910D01*
X114346438Y-146152562D01*
X114362090Y-146169832D01*
X114375974Y-146188552D01*
X114387956Y-146208543D01*
X114397921Y-146229613D01*
X114405773Y-146251557D01*
X114411437Y-146274166D01*
X114414856Y-146297221D01*
X114416000Y-146320500D01*
X114416000Y-146795500D01*
X114414856Y-146818779D01*
X114411437Y-146841834D01*
X114405773Y-146864443D01*
X114397921Y-146886387D01*
X114387956Y-146907457D01*
X114375974Y-146927448D01*
X114362090Y-146946168D01*
X114346438Y-146963438D01*
X114329168Y-146979090D01*
X114310448Y-146992974D01*
X114290457Y-147004956D01*
X114269387Y-147014921D01*
X114247443Y-147022773D01*
X114224834Y-147028437D01*
X114201779Y-147031856D01*
X114178500Y-147033000D01*
X113603500Y-147033000D01*
X113580221Y-147031856D01*
X113557166Y-147028437D01*
X113534557Y-147022773D01*
X113512613Y-147014921D01*
X113491543Y-147004956D01*
X113471552Y-146992974D01*
X113452832Y-146979090D01*
X113435562Y-146963438D01*
X113419910Y-146946168D01*
X113406026Y-146927448D01*
X113394044Y-146907457D01*
X113384079Y-146886387D01*
X113376227Y-146864443D01*
X113370563Y-146841834D01*
X113367144Y-146818779D01*
X113366000Y-146795500D01*
X113366000Y-146320500D01*
X113367144Y-146297221D01*
X113370563Y-146274166D01*
X113376227Y-146251557D01*
X113384079Y-146229613D01*
X113394044Y-146208543D01*
X113406026Y-146188552D01*
X113419910Y-146169832D01*
X113435562Y-146152562D01*
X113452832Y-146136910D01*
X113471552Y-146123026D01*
X113491543Y-146111044D01*
X113512613Y-146101079D01*
X113534557Y-146093227D01*
X113557166Y-146087563D01*
X113580221Y-146084144D01*
X113603500Y-146083000D01*
X114178500Y-146083000D01*
X114201779Y-146084144D01*
G37*
G36*
X105643279Y-135771744D02*
G01*
X105666334Y-135775163D01*
X105688943Y-135780827D01*
X105710887Y-135788679D01*
X105731957Y-135798644D01*
X105751948Y-135810626D01*
X105770668Y-135824510D01*
X105787938Y-135840162D01*
X105803590Y-135857432D01*
X105817474Y-135876152D01*
X105829456Y-135896143D01*
X105839421Y-135917213D01*
X105847273Y-135939157D01*
X105852937Y-135961766D01*
X105856356Y-135984821D01*
X105857500Y-136008100D01*
X105857500Y-136483100D01*
X105856356Y-136506379D01*
X105852937Y-136529434D01*
X105847273Y-136552043D01*
X105839421Y-136573987D01*
X105829456Y-136595057D01*
X105817474Y-136615048D01*
X105803590Y-136633768D01*
X105787938Y-136651038D01*
X105770668Y-136666690D01*
X105751948Y-136680574D01*
X105731957Y-136692556D01*
X105710887Y-136702521D01*
X105688943Y-136710373D01*
X105666334Y-136716037D01*
X105643279Y-136719456D01*
X105620000Y-136720600D01*
X105045000Y-136720600D01*
X105021721Y-136719456D01*
X104998666Y-136716037D01*
X104976057Y-136710373D01*
X104954113Y-136702521D01*
X104933043Y-136692556D01*
X104913052Y-136680574D01*
X104894332Y-136666690D01*
X104877062Y-136651038D01*
X104861410Y-136633768D01*
X104847526Y-136615048D01*
X104835544Y-136595057D01*
X104825579Y-136573987D01*
X104817727Y-136552043D01*
X104812063Y-136529434D01*
X104808644Y-136506379D01*
X104807500Y-136483100D01*
X104807500Y-136008100D01*
X104808644Y-135984821D01*
X104812063Y-135961766D01*
X104817727Y-135939157D01*
X104825579Y-135917213D01*
X104835544Y-135896143D01*
X104847526Y-135876152D01*
X104861410Y-135857432D01*
X104877062Y-135840162D01*
X104894332Y-135824510D01*
X104913052Y-135810626D01*
X104933043Y-135798644D01*
X104954113Y-135788679D01*
X104976057Y-135780827D01*
X104998666Y-135775163D01*
X105021721Y-135771744D01*
X105045000Y-135770600D01*
X105620000Y-135770600D01*
X105643279Y-135771744D01*
G37*
G36*
X103893279Y-135771744D02*
G01*
X103916334Y-135775163D01*
X103938943Y-135780827D01*
X103960887Y-135788679D01*
X103981957Y-135798644D01*
X104001948Y-135810626D01*
X104020668Y-135824510D01*
X104037938Y-135840162D01*
X104053590Y-135857432D01*
X104067474Y-135876152D01*
X104079456Y-135896143D01*
X104089421Y-135917213D01*
X104097273Y-135939157D01*
X104102937Y-135961766D01*
X104106356Y-135984821D01*
X104107500Y-136008100D01*
X104107500Y-136483100D01*
X104106356Y-136506379D01*
X104102937Y-136529434D01*
X104097273Y-136552043D01*
X104089421Y-136573987D01*
X104079456Y-136595057D01*
X104067474Y-136615048D01*
X104053590Y-136633768D01*
X104037938Y-136651038D01*
X104020668Y-136666690D01*
X104001948Y-136680574D01*
X103981957Y-136692556D01*
X103960887Y-136702521D01*
X103938943Y-136710373D01*
X103916334Y-136716037D01*
X103893279Y-136719456D01*
X103870000Y-136720600D01*
X103295000Y-136720600D01*
X103271721Y-136719456D01*
X103248666Y-136716037D01*
X103226057Y-136710373D01*
X103204113Y-136702521D01*
X103183043Y-136692556D01*
X103163052Y-136680574D01*
X103144332Y-136666690D01*
X103127062Y-136651038D01*
X103111410Y-136633768D01*
X103097526Y-136615048D01*
X103085544Y-136595057D01*
X103075579Y-136573987D01*
X103067727Y-136552043D01*
X103062063Y-136529434D01*
X103058644Y-136506379D01*
X103057500Y-136483100D01*
X103057500Y-136008100D01*
X103058644Y-135984821D01*
X103062063Y-135961766D01*
X103067727Y-135939157D01*
X103075579Y-135917213D01*
X103085544Y-135896143D01*
X103097526Y-135876152D01*
X103111410Y-135857432D01*
X103127062Y-135840162D01*
X103144332Y-135824510D01*
X103163052Y-135810626D01*
X103183043Y-135798644D01*
X103204113Y-135788679D01*
X103226057Y-135780827D01*
X103248666Y-135775163D01*
X103271721Y-135771744D01*
X103295000Y-135770600D01*
X103870000Y-135770600D01*
X103893279Y-135771744D01*
G37*
G36*
X150692279Y-135380144D02*
G01*
X150715334Y-135383563D01*
X150737943Y-135389227D01*
X150759887Y-135397079D01*
X150780957Y-135407044D01*
X150800948Y-135419026D01*
X150819668Y-135432910D01*
X150836938Y-135448562D01*
X150852590Y-135465832D01*
X150866474Y-135484552D01*
X150878456Y-135504543D01*
X150888421Y-135525613D01*
X150896273Y-135547557D01*
X150901937Y-135570166D01*
X150905356Y-135593221D01*
X150906500Y-135616500D01*
X150906500Y-136191500D01*
X150905356Y-136214779D01*
X150901937Y-136237834D01*
X150896273Y-136260443D01*
X150888421Y-136282387D01*
X150878456Y-136303457D01*
X150866474Y-136323448D01*
X150852590Y-136342168D01*
X150836938Y-136359438D01*
X150819668Y-136375090D01*
X150800948Y-136388974D01*
X150780957Y-136400956D01*
X150759887Y-136410921D01*
X150737943Y-136418773D01*
X150715334Y-136424437D01*
X150692279Y-136427856D01*
X150669000Y-136429000D01*
X150194000Y-136429000D01*
X150170721Y-136427856D01*
X150147666Y-136424437D01*
X150125057Y-136418773D01*
X150103113Y-136410921D01*
X150082043Y-136400956D01*
X150062052Y-136388974D01*
X150043332Y-136375090D01*
X150026062Y-136359438D01*
X150010410Y-136342168D01*
X149996526Y-136323448D01*
X149984544Y-136303457D01*
X149974579Y-136282387D01*
X149966727Y-136260443D01*
X149961063Y-136237834D01*
X149957644Y-136214779D01*
X149956500Y-136191500D01*
X149956500Y-135616500D01*
X149957644Y-135593221D01*
X149961063Y-135570166D01*
X149966727Y-135547557D01*
X149974579Y-135525613D01*
X149984544Y-135504543D01*
X149996526Y-135484552D01*
X150010410Y-135465832D01*
X150026062Y-135448562D01*
X150043332Y-135432910D01*
X150062052Y-135419026D01*
X150082043Y-135407044D01*
X150103113Y-135397079D01*
X150125057Y-135389227D01*
X150147666Y-135383563D01*
X150170721Y-135380144D01*
X150194000Y-135379000D01*
X150669000Y-135379000D01*
X150692279Y-135380144D01*
G37*
G36*
X150692279Y-137130144D02*
G01*
X150715334Y-137133563D01*
X150737943Y-137139227D01*
X150759887Y-137147079D01*
X150780957Y-137157044D01*
X150800948Y-137169026D01*
X150819668Y-137182910D01*
X150836938Y-137198562D01*
X150852590Y-137215832D01*
X150866474Y-137234552D01*
X150878456Y-137254543D01*
X150888421Y-137275613D01*
X150896273Y-137297557D01*
X150901937Y-137320166D01*
X150905356Y-137343221D01*
X150906500Y-137366500D01*
X150906500Y-137941500D01*
X150905356Y-137964779D01*
X150901937Y-137987834D01*
X150896273Y-138010443D01*
X150888421Y-138032387D01*
X150878456Y-138053457D01*
X150866474Y-138073448D01*
X150852590Y-138092168D01*
X150836938Y-138109438D01*
X150819668Y-138125090D01*
X150800948Y-138138974D01*
X150780957Y-138150956D01*
X150759887Y-138160921D01*
X150737943Y-138168773D01*
X150715334Y-138174437D01*
X150692279Y-138177856D01*
X150669000Y-138179000D01*
X150194000Y-138179000D01*
X150170721Y-138177856D01*
X150147666Y-138174437D01*
X150125057Y-138168773D01*
X150103113Y-138160921D01*
X150082043Y-138150956D01*
X150062052Y-138138974D01*
X150043332Y-138125090D01*
X150026062Y-138109438D01*
X150010410Y-138092168D01*
X149996526Y-138073448D01*
X149984544Y-138053457D01*
X149974579Y-138032387D01*
X149966727Y-138010443D01*
X149961063Y-137987834D01*
X149957644Y-137964779D01*
X149956500Y-137941500D01*
X149956500Y-137366500D01*
X149957644Y-137343221D01*
X149961063Y-137320166D01*
X149966727Y-137297557D01*
X149974579Y-137275613D01*
X149984544Y-137254543D01*
X149996526Y-137234552D01*
X150010410Y-137215832D01*
X150026062Y-137198562D01*
X150043332Y-137182910D01*
X150062052Y-137169026D01*
X150082043Y-137157044D01*
X150103113Y-137147079D01*
X150125057Y-137139227D01*
X150147666Y-137133563D01*
X150170721Y-137130144D01*
X150194000Y-137129000D01*
X150669000Y-137129000D01*
X150692279Y-137130144D01*
G37*
G36*
X139262779Y-158466644D02*
G01*
X139285834Y-158470063D01*
X139308443Y-158475727D01*
X139330387Y-158483579D01*
X139351457Y-158493544D01*
X139371448Y-158505526D01*
X139390168Y-158519410D01*
X139407438Y-158535062D01*
X139423090Y-158552332D01*
X139436974Y-158571052D01*
X139448956Y-158591043D01*
X139458921Y-158612113D01*
X139466773Y-158634057D01*
X139472437Y-158656666D01*
X139475856Y-158679721D01*
X139477000Y-158703000D01*
X139477000Y-159178000D01*
X139475856Y-159201279D01*
X139472437Y-159224334D01*
X139466773Y-159246943D01*
X139458921Y-159268887D01*
X139448956Y-159289957D01*
X139436974Y-159309948D01*
X139423090Y-159328668D01*
X139407438Y-159345938D01*
X139390168Y-159361590D01*
X139371448Y-159375474D01*
X139351457Y-159387456D01*
X139330387Y-159397421D01*
X139308443Y-159405273D01*
X139285834Y-159410937D01*
X139262779Y-159414356D01*
X139239500Y-159415500D01*
X138664500Y-159415500D01*
X138641221Y-159414356D01*
X138618166Y-159410937D01*
X138595557Y-159405273D01*
X138573613Y-159397421D01*
X138552543Y-159387456D01*
X138532552Y-159375474D01*
X138513832Y-159361590D01*
X138496562Y-159345938D01*
X138480910Y-159328668D01*
X138467026Y-159309948D01*
X138455044Y-159289957D01*
X138445079Y-159268887D01*
X138437227Y-159246943D01*
X138431563Y-159224334D01*
X138428144Y-159201279D01*
X138427000Y-159178000D01*
X138427000Y-158703000D01*
X138428144Y-158679721D01*
X138431563Y-158656666D01*
X138437227Y-158634057D01*
X138445079Y-158612113D01*
X138455044Y-158591043D01*
X138467026Y-158571052D01*
X138480910Y-158552332D01*
X138496562Y-158535062D01*
X138513832Y-158519410D01*
X138532552Y-158505526D01*
X138552543Y-158493544D01*
X138573613Y-158483579D01*
X138595557Y-158475727D01*
X138618166Y-158470063D01*
X138641221Y-158466644D01*
X138664500Y-158465500D01*
X139239500Y-158465500D01*
X139262779Y-158466644D01*
G37*
G36*
X141012779Y-158466644D02*
G01*
X141035834Y-158470063D01*
X141058443Y-158475727D01*
X141080387Y-158483579D01*
X141101457Y-158493544D01*
X141121448Y-158505526D01*
X141140168Y-158519410D01*
X141157438Y-158535062D01*
X141173090Y-158552332D01*
X141186974Y-158571052D01*
X141198956Y-158591043D01*
X141208921Y-158612113D01*
X141216773Y-158634057D01*
X141222437Y-158656666D01*
X141225856Y-158679721D01*
X141227000Y-158703000D01*
X141227000Y-159178000D01*
X141225856Y-159201279D01*
X141222437Y-159224334D01*
X141216773Y-159246943D01*
X141208921Y-159268887D01*
X141198956Y-159289957D01*
X141186974Y-159309948D01*
X141173090Y-159328668D01*
X141157438Y-159345938D01*
X141140168Y-159361590D01*
X141121448Y-159375474D01*
X141101457Y-159387456D01*
X141080387Y-159397421D01*
X141058443Y-159405273D01*
X141035834Y-159410937D01*
X141012779Y-159414356D01*
X140989500Y-159415500D01*
X140414500Y-159415500D01*
X140391221Y-159414356D01*
X140368166Y-159410937D01*
X140345557Y-159405273D01*
X140323613Y-159397421D01*
X140302543Y-159387456D01*
X140282552Y-159375474D01*
X140263832Y-159361590D01*
X140246562Y-159345938D01*
X140230910Y-159328668D01*
X140217026Y-159309948D01*
X140205044Y-159289957D01*
X140195079Y-159268887D01*
X140187227Y-159246943D01*
X140181563Y-159224334D01*
X140178144Y-159201279D01*
X140177000Y-159178000D01*
X140177000Y-158703000D01*
X140178144Y-158679721D01*
X140181563Y-158656666D01*
X140187227Y-158634057D01*
X140195079Y-158612113D01*
X140205044Y-158591043D01*
X140217026Y-158571052D01*
X140230910Y-158552332D01*
X140246562Y-158535062D01*
X140263832Y-158519410D01*
X140282552Y-158505526D01*
X140302543Y-158493544D01*
X140323613Y-158483579D01*
X140345557Y-158475727D01*
X140368166Y-158470063D01*
X140391221Y-158466644D01*
X140414500Y-158465500D01*
X140989500Y-158465500D01*
X141012779Y-158466644D01*
G37*
G36*
X150692279Y-153795144D02*
G01*
X150715334Y-153798563D01*
X150737943Y-153804227D01*
X150759887Y-153812079D01*
X150780957Y-153822044D01*
X150800948Y-153834026D01*
X150819668Y-153847910D01*
X150836938Y-153863562D01*
X150852590Y-153880832D01*
X150866474Y-153899552D01*
X150878456Y-153919543D01*
X150888421Y-153940613D01*
X150896273Y-153962557D01*
X150901937Y-153985166D01*
X150905356Y-154008221D01*
X150906500Y-154031500D01*
X150906500Y-154606500D01*
X150905356Y-154629779D01*
X150901937Y-154652834D01*
X150896273Y-154675443D01*
X150888421Y-154697387D01*
X150878456Y-154718457D01*
X150866474Y-154738448D01*
X150852590Y-154757168D01*
X150836938Y-154774438D01*
X150819668Y-154790090D01*
X150800948Y-154803974D01*
X150780957Y-154815956D01*
X150759887Y-154825921D01*
X150737943Y-154833773D01*
X150715334Y-154839437D01*
X150692279Y-154842856D01*
X150669000Y-154844000D01*
X150194000Y-154844000D01*
X150170721Y-154842856D01*
X150147666Y-154839437D01*
X150125057Y-154833773D01*
X150103113Y-154825921D01*
X150082043Y-154815956D01*
X150062052Y-154803974D01*
X150043332Y-154790090D01*
X150026062Y-154774438D01*
X150010410Y-154757168D01*
X149996526Y-154738448D01*
X149984544Y-154718457D01*
X149974579Y-154697387D01*
X149966727Y-154675443D01*
X149961063Y-154652834D01*
X149957644Y-154629779D01*
X149956500Y-154606500D01*
X149956500Y-154031500D01*
X149957644Y-154008221D01*
X149961063Y-153985166D01*
X149966727Y-153962557D01*
X149974579Y-153940613D01*
X149984544Y-153919543D01*
X149996526Y-153899552D01*
X150010410Y-153880832D01*
X150026062Y-153863562D01*
X150043332Y-153847910D01*
X150062052Y-153834026D01*
X150082043Y-153822044D01*
X150103113Y-153812079D01*
X150125057Y-153804227D01*
X150147666Y-153798563D01*
X150170721Y-153795144D01*
X150194000Y-153794000D01*
X150669000Y-153794000D01*
X150692279Y-153795144D01*
G37*
G36*
X150692279Y-155545144D02*
G01*
X150715334Y-155548563D01*
X150737943Y-155554227D01*
X150759887Y-155562079D01*
X150780957Y-155572044D01*
X150800948Y-155584026D01*
X150819668Y-155597910D01*
X150836938Y-155613562D01*
X150852590Y-155630832D01*
X150866474Y-155649552D01*
X150878456Y-155669543D01*
X150888421Y-155690613D01*
X150896273Y-155712557D01*
X150901937Y-155735166D01*
X150905356Y-155758221D01*
X150906500Y-155781500D01*
X150906500Y-156356500D01*
X150905356Y-156379779D01*
X150901937Y-156402834D01*
X150896273Y-156425443D01*
X150888421Y-156447387D01*
X150878456Y-156468457D01*
X150866474Y-156488448D01*
X150852590Y-156507168D01*
X150836938Y-156524438D01*
X150819668Y-156540090D01*
X150800948Y-156553974D01*
X150780957Y-156565956D01*
X150759887Y-156575921D01*
X150737943Y-156583773D01*
X150715334Y-156589437D01*
X150692279Y-156592856D01*
X150669000Y-156594000D01*
X150194000Y-156594000D01*
X150170721Y-156592856D01*
X150147666Y-156589437D01*
X150125057Y-156583773D01*
X150103113Y-156575921D01*
X150082043Y-156565956D01*
X150062052Y-156553974D01*
X150043332Y-156540090D01*
X150026062Y-156524438D01*
X150010410Y-156507168D01*
X149996526Y-156488448D01*
X149984544Y-156468457D01*
X149974579Y-156447387D01*
X149966727Y-156425443D01*
X149961063Y-156402834D01*
X149957644Y-156379779D01*
X149956500Y-156356500D01*
X149956500Y-155781500D01*
X149957644Y-155758221D01*
X149961063Y-155735166D01*
X149966727Y-155712557D01*
X149974579Y-155690613D01*
X149984544Y-155669543D01*
X149996526Y-155649552D01*
X150010410Y-155630832D01*
X150026062Y-155613562D01*
X150043332Y-155597910D01*
X150062052Y-155584026D01*
X150082043Y-155572044D01*
X150103113Y-155562079D01*
X150125057Y-155554227D01*
X150147666Y-155548563D01*
X150170721Y-155545144D01*
X150194000Y-155544000D01*
X150669000Y-155544000D01*
X150692279Y-155545144D01*
G37*
G36*
X136277779Y-159101144D02*
G01*
X136300834Y-159104563D01*
X136323443Y-159110227D01*
X136345387Y-159118079D01*
X136366457Y-159128044D01*
X136386448Y-159140026D01*
X136405168Y-159153910D01*
X136422438Y-159169562D01*
X136438090Y-159186832D01*
X136451974Y-159205552D01*
X136463956Y-159225543D01*
X136473921Y-159246613D01*
X136481773Y-159268557D01*
X136487437Y-159291166D01*
X136490856Y-159314221D01*
X136492000Y-159337500D01*
X136492000Y-159912500D01*
X136490856Y-159935779D01*
X136487437Y-159958834D01*
X136481773Y-159981443D01*
X136473921Y-160003387D01*
X136463956Y-160024457D01*
X136451974Y-160044448D01*
X136438090Y-160063168D01*
X136422438Y-160080438D01*
X136405168Y-160096090D01*
X136386448Y-160109974D01*
X136366457Y-160121956D01*
X136345387Y-160131921D01*
X136323443Y-160139773D01*
X136300834Y-160145437D01*
X136277779Y-160148856D01*
X136254500Y-160150000D01*
X135779500Y-160150000D01*
X135756221Y-160148856D01*
X135733166Y-160145437D01*
X135710557Y-160139773D01*
X135688613Y-160131921D01*
X135667543Y-160121956D01*
X135647552Y-160109974D01*
X135628832Y-160096090D01*
X135611562Y-160080438D01*
X135595910Y-160063168D01*
X135582026Y-160044448D01*
X135570044Y-160024457D01*
X135560079Y-160003387D01*
X135552227Y-159981443D01*
X135546563Y-159958834D01*
X135543144Y-159935779D01*
X135542000Y-159912500D01*
X135542000Y-159337500D01*
X135543144Y-159314221D01*
X135546563Y-159291166D01*
X135552227Y-159268557D01*
X135560079Y-159246613D01*
X135570044Y-159225543D01*
X135582026Y-159205552D01*
X135595910Y-159186832D01*
X135611562Y-159169562D01*
X135628832Y-159153910D01*
X135647552Y-159140026D01*
X135667543Y-159128044D01*
X135688613Y-159118079D01*
X135710557Y-159110227D01*
X135733166Y-159104563D01*
X135756221Y-159101144D01*
X135779500Y-159100000D01*
X136254500Y-159100000D01*
X136277779Y-159101144D01*
G37*
G36*
X136277779Y-157351144D02*
G01*
X136300834Y-157354563D01*
X136323443Y-157360227D01*
X136345387Y-157368079D01*
X136366457Y-157378044D01*
X136386448Y-157390026D01*
X136405168Y-157403910D01*
X136422438Y-157419562D01*
X136438090Y-157436832D01*
X136451974Y-157455552D01*
X136463956Y-157475543D01*
X136473921Y-157496613D01*
X136481773Y-157518557D01*
X136487437Y-157541166D01*
X136490856Y-157564221D01*
X136492000Y-157587500D01*
X136492000Y-158162500D01*
X136490856Y-158185779D01*
X136487437Y-158208834D01*
X136481773Y-158231443D01*
X136473921Y-158253387D01*
X136463956Y-158274457D01*
X136451974Y-158294448D01*
X136438090Y-158313168D01*
X136422438Y-158330438D01*
X136405168Y-158346090D01*
X136386448Y-158359974D01*
X136366457Y-158371956D01*
X136345387Y-158381921D01*
X136323443Y-158389773D01*
X136300834Y-158395437D01*
X136277779Y-158398856D01*
X136254500Y-158400000D01*
X135779500Y-158400000D01*
X135756221Y-158398856D01*
X135733166Y-158395437D01*
X135710557Y-158389773D01*
X135688613Y-158381921D01*
X135667543Y-158371956D01*
X135647552Y-158359974D01*
X135628832Y-158346090D01*
X135611562Y-158330438D01*
X135595910Y-158313168D01*
X135582026Y-158294448D01*
X135570044Y-158274457D01*
X135560079Y-158253387D01*
X135552227Y-158231443D01*
X135546563Y-158208834D01*
X135543144Y-158185779D01*
X135542000Y-158162500D01*
X135542000Y-157587500D01*
X135543144Y-157564221D01*
X135546563Y-157541166D01*
X135552227Y-157518557D01*
X135560079Y-157496613D01*
X135570044Y-157475543D01*
X135582026Y-157455552D01*
X135595910Y-157436832D01*
X135611562Y-157419562D01*
X135628832Y-157403910D01*
X135647552Y-157390026D01*
X135667543Y-157378044D01*
X135688613Y-157368079D01*
X135710557Y-157360227D01*
X135733166Y-157354563D01*
X135756221Y-157351144D01*
X135779500Y-157350000D01*
X136254500Y-157350000D01*
X136277779Y-157351144D01*
G37*
G36*
X140087779Y-127633144D02*
G01*
X140110834Y-127636563D01*
X140133443Y-127642227D01*
X140155387Y-127650079D01*
X140176457Y-127660044D01*
X140196448Y-127672026D01*
X140215168Y-127685910D01*
X140232438Y-127701562D01*
X140248090Y-127718832D01*
X140261974Y-127737552D01*
X140273956Y-127757543D01*
X140283921Y-127778613D01*
X140291773Y-127800557D01*
X140297437Y-127823166D01*
X140300856Y-127846221D01*
X140302000Y-127869500D01*
X140302000Y-128444500D01*
X140300856Y-128467779D01*
X140297437Y-128490834D01*
X140291773Y-128513443D01*
X140283921Y-128535387D01*
X140273956Y-128556457D01*
X140261974Y-128576448D01*
X140248090Y-128595168D01*
X140232438Y-128612438D01*
X140215168Y-128628090D01*
X140196448Y-128641974D01*
X140176457Y-128653956D01*
X140155387Y-128663921D01*
X140133443Y-128671773D01*
X140110834Y-128677437D01*
X140087779Y-128680856D01*
X140064500Y-128682000D01*
X139589500Y-128682000D01*
X139566221Y-128680856D01*
X139543166Y-128677437D01*
X139520557Y-128671773D01*
X139498613Y-128663921D01*
X139477543Y-128653956D01*
X139457552Y-128641974D01*
X139438832Y-128628090D01*
X139421562Y-128612438D01*
X139405910Y-128595168D01*
X139392026Y-128576448D01*
X139380044Y-128556457D01*
X139370079Y-128535387D01*
X139362227Y-128513443D01*
X139356563Y-128490834D01*
X139353144Y-128467779D01*
X139352000Y-128444500D01*
X139352000Y-127869500D01*
X139353144Y-127846221D01*
X139356563Y-127823166D01*
X139362227Y-127800557D01*
X139370079Y-127778613D01*
X139380044Y-127757543D01*
X139392026Y-127737552D01*
X139405910Y-127718832D01*
X139421562Y-127701562D01*
X139438832Y-127685910D01*
X139457552Y-127672026D01*
X139477543Y-127660044D01*
X139498613Y-127650079D01*
X139520557Y-127642227D01*
X139543166Y-127636563D01*
X139566221Y-127633144D01*
X139589500Y-127632000D01*
X140064500Y-127632000D01*
X140087779Y-127633144D01*
G37*
G36*
X140087779Y-129383144D02*
G01*
X140110834Y-129386563D01*
X140133443Y-129392227D01*
X140155387Y-129400079D01*
X140176457Y-129410044D01*
X140196448Y-129422026D01*
X140215168Y-129435910D01*
X140232438Y-129451562D01*
X140248090Y-129468832D01*
X140261974Y-129487552D01*
X140273956Y-129507543D01*
X140283921Y-129528613D01*
X140291773Y-129550557D01*
X140297437Y-129573166D01*
X140300856Y-129596221D01*
X140302000Y-129619500D01*
X140302000Y-130194500D01*
X140300856Y-130217779D01*
X140297437Y-130240834D01*
X140291773Y-130263443D01*
X140283921Y-130285387D01*
X140273956Y-130306457D01*
X140261974Y-130326448D01*
X140248090Y-130345168D01*
X140232438Y-130362438D01*
X140215168Y-130378090D01*
X140196448Y-130391974D01*
X140176457Y-130403956D01*
X140155387Y-130413921D01*
X140133443Y-130421773D01*
X140110834Y-130427437D01*
X140087779Y-130430856D01*
X140064500Y-130432000D01*
X139589500Y-130432000D01*
X139566221Y-130430856D01*
X139543166Y-130427437D01*
X139520557Y-130421773D01*
X139498613Y-130413921D01*
X139477543Y-130403956D01*
X139457552Y-130391974D01*
X139438832Y-130378090D01*
X139421562Y-130362438D01*
X139405910Y-130345168D01*
X139392026Y-130326448D01*
X139380044Y-130306457D01*
X139370079Y-130285387D01*
X139362227Y-130263443D01*
X139356563Y-130240834D01*
X139353144Y-130217779D01*
X139352000Y-130194500D01*
X139352000Y-129619500D01*
X139353144Y-129596221D01*
X139356563Y-129573166D01*
X139362227Y-129550557D01*
X139370079Y-129528613D01*
X139380044Y-129507543D01*
X139392026Y-129487552D01*
X139405910Y-129468832D01*
X139421562Y-129451562D01*
X139438832Y-129435910D01*
X139457552Y-129422026D01*
X139477543Y-129410044D01*
X139498613Y-129400079D01*
X139520557Y-129392227D01*
X139543166Y-129386563D01*
X139566221Y-129383144D01*
X139589500Y-129382000D01*
X140064500Y-129382000D01*
X140087779Y-129383144D01*
G37*
G36*
X138309779Y-127619144D02*
G01*
X138332834Y-127622563D01*
X138355443Y-127628227D01*
X138377387Y-127636079D01*
X138398457Y-127646044D01*
X138418448Y-127658026D01*
X138437168Y-127671910D01*
X138454438Y-127687562D01*
X138470090Y-127704832D01*
X138483974Y-127723552D01*
X138495956Y-127743543D01*
X138505921Y-127764613D01*
X138513773Y-127786557D01*
X138519437Y-127809166D01*
X138522856Y-127832221D01*
X138524000Y-127855500D01*
X138524000Y-128430500D01*
X138522856Y-128453779D01*
X138519437Y-128476834D01*
X138513773Y-128499443D01*
X138505921Y-128521387D01*
X138495956Y-128542457D01*
X138483974Y-128562448D01*
X138470090Y-128581168D01*
X138454438Y-128598438D01*
X138437168Y-128614090D01*
X138418448Y-128627974D01*
X138398457Y-128639956D01*
X138377387Y-128649921D01*
X138355443Y-128657773D01*
X138332834Y-128663437D01*
X138309779Y-128666856D01*
X138286500Y-128668000D01*
X137811500Y-128668000D01*
X137788221Y-128666856D01*
X137765166Y-128663437D01*
X137742557Y-128657773D01*
X137720613Y-128649921D01*
X137699543Y-128639956D01*
X137679552Y-128627974D01*
X137660832Y-128614090D01*
X137643562Y-128598438D01*
X137627910Y-128581168D01*
X137614026Y-128562448D01*
X137602044Y-128542457D01*
X137592079Y-128521387D01*
X137584227Y-128499443D01*
X137578563Y-128476834D01*
X137575144Y-128453779D01*
X137574000Y-128430500D01*
X137574000Y-127855500D01*
X137575144Y-127832221D01*
X137578563Y-127809166D01*
X137584227Y-127786557D01*
X137592079Y-127764613D01*
X137602044Y-127743543D01*
X137614026Y-127723552D01*
X137627910Y-127704832D01*
X137643562Y-127687562D01*
X137660832Y-127671910D01*
X137679552Y-127658026D01*
X137699543Y-127646044D01*
X137720613Y-127636079D01*
X137742557Y-127628227D01*
X137765166Y-127622563D01*
X137788221Y-127619144D01*
X137811500Y-127618000D01*
X138286500Y-127618000D01*
X138309779Y-127619144D01*
G37*
G36*
X138309779Y-129369144D02*
G01*
X138332834Y-129372563D01*
X138355443Y-129378227D01*
X138377387Y-129386079D01*
X138398457Y-129396044D01*
X138418448Y-129408026D01*
X138437168Y-129421910D01*
X138454438Y-129437562D01*
X138470090Y-129454832D01*
X138483974Y-129473552D01*
X138495956Y-129493543D01*
X138505921Y-129514613D01*
X138513773Y-129536557D01*
X138519437Y-129559166D01*
X138522856Y-129582221D01*
X138524000Y-129605500D01*
X138524000Y-130180500D01*
X138522856Y-130203779D01*
X138519437Y-130226834D01*
X138513773Y-130249443D01*
X138505921Y-130271387D01*
X138495956Y-130292457D01*
X138483974Y-130312448D01*
X138470090Y-130331168D01*
X138454438Y-130348438D01*
X138437168Y-130364090D01*
X138418448Y-130377974D01*
X138398457Y-130389956D01*
X138377387Y-130399921D01*
X138355443Y-130407773D01*
X138332834Y-130413437D01*
X138309779Y-130416856D01*
X138286500Y-130418000D01*
X137811500Y-130418000D01*
X137788221Y-130416856D01*
X137765166Y-130413437D01*
X137742557Y-130407773D01*
X137720613Y-130399921D01*
X137699543Y-130389956D01*
X137679552Y-130377974D01*
X137660832Y-130364090D01*
X137643562Y-130348438D01*
X137627910Y-130331168D01*
X137614026Y-130312448D01*
X137602044Y-130292457D01*
X137592079Y-130271387D01*
X137584227Y-130249443D01*
X137578563Y-130226834D01*
X137575144Y-130203779D01*
X137574000Y-130180500D01*
X137574000Y-129605500D01*
X137575144Y-129582221D01*
X137578563Y-129559166D01*
X137584227Y-129536557D01*
X137592079Y-129514613D01*
X137602044Y-129493543D01*
X137614026Y-129473552D01*
X137627910Y-129454832D01*
X137643562Y-129437562D01*
X137660832Y-129421910D01*
X137679552Y-129408026D01*
X137699543Y-129396044D01*
X137720613Y-129386079D01*
X137742557Y-129378227D01*
X137765166Y-129372563D01*
X137788221Y-129369144D01*
X137811500Y-129368000D01*
X138286500Y-129368000D01*
X138309779Y-129369144D01*
G37*
G36*
X122534279Y-156561644D02*
G01*
X122557334Y-156565063D01*
X122579943Y-156570727D01*
X122601887Y-156578579D01*
X122622957Y-156588544D01*
X122642948Y-156600526D01*
X122661668Y-156614410D01*
X122678938Y-156630062D01*
X122694590Y-156647332D01*
X122708474Y-156666052D01*
X122720456Y-156686043D01*
X122730421Y-156707113D01*
X122738273Y-156729057D01*
X122743937Y-156751666D01*
X122747356Y-156774721D01*
X122748500Y-156798000D01*
X122748500Y-157273000D01*
X122747356Y-157296279D01*
X122743937Y-157319334D01*
X122738273Y-157341943D01*
X122730421Y-157363887D01*
X122720456Y-157384957D01*
X122708474Y-157404948D01*
X122694590Y-157423668D01*
X122678938Y-157440938D01*
X122661668Y-157456590D01*
X122642948Y-157470474D01*
X122622957Y-157482456D01*
X122601887Y-157492421D01*
X122579943Y-157500273D01*
X122557334Y-157505937D01*
X122534279Y-157509356D01*
X122511000Y-157510500D01*
X121936000Y-157510500D01*
X121912721Y-157509356D01*
X121889666Y-157505937D01*
X121867057Y-157500273D01*
X121845113Y-157492421D01*
X121824043Y-157482456D01*
X121804052Y-157470474D01*
X121785332Y-157456590D01*
X121768062Y-157440938D01*
X121752410Y-157423668D01*
X121738526Y-157404948D01*
X121726544Y-157384957D01*
X121716579Y-157363887D01*
X121708727Y-157341943D01*
X121703063Y-157319334D01*
X121699644Y-157296279D01*
X121698500Y-157273000D01*
X121698500Y-156798000D01*
X121699644Y-156774721D01*
X121703063Y-156751666D01*
X121708727Y-156729057D01*
X121716579Y-156707113D01*
X121726544Y-156686043D01*
X121738526Y-156666052D01*
X121752410Y-156647332D01*
X121768062Y-156630062D01*
X121785332Y-156614410D01*
X121804052Y-156600526D01*
X121824043Y-156588544D01*
X121845113Y-156578579D01*
X121867057Y-156570727D01*
X121889666Y-156565063D01*
X121912721Y-156561644D01*
X121936000Y-156560500D01*
X122511000Y-156560500D01*
X122534279Y-156561644D01*
G37*
G36*
X120784279Y-156561644D02*
G01*
X120807334Y-156565063D01*
X120829943Y-156570727D01*
X120851887Y-156578579D01*
X120872957Y-156588544D01*
X120892948Y-156600526D01*
X120911668Y-156614410D01*
X120928938Y-156630062D01*
X120944590Y-156647332D01*
X120958474Y-156666052D01*
X120970456Y-156686043D01*
X120980421Y-156707113D01*
X120988273Y-156729057D01*
X120993937Y-156751666D01*
X120997356Y-156774721D01*
X120998500Y-156798000D01*
X120998500Y-157273000D01*
X120997356Y-157296279D01*
X120993937Y-157319334D01*
X120988273Y-157341943D01*
X120980421Y-157363887D01*
X120970456Y-157384957D01*
X120958474Y-157404948D01*
X120944590Y-157423668D01*
X120928938Y-157440938D01*
X120911668Y-157456590D01*
X120892948Y-157470474D01*
X120872957Y-157482456D01*
X120851887Y-157492421D01*
X120829943Y-157500273D01*
X120807334Y-157505937D01*
X120784279Y-157509356D01*
X120761000Y-157510500D01*
X120186000Y-157510500D01*
X120162721Y-157509356D01*
X120139666Y-157505937D01*
X120117057Y-157500273D01*
X120095113Y-157492421D01*
X120074043Y-157482456D01*
X120054052Y-157470474D01*
X120035332Y-157456590D01*
X120018062Y-157440938D01*
X120002410Y-157423668D01*
X119988526Y-157404948D01*
X119976544Y-157384957D01*
X119966579Y-157363887D01*
X119958727Y-157341943D01*
X119953063Y-157319334D01*
X119949644Y-157296279D01*
X119948500Y-157273000D01*
X119948500Y-156798000D01*
X119949644Y-156774721D01*
X119953063Y-156751666D01*
X119958727Y-156729057D01*
X119966579Y-156707113D01*
X119976544Y-156686043D01*
X119988526Y-156666052D01*
X120002410Y-156647332D01*
X120018062Y-156630062D01*
X120035332Y-156614410D01*
X120054052Y-156600526D01*
X120074043Y-156588544D01*
X120095113Y-156578579D01*
X120117057Y-156570727D01*
X120139666Y-156565063D01*
X120162721Y-156561644D01*
X120186000Y-156560500D01*
X120761000Y-156560500D01*
X120784279Y-156561644D01*
G37*
G36*
X150692279Y-151862144D02*
G01*
X150715334Y-151865563D01*
X150737943Y-151871227D01*
X150759887Y-151879079D01*
X150780957Y-151889044D01*
X150800948Y-151901026D01*
X150819668Y-151914910D01*
X150836938Y-151930562D01*
X150852590Y-151947832D01*
X150866474Y-151966552D01*
X150878456Y-151986543D01*
X150888421Y-152007613D01*
X150896273Y-152029557D01*
X150901937Y-152052166D01*
X150905356Y-152075221D01*
X150906500Y-152098500D01*
X150906500Y-152673500D01*
X150905356Y-152696779D01*
X150901937Y-152719834D01*
X150896273Y-152742443D01*
X150888421Y-152764387D01*
X150878456Y-152785457D01*
X150866474Y-152805448D01*
X150852590Y-152824168D01*
X150836938Y-152841438D01*
X150819668Y-152857090D01*
X150800948Y-152870974D01*
X150780957Y-152882956D01*
X150759887Y-152892921D01*
X150737943Y-152900773D01*
X150715334Y-152906437D01*
X150692279Y-152909856D01*
X150669000Y-152911000D01*
X150194000Y-152911000D01*
X150170721Y-152909856D01*
X150147666Y-152906437D01*
X150125057Y-152900773D01*
X150103113Y-152892921D01*
X150082043Y-152882956D01*
X150062052Y-152870974D01*
X150043332Y-152857090D01*
X150026062Y-152841438D01*
X150010410Y-152824168D01*
X149996526Y-152805448D01*
X149984544Y-152785457D01*
X149974579Y-152764387D01*
X149966727Y-152742443D01*
X149961063Y-152719834D01*
X149957644Y-152696779D01*
X149956500Y-152673500D01*
X149956500Y-152098500D01*
X149957644Y-152075221D01*
X149961063Y-152052166D01*
X149966727Y-152029557D01*
X149974579Y-152007613D01*
X149984544Y-151986543D01*
X149996526Y-151966552D01*
X150010410Y-151947832D01*
X150026062Y-151930562D01*
X150043332Y-151914910D01*
X150062052Y-151901026D01*
X150082043Y-151889044D01*
X150103113Y-151879079D01*
X150125057Y-151871227D01*
X150147666Y-151865563D01*
X150170721Y-151862144D01*
X150194000Y-151861000D01*
X150669000Y-151861000D01*
X150692279Y-151862144D01*
G37*
G36*
X150692279Y-150112144D02*
G01*
X150715334Y-150115563D01*
X150737943Y-150121227D01*
X150759887Y-150129079D01*
X150780957Y-150139044D01*
X150800948Y-150151026D01*
X150819668Y-150164910D01*
X150836938Y-150180562D01*
X150852590Y-150197832D01*
X150866474Y-150216552D01*
X150878456Y-150236543D01*
X150888421Y-150257613D01*
X150896273Y-150279557D01*
X150901937Y-150302166D01*
X150905356Y-150325221D01*
X150906500Y-150348500D01*
X150906500Y-150923500D01*
X150905356Y-150946779D01*
X150901937Y-150969834D01*
X150896273Y-150992443D01*
X150888421Y-151014387D01*
X150878456Y-151035457D01*
X150866474Y-151055448D01*
X150852590Y-151074168D01*
X150836938Y-151091438D01*
X150819668Y-151107090D01*
X150800948Y-151120974D01*
X150780957Y-151132956D01*
X150759887Y-151142921D01*
X150737943Y-151150773D01*
X150715334Y-151156437D01*
X150692279Y-151159856D01*
X150669000Y-151161000D01*
X150194000Y-151161000D01*
X150170721Y-151159856D01*
X150147666Y-151156437D01*
X150125057Y-151150773D01*
X150103113Y-151142921D01*
X150082043Y-151132956D01*
X150062052Y-151120974D01*
X150043332Y-151107090D01*
X150026062Y-151091438D01*
X150010410Y-151074168D01*
X149996526Y-151055448D01*
X149984544Y-151035457D01*
X149974579Y-151014387D01*
X149966727Y-150992443D01*
X149961063Y-150969834D01*
X149957644Y-150946779D01*
X149956500Y-150923500D01*
X149956500Y-150348500D01*
X149957644Y-150325221D01*
X149961063Y-150302166D01*
X149966727Y-150279557D01*
X149974579Y-150257613D01*
X149984544Y-150236543D01*
X149996526Y-150216552D01*
X150010410Y-150197832D01*
X150026062Y-150180562D01*
X150043332Y-150164910D01*
X150062052Y-150151026D01*
X150082043Y-150139044D01*
X150103113Y-150129079D01*
X150125057Y-150121227D01*
X150147666Y-150115563D01*
X150170721Y-150112144D01*
X150194000Y-150111000D01*
X150669000Y-150111000D01*
X150692279Y-150112144D01*
G37*
G36*
X150692279Y-146443144D02*
G01*
X150715334Y-146446563D01*
X150737943Y-146452227D01*
X150759887Y-146460079D01*
X150780957Y-146470044D01*
X150800948Y-146482026D01*
X150819668Y-146495910D01*
X150836938Y-146511562D01*
X150852590Y-146528832D01*
X150866474Y-146547552D01*
X150878456Y-146567543D01*
X150888421Y-146588613D01*
X150896273Y-146610557D01*
X150901937Y-146633166D01*
X150905356Y-146656221D01*
X150906500Y-146679500D01*
X150906500Y-147254500D01*
X150905356Y-147277779D01*
X150901937Y-147300834D01*
X150896273Y-147323443D01*
X150888421Y-147345387D01*
X150878456Y-147366457D01*
X150866474Y-147386448D01*
X150852590Y-147405168D01*
X150836938Y-147422438D01*
X150819668Y-147438090D01*
X150800948Y-147451974D01*
X150780957Y-147463956D01*
X150759887Y-147473921D01*
X150737943Y-147481773D01*
X150715334Y-147487437D01*
X150692279Y-147490856D01*
X150669000Y-147492000D01*
X150194000Y-147492000D01*
X150170721Y-147490856D01*
X150147666Y-147487437D01*
X150125057Y-147481773D01*
X150103113Y-147473921D01*
X150082043Y-147463956D01*
X150062052Y-147451974D01*
X150043332Y-147438090D01*
X150026062Y-147422438D01*
X150010410Y-147405168D01*
X149996526Y-147386448D01*
X149984544Y-147366457D01*
X149974579Y-147345387D01*
X149966727Y-147323443D01*
X149961063Y-147300834D01*
X149957644Y-147277779D01*
X149956500Y-147254500D01*
X149956500Y-146679500D01*
X149957644Y-146656221D01*
X149961063Y-146633166D01*
X149966727Y-146610557D01*
X149974579Y-146588613D01*
X149984544Y-146567543D01*
X149996526Y-146547552D01*
X150010410Y-146528832D01*
X150026062Y-146511562D01*
X150043332Y-146495910D01*
X150062052Y-146482026D01*
X150082043Y-146470044D01*
X150103113Y-146460079D01*
X150125057Y-146452227D01*
X150147666Y-146446563D01*
X150170721Y-146443144D01*
X150194000Y-146442000D01*
X150669000Y-146442000D01*
X150692279Y-146443144D01*
G37*
G36*
X150692279Y-148193144D02*
G01*
X150715334Y-148196563D01*
X150737943Y-148202227D01*
X150759887Y-148210079D01*
X150780957Y-148220044D01*
X150800948Y-148232026D01*
X150819668Y-148245910D01*
X150836938Y-148261562D01*
X150852590Y-148278832D01*
X150866474Y-148297552D01*
X150878456Y-148317543D01*
X150888421Y-148338613D01*
X150896273Y-148360557D01*
X150901937Y-148383166D01*
X150905356Y-148406221D01*
X150906500Y-148429500D01*
X150906500Y-149004500D01*
X150905356Y-149027779D01*
X150901937Y-149050834D01*
X150896273Y-149073443D01*
X150888421Y-149095387D01*
X150878456Y-149116457D01*
X150866474Y-149136448D01*
X150852590Y-149155168D01*
X150836938Y-149172438D01*
X150819668Y-149188090D01*
X150800948Y-149201974D01*
X150780957Y-149213956D01*
X150759887Y-149223921D01*
X150737943Y-149231773D01*
X150715334Y-149237437D01*
X150692279Y-149240856D01*
X150669000Y-149242000D01*
X150194000Y-149242000D01*
X150170721Y-149240856D01*
X150147666Y-149237437D01*
X150125057Y-149231773D01*
X150103113Y-149223921D01*
X150082043Y-149213956D01*
X150062052Y-149201974D01*
X150043332Y-149188090D01*
X150026062Y-149172438D01*
X150010410Y-149155168D01*
X149996526Y-149136448D01*
X149984544Y-149116457D01*
X149974579Y-149095387D01*
X149966727Y-149073443D01*
X149961063Y-149050834D01*
X149957644Y-149027779D01*
X149956500Y-149004500D01*
X149956500Y-148429500D01*
X149957644Y-148406221D01*
X149961063Y-148383166D01*
X149966727Y-148360557D01*
X149974579Y-148338613D01*
X149984544Y-148317543D01*
X149996526Y-148297552D01*
X150010410Y-148278832D01*
X150026062Y-148261562D01*
X150043332Y-148245910D01*
X150062052Y-148232026D01*
X150082043Y-148220044D01*
X150103113Y-148210079D01*
X150125057Y-148202227D01*
X150147666Y-148196563D01*
X150170721Y-148193144D01*
X150194000Y-148192000D01*
X150669000Y-148192000D01*
X150692279Y-148193144D01*
G37*
G36*
X117026319Y-146084144D02*
G01*
X117049374Y-146087563D01*
X117071983Y-146093227D01*
X117093927Y-146101079D01*
X117114997Y-146111044D01*
X117134988Y-146123026D01*
X117153708Y-146136910D01*
X117170978Y-146152562D01*
X117186630Y-146169832D01*
X117200514Y-146188552D01*
X117212496Y-146208543D01*
X117222461Y-146229613D01*
X117230313Y-146251557D01*
X117235977Y-146274166D01*
X117239396Y-146297221D01*
X117240540Y-146320500D01*
X117240540Y-146795500D01*
X117239396Y-146818779D01*
X117235977Y-146841834D01*
X117230313Y-146864443D01*
X117222461Y-146886387D01*
X117212496Y-146907457D01*
X117200514Y-146927448D01*
X117186630Y-146946168D01*
X117170978Y-146963438D01*
X117153708Y-146979090D01*
X117134988Y-146992974D01*
X117114997Y-147004956D01*
X117093927Y-147014921D01*
X117071983Y-147022773D01*
X117049374Y-147028437D01*
X117026319Y-147031856D01*
X117003040Y-147033000D01*
X116428040Y-147033000D01*
X116404761Y-147031856D01*
X116381706Y-147028437D01*
X116359097Y-147022773D01*
X116337153Y-147014921D01*
X116316083Y-147004956D01*
X116296092Y-146992974D01*
X116277372Y-146979090D01*
X116260102Y-146963438D01*
X116244450Y-146946168D01*
X116230566Y-146927448D01*
X116218584Y-146907457D01*
X116208619Y-146886387D01*
X116200767Y-146864443D01*
X116195103Y-146841834D01*
X116191684Y-146818779D01*
X116190540Y-146795500D01*
X116190540Y-146320500D01*
X116191684Y-146297221D01*
X116195103Y-146274166D01*
X116200767Y-146251557D01*
X116208619Y-146229613D01*
X116218584Y-146208543D01*
X116230566Y-146188552D01*
X116244450Y-146169832D01*
X116260102Y-146152562D01*
X116277372Y-146136910D01*
X116296092Y-146123026D01*
X116316083Y-146111044D01*
X116337153Y-146101079D01*
X116359097Y-146093227D01*
X116381706Y-146087563D01*
X116404761Y-146084144D01*
X116428040Y-146083000D01*
X117003040Y-146083000D01*
X117026319Y-146084144D01*
G37*
G36*
X118776319Y-146084144D02*
G01*
X118799374Y-146087563D01*
X118821983Y-146093227D01*
X118843927Y-146101079D01*
X118864997Y-146111044D01*
X118884988Y-146123026D01*
X118903708Y-146136910D01*
X118920978Y-146152562D01*
X118936630Y-146169832D01*
X118950514Y-146188552D01*
X118962496Y-146208543D01*
X118972461Y-146229613D01*
X118980313Y-146251557D01*
X118985977Y-146274166D01*
X118989396Y-146297221D01*
X118990540Y-146320500D01*
X118990540Y-146795500D01*
X118989396Y-146818779D01*
X118985977Y-146841834D01*
X118980313Y-146864443D01*
X118972461Y-146886387D01*
X118962496Y-146907457D01*
X118950514Y-146927448D01*
X118936630Y-146946168D01*
X118920978Y-146963438D01*
X118903708Y-146979090D01*
X118884988Y-146992974D01*
X118864997Y-147004956D01*
X118843927Y-147014921D01*
X118821983Y-147022773D01*
X118799374Y-147028437D01*
X118776319Y-147031856D01*
X118753040Y-147033000D01*
X118178040Y-147033000D01*
X118154761Y-147031856D01*
X118131706Y-147028437D01*
X118109097Y-147022773D01*
X118087153Y-147014921D01*
X118066083Y-147004956D01*
X118046092Y-146992974D01*
X118027372Y-146979090D01*
X118010102Y-146963438D01*
X117994450Y-146946168D01*
X117980566Y-146927448D01*
X117968584Y-146907457D01*
X117958619Y-146886387D01*
X117950767Y-146864443D01*
X117945103Y-146841834D01*
X117941684Y-146818779D01*
X117940540Y-146795500D01*
X117940540Y-146320500D01*
X117941684Y-146297221D01*
X117945103Y-146274166D01*
X117950767Y-146251557D01*
X117958619Y-146229613D01*
X117968584Y-146208543D01*
X117980566Y-146188552D01*
X117994450Y-146169832D01*
X118010102Y-146152562D01*
X118027372Y-146136910D01*
X118046092Y-146123026D01*
X118066083Y-146111044D01*
X118087153Y-146101079D01*
X118109097Y-146093227D01*
X118131706Y-146087563D01*
X118154761Y-146084144D01*
X118178040Y-146083000D01*
X118753040Y-146083000D01*
X118776319Y-146084144D01*
G37*
G36*
X108845779Y-142097144D02*
G01*
X108868834Y-142100563D01*
X108891443Y-142106227D01*
X108913387Y-142114079D01*
X108934457Y-142124044D01*
X108954448Y-142136026D01*
X108973168Y-142149910D01*
X108990438Y-142165562D01*
X109006090Y-142182832D01*
X109019974Y-142201552D01*
X109031956Y-142221543D01*
X109041921Y-142242613D01*
X109049773Y-142264557D01*
X109055437Y-142287166D01*
X109058856Y-142310221D01*
X109060000Y-142333500D01*
X109060000Y-142908500D01*
X109058856Y-142931779D01*
X109055437Y-142954834D01*
X109049773Y-142977443D01*
X109041921Y-142999387D01*
X109031956Y-143020457D01*
X109019974Y-143040448D01*
X109006090Y-143059168D01*
X108990438Y-143076438D01*
X108973168Y-143092090D01*
X108954448Y-143105974D01*
X108934457Y-143117956D01*
X108913387Y-143127921D01*
X108891443Y-143135773D01*
X108868834Y-143141437D01*
X108845779Y-143144856D01*
X108822500Y-143146000D01*
X108347500Y-143146000D01*
X108324221Y-143144856D01*
X108301166Y-143141437D01*
X108278557Y-143135773D01*
X108256613Y-143127921D01*
X108235543Y-143117956D01*
X108215552Y-143105974D01*
X108196832Y-143092090D01*
X108179562Y-143076438D01*
X108163910Y-143059168D01*
X108150026Y-143040448D01*
X108138044Y-143020457D01*
X108128079Y-142999387D01*
X108120227Y-142977443D01*
X108114563Y-142954834D01*
X108111144Y-142931779D01*
X108110000Y-142908500D01*
X108110000Y-142333500D01*
X108111144Y-142310221D01*
X108114563Y-142287166D01*
X108120227Y-142264557D01*
X108128079Y-142242613D01*
X108138044Y-142221543D01*
X108150026Y-142201552D01*
X108163910Y-142182832D01*
X108179562Y-142165562D01*
X108196832Y-142149910D01*
X108215552Y-142136026D01*
X108235543Y-142124044D01*
X108256613Y-142114079D01*
X108278557Y-142106227D01*
X108301166Y-142100563D01*
X108324221Y-142097144D01*
X108347500Y-142096000D01*
X108822500Y-142096000D01*
X108845779Y-142097144D01*
G37*
G36*
X108845779Y-143847144D02*
G01*
X108868834Y-143850563D01*
X108891443Y-143856227D01*
X108913387Y-143864079D01*
X108934457Y-143874044D01*
X108954448Y-143886026D01*
X108973168Y-143899910D01*
X108990438Y-143915562D01*
X109006090Y-143932832D01*
X109019974Y-143951552D01*
X109031956Y-143971543D01*
X109041921Y-143992613D01*
X109049773Y-144014557D01*
X109055437Y-144037166D01*
X109058856Y-144060221D01*
X109060000Y-144083500D01*
X109060000Y-144658500D01*
X109058856Y-144681779D01*
X109055437Y-144704834D01*
X109049773Y-144727443D01*
X109041921Y-144749387D01*
X109031956Y-144770457D01*
X109019974Y-144790448D01*
X109006090Y-144809168D01*
X108990438Y-144826438D01*
X108973168Y-144842090D01*
X108954448Y-144855974D01*
X108934457Y-144867956D01*
X108913387Y-144877921D01*
X108891443Y-144885773D01*
X108868834Y-144891437D01*
X108845779Y-144894856D01*
X108822500Y-144896000D01*
X108347500Y-144896000D01*
X108324221Y-144894856D01*
X108301166Y-144891437D01*
X108278557Y-144885773D01*
X108256613Y-144877921D01*
X108235543Y-144867956D01*
X108215552Y-144855974D01*
X108196832Y-144842090D01*
X108179562Y-144826438D01*
X108163910Y-144809168D01*
X108150026Y-144790448D01*
X108138044Y-144770457D01*
X108128079Y-144749387D01*
X108120227Y-144727443D01*
X108114563Y-144704834D01*
X108111144Y-144681779D01*
X108110000Y-144658500D01*
X108110000Y-144083500D01*
X108111144Y-144060221D01*
X108114563Y-144037166D01*
X108120227Y-144014557D01*
X108128079Y-143992613D01*
X108138044Y-143971543D01*
X108150026Y-143951552D01*
X108163910Y-143932832D01*
X108179562Y-143915562D01*
X108196832Y-143899910D01*
X108215552Y-143886026D01*
X108235543Y-143874044D01*
X108256613Y-143864079D01*
X108278557Y-143856227D01*
X108301166Y-143850563D01*
X108324221Y-143847144D01*
X108347500Y-143846000D01*
X108822500Y-143846000D01*
X108845779Y-143847144D01*
G37*
G36*
X108845779Y-138350644D02*
G01*
X108868834Y-138354063D01*
X108891443Y-138359727D01*
X108913387Y-138367579D01*
X108934457Y-138377544D01*
X108954448Y-138389526D01*
X108973168Y-138403410D01*
X108990438Y-138419062D01*
X109006090Y-138436332D01*
X109019974Y-138455052D01*
X109031956Y-138475043D01*
X109041921Y-138496113D01*
X109049773Y-138518057D01*
X109055437Y-138540666D01*
X109058856Y-138563721D01*
X109060000Y-138587000D01*
X109060000Y-139162000D01*
X109058856Y-139185279D01*
X109055437Y-139208334D01*
X109049773Y-139230943D01*
X109041921Y-139252887D01*
X109031956Y-139273957D01*
X109019974Y-139293948D01*
X109006090Y-139312668D01*
X108990438Y-139329938D01*
X108973168Y-139345590D01*
X108954448Y-139359474D01*
X108934457Y-139371456D01*
X108913387Y-139381421D01*
X108891443Y-139389273D01*
X108868834Y-139394937D01*
X108845779Y-139398356D01*
X108822500Y-139399500D01*
X108347500Y-139399500D01*
X108324221Y-139398356D01*
X108301166Y-139394937D01*
X108278557Y-139389273D01*
X108256613Y-139381421D01*
X108235543Y-139371456D01*
X108215552Y-139359474D01*
X108196832Y-139345590D01*
X108179562Y-139329938D01*
X108163910Y-139312668D01*
X108150026Y-139293948D01*
X108138044Y-139273957D01*
X108128079Y-139252887D01*
X108120227Y-139230943D01*
X108114563Y-139208334D01*
X108111144Y-139185279D01*
X108110000Y-139162000D01*
X108110000Y-138587000D01*
X108111144Y-138563721D01*
X108114563Y-138540666D01*
X108120227Y-138518057D01*
X108128079Y-138496113D01*
X108138044Y-138475043D01*
X108150026Y-138455052D01*
X108163910Y-138436332D01*
X108179562Y-138419062D01*
X108196832Y-138403410D01*
X108215552Y-138389526D01*
X108235543Y-138377544D01*
X108256613Y-138367579D01*
X108278557Y-138359727D01*
X108301166Y-138354063D01*
X108324221Y-138350644D01*
X108347500Y-138349500D01*
X108822500Y-138349500D01*
X108845779Y-138350644D01*
G37*
G36*
X108845779Y-140100644D02*
G01*
X108868834Y-140104063D01*
X108891443Y-140109727D01*
X108913387Y-140117579D01*
X108934457Y-140127544D01*
X108954448Y-140139526D01*
X108973168Y-140153410D01*
X108990438Y-140169062D01*
X109006090Y-140186332D01*
X109019974Y-140205052D01*
X109031956Y-140225043D01*
X109041921Y-140246113D01*
X109049773Y-140268057D01*
X109055437Y-140290666D01*
X109058856Y-140313721D01*
X109060000Y-140337000D01*
X109060000Y-140912000D01*
X109058856Y-140935279D01*
X109055437Y-140958334D01*
X109049773Y-140980943D01*
X109041921Y-141002887D01*
X109031956Y-141023957D01*
X109019974Y-141043948D01*
X109006090Y-141062668D01*
X108990438Y-141079938D01*
X108973168Y-141095590D01*
X108954448Y-141109474D01*
X108934457Y-141121456D01*
X108913387Y-141131421D01*
X108891443Y-141139273D01*
X108868834Y-141144937D01*
X108845779Y-141148356D01*
X108822500Y-141149500D01*
X108347500Y-141149500D01*
X108324221Y-141148356D01*
X108301166Y-141144937D01*
X108278557Y-141139273D01*
X108256613Y-141131421D01*
X108235543Y-141121456D01*
X108215552Y-141109474D01*
X108196832Y-141095590D01*
X108179562Y-141079938D01*
X108163910Y-141062668D01*
X108150026Y-141043948D01*
X108138044Y-141023957D01*
X108128079Y-141002887D01*
X108120227Y-140980943D01*
X108114563Y-140958334D01*
X108111144Y-140935279D01*
X108110000Y-140912000D01*
X108110000Y-140337000D01*
X108111144Y-140313721D01*
X108114563Y-140290666D01*
X108120227Y-140268057D01*
X108128079Y-140246113D01*
X108138044Y-140225043D01*
X108150026Y-140205052D01*
X108163910Y-140186332D01*
X108179562Y-140169062D01*
X108196832Y-140153410D01*
X108215552Y-140139526D01*
X108235543Y-140127544D01*
X108256613Y-140117579D01*
X108278557Y-140109727D01*
X108301166Y-140104063D01*
X108324221Y-140100644D01*
X108347500Y-140099500D01*
X108822500Y-140099500D01*
X108845779Y-140100644D01*
G37*
G36*
X115210279Y-127542144D02*
G01*
X115233334Y-127545563D01*
X115255943Y-127551227D01*
X115277887Y-127559079D01*
X115298957Y-127569044D01*
X115318948Y-127581026D01*
X115337668Y-127594910D01*
X115354938Y-127610562D01*
X115370590Y-127627832D01*
X115384474Y-127646552D01*
X115396456Y-127666543D01*
X115406421Y-127687613D01*
X115414273Y-127709557D01*
X115419937Y-127732166D01*
X115423356Y-127755221D01*
X115424500Y-127778500D01*
X115424500Y-128253500D01*
X115423356Y-128276779D01*
X115419937Y-128299834D01*
X115414273Y-128322443D01*
X115406421Y-128344387D01*
X115396456Y-128365457D01*
X115384474Y-128385448D01*
X115370590Y-128404168D01*
X115354938Y-128421438D01*
X115337668Y-128437090D01*
X115318948Y-128450974D01*
X115298957Y-128462956D01*
X115277887Y-128472921D01*
X115255943Y-128480773D01*
X115233334Y-128486437D01*
X115210279Y-128489856D01*
X115187000Y-128491000D01*
X114612000Y-128491000D01*
X114588721Y-128489856D01*
X114565666Y-128486437D01*
X114543057Y-128480773D01*
X114521113Y-128472921D01*
X114500043Y-128462956D01*
X114480052Y-128450974D01*
X114461332Y-128437090D01*
X114444062Y-128421438D01*
X114428410Y-128404168D01*
X114414526Y-128385448D01*
X114402544Y-128365457D01*
X114392579Y-128344387D01*
X114384727Y-128322443D01*
X114379063Y-128299834D01*
X114375644Y-128276779D01*
X114374500Y-128253500D01*
X114374500Y-127778500D01*
X114375644Y-127755221D01*
X114379063Y-127732166D01*
X114384727Y-127709557D01*
X114392579Y-127687613D01*
X114402544Y-127666543D01*
X114414526Y-127646552D01*
X114428410Y-127627832D01*
X114444062Y-127610562D01*
X114461332Y-127594910D01*
X114480052Y-127581026D01*
X114500043Y-127569044D01*
X114521113Y-127559079D01*
X114543057Y-127551227D01*
X114565666Y-127545563D01*
X114588721Y-127542144D01*
X114612000Y-127541000D01*
X115187000Y-127541000D01*
X115210279Y-127542144D01*
G37*
G36*
X116960279Y-127542144D02*
G01*
X116983334Y-127545563D01*
X117005943Y-127551227D01*
X117027887Y-127559079D01*
X117048957Y-127569044D01*
X117068948Y-127581026D01*
X117087668Y-127594910D01*
X117104938Y-127610562D01*
X117120590Y-127627832D01*
X117134474Y-127646552D01*
X117146456Y-127666543D01*
X117156421Y-127687613D01*
X117164273Y-127709557D01*
X117169937Y-127732166D01*
X117173356Y-127755221D01*
X117174500Y-127778500D01*
X117174500Y-128253500D01*
X117173356Y-128276779D01*
X117169937Y-128299834D01*
X117164273Y-128322443D01*
X117156421Y-128344387D01*
X117146456Y-128365457D01*
X117134474Y-128385448D01*
X117120590Y-128404168D01*
X117104938Y-128421438D01*
X117087668Y-128437090D01*
X117068948Y-128450974D01*
X117048957Y-128462956D01*
X117027887Y-128472921D01*
X117005943Y-128480773D01*
X116983334Y-128486437D01*
X116960279Y-128489856D01*
X116937000Y-128491000D01*
X116362000Y-128491000D01*
X116338721Y-128489856D01*
X116315666Y-128486437D01*
X116293057Y-128480773D01*
X116271113Y-128472921D01*
X116250043Y-128462956D01*
X116230052Y-128450974D01*
X116211332Y-128437090D01*
X116194062Y-128421438D01*
X116178410Y-128404168D01*
X116164526Y-128385448D01*
X116152544Y-128365457D01*
X116142579Y-128344387D01*
X116134727Y-128322443D01*
X116129063Y-128299834D01*
X116125644Y-128276779D01*
X116124500Y-128253500D01*
X116124500Y-127778500D01*
X116125644Y-127755221D01*
X116129063Y-127732166D01*
X116134727Y-127709557D01*
X116142579Y-127687613D01*
X116152544Y-127666543D01*
X116164526Y-127646552D01*
X116178410Y-127627832D01*
X116194062Y-127610562D01*
X116211332Y-127594910D01*
X116230052Y-127581026D01*
X116250043Y-127569044D01*
X116271113Y-127559079D01*
X116293057Y-127551227D01*
X116315666Y-127545563D01*
X116338721Y-127542144D01*
X116362000Y-127541000D01*
X116937000Y-127541000D01*
X116960279Y-127542144D01*
G37*
G36*
X115208979Y-129383644D02*
G01*
X115232034Y-129387063D01*
X115254643Y-129392727D01*
X115276587Y-129400579D01*
X115297657Y-129410544D01*
X115317648Y-129422526D01*
X115336368Y-129436410D01*
X115353638Y-129452062D01*
X115369290Y-129469332D01*
X115383174Y-129488052D01*
X115395156Y-129508043D01*
X115405121Y-129529113D01*
X115412973Y-129551057D01*
X115418637Y-129573666D01*
X115422056Y-129596721D01*
X115423200Y-129620000D01*
X115423200Y-130095000D01*
X115422056Y-130118279D01*
X115418637Y-130141334D01*
X115412973Y-130163943D01*
X115405121Y-130185887D01*
X115395156Y-130206957D01*
X115383174Y-130226948D01*
X115369290Y-130245668D01*
X115353638Y-130262938D01*
X115336368Y-130278590D01*
X115317648Y-130292474D01*
X115297657Y-130304456D01*
X115276587Y-130314421D01*
X115254643Y-130322273D01*
X115232034Y-130327937D01*
X115208979Y-130331356D01*
X115185700Y-130332500D01*
X114610700Y-130332500D01*
X114587421Y-130331356D01*
X114564366Y-130327937D01*
X114541757Y-130322273D01*
X114519813Y-130314421D01*
X114498743Y-130304456D01*
X114478752Y-130292474D01*
X114460032Y-130278590D01*
X114442762Y-130262938D01*
X114427110Y-130245668D01*
X114413226Y-130226948D01*
X114401244Y-130206957D01*
X114391279Y-130185887D01*
X114383427Y-130163943D01*
X114377763Y-130141334D01*
X114374344Y-130118279D01*
X114373200Y-130095000D01*
X114373200Y-129620000D01*
X114374344Y-129596721D01*
X114377763Y-129573666D01*
X114383427Y-129551057D01*
X114391279Y-129529113D01*
X114401244Y-129508043D01*
X114413226Y-129488052D01*
X114427110Y-129469332D01*
X114442762Y-129452062D01*
X114460032Y-129436410D01*
X114478752Y-129422526D01*
X114498743Y-129410544D01*
X114519813Y-129400579D01*
X114541757Y-129392727D01*
X114564366Y-129387063D01*
X114587421Y-129383644D01*
X114610700Y-129382500D01*
X115185700Y-129382500D01*
X115208979Y-129383644D01*
G37*
G36*
X116958979Y-129383644D02*
G01*
X116982034Y-129387063D01*
X117004643Y-129392727D01*
X117026587Y-129400579D01*
X117047657Y-129410544D01*
X117067648Y-129422526D01*
X117086368Y-129436410D01*
X117103638Y-129452062D01*
X117119290Y-129469332D01*
X117133174Y-129488052D01*
X117145156Y-129508043D01*
X117155121Y-129529113D01*
X117162973Y-129551057D01*
X117168637Y-129573666D01*
X117172056Y-129596721D01*
X117173200Y-129620000D01*
X117173200Y-130095000D01*
X117172056Y-130118279D01*
X117168637Y-130141334D01*
X117162973Y-130163943D01*
X117155121Y-130185887D01*
X117145156Y-130206957D01*
X117133174Y-130226948D01*
X117119290Y-130245668D01*
X117103638Y-130262938D01*
X117086368Y-130278590D01*
X117067648Y-130292474D01*
X117047657Y-130304456D01*
X117026587Y-130314421D01*
X117004643Y-130322273D01*
X116982034Y-130327937D01*
X116958979Y-130331356D01*
X116935700Y-130332500D01*
X116360700Y-130332500D01*
X116337421Y-130331356D01*
X116314366Y-130327937D01*
X116291757Y-130322273D01*
X116269813Y-130314421D01*
X116248743Y-130304456D01*
X116228752Y-130292474D01*
X116210032Y-130278590D01*
X116192762Y-130262938D01*
X116177110Y-130245668D01*
X116163226Y-130226948D01*
X116151244Y-130206957D01*
X116141279Y-130185887D01*
X116133427Y-130163943D01*
X116127763Y-130141334D01*
X116124344Y-130118279D01*
X116123200Y-130095000D01*
X116123200Y-129620000D01*
X116124344Y-129596721D01*
X116127763Y-129573666D01*
X116133427Y-129551057D01*
X116141279Y-129529113D01*
X116151244Y-129508043D01*
X116163226Y-129488052D01*
X116177110Y-129469332D01*
X116192762Y-129452062D01*
X116210032Y-129436410D01*
X116228752Y-129422526D01*
X116248743Y-129410544D01*
X116269813Y-129400579D01*
X116291757Y-129392727D01*
X116314366Y-129387063D01*
X116337421Y-129383644D01*
X116360700Y-129382500D01*
X116935700Y-129382500D01*
X116958979Y-129383644D01*
G37*
G36*
X115196279Y-131225144D02*
G01*
X115219334Y-131228563D01*
X115241943Y-131234227D01*
X115263887Y-131242079D01*
X115284957Y-131252044D01*
X115304948Y-131264026D01*
X115323668Y-131277910D01*
X115340938Y-131293562D01*
X115356590Y-131310832D01*
X115370474Y-131329552D01*
X115382456Y-131349543D01*
X115392421Y-131370613D01*
X115400273Y-131392557D01*
X115405937Y-131415166D01*
X115409356Y-131438221D01*
X115410500Y-131461500D01*
X115410500Y-131936500D01*
X115409356Y-131959779D01*
X115405937Y-131982834D01*
X115400273Y-132005443D01*
X115392421Y-132027387D01*
X115382456Y-132048457D01*
X115370474Y-132068448D01*
X115356590Y-132087168D01*
X115340938Y-132104438D01*
X115323668Y-132120090D01*
X115304948Y-132133974D01*
X115284957Y-132145956D01*
X115263887Y-132155921D01*
X115241943Y-132163773D01*
X115219334Y-132169437D01*
X115196279Y-132172856D01*
X115173000Y-132174000D01*
X114598000Y-132174000D01*
X114574721Y-132172856D01*
X114551666Y-132169437D01*
X114529057Y-132163773D01*
X114507113Y-132155921D01*
X114486043Y-132145956D01*
X114466052Y-132133974D01*
X114447332Y-132120090D01*
X114430062Y-132104438D01*
X114414410Y-132087168D01*
X114400526Y-132068448D01*
X114388544Y-132048457D01*
X114378579Y-132027387D01*
X114370727Y-132005443D01*
X114365063Y-131982834D01*
X114361644Y-131959779D01*
X114360500Y-131936500D01*
X114360500Y-131461500D01*
X114361644Y-131438221D01*
X114365063Y-131415166D01*
X114370727Y-131392557D01*
X114378579Y-131370613D01*
X114388544Y-131349543D01*
X114400526Y-131329552D01*
X114414410Y-131310832D01*
X114430062Y-131293562D01*
X114447332Y-131277910D01*
X114466052Y-131264026D01*
X114486043Y-131252044D01*
X114507113Y-131242079D01*
X114529057Y-131234227D01*
X114551666Y-131228563D01*
X114574721Y-131225144D01*
X114598000Y-131224000D01*
X115173000Y-131224000D01*
X115196279Y-131225144D01*
G37*
G36*
X116946279Y-131225144D02*
G01*
X116969334Y-131228563D01*
X116991943Y-131234227D01*
X117013887Y-131242079D01*
X117034957Y-131252044D01*
X117054948Y-131264026D01*
X117073668Y-131277910D01*
X117090938Y-131293562D01*
X117106590Y-131310832D01*
X117120474Y-131329552D01*
X117132456Y-131349543D01*
X117142421Y-131370613D01*
X117150273Y-131392557D01*
X117155937Y-131415166D01*
X117159356Y-131438221D01*
X117160500Y-131461500D01*
X117160500Y-131936500D01*
X117159356Y-131959779D01*
X117155937Y-131982834D01*
X117150273Y-132005443D01*
X117142421Y-132027387D01*
X117132456Y-132048457D01*
X117120474Y-132068448D01*
X117106590Y-132087168D01*
X117090938Y-132104438D01*
X117073668Y-132120090D01*
X117054948Y-132133974D01*
X117034957Y-132145956D01*
X117013887Y-132155921D01*
X116991943Y-132163773D01*
X116969334Y-132169437D01*
X116946279Y-132172856D01*
X116923000Y-132174000D01*
X116348000Y-132174000D01*
X116324721Y-132172856D01*
X116301666Y-132169437D01*
X116279057Y-132163773D01*
X116257113Y-132155921D01*
X116236043Y-132145956D01*
X116216052Y-132133974D01*
X116197332Y-132120090D01*
X116180062Y-132104438D01*
X116164410Y-132087168D01*
X116150526Y-132068448D01*
X116138544Y-132048457D01*
X116128579Y-132027387D01*
X116120727Y-132005443D01*
X116115063Y-131982834D01*
X116111644Y-131959779D01*
X116110500Y-131936500D01*
X116110500Y-131461500D01*
X116111644Y-131438221D01*
X116115063Y-131415166D01*
X116120727Y-131392557D01*
X116128579Y-131370613D01*
X116138544Y-131349543D01*
X116150526Y-131329552D01*
X116164410Y-131310832D01*
X116180062Y-131293562D01*
X116197332Y-131277910D01*
X116216052Y-131264026D01*
X116236043Y-131252044D01*
X116257113Y-131242079D01*
X116279057Y-131234227D01*
X116301666Y-131228563D01*
X116324721Y-131225144D01*
X116348000Y-131224000D01*
X116923000Y-131224000D01*
X116946279Y-131225144D01*
G37*
D19*
X129725000Y-163265000D03*
X124245000Y-163265000D03*
D20*
X124025000Y-162515000D03*
X129975000Y-162515000D03*
D21*
X124125000Y-161215000D03*
X129875000Y-161195000D03*
D22*
X125675000Y-161315000D03*
X126325000Y-161315000D03*
X126975000Y-161315000D03*
X127625000Y-161315000D03*
X128275000Y-161315000D03*
D23*
X124555000Y-161195000D03*
X129395000Y-161195000D03*
D24*
X124245000Y-164195000D03*
X129705000Y-164195000D03*
D25*
X126015000Y-164465000D03*
X127935000Y-164465000D03*
D26*
X105045000Y-139151000D03*
X105545000Y-139151000D03*
X106045000Y-139151000D03*
X106545000Y-139151000D03*
X107045000Y-139151000D03*
X107045000Y-143551000D03*
X106545000Y-143551000D03*
X106045000Y-143551000D03*
X105545000Y-143551000D03*
X105045000Y-143551000D03*
D10*
G36*
X115831279Y-158403144D02*
G01*
X115854334Y-158406563D01*
X115876943Y-158412227D01*
X115898887Y-158420079D01*
X115919957Y-158430044D01*
X115939948Y-158442026D01*
X115958668Y-158455910D01*
X115975938Y-158471562D01*
X115991590Y-158488832D01*
X116005474Y-158507552D01*
X116017456Y-158527543D01*
X116027421Y-158548613D01*
X116035273Y-158570557D01*
X116040937Y-158593166D01*
X116044356Y-158616221D01*
X116045500Y-158639500D01*
X116045500Y-159114500D01*
X116044356Y-159137779D01*
X116040937Y-159160834D01*
X116035273Y-159183443D01*
X116027421Y-159205387D01*
X116017456Y-159226457D01*
X116005474Y-159246448D01*
X115991590Y-159265168D01*
X115975938Y-159282438D01*
X115958668Y-159298090D01*
X115939948Y-159311974D01*
X115919957Y-159323956D01*
X115898887Y-159333921D01*
X115876943Y-159341773D01*
X115854334Y-159347437D01*
X115831279Y-159350856D01*
X115808000Y-159352000D01*
X115233000Y-159352000D01*
X115209721Y-159350856D01*
X115186666Y-159347437D01*
X115164057Y-159341773D01*
X115142113Y-159333921D01*
X115121043Y-159323956D01*
X115101052Y-159311974D01*
X115082332Y-159298090D01*
X115065062Y-159282438D01*
X115049410Y-159265168D01*
X115035526Y-159246448D01*
X115023544Y-159226457D01*
X115013579Y-159205387D01*
X115005727Y-159183443D01*
X115000063Y-159160834D01*
X114996644Y-159137779D01*
X114995500Y-159114500D01*
X114995500Y-158639500D01*
X114996644Y-158616221D01*
X115000063Y-158593166D01*
X115005727Y-158570557D01*
X115013579Y-158548613D01*
X115023544Y-158527543D01*
X115035526Y-158507552D01*
X115049410Y-158488832D01*
X115065062Y-158471562D01*
X115082332Y-158455910D01*
X115101052Y-158442026D01*
X115121043Y-158430044D01*
X115142113Y-158420079D01*
X115164057Y-158412227D01*
X115186666Y-158406563D01*
X115209721Y-158403144D01*
X115233000Y-158402000D01*
X115808000Y-158402000D01*
X115831279Y-158403144D01*
G37*
G36*
X117581279Y-158403144D02*
G01*
X117604334Y-158406563D01*
X117626943Y-158412227D01*
X117648887Y-158420079D01*
X117669957Y-158430044D01*
X117689948Y-158442026D01*
X117708668Y-158455910D01*
X117725938Y-158471562D01*
X117741590Y-158488832D01*
X117755474Y-158507552D01*
X117767456Y-158527543D01*
X117777421Y-158548613D01*
X117785273Y-158570557D01*
X117790937Y-158593166D01*
X117794356Y-158616221D01*
X117795500Y-158639500D01*
X117795500Y-159114500D01*
X117794356Y-159137779D01*
X117790937Y-159160834D01*
X117785273Y-159183443D01*
X117777421Y-159205387D01*
X117767456Y-159226457D01*
X117755474Y-159246448D01*
X117741590Y-159265168D01*
X117725938Y-159282438D01*
X117708668Y-159298090D01*
X117689948Y-159311974D01*
X117669957Y-159323956D01*
X117648887Y-159333921D01*
X117626943Y-159341773D01*
X117604334Y-159347437D01*
X117581279Y-159350856D01*
X117558000Y-159352000D01*
X116983000Y-159352000D01*
X116959721Y-159350856D01*
X116936666Y-159347437D01*
X116914057Y-159341773D01*
X116892113Y-159333921D01*
X116871043Y-159323956D01*
X116851052Y-159311974D01*
X116832332Y-159298090D01*
X116815062Y-159282438D01*
X116799410Y-159265168D01*
X116785526Y-159246448D01*
X116773544Y-159226457D01*
X116763579Y-159205387D01*
X116755727Y-159183443D01*
X116750063Y-159160834D01*
X116746644Y-159137779D01*
X116745500Y-159114500D01*
X116745500Y-158639500D01*
X116746644Y-158616221D01*
X116750063Y-158593166D01*
X116755727Y-158570557D01*
X116763579Y-158548613D01*
X116773544Y-158527543D01*
X116785526Y-158507552D01*
X116799410Y-158488832D01*
X116815062Y-158471562D01*
X116832332Y-158455910D01*
X116851052Y-158442026D01*
X116871043Y-158430044D01*
X116892113Y-158420079D01*
X116914057Y-158412227D01*
X116936666Y-158406563D01*
X116959721Y-158403144D01*
X116983000Y-158402000D01*
X117558000Y-158402000D01*
X117581279Y-158403144D01*
G37*
G36*
X145549279Y-140877144D02*
G01*
X145572334Y-140880563D01*
X145594943Y-140886227D01*
X145616887Y-140894079D01*
X145637957Y-140904044D01*
X145657948Y-140916026D01*
X145676668Y-140929910D01*
X145693938Y-140945562D01*
X145709590Y-140962832D01*
X145723474Y-140981552D01*
X145735456Y-141001543D01*
X145745421Y-141022613D01*
X145753273Y-141044557D01*
X145758937Y-141067166D01*
X145762356Y-141090221D01*
X145763500Y-141113500D01*
X145763500Y-141588500D01*
X145762356Y-141611779D01*
X145758937Y-141634834D01*
X145753273Y-141657443D01*
X145745421Y-141679387D01*
X145735456Y-141700457D01*
X145723474Y-141720448D01*
X145709590Y-141739168D01*
X145693938Y-141756438D01*
X145676668Y-141772090D01*
X145657948Y-141785974D01*
X145637957Y-141797956D01*
X145616887Y-141807921D01*
X145594943Y-141815773D01*
X145572334Y-141821437D01*
X145549279Y-141824856D01*
X145526000Y-141826000D01*
X144951000Y-141826000D01*
X144927721Y-141824856D01*
X144904666Y-141821437D01*
X144882057Y-141815773D01*
X144860113Y-141807921D01*
X144839043Y-141797956D01*
X144819052Y-141785974D01*
X144800332Y-141772090D01*
X144783062Y-141756438D01*
X144767410Y-141739168D01*
X144753526Y-141720448D01*
X144741544Y-141700457D01*
X144731579Y-141679387D01*
X144723727Y-141657443D01*
X144718063Y-141634834D01*
X144714644Y-141611779D01*
X144713500Y-141588500D01*
X144713500Y-141113500D01*
X144714644Y-141090221D01*
X144718063Y-141067166D01*
X144723727Y-141044557D01*
X144731579Y-141022613D01*
X144741544Y-141001543D01*
X144753526Y-140981552D01*
X144767410Y-140962832D01*
X144783062Y-140945562D01*
X144800332Y-140929910D01*
X144819052Y-140916026D01*
X144839043Y-140904044D01*
X144860113Y-140894079D01*
X144882057Y-140886227D01*
X144904666Y-140880563D01*
X144927721Y-140877144D01*
X144951000Y-140876000D01*
X145526000Y-140876000D01*
X145549279Y-140877144D01*
G37*
G36*
X147299279Y-140877144D02*
G01*
X147322334Y-140880563D01*
X147344943Y-140886227D01*
X147366887Y-140894079D01*
X147387957Y-140904044D01*
X147407948Y-140916026D01*
X147426668Y-140929910D01*
X147443938Y-140945562D01*
X147459590Y-140962832D01*
X147473474Y-140981552D01*
X147485456Y-141001543D01*
X147495421Y-141022613D01*
X147503273Y-141044557D01*
X147508937Y-141067166D01*
X147512356Y-141090221D01*
X147513500Y-141113500D01*
X147513500Y-141588500D01*
X147512356Y-141611779D01*
X147508937Y-141634834D01*
X147503273Y-141657443D01*
X147495421Y-141679387D01*
X147485456Y-141700457D01*
X147473474Y-141720448D01*
X147459590Y-141739168D01*
X147443938Y-141756438D01*
X147426668Y-141772090D01*
X147407948Y-141785974D01*
X147387957Y-141797956D01*
X147366887Y-141807921D01*
X147344943Y-141815773D01*
X147322334Y-141821437D01*
X147299279Y-141824856D01*
X147276000Y-141826000D01*
X146701000Y-141826000D01*
X146677721Y-141824856D01*
X146654666Y-141821437D01*
X146632057Y-141815773D01*
X146610113Y-141807921D01*
X146589043Y-141797956D01*
X146569052Y-141785974D01*
X146550332Y-141772090D01*
X146533062Y-141756438D01*
X146517410Y-141739168D01*
X146503526Y-141720448D01*
X146491544Y-141700457D01*
X146481579Y-141679387D01*
X146473727Y-141657443D01*
X146468063Y-141634834D01*
X146464644Y-141611779D01*
X146463500Y-141588500D01*
X146463500Y-141113500D01*
X146464644Y-141090221D01*
X146468063Y-141067166D01*
X146473727Y-141044557D01*
X146481579Y-141022613D01*
X146491544Y-141001543D01*
X146503526Y-140981552D01*
X146517410Y-140962832D01*
X146533062Y-140945562D01*
X146550332Y-140929910D01*
X146569052Y-140916026D01*
X146589043Y-140904044D01*
X146610113Y-140894079D01*
X146632057Y-140886227D01*
X146654666Y-140880563D01*
X146677721Y-140877144D01*
X146701000Y-140876000D01*
X147276000Y-140876000D01*
X147299279Y-140877144D01*
G37*
G36*
X145549279Y-144560144D02*
G01*
X145572334Y-144563563D01*
X145594943Y-144569227D01*
X145616887Y-144577079D01*
X145637957Y-144587044D01*
X145657948Y-144599026D01*
X145676668Y-144612910D01*
X145693938Y-144628562D01*
X145709590Y-144645832D01*
X145723474Y-144664552D01*
X145735456Y-144684543D01*
X145745421Y-144705613D01*
X145753273Y-144727557D01*
X145758937Y-144750166D01*
X145762356Y-144773221D01*
X145763500Y-144796500D01*
X145763500Y-145271500D01*
X145762356Y-145294779D01*
X145758937Y-145317834D01*
X145753273Y-145340443D01*
X145745421Y-145362387D01*
X145735456Y-145383457D01*
X145723474Y-145403448D01*
X145709590Y-145422168D01*
X145693938Y-145439438D01*
X145676668Y-145455090D01*
X145657948Y-145468974D01*
X145637957Y-145480956D01*
X145616887Y-145490921D01*
X145594943Y-145498773D01*
X145572334Y-145504437D01*
X145549279Y-145507856D01*
X145526000Y-145509000D01*
X144951000Y-145509000D01*
X144927721Y-145507856D01*
X144904666Y-145504437D01*
X144882057Y-145498773D01*
X144860113Y-145490921D01*
X144839043Y-145480956D01*
X144819052Y-145468974D01*
X144800332Y-145455090D01*
X144783062Y-145439438D01*
X144767410Y-145422168D01*
X144753526Y-145403448D01*
X144741544Y-145383457D01*
X144731579Y-145362387D01*
X144723727Y-145340443D01*
X144718063Y-145317834D01*
X144714644Y-145294779D01*
X144713500Y-145271500D01*
X144713500Y-144796500D01*
X144714644Y-144773221D01*
X144718063Y-144750166D01*
X144723727Y-144727557D01*
X144731579Y-144705613D01*
X144741544Y-144684543D01*
X144753526Y-144664552D01*
X144767410Y-144645832D01*
X144783062Y-144628562D01*
X144800332Y-144612910D01*
X144819052Y-144599026D01*
X144839043Y-144587044D01*
X144860113Y-144577079D01*
X144882057Y-144569227D01*
X144904666Y-144563563D01*
X144927721Y-144560144D01*
X144951000Y-144559000D01*
X145526000Y-144559000D01*
X145549279Y-144560144D01*
G37*
G36*
X147299279Y-144560144D02*
G01*
X147322334Y-144563563D01*
X147344943Y-144569227D01*
X147366887Y-144577079D01*
X147387957Y-144587044D01*
X147407948Y-144599026D01*
X147426668Y-144612910D01*
X147443938Y-144628562D01*
X147459590Y-144645832D01*
X147473474Y-144664552D01*
X147485456Y-144684543D01*
X147495421Y-144705613D01*
X147503273Y-144727557D01*
X147508937Y-144750166D01*
X147512356Y-144773221D01*
X147513500Y-144796500D01*
X147513500Y-145271500D01*
X147512356Y-145294779D01*
X147508937Y-145317834D01*
X147503273Y-145340443D01*
X147495421Y-145362387D01*
X147485456Y-145383457D01*
X147473474Y-145403448D01*
X147459590Y-145422168D01*
X147443938Y-145439438D01*
X147426668Y-145455090D01*
X147407948Y-145468974D01*
X147387957Y-145480956D01*
X147366887Y-145490921D01*
X147344943Y-145498773D01*
X147322334Y-145504437D01*
X147299279Y-145507856D01*
X147276000Y-145509000D01*
X146701000Y-145509000D01*
X146677721Y-145507856D01*
X146654666Y-145504437D01*
X146632057Y-145498773D01*
X146610113Y-145490921D01*
X146589043Y-145480956D01*
X146569052Y-145468974D01*
X146550332Y-145455090D01*
X146533062Y-145439438D01*
X146517410Y-145422168D01*
X146503526Y-145403448D01*
X146491544Y-145383457D01*
X146481579Y-145362387D01*
X146473727Y-145340443D01*
X146468063Y-145317834D01*
X146464644Y-145294779D01*
X146463500Y-145271500D01*
X146463500Y-144796500D01*
X146464644Y-144773221D01*
X146468063Y-144750166D01*
X146473727Y-144727557D01*
X146481579Y-144705613D01*
X146491544Y-144684543D01*
X146503526Y-144664552D01*
X146517410Y-144645832D01*
X146533062Y-144628562D01*
X146550332Y-144612910D01*
X146569052Y-144599026D01*
X146589043Y-144587044D01*
X146610113Y-144577079D01*
X146632057Y-144569227D01*
X146654666Y-144563563D01*
X146677721Y-144560144D01*
X146701000Y-144559000D01*
X147276000Y-144559000D01*
X147299279Y-144560144D01*
G37*
G36*
X108415779Y-133955644D02*
G01*
X108438834Y-133959063D01*
X108461443Y-133964727D01*
X108483387Y-133972579D01*
X108504457Y-133982544D01*
X108524448Y-133994526D01*
X108543168Y-134008410D01*
X108560438Y-134024062D01*
X108576090Y-134041332D01*
X108589974Y-134060052D01*
X108601956Y-134080043D01*
X108611921Y-134101113D01*
X108619773Y-134123057D01*
X108625437Y-134145666D01*
X108628856Y-134168721D01*
X108630000Y-134192000D01*
X108630000Y-134667000D01*
X108628856Y-134690279D01*
X108625437Y-134713334D01*
X108619773Y-134735943D01*
X108611921Y-134757887D01*
X108601956Y-134778957D01*
X108589974Y-134798948D01*
X108576090Y-134817668D01*
X108560438Y-134834938D01*
X108543168Y-134850590D01*
X108524448Y-134864474D01*
X108504457Y-134876456D01*
X108483387Y-134886421D01*
X108461443Y-134894273D01*
X108438834Y-134899937D01*
X108415779Y-134903356D01*
X108392500Y-134904500D01*
X107817500Y-134904500D01*
X107794221Y-134903356D01*
X107771166Y-134899937D01*
X107748557Y-134894273D01*
X107726613Y-134886421D01*
X107705543Y-134876456D01*
X107685552Y-134864474D01*
X107666832Y-134850590D01*
X107649562Y-134834938D01*
X107633910Y-134817668D01*
X107620026Y-134798948D01*
X107608044Y-134778957D01*
X107598079Y-134757887D01*
X107590227Y-134735943D01*
X107584563Y-134713334D01*
X107581144Y-134690279D01*
X107580000Y-134667000D01*
X107580000Y-134192000D01*
X107581144Y-134168721D01*
X107584563Y-134145666D01*
X107590227Y-134123057D01*
X107598079Y-134101113D01*
X107608044Y-134080043D01*
X107620026Y-134060052D01*
X107633910Y-134041332D01*
X107649562Y-134024062D01*
X107666832Y-134008410D01*
X107685552Y-133994526D01*
X107705543Y-133982544D01*
X107726613Y-133972579D01*
X107748557Y-133964727D01*
X107771166Y-133959063D01*
X107794221Y-133955644D01*
X107817500Y-133954500D01*
X108392500Y-133954500D01*
X108415779Y-133955644D01*
G37*
G36*
X110165779Y-133955644D02*
G01*
X110188834Y-133959063D01*
X110211443Y-133964727D01*
X110233387Y-133972579D01*
X110254457Y-133982544D01*
X110274448Y-133994526D01*
X110293168Y-134008410D01*
X110310438Y-134024062D01*
X110326090Y-134041332D01*
X110339974Y-134060052D01*
X110351956Y-134080043D01*
X110361921Y-134101113D01*
X110369773Y-134123057D01*
X110375437Y-134145666D01*
X110378856Y-134168721D01*
X110380000Y-134192000D01*
X110380000Y-134667000D01*
X110378856Y-134690279D01*
X110375437Y-134713334D01*
X110369773Y-134735943D01*
X110361921Y-134757887D01*
X110351956Y-134778957D01*
X110339974Y-134798948D01*
X110326090Y-134817668D01*
X110310438Y-134834938D01*
X110293168Y-134850590D01*
X110274448Y-134864474D01*
X110254457Y-134876456D01*
X110233387Y-134886421D01*
X110211443Y-134894273D01*
X110188834Y-134899937D01*
X110165779Y-134903356D01*
X110142500Y-134904500D01*
X109567500Y-134904500D01*
X109544221Y-134903356D01*
X109521166Y-134899937D01*
X109498557Y-134894273D01*
X109476613Y-134886421D01*
X109455543Y-134876456D01*
X109435552Y-134864474D01*
X109416832Y-134850590D01*
X109399562Y-134834938D01*
X109383910Y-134817668D01*
X109370026Y-134798948D01*
X109358044Y-134778957D01*
X109348079Y-134757887D01*
X109340227Y-134735943D01*
X109334563Y-134713334D01*
X109331144Y-134690279D01*
X109330000Y-134667000D01*
X109330000Y-134192000D01*
X109331144Y-134168721D01*
X109334563Y-134145666D01*
X109340227Y-134123057D01*
X109348079Y-134101113D01*
X109358044Y-134080043D01*
X109370026Y-134060052D01*
X109383910Y-134041332D01*
X109399562Y-134024062D01*
X109416832Y-134008410D01*
X109435552Y-133994526D01*
X109455543Y-133982544D01*
X109476613Y-133972579D01*
X109498557Y-133964727D01*
X109521166Y-133959063D01*
X109544221Y-133955644D01*
X109567500Y-133954500D01*
X110142500Y-133954500D01*
X110165779Y-133955644D01*
G37*
G36*
X115753779Y-150198944D02*
G01*
X115776834Y-150202363D01*
X115799443Y-150208027D01*
X115821387Y-150215879D01*
X115842457Y-150225844D01*
X115862448Y-150237826D01*
X115881168Y-150251710D01*
X115898438Y-150267362D01*
X115914090Y-150284632D01*
X115927974Y-150303352D01*
X115939956Y-150323343D01*
X115949921Y-150344413D01*
X115957773Y-150366357D01*
X115963437Y-150388966D01*
X115966856Y-150412021D01*
X115968000Y-150435300D01*
X115968000Y-150910300D01*
X115966856Y-150933579D01*
X115963437Y-150956634D01*
X115957773Y-150979243D01*
X115949921Y-151001187D01*
X115939956Y-151022257D01*
X115927974Y-151042248D01*
X115914090Y-151060968D01*
X115898438Y-151078238D01*
X115881168Y-151093890D01*
X115862448Y-151107774D01*
X115842457Y-151119756D01*
X115821387Y-151129721D01*
X115799443Y-151137573D01*
X115776834Y-151143237D01*
X115753779Y-151146656D01*
X115730500Y-151147800D01*
X115155500Y-151147800D01*
X115132221Y-151146656D01*
X115109166Y-151143237D01*
X115086557Y-151137573D01*
X115064613Y-151129721D01*
X115043543Y-151119756D01*
X115023552Y-151107774D01*
X115004832Y-151093890D01*
X114987562Y-151078238D01*
X114971910Y-151060968D01*
X114958026Y-151042248D01*
X114946044Y-151022257D01*
X114936079Y-151001187D01*
X114928227Y-150979243D01*
X114922563Y-150956634D01*
X114919144Y-150933579D01*
X114918000Y-150910300D01*
X114918000Y-150435300D01*
X114919144Y-150412021D01*
X114922563Y-150388966D01*
X114928227Y-150366357D01*
X114936079Y-150344413D01*
X114946044Y-150323343D01*
X114958026Y-150303352D01*
X114971910Y-150284632D01*
X114987562Y-150267362D01*
X115004832Y-150251710D01*
X115023552Y-150237826D01*
X115043543Y-150225844D01*
X115064613Y-150215879D01*
X115086557Y-150208027D01*
X115109166Y-150202363D01*
X115132221Y-150198944D01*
X115155500Y-150197800D01*
X115730500Y-150197800D01*
X115753779Y-150198944D01*
G37*
G36*
X114003779Y-150198944D02*
G01*
X114026834Y-150202363D01*
X114049443Y-150208027D01*
X114071387Y-150215879D01*
X114092457Y-150225844D01*
X114112448Y-150237826D01*
X114131168Y-150251710D01*
X114148438Y-150267362D01*
X114164090Y-150284632D01*
X114177974Y-150303352D01*
X114189956Y-150323343D01*
X114199921Y-150344413D01*
X114207773Y-150366357D01*
X114213437Y-150388966D01*
X114216856Y-150412021D01*
X114218000Y-150435300D01*
X114218000Y-150910300D01*
X114216856Y-150933579D01*
X114213437Y-150956634D01*
X114207773Y-150979243D01*
X114199921Y-151001187D01*
X114189956Y-151022257D01*
X114177974Y-151042248D01*
X114164090Y-151060968D01*
X114148438Y-151078238D01*
X114131168Y-151093890D01*
X114112448Y-151107774D01*
X114092457Y-151119756D01*
X114071387Y-151129721D01*
X114049443Y-151137573D01*
X114026834Y-151143237D01*
X114003779Y-151146656D01*
X113980500Y-151147800D01*
X113405500Y-151147800D01*
X113382221Y-151146656D01*
X113359166Y-151143237D01*
X113336557Y-151137573D01*
X113314613Y-151129721D01*
X113293543Y-151119756D01*
X113273552Y-151107774D01*
X113254832Y-151093890D01*
X113237562Y-151078238D01*
X113221910Y-151060968D01*
X113208026Y-151042248D01*
X113196044Y-151022257D01*
X113186079Y-151001187D01*
X113178227Y-150979243D01*
X113172563Y-150956634D01*
X113169144Y-150933579D01*
X113168000Y-150910300D01*
X113168000Y-150435300D01*
X113169144Y-150412021D01*
X113172563Y-150388966D01*
X113178227Y-150366357D01*
X113186079Y-150344413D01*
X113196044Y-150323343D01*
X113208026Y-150303352D01*
X113221910Y-150284632D01*
X113237562Y-150267362D01*
X113254832Y-150251710D01*
X113273552Y-150237826D01*
X113293543Y-150225844D01*
X113314613Y-150215879D01*
X113336557Y-150208027D01*
X113359166Y-150202363D01*
X113382221Y-150198944D01*
X113405500Y-150197800D01*
X113980500Y-150197800D01*
X114003779Y-150198944D01*
G37*
G36*
X112465779Y-144306144D02*
G01*
X112488834Y-144309563D01*
X112511443Y-144315227D01*
X112533387Y-144323079D01*
X112554457Y-144333044D01*
X112574448Y-144345026D01*
X112593168Y-144358910D01*
X112610438Y-144374562D01*
X112626090Y-144391832D01*
X112639974Y-144410552D01*
X112651956Y-144430543D01*
X112661921Y-144451613D01*
X112669773Y-144473557D01*
X112675437Y-144496166D01*
X112678856Y-144519221D01*
X112680000Y-144542500D01*
X112680000Y-145017500D01*
X112678856Y-145040779D01*
X112675437Y-145063834D01*
X112669773Y-145086443D01*
X112661921Y-145108387D01*
X112651956Y-145129457D01*
X112639974Y-145149448D01*
X112626090Y-145168168D01*
X112610438Y-145185438D01*
X112593168Y-145201090D01*
X112574448Y-145214974D01*
X112554457Y-145226956D01*
X112533387Y-145236921D01*
X112511443Y-145244773D01*
X112488834Y-145250437D01*
X112465779Y-145253856D01*
X112442500Y-145255000D01*
X111867500Y-145255000D01*
X111844221Y-145253856D01*
X111821166Y-145250437D01*
X111798557Y-145244773D01*
X111776613Y-145236921D01*
X111755543Y-145226956D01*
X111735552Y-145214974D01*
X111716832Y-145201090D01*
X111699562Y-145185438D01*
X111683910Y-145168168D01*
X111670026Y-145149448D01*
X111658044Y-145129457D01*
X111648079Y-145108387D01*
X111640227Y-145086443D01*
X111634563Y-145063834D01*
X111631144Y-145040779D01*
X111630000Y-145017500D01*
X111630000Y-144542500D01*
X111631144Y-144519221D01*
X111634563Y-144496166D01*
X111640227Y-144473557D01*
X111648079Y-144451613D01*
X111658044Y-144430543D01*
X111670026Y-144410552D01*
X111683910Y-144391832D01*
X111699562Y-144374562D01*
X111716832Y-144358910D01*
X111735552Y-144345026D01*
X111755543Y-144333044D01*
X111776613Y-144323079D01*
X111798557Y-144315227D01*
X111821166Y-144309563D01*
X111844221Y-144306144D01*
X111867500Y-144305000D01*
X112442500Y-144305000D01*
X112465779Y-144306144D01*
G37*
G36*
X114215779Y-144306144D02*
G01*
X114238834Y-144309563D01*
X114261443Y-144315227D01*
X114283387Y-144323079D01*
X114304457Y-144333044D01*
X114324448Y-144345026D01*
X114343168Y-144358910D01*
X114360438Y-144374562D01*
X114376090Y-144391832D01*
X114389974Y-144410552D01*
X114401956Y-144430543D01*
X114411921Y-144451613D01*
X114419773Y-144473557D01*
X114425437Y-144496166D01*
X114428856Y-144519221D01*
X114430000Y-144542500D01*
X114430000Y-145017500D01*
X114428856Y-145040779D01*
X114425437Y-145063834D01*
X114419773Y-145086443D01*
X114411921Y-145108387D01*
X114401956Y-145129457D01*
X114389974Y-145149448D01*
X114376090Y-145168168D01*
X114360438Y-145185438D01*
X114343168Y-145201090D01*
X114324448Y-145214974D01*
X114304457Y-145226956D01*
X114283387Y-145236921D01*
X114261443Y-145244773D01*
X114238834Y-145250437D01*
X114215779Y-145253856D01*
X114192500Y-145255000D01*
X113617500Y-145255000D01*
X113594221Y-145253856D01*
X113571166Y-145250437D01*
X113548557Y-145244773D01*
X113526613Y-145236921D01*
X113505543Y-145226956D01*
X113485552Y-145214974D01*
X113466832Y-145201090D01*
X113449562Y-145185438D01*
X113433910Y-145168168D01*
X113420026Y-145149448D01*
X113408044Y-145129457D01*
X113398079Y-145108387D01*
X113390227Y-145086443D01*
X113384563Y-145063834D01*
X113381144Y-145040779D01*
X113380000Y-145017500D01*
X113380000Y-144542500D01*
X113381144Y-144519221D01*
X113384563Y-144496166D01*
X113390227Y-144473557D01*
X113398079Y-144451613D01*
X113408044Y-144430543D01*
X113420026Y-144410552D01*
X113433910Y-144391832D01*
X113449562Y-144374562D01*
X113466832Y-144358910D01*
X113485552Y-144345026D01*
X113505543Y-144333044D01*
X113526613Y-144323079D01*
X113548557Y-144315227D01*
X113571166Y-144309563D01*
X113594221Y-144306144D01*
X113617500Y-144305000D01*
X114192500Y-144305000D01*
X114215779Y-144306144D01*
G37*
G36*
X103893279Y-133942944D02*
G01*
X103916334Y-133946363D01*
X103938943Y-133952027D01*
X103960887Y-133959879D01*
X103981957Y-133969844D01*
X104001948Y-133981826D01*
X104020668Y-133995710D01*
X104037938Y-134011362D01*
X104053590Y-134028632D01*
X104067474Y-134047352D01*
X104079456Y-134067343D01*
X104089421Y-134088413D01*
X104097273Y-134110357D01*
X104102937Y-134132966D01*
X104106356Y-134156021D01*
X104107500Y-134179300D01*
X104107500Y-134654300D01*
X104106356Y-134677579D01*
X104102937Y-134700634D01*
X104097273Y-134723243D01*
X104089421Y-134745187D01*
X104079456Y-134766257D01*
X104067474Y-134786248D01*
X104053590Y-134804968D01*
X104037938Y-134822238D01*
X104020668Y-134837890D01*
X104001948Y-134851774D01*
X103981957Y-134863756D01*
X103960887Y-134873721D01*
X103938943Y-134881573D01*
X103916334Y-134887237D01*
X103893279Y-134890656D01*
X103870000Y-134891800D01*
X103295000Y-134891800D01*
X103271721Y-134890656D01*
X103248666Y-134887237D01*
X103226057Y-134881573D01*
X103204113Y-134873721D01*
X103183043Y-134863756D01*
X103163052Y-134851774D01*
X103144332Y-134837890D01*
X103127062Y-134822238D01*
X103111410Y-134804968D01*
X103097526Y-134786248D01*
X103085544Y-134766257D01*
X103075579Y-134745187D01*
X103067727Y-134723243D01*
X103062063Y-134700634D01*
X103058644Y-134677579D01*
X103057500Y-134654300D01*
X103057500Y-134179300D01*
X103058644Y-134156021D01*
X103062063Y-134132966D01*
X103067727Y-134110357D01*
X103075579Y-134088413D01*
X103085544Y-134067343D01*
X103097526Y-134047352D01*
X103111410Y-134028632D01*
X103127062Y-134011362D01*
X103144332Y-133995710D01*
X103163052Y-133981826D01*
X103183043Y-133969844D01*
X103204113Y-133959879D01*
X103226057Y-133952027D01*
X103248666Y-133946363D01*
X103271721Y-133942944D01*
X103295000Y-133941800D01*
X103870000Y-133941800D01*
X103893279Y-133942944D01*
G37*
G36*
X105643279Y-133942944D02*
G01*
X105666334Y-133946363D01*
X105688943Y-133952027D01*
X105710887Y-133959879D01*
X105731957Y-133969844D01*
X105751948Y-133981826D01*
X105770668Y-133995710D01*
X105787938Y-134011362D01*
X105803590Y-134028632D01*
X105817474Y-134047352D01*
X105829456Y-134067343D01*
X105839421Y-134088413D01*
X105847273Y-134110357D01*
X105852937Y-134132966D01*
X105856356Y-134156021D01*
X105857500Y-134179300D01*
X105857500Y-134654300D01*
X105856356Y-134677579D01*
X105852937Y-134700634D01*
X105847273Y-134723243D01*
X105839421Y-134745187D01*
X105829456Y-134766257D01*
X105817474Y-134786248D01*
X105803590Y-134804968D01*
X105787938Y-134822238D01*
X105770668Y-134837890D01*
X105751948Y-134851774D01*
X105731957Y-134863756D01*
X105710887Y-134873721D01*
X105688943Y-134881573D01*
X105666334Y-134887237D01*
X105643279Y-134890656D01*
X105620000Y-134891800D01*
X105045000Y-134891800D01*
X105021721Y-134890656D01*
X104998666Y-134887237D01*
X104976057Y-134881573D01*
X104954113Y-134873721D01*
X104933043Y-134863756D01*
X104913052Y-134851774D01*
X104894332Y-134837890D01*
X104877062Y-134822238D01*
X104861410Y-134804968D01*
X104847526Y-134786248D01*
X104835544Y-134766257D01*
X104825579Y-134745187D01*
X104817727Y-134723243D01*
X104812063Y-134700634D01*
X104808644Y-134677579D01*
X104807500Y-134654300D01*
X104807500Y-134179300D01*
X104808644Y-134156021D01*
X104812063Y-134132966D01*
X104817727Y-134110357D01*
X104825579Y-134088413D01*
X104835544Y-134067343D01*
X104847526Y-134047352D01*
X104861410Y-134028632D01*
X104877062Y-134011362D01*
X104894332Y-133995710D01*
X104913052Y-133981826D01*
X104933043Y-133969844D01*
X104954113Y-133959879D01*
X104976057Y-133952027D01*
X104998666Y-133946363D01*
X105021721Y-133942944D01*
X105045000Y-133941800D01*
X105620000Y-133941800D01*
X105643279Y-133942944D01*
G37*
G36*
X145549279Y-137003644D02*
G01*
X145572334Y-137007063D01*
X145594943Y-137012727D01*
X145616887Y-137020579D01*
X145637957Y-137030544D01*
X145657948Y-137042526D01*
X145676668Y-137056410D01*
X145693938Y-137072062D01*
X145709590Y-137089332D01*
X145723474Y-137108052D01*
X145735456Y-137128043D01*
X145745421Y-137149113D01*
X145753273Y-137171057D01*
X145758937Y-137193666D01*
X145762356Y-137216721D01*
X145763500Y-137240000D01*
X145763500Y-137715000D01*
X145762356Y-137738279D01*
X145758937Y-137761334D01*
X145753273Y-137783943D01*
X145745421Y-137805887D01*
X145735456Y-137826957D01*
X145723474Y-137846948D01*
X145709590Y-137865668D01*
X145693938Y-137882938D01*
X145676668Y-137898590D01*
X145657948Y-137912474D01*
X145637957Y-137924456D01*
X145616887Y-137934421D01*
X145594943Y-137942273D01*
X145572334Y-137947937D01*
X145549279Y-137951356D01*
X145526000Y-137952500D01*
X144951000Y-137952500D01*
X144927721Y-137951356D01*
X144904666Y-137947937D01*
X144882057Y-137942273D01*
X144860113Y-137934421D01*
X144839043Y-137924456D01*
X144819052Y-137912474D01*
X144800332Y-137898590D01*
X144783062Y-137882938D01*
X144767410Y-137865668D01*
X144753526Y-137846948D01*
X144741544Y-137826957D01*
X144731579Y-137805887D01*
X144723727Y-137783943D01*
X144718063Y-137761334D01*
X144714644Y-137738279D01*
X144713500Y-137715000D01*
X144713500Y-137240000D01*
X144714644Y-137216721D01*
X144718063Y-137193666D01*
X144723727Y-137171057D01*
X144731579Y-137149113D01*
X144741544Y-137128043D01*
X144753526Y-137108052D01*
X144767410Y-137089332D01*
X144783062Y-137072062D01*
X144800332Y-137056410D01*
X144819052Y-137042526D01*
X144839043Y-137030544D01*
X144860113Y-137020579D01*
X144882057Y-137012727D01*
X144904666Y-137007063D01*
X144927721Y-137003644D01*
X144951000Y-137002500D01*
X145526000Y-137002500D01*
X145549279Y-137003644D01*
G37*
G36*
X147299279Y-137003644D02*
G01*
X147322334Y-137007063D01*
X147344943Y-137012727D01*
X147366887Y-137020579D01*
X147387957Y-137030544D01*
X147407948Y-137042526D01*
X147426668Y-137056410D01*
X147443938Y-137072062D01*
X147459590Y-137089332D01*
X147473474Y-137108052D01*
X147485456Y-137128043D01*
X147495421Y-137149113D01*
X147503273Y-137171057D01*
X147508937Y-137193666D01*
X147512356Y-137216721D01*
X147513500Y-137240000D01*
X147513500Y-137715000D01*
X147512356Y-137738279D01*
X147508937Y-137761334D01*
X147503273Y-137783943D01*
X147495421Y-137805887D01*
X147485456Y-137826957D01*
X147473474Y-137846948D01*
X147459590Y-137865668D01*
X147443938Y-137882938D01*
X147426668Y-137898590D01*
X147407948Y-137912474D01*
X147387957Y-137924456D01*
X147366887Y-137934421D01*
X147344943Y-137942273D01*
X147322334Y-137947937D01*
X147299279Y-137951356D01*
X147276000Y-137952500D01*
X146701000Y-137952500D01*
X146677721Y-137951356D01*
X146654666Y-137947937D01*
X146632057Y-137942273D01*
X146610113Y-137934421D01*
X146589043Y-137924456D01*
X146569052Y-137912474D01*
X146550332Y-137898590D01*
X146533062Y-137882938D01*
X146517410Y-137865668D01*
X146503526Y-137846948D01*
X146491544Y-137826957D01*
X146481579Y-137805887D01*
X146473727Y-137783943D01*
X146468063Y-137761334D01*
X146464644Y-137738279D01*
X146463500Y-137715000D01*
X146463500Y-137240000D01*
X146464644Y-137216721D01*
X146468063Y-137193666D01*
X146473727Y-137171057D01*
X146481579Y-137149113D01*
X146491544Y-137128043D01*
X146503526Y-137108052D01*
X146517410Y-137089332D01*
X146533062Y-137072062D01*
X146550332Y-137056410D01*
X146569052Y-137042526D01*
X146589043Y-137030544D01*
X146610113Y-137020579D01*
X146632057Y-137012727D01*
X146654666Y-137007063D01*
X146677721Y-137003644D01*
X146701000Y-137002500D01*
X147276000Y-137002500D01*
X147299279Y-137003644D01*
G37*
G36*
X145549279Y-148243144D02*
G01*
X145572334Y-148246563D01*
X145594943Y-148252227D01*
X145616887Y-148260079D01*
X145637957Y-148270044D01*
X145657948Y-148282026D01*
X145676668Y-148295910D01*
X145693938Y-148311562D01*
X145709590Y-148328832D01*
X145723474Y-148347552D01*
X145735456Y-148367543D01*
X145745421Y-148388613D01*
X145753273Y-148410557D01*
X145758937Y-148433166D01*
X145762356Y-148456221D01*
X145763500Y-148479500D01*
X145763500Y-148954500D01*
X145762356Y-148977779D01*
X145758937Y-149000834D01*
X145753273Y-149023443D01*
X145745421Y-149045387D01*
X145735456Y-149066457D01*
X145723474Y-149086448D01*
X145709590Y-149105168D01*
X145693938Y-149122438D01*
X145676668Y-149138090D01*
X145657948Y-149151974D01*
X145637957Y-149163956D01*
X145616887Y-149173921D01*
X145594943Y-149181773D01*
X145572334Y-149187437D01*
X145549279Y-149190856D01*
X145526000Y-149192000D01*
X144951000Y-149192000D01*
X144927721Y-149190856D01*
X144904666Y-149187437D01*
X144882057Y-149181773D01*
X144860113Y-149173921D01*
X144839043Y-149163956D01*
X144819052Y-149151974D01*
X144800332Y-149138090D01*
X144783062Y-149122438D01*
X144767410Y-149105168D01*
X144753526Y-149086448D01*
X144741544Y-149066457D01*
X144731579Y-149045387D01*
X144723727Y-149023443D01*
X144718063Y-149000834D01*
X144714644Y-148977779D01*
X144713500Y-148954500D01*
X144713500Y-148479500D01*
X144714644Y-148456221D01*
X144718063Y-148433166D01*
X144723727Y-148410557D01*
X144731579Y-148388613D01*
X144741544Y-148367543D01*
X144753526Y-148347552D01*
X144767410Y-148328832D01*
X144783062Y-148311562D01*
X144800332Y-148295910D01*
X144819052Y-148282026D01*
X144839043Y-148270044D01*
X144860113Y-148260079D01*
X144882057Y-148252227D01*
X144904666Y-148246563D01*
X144927721Y-148243144D01*
X144951000Y-148242000D01*
X145526000Y-148242000D01*
X145549279Y-148243144D01*
G37*
G36*
X147299279Y-148243144D02*
G01*
X147322334Y-148246563D01*
X147344943Y-148252227D01*
X147366887Y-148260079D01*
X147387957Y-148270044D01*
X147407948Y-148282026D01*
X147426668Y-148295910D01*
X147443938Y-148311562D01*
X147459590Y-148328832D01*
X147473474Y-148347552D01*
X147485456Y-148367543D01*
X147495421Y-148388613D01*
X147503273Y-148410557D01*
X147508937Y-148433166D01*
X147512356Y-148456221D01*
X147513500Y-148479500D01*
X147513500Y-148954500D01*
X147512356Y-148977779D01*
X147508937Y-149000834D01*
X147503273Y-149023443D01*
X147495421Y-149045387D01*
X147485456Y-149066457D01*
X147473474Y-149086448D01*
X147459590Y-149105168D01*
X147443938Y-149122438D01*
X147426668Y-149138090D01*
X147407948Y-149151974D01*
X147387957Y-149163956D01*
X147366887Y-149173921D01*
X147344943Y-149181773D01*
X147322334Y-149187437D01*
X147299279Y-149190856D01*
X147276000Y-149192000D01*
X146701000Y-149192000D01*
X146677721Y-149190856D01*
X146654666Y-149187437D01*
X146632057Y-149181773D01*
X146610113Y-149173921D01*
X146589043Y-149163956D01*
X146569052Y-149151974D01*
X146550332Y-149138090D01*
X146533062Y-149122438D01*
X146517410Y-149105168D01*
X146503526Y-149086448D01*
X146491544Y-149066457D01*
X146481579Y-149045387D01*
X146473727Y-149023443D01*
X146468063Y-149000834D01*
X146464644Y-148977779D01*
X146463500Y-148954500D01*
X146463500Y-148479500D01*
X146464644Y-148456221D01*
X146468063Y-148433166D01*
X146473727Y-148410557D01*
X146481579Y-148388613D01*
X146491544Y-148367543D01*
X146503526Y-148347552D01*
X146517410Y-148328832D01*
X146533062Y-148311562D01*
X146550332Y-148295910D01*
X146569052Y-148282026D01*
X146589043Y-148270044D01*
X146610113Y-148260079D01*
X146632057Y-148252227D01*
X146654666Y-148246563D01*
X146677721Y-148243144D01*
X146701000Y-148242000D01*
X147276000Y-148242000D01*
X147299279Y-148243144D01*
G37*
G36*
X117023779Y-144369644D02*
G01*
X117046834Y-144373063D01*
X117069443Y-144378727D01*
X117091387Y-144386579D01*
X117112457Y-144396544D01*
X117132448Y-144408526D01*
X117151168Y-144422410D01*
X117168438Y-144438062D01*
X117184090Y-144455332D01*
X117197974Y-144474052D01*
X117209956Y-144494043D01*
X117219921Y-144515113D01*
X117227773Y-144537057D01*
X117233437Y-144559666D01*
X117236856Y-144582721D01*
X117238000Y-144606000D01*
X117238000Y-145081000D01*
X117236856Y-145104279D01*
X117233437Y-145127334D01*
X117227773Y-145149943D01*
X117219921Y-145171887D01*
X117209956Y-145192957D01*
X117197974Y-145212948D01*
X117184090Y-145231668D01*
X117168438Y-145248938D01*
X117151168Y-145264590D01*
X117132448Y-145278474D01*
X117112457Y-145290456D01*
X117091387Y-145300421D01*
X117069443Y-145308273D01*
X117046834Y-145313937D01*
X117023779Y-145317356D01*
X117000500Y-145318500D01*
X116425500Y-145318500D01*
X116402221Y-145317356D01*
X116379166Y-145313937D01*
X116356557Y-145308273D01*
X116334613Y-145300421D01*
X116313543Y-145290456D01*
X116293552Y-145278474D01*
X116274832Y-145264590D01*
X116257562Y-145248938D01*
X116241910Y-145231668D01*
X116228026Y-145212948D01*
X116216044Y-145192957D01*
X116206079Y-145171887D01*
X116198227Y-145149943D01*
X116192563Y-145127334D01*
X116189144Y-145104279D01*
X116188000Y-145081000D01*
X116188000Y-144606000D01*
X116189144Y-144582721D01*
X116192563Y-144559666D01*
X116198227Y-144537057D01*
X116206079Y-144515113D01*
X116216044Y-144494043D01*
X116228026Y-144474052D01*
X116241910Y-144455332D01*
X116257562Y-144438062D01*
X116274832Y-144422410D01*
X116293552Y-144408526D01*
X116313543Y-144396544D01*
X116334613Y-144386579D01*
X116356557Y-144378727D01*
X116379166Y-144373063D01*
X116402221Y-144369644D01*
X116425500Y-144368500D01*
X117000500Y-144368500D01*
X117023779Y-144369644D01*
G37*
G36*
X118773779Y-144369644D02*
G01*
X118796834Y-144373063D01*
X118819443Y-144378727D01*
X118841387Y-144386579D01*
X118862457Y-144396544D01*
X118882448Y-144408526D01*
X118901168Y-144422410D01*
X118918438Y-144438062D01*
X118934090Y-144455332D01*
X118947974Y-144474052D01*
X118959956Y-144494043D01*
X118969921Y-144515113D01*
X118977773Y-144537057D01*
X118983437Y-144559666D01*
X118986856Y-144582721D01*
X118988000Y-144606000D01*
X118988000Y-145081000D01*
X118986856Y-145104279D01*
X118983437Y-145127334D01*
X118977773Y-145149943D01*
X118969921Y-145171887D01*
X118959956Y-145192957D01*
X118947974Y-145212948D01*
X118934090Y-145231668D01*
X118918438Y-145248938D01*
X118901168Y-145264590D01*
X118882448Y-145278474D01*
X118862457Y-145290456D01*
X118841387Y-145300421D01*
X118819443Y-145308273D01*
X118796834Y-145313937D01*
X118773779Y-145317356D01*
X118750500Y-145318500D01*
X118175500Y-145318500D01*
X118152221Y-145317356D01*
X118129166Y-145313937D01*
X118106557Y-145308273D01*
X118084613Y-145300421D01*
X118063543Y-145290456D01*
X118043552Y-145278474D01*
X118024832Y-145264590D01*
X118007562Y-145248938D01*
X117991910Y-145231668D01*
X117978026Y-145212948D01*
X117966044Y-145192957D01*
X117956079Y-145171887D01*
X117948227Y-145149943D01*
X117942563Y-145127334D01*
X117939144Y-145104279D01*
X117938000Y-145081000D01*
X117938000Y-144606000D01*
X117939144Y-144582721D01*
X117942563Y-144559666D01*
X117948227Y-144537057D01*
X117956079Y-144515113D01*
X117966044Y-144494043D01*
X117978026Y-144474052D01*
X117991910Y-144455332D01*
X118007562Y-144438062D01*
X118024832Y-144422410D01*
X118043552Y-144408526D01*
X118063543Y-144396544D01*
X118084613Y-144386579D01*
X118106557Y-144378727D01*
X118129166Y-144373063D01*
X118152221Y-144369644D01*
X118175500Y-144368500D01*
X118750500Y-144368500D01*
X118773779Y-144369644D01*
G37*
G36*
X145549279Y-155609144D02*
G01*
X145572334Y-155612563D01*
X145594943Y-155618227D01*
X145616887Y-155626079D01*
X145637957Y-155636044D01*
X145657948Y-155648026D01*
X145676668Y-155661910D01*
X145693938Y-155677562D01*
X145709590Y-155694832D01*
X145723474Y-155713552D01*
X145735456Y-155733543D01*
X145745421Y-155754613D01*
X145753273Y-155776557D01*
X145758937Y-155799166D01*
X145762356Y-155822221D01*
X145763500Y-155845500D01*
X145763500Y-156320500D01*
X145762356Y-156343779D01*
X145758937Y-156366834D01*
X145753273Y-156389443D01*
X145745421Y-156411387D01*
X145735456Y-156432457D01*
X145723474Y-156452448D01*
X145709590Y-156471168D01*
X145693938Y-156488438D01*
X145676668Y-156504090D01*
X145657948Y-156517974D01*
X145637957Y-156529956D01*
X145616887Y-156539921D01*
X145594943Y-156547773D01*
X145572334Y-156553437D01*
X145549279Y-156556856D01*
X145526000Y-156558000D01*
X144951000Y-156558000D01*
X144927721Y-156556856D01*
X144904666Y-156553437D01*
X144882057Y-156547773D01*
X144860113Y-156539921D01*
X144839043Y-156529956D01*
X144819052Y-156517974D01*
X144800332Y-156504090D01*
X144783062Y-156488438D01*
X144767410Y-156471168D01*
X144753526Y-156452448D01*
X144741544Y-156432457D01*
X144731579Y-156411387D01*
X144723727Y-156389443D01*
X144718063Y-156366834D01*
X144714644Y-156343779D01*
X144713500Y-156320500D01*
X144713500Y-155845500D01*
X144714644Y-155822221D01*
X144718063Y-155799166D01*
X144723727Y-155776557D01*
X144731579Y-155754613D01*
X144741544Y-155733543D01*
X144753526Y-155713552D01*
X144767410Y-155694832D01*
X144783062Y-155677562D01*
X144800332Y-155661910D01*
X144819052Y-155648026D01*
X144839043Y-155636044D01*
X144860113Y-155626079D01*
X144882057Y-155618227D01*
X144904666Y-155612563D01*
X144927721Y-155609144D01*
X144951000Y-155608000D01*
X145526000Y-155608000D01*
X145549279Y-155609144D01*
G37*
G36*
X147299279Y-155609144D02*
G01*
X147322334Y-155612563D01*
X147344943Y-155618227D01*
X147366887Y-155626079D01*
X147387957Y-155636044D01*
X147407948Y-155648026D01*
X147426668Y-155661910D01*
X147443938Y-155677562D01*
X147459590Y-155694832D01*
X147473474Y-155713552D01*
X147485456Y-155733543D01*
X147495421Y-155754613D01*
X147503273Y-155776557D01*
X147508937Y-155799166D01*
X147512356Y-155822221D01*
X147513500Y-155845500D01*
X147513500Y-156320500D01*
X147512356Y-156343779D01*
X147508937Y-156366834D01*
X147503273Y-156389443D01*
X147495421Y-156411387D01*
X147485456Y-156432457D01*
X147473474Y-156452448D01*
X147459590Y-156471168D01*
X147443938Y-156488438D01*
X147426668Y-156504090D01*
X147407948Y-156517974D01*
X147387957Y-156529956D01*
X147366887Y-156539921D01*
X147344943Y-156547773D01*
X147322334Y-156553437D01*
X147299279Y-156556856D01*
X147276000Y-156558000D01*
X146701000Y-156558000D01*
X146677721Y-156556856D01*
X146654666Y-156553437D01*
X146632057Y-156547773D01*
X146610113Y-156539921D01*
X146589043Y-156529956D01*
X146569052Y-156517974D01*
X146550332Y-156504090D01*
X146533062Y-156488438D01*
X146517410Y-156471168D01*
X146503526Y-156452448D01*
X146491544Y-156432457D01*
X146481579Y-156411387D01*
X146473727Y-156389443D01*
X146468063Y-156366834D01*
X146464644Y-156343779D01*
X146463500Y-156320500D01*
X146463500Y-155845500D01*
X146464644Y-155822221D01*
X146468063Y-155799166D01*
X146473727Y-155776557D01*
X146481579Y-155754613D01*
X146491544Y-155733543D01*
X146503526Y-155713552D01*
X146517410Y-155694832D01*
X146533062Y-155677562D01*
X146550332Y-155661910D01*
X146569052Y-155648026D01*
X146589043Y-155636044D01*
X146610113Y-155626079D01*
X146632057Y-155618227D01*
X146654666Y-155612563D01*
X146677721Y-155609144D01*
X146701000Y-155608000D01*
X147276000Y-155608000D01*
X147299279Y-155609144D01*
G37*
G36*
X145549279Y-159165144D02*
G01*
X145572334Y-159168563D01*
X145594943Y-159174227D01*
X145616887Y-159182079D01*
X145637957Y-159192044D01*
X145657948Y-159204026D01*
X145676668Y-159217910D01*
X145693938Y-159233562D01*
X145709590Y-159250832D01*
X145723474Y-159269552D01*
X145735456Y-159289543D01*
X145745421Y-159310613D01*
X145753273Y-159332557D01*
X145758937Y-159355166D01*
X145762356Y-159378221D01*
X145763500Y-159401500D01*
X145763500Y-159876500D01*
X145762356Y-159899779D01*
X145758937Y-159922834D01*
X145753273Y-159945443D01*
X145745421Y-159967387D01*
X145735456Y-159988457D01*
X145723474Y-160008448D01*
X145709590Y-160027168D01*
X145693938Y-160044438D01*
X145676668Y-160060090D01*
X145657948Y-160073974D01*
X145637957Y-160085956D01*
X145616887Y-160095921D01*
X145594943Y-160103773D01*
X145572334Y-160109437D01*
X145549279Y-160112856D01*
X145526000Y-160114000D01*
X144951000Y-160114000D01*
X144927721Y-160112856D01*
X144904666Y-160109437D01*
X144882057Y-160103773D01*
X144860113Y-160095921D01*
X144839043Y-160085956D01*
X144819052Y-160073974D01*
X144800332Y-160060090D01*
X144783062Y-160044438D01*
X144767410Y-160027168D01*
X144753526Y-160008448D01*
X144741544Y-159988457D01*
X144731579Y-159967387D01*
X144723727Y-159945443D01*
X144718063Y-159922834D01*
X144714644Y-159899779D01*
X144713500Y-159876500D01*
X144713500Y-159401500D01*
X144714644Y-159378221D01*
X144718063Y-159355166D01*
X144723727Y-159332557D01*
X144731579Y-159310613D01*
X144741544Y-159289543D01*
X144753526Y-159269552D01*
X144767410Y-159250832D01*
X144783062Y-159233562D01*
X144800332Y-159217910D01*
X144819052Y-159204026D01*
X144839043Y-159192044D01*
X144860113Y-159182079D01*
X144882057Y-159174227D01*
X144904666Y-159168563D01*
X144927721Y-159165144D01*
X144951000Y-159164000D01*
X145526000Y-159164000D01*
X145549279Y-159165144D01*
G37*
G36*
X147299279Y-159165144D02*
G01*
X147322334Y-159168563D01*
X147344943Y-159174227D01*
X147366887Y-159182079D01*
X147387957Y-159192044D01*
X147407948Y-159204026D01*
X147426668Y-159217910D01*
X147443938Y-159233562D01*
X147459590Y-159250832D01*
X147473474Y-159269552D01*
X147485456Y-159289543D01*
X147495421Y-159310613D01*
X147503273Y-159332557D01*
X147508937Y-159355166D01*
X147512356Y-159378221D01*
X147513500Y-159401500D01*
X147513500Y-159876500D01*
X147512356Y-159899779D01*
X147508937Y-159922834D01*
X147503273Y-159945443D01*
X147495421Y-159967387D01*
X147485456Y-159988457D01*
X147473474Y-160008448D01*
X147459590Y-160027168D01*
X147443938Y-160044438D01*
X147426668Y-160060090D01*
X147407948Y-160073974D01*
X147387957Y-160085956D01*
X147366887Y-160095921D01*
X147344943Y-160103773D01*
X147322334Y-160109437D01*
X147299279Y-160112856D01*
X147276000Y-160114000D01*
X146701000Y-160114000D01*
X146677721Y-160112856D01*
X146654666Y-160109437D01*
X146632057Y-160103773D01*
X146610113Y-160095921D01*
X146589043Y-160085956D01*
X146569052Y-160073974D01*
X146550332Y-160060090D01*
X146533062Y-160044438D01*
X146517410Y-160027168D01*
X146503526Y-160008448D01*
X146491544Y-159988457D01*
X146481579Y-159967387D01*
X146473727Y-159945443D01*
X146468063Y-159922834D01*
X146464644Y-159899779D01*
X146463500Y-159876500D01*
X146463500Y-159401500D01*
X146464644Y-159378221D01*
X146468063Y-159355166D01*
X146473727Y-159332557D01*
X146481579Y-159310613D01*
X146491544Y-159289543D01*
X146503526Y-159269552D01*
X146517410Y-159250832D01*
X146533062Y-159233562D01*
X146550332Y-159217910D01*
X146569052Y-159204026D01*
X146589043Y-159192044D01*
X146610113Y-159182079D01*
X146632057Y-159174227D01*
X146654666Y-159168563D01*
X146677721Y-159165144D01*
X146701000Y-159164000D01*
X147276000Y-159164000D01*
X147299279Y-159165144D01*
G37*
G36*
X120784279Y-158403144D02*
G01*
X120807334Y-158406563D01*
X120829943Y-158412227D01*
X120851887Y-158420079D01*
X120872957Y-158430044D01*
X120892948Y-158442026D01*
X120911668Y-158455910D01*
X120928938Y-158471562D01*
X120944590Y-158488832D01*
X120958474Y-158507552D01*
X120970456Y-158527543D01*
X120980421Y-158548613D01*
X120988273Y-158570557D01*
X120993937Y-158593166D01*
X120997356Y-158616221D01*
X120998500Y-158639500D01*
X120998500Y-159114500D01*
X120997356Y-159137779D01*
X120993937Y-159160834D01*
X120988273Y-159183443D01*
X120980421Y-159205387D01*
X120970456Y-159226457D01*
X120958474Y-159246448D01*
X120944590Y-159265168D01*
X120928938Y-159282438D01*
X120911668Y-159298090D01*
X120892948Y-159311974D01*
X120872957Y-159323956D01*
X120851887Y-159333921D01*
X120829943Y-159341773D01*
X120807334Y-159347437D01*
X120784279Y-159350856D01*
X120761000Y-159352000D01*
X120186000Y-159352000D01*
X120162721Y-159350856D01*
X120139666Y-159347437D01*
X120117057Y-159341773D01*
X120095113Y-159333921D01*
X120074043Y-159323956D01*
X120054052Y-159311974D01*
X120035332Y-159298090D01*
X120018062Y-159282438D01*
X120002410Y-159265168D01*
X119988526Y-159246448D01*
X119976544Y-159226457D01*
X119966579Y-159205387D01*
X119958727Y-159183443D01*
X119953063Y-159160834D01*
X119949644Y-159137779D01*
X119948500Y-159114500D01*
X119948500Y-158639500D01*
X119949644Y-158616221D01*
X119953063Y-158593166D01*
X119958727Y-158570557D01*
X119966579Y-158548613D01*
X119976544Y-158527543D01*
X119988526Y-158507552D01*
X120002410Y-158488832D01*
X120018062Y-158471562D01*
X120035332Y-158455910D01*
X120054052Y-158442026D01*
X120074043Y-158430044D01*
X120095113Y-158420079D01*
X120117057Y-158412227D01*
X120139666Y-158406563D01*
X120162721Y-158403144D01*
X120186000Y-158402000D01*
X120761000Y-158402000D01*
X120784279Y-158403144D01*
G37*
G36*
X122534279Y-158403144D02*
G01*
X122557334Y-158406563D01*
X122579943Y-158412227D01*
X122601887Y-158420079D01*
X122622957Y-158430044D01*
X122642948Y-158442026D01*
X122661668Y-158455910D01*
X122678938Y-158471562D01*
X122694590Y-158488832D01*
X122708474Y-158507552D01*
X122720456Y-158527543D01*
X122730421Y-158548613D01*
X122738273Y-158570557D01*
X122743937Y-158593166D01*
X122747356Y-158616221D01*
X122748500Y-158639500D01*
X122748500Y-159114500D01*
X122747356Y-159137779D01*
X122743937Y-159160834D01*
X122738273Y-159183443D01*
X122730421Y-159205387D01*
X122720456Y-159226457D01*
X122708474Y-159246448D01*
X122694590Y-159265168D01*
X122678938Y-159282438D01*
X122661668Y-159298090D01*
X122642948Y-159311974D01*
X122622957Y-159323956D01*
X122601887Y-159333921D01*
X122579943Y-159341773D01*
X122557334Y-159347437D01*
X122534279Y-159350856D01*
X122511000Y-159352000D01*
X121936000Y-159352000D01*
X121912721Y-159350856D01*
X121889666Y-159347437D01*
X121867057Y-159341773D01*
X121845113Y-159333921D01*
X121824043Y-159323956D01*
X121804052Y-159311974D01*
X121785332Y-159298090D01*
X121768062Y-159282438D01*
X121752410Y-159265168D01*
X121738526Y-159246448D01*
X121726544Y-159226457D01*
X121716579Y-159205387D01*
X121708727Y-159183443D01*
X121703063Y-159160834D01*
X121699644Y-159137779D01*
X121698500Y-159114500D01*
X121698500Y-158639500D01*
X121699644Y-158616221D01*
X121703063Y-158593166D01*
X121708727Y-158570557D01*
X121716579Y-158548613D01*
X121726544Y-158527543D01*
X121738526Y-158507552D01*
X121752410Y-158488832D01*
X121768062Y-158471562D01*
X121785332Y-158455910D01*
X121804052Y-158442026D01*
X121824043Y-158430044D01*
X121845113Y-158420079D01*
X121867057Y-158412227D01*
X121889666Y-158406563D01*
X121912721Y-158403144D01*
X121936000Y-158402000D01*
X122511000Y-158402000D01*
X122534279Y-158403144D01*
G37*
G36*
X145549279Y-151926144D02*
G01*
X145572334Y-151929563D01*
X145594943Y-151935227D01*
X145616887Y-151943079D01*
X145637957Y-151953044D01*
X145657948Y-151965026D01*
X145676668Y-151978910D01*
X145693938Y-151994562D01*
X145709590Y-152011832D01*
X145723474Y-152030552D01*
X145735456Y-152050543D01*
X145745421Y-152071613D01*
X145753273Y-152093557D01*
X145758937Y-152116166D01*
X145762356Y-152139221D01*
X145763500Y-152162500D01*
X145763500Y-152637500D01*
X145762356Y-152660779D01*
X145758937Y-152683834D01*
X145753273Y-152706443D01*
X145745421Y-152728387D01*
X145735456Y-152749457D01*
X145723474Y-152769448D01*
X145709590Y-152788168D01*
X145693938Y-152805438D01*
X145676668Y-152821090D01*
X145657948Y-152834974D01*
X145637957Y-152846956D01*
X145616887Y-152856921D01*
X145594943Y-152864773D01*
X145572334Y-152870437D01*
X145549279Y-152873856D01*
X145526000Y-152875000D01*
X144951000Y-152875000D01*
X144927721Y-152873856D01*
X144904666Y-152870437D01*
X144882057Y-152864773D01*
X144860113Y-152856921D01*
X144839043Y-152846956D01*
X144819052Y-152834974D01*
X144800332Y-152821090D01*
X144783062Y-152805438D01*
X144767410Y-152788168D01*
X144753526Y-152769448D01*
X144741544Y-152749457D01*
X144731579Y-152728387D01*
X144723727Y-152706443D01*
X144718063Y-152683834D01*
X144714644Y-152660779D01*
X144713500Y-152637500D01*
X144713500Y-152162500D01*
X144714644Y-152139221D01*
X144718063Y-152116166D01*
X144723727Y-152093557D01*
X144731579Y-152071613D01*
X144741544Y-152050543D01*
X144753526Y-152030552D01*
X144767410Y-152011832D01*
X144783062Y-151994562D01*
X144800332Y-151978910D01*
X144819052Y-151965026D01*
X144839043Y-151953044D01*
X144860113Y-151943079D01*
X144882057Y-151935227D01*
X144904666Y-151929563D01*
X144927721Y-151926144D01*
X144951000Y-151925000D01*
X145526000Y-151925000D01*
X145549279Y-151926144D01*
G37*
G36*
X147299279Y-151926144D02*
G01*
X147322334Y-151929563D01*
X147344943Y-151935227D01*
X147366887Y-151943079D01*
X147387957Y-151953044D01*
X147407948Y-151965026D01*
X147426668Y-151978910D01*
X147443938Y-151994562D01*
X147459590Y-152011832D01*
X147473474Y-152030552D01*
X147485456Y-152050543D01*
X147495421Y-152071613D01*
X147503273Y-152093557D01*
X147508937Y-152116166D01*
X147512356Y-152139221D01*
X147513500Y-152162500D01*
X147513500Y-152637500D01*
X147512356Y-152660779D01*
X147508937Y-152683834D01*
X147503273Y-152706443D01*
X147495421Y-152728387D01*
X147485456Y-152749457D01*
X147473474Y-152769448D01*
X147459590Y-152788168D01*
X147443938Y-152805438D01*
X147426668Y-152821090D01*
X147407948Y-152834974D01*
X147387957Y-152846956D01*
X147366887Y-152856921D01*
X147344943Y-152864773D01*
X147322334Y-152870437D01*
X147299279Y-152873856D01*
X147276000Y-152875000D01*
X146701000Y-152875000D01*
X146677721Y-152873856D01*
X146654666Y-152870437D01*
X146632057Y-152864773D01*
X146610113Y-152856921D01*
X146589043Y-152846956D01*
X146569052Y-152834974D01*
X146550332Y-152821090D01*
X146533062Y-152805438D01*
X146517410Y-152788168D01*
X146503526Y-152769448D01*
X146491544Y-152749457D01*
X146481579Y-152728387D01*
X146473727Y-152706443D01*
X146468063Y-152683834D01*
X146464644Y-152660779D01*
X146463500Y-152637500D01*
X146463500Y-152162500D01*
X146464644Y-152139221D01*
X146468063Y-152116166D01*
X146473727Y-152093557D01*
X146481579Y-152071613D01*
X146491544Y-152050543D01*
X146503526Y-152030552D01*
X146517410Y-152011832D01*
X146533062Y-151994562D01*
X146550332Y-151978910D01*
X146569052Y-151965026D01*
X146589043Y-151953044D01*
X146610113Y-151943079D01*
X146632057Y-151935227D01*
X146654666Y-151929563D01*
X146677721Y-151926144D01*
X146701000Y-151925000D01*
X147276000Y-151925000D01*
X147299279Y-151926144D01*
G37*
G36*
X103791179Y-140101944D02*
G01*
X103814234Y-140105363D01*
X103836843Y-140111027D01*
X103858787Y-140118879D01*
X103879857Y-140128844D01*
X103899848Y-140140826D01*
X103918568Y-140154710D01*
X103935838Y-140170362D01*
X103951490Y-140187632D01*
X103965374Y-140206352D01*
X103977356Y-140226343D01*
X103987321Y-140247413D01*
X103995173Y-140269357D01*
X104000837Y-140291966D01*
X104004256Y-140315021D01*
X104005400Y-140338300D01*
X104005400Y-140913300D01*
X104004256Y-140936579D01*
X104000837Y-140959634D01*
X103995173Y-140982243D01*
X103987321Y-141004187D01*
X103977356Y-141025257D01*
X103965374Y-141045248D01*
X103951490Y-141063968D01*
X103935838Y-141081238D01*
X103918568Y-141096890D01*
X103899848Y-141110774D01*
X103879857Y-141122756D01*
X103858787Y-141132721D01*
X103836843Y-141140573D01*
X103814234Y-141146237D01*
X103791179Y-141149656D01*
X103767900Y-141150800D01*
X103292900Y-141150800D01*
X103269621Y-141149656D01*
X103246566Y-141146237D01*
X103223957Y-141140573D01*
X103202013Y-141132721D01*
X103180943Y-141122756D01*
X103160952Y-141110774D01*
X103142232Y-141096890D01*
X103124962Y-141081238D01*
X103109310Y-141063968D01*
X103095426Y-141045248D01*
X103083444Y-141025257D01*
X103073479Y-141004187D01*
X103065627Y-140982243D01*
X103059963Y-140959634D01*
X103056544Y-140936579D01*
X103055400Y-140913300D01*
X103055400Y-140338300D01*
X103056544Y-140315021D01*
X103059963Y-140291966D01*
X103065627Y-140269357D01*
X103073479Y-140247413D01*
X103083444Y-140226343D01*
X103095426Y-140206352D01*
X103109310Y-140187632D01*
X103124962Y-140170362D01*
X103142232Y-140154710D01*
X103160952Y-140140826D01*
X103180943Y-140128844D01*
X103202013Y-140118879D01*
X103223957Y-140111027D01*
X103246566Y-140105363D01*
X103269621Y-140101944D01*
X103292900Y-140100800D01*
X103767900Y-140100800D01*
X103791179Y-140101944D01*
G37*
G36*
X103791179Y-138351944D02*
G01*
X103814234Y-138355363D01*
X103836843Y-138361027D01*
X103858787Y-138368879D01*
X103879857Y-138378844D01*
X103899848Y-138390826D01*
X103918568Y-138404710D01*
X103935838Y-138420362D01*
X103951490Y-138437632D01*
X103965374Y-138456352D01*
X103977356Y-138476343D01*
X103987321Y-138497413D01*
X103995173Y-138519357D01*
X104000837Y-138541966D01*
X104004256Y-138565021D01*
X104005400Y-138588300D01*
X104005400Y-139163300D01*
X104004256Y-139186579D01*
X104000837Y-139209634D01*
X103995173Y-139232243D01*
X103987321Y-139254187D01*
X103977356Y-139275257D01*
X103965374Y-139295248D01*
X103951490Y-139313968D01*
X103935838Y-139331238D01*
X103918568Y-139346890D01*
X103899848Y-139360774D01*
X103879857Y-139372756D01*
X103858787Y-139382721D01*
X103836843Y-139390573D01*
X103814234Y-139396237D01*
X103791179Y-139399656D01*
X103767900Y-139400800D01*
X103292900Y-139400800D01*
X103269621Y-139399656D01*
X103246566Y-139396237D01*
X103223957Y-139390573D01*
X103202013Y-139382721D01*
X103180943Y-139372756D01*
X103160952Y-139360774D01*
X103142232Y-139346890D01*
X103124962Y-139331238D01*
X103109310Y-139313968D01*
X103095426Y-139295248D01*
X103083444Y-139275257D01*
X103073479Y-139254187D01*
X103065627Y-139232243D01*
X103059963Y-139209634D01*
X103056544Y-139186579D01*
X103055400Y-139163300D01*
X103055400Y-138588300D01*
X103056544Y-138565021D01*
X103059963Y-138541966D01*
X103065627Y-138519357D01*
X103073479Y-138497413D01*
X103083444Y-138476343D01*
X103095426Y-138456352D01*
X103109310Y-138437632D01*
X103124962Y-138420362D01*
X103142232Y-138404710D01*
X103160952Y-138390826D01*
X103180943Y-138378844D01*
X103202013Y-138368879D01*
X103223957Y-138361027D01*
X103246566Y-138355363D01*
X103269621Y-138351944D01*
X103292900Y-138350800D01*
X103767900Y-138350800D01*
X103791179Y-138351944D01*
G37*
G36*
X103791179Y-142060344D02*
G01*
X103814234Y-142063763D01*
X103836843Y-142069427D01*
X103858787Y-142077279D01*
X103879857Y-142087244D01*
X103899848Y-142099226D01*
X103918568Y-142113110D01*
X103935838Y-142128762D01*
X103951490Y-142146032D01*
X103965374Y-142164752D01*
X103977356Y-142184743D01*
X103987321Y-142205813D01*
X103995173Y-142227757D01*
X104000837Y-142250366D01*
X104004256Y-142273421D01*
X104005400Y-142296700D01*
X104005400Y-142871700D01*
X104004256Y-142894979D01*
X104000837Y-142918034D01*
X103995173Y-142940643D01*
X103987321Y-142962587D01*
X103977356Y-142983657D01*
X103965374Y-143003648D01*
X103951490Y-143022368D01*
X103935838Y-143039638D01*
X103918568Y-143055290D01*
X103899848Y-143069174D01*
X103879857Y-143081156D01*
X103858787Y-143091121D01*
X103836843Y-143098973D01*
X103814234Y-143104637D01*
X103791179Y-143108056D01*
X103767900Y-143109200D01*
X103292900Y-143109200D01*
X103269621Y-143108056D01*
X103246566Y-143104637D01*
X103223957Y-143098973D01*
X103202013Y-143091121D01*
X103180943Y-143081156D01*
X103160952Y-143069174D01*
X103142232Y-143055290D01*
X103124962Y-143039638D01*
X103109310Y-143022368D01*
X103095426Y-143003648D01*
X103083444Y-142983657D01*
X103073479Y-142962587D01*
X103065627Y-142940643D01*
X103059963Y-142918034D01*
X103056544Y-142894979D01*
X103055400Y-142871700D01*
X103055400Y-142296700D01*
X103056544Y-142273421D01*
X103059963Y-142250366D01*
X103065627Y-142227757D01*
X103073479Y-142205813D01*
X103083444Y-142184743D01*
X103095426Y-142164752D01*
X103109310Y-142146032D01*
X103124962Y-142128762D01*
X103142232Y-142113110D01*
X103160952Y-142099226D01*
X103180943Y-142087244D01*
X103202013Y-142077279D01*
X103223957Y-142069427D01*
X103246566Y-142063763D01*
X103269621Y-142060344D01*
X103292900Y-142059200D01*
X103767900Y-142059200D01*
X103791179Y-142060344D01*
G37*
G36*
X103791179Y-143810344D02*
G01*
X103814234Y-143813763D01*
X103836843Y-143819427D01*
X103858787Y-143827279D01*
X103879857Y-143837244D01*
X103899848Y-143849226D01*
X103918568Y-143863110D01*
X103935838Y-143878762D01*
X103951490Y-143896032D01*
X103965374Y-143914752D01*
X103977356Y-143934743D01*
X103987321Y-143955813D01*
X103995173Y-143977757D01*
X104000837Y-144000366D01*
X104004256Y-144023421D01*
X104005400Y-144046700D01*
X104005400Y-144621700D01*
X104004256Y-144644979D01*
X104000837Y-144668034D01*
X103995173Y-144690643D01*
X103987321Y-144712587D01*
X103977356Y-144733657D01*
X103965374Y-144753648D01*
X103951490Y-144772368D01*
X103935838Y-144789638D01*
X103918568Y-144805290D01*
X103899848Y-144819174D01*
X103879857Y-144831156D01*
X103858787Y-144841121D01*
X103836843Y-144848973D01*
X103814234Y-144854637D01*
X103791179Y-144858056D01*
X103767900Y-144859200D01*
X103292900Y-144859200D01*
X103269621Y-144858056D01*
X103246566Y-144854637D01*
X103223957Y-144848973D01*
X103202013Y-144841121D01*
X103180943Y-144831156D01*
X103160952Y-144819174D01*
X103142232Y-144805290D01*
X103124962Y-144789638D01*
X103109310Y-144772368D01*
X103095426Y-144753648D01*
X103083444Y-144733657D01*
X103073479Y-144712587D01*
X103065627Y-144690643D01*
X103059963Y-144668034D01*
X103056544Y-144644979D01*
X103055400Y-144621700D01*
X103055400Y-144046700D01*
X103056544Y-144023421D01*
X103059963Y-144000366D01*
X103065627Y-143977757D01*
X103073479Y-143955813D01*
X103083444Y-143934743D01*
X103095426Y-143914752D01*
X103109310Y-143896032D01*
X103124962Y-143878762D01*
X103142232Y-143863110D01*
X103160952Y-143849226D01*
X103180943Y-143837244D01*
X103202013Y-143827279D01*
X103223957Y-143819427D01*
X103246566Y-143813763D01*
X103269621Y-143810344D01*
X103292900Y-143809200D01*
X103767900Y-143809200D01*
X103791179Y-143810344D01*
G37*
G36*
X134372779Y-159101144D02*
G01*
X134395834Y-159104563D01*
X134418443Y-159110227D01*
X134440387Y-159118079D01*
X134461457Y-159128044D01*
X134481448Y-159140026D01*
X134500168Y-159153910D01*
X134517438Y-159169562D01*
X134533090Y-159186832D01*
X134546974Y-159205552D01*
X134558956Y-159225543D01*
X134568921Y-159246613D01*
X134576773Y-159268557D01*
X134582437Y-159291166D01*
X134585856Y-159314221D01*
X134587000Y-159337500D01*
X134587000Y-159912500D01*
X134585856Y-159935779D01*
X134582437Y-159958834D01*
X134576773Y-159981443D01*
X134568921Y-160003387D01*
X134558956Y-160024457D01*
X134546974Y-160044448D01*
X134533090Y-160063168D01*
X134517438Y-160080438D01*
X134500168Y-160096090D01*
X134481448Y-160109974D01*
X134461457Y-160121956D01*
X134440387Y-160131921D01*
X134418443Y-160139773D01*
X134395834Y-160145437D01*
X134372779Y-160148856D01*
X134349500Y-160150000D01*
X133874500Y-160150000D01*
X133851221Y-160148856D01*
X133828166Y-160145437D01*
X133805557Y-160139773D01*
X133783613Y-160131921D01*
X133762543Y-160121956D01*
X133742552Y-160109974D01*
X133723832Y-160096090D01*
X133706562Y-160080438D01*
X133690910Y-160063168D01*
X133677026Y-160044448D01*
X133665044Y-160024457D01*
X133655079Y-160003387D01*
X133647227Y-159981443D01*
X133641563Y-159958834D01*
X133638144Y-159935779D01*
X133637000Y-159912500D01*
X133637000Y-159337500D01*
X133638144Y-159314221D01*
X133641563Y-159291166D01*
X133647227Y-159268557D01*
X133655079Y-159246613D01*
X133665044Y-159225543D01*
X133677026Y-159205552D01*
X133690910Y-159186832D01*
X133706562Y-159169562D01*
X133723832Y-159153910D01*
X133742552Y-159140026D01*
X133762543Y-159128044D01*
X133783613Y-159118079D01*
X133805557Y-159110227D01*
X133828166Y-159104563D01*
X133851221Y-159101144D01*
X133874500Y-159100000D01*
X134349500Y-159100000D01*
X134372779Y-159101144D01*
G37*
G36*
X134372779Y-157351144D02*
G01*
X134395834Y-157354563D01*
X134418443Y-157360227D01*
X134440387Y-157368079D01*
X134461457Y-157378044D01*
X134481448Y-157390026D01*
X134500168Y-157403910D01*
X134517438Y-157419562D01*
X134533090Y-157436832D01*
X134546974Y-157455552D01*
X134558956Y-157475543D01*
X134568921Y-157496613D01*
X134576773Y-157518557D01*
X134582437Y-157541166D01*
X134585856Y-157564221D01*
X134587000Y-157587500D01*
X134587000Y-158162500D01*
X134585856Y-158185779D01*
X134582437Y-158208834D01*
X134576773Y-158231443D01*
X134568921Y-158253387D01*
X134558956Y-158274457D01*
X134546974Y-158294448D01*
X134533090Y-158313168D01*
X134517438Y-158330438D01*
X134500168Y-158346090D01*
X134481448Y-158359974D01*
X134461457Y-158371956D01*
X134440387Y-158381921D01*
X134418443Y-158389773D01*
X134395834Y-158395437D01*
X134372779Y-158398856D01*
X134349500Y-158400000D01*
X133874500Y-158400000D01*
X133851221Y-158398856D01*
X133828166Y-158395437D01*
X133805557Y-158389773D01*
X133783613Y-158381921D01*
X133762543Y-158371956D01*
X133742552Y-158359974D01*
X133723832Y-158346090D01*
X133706562Y-158330438D01*
X133690910Y-158313168D01*
X133677026Y-158294448D01*
X133665044Y-158274457D01*
X133655079Y-158253387D01*
X133647227Y-158231443D01*
X133641563Y-158208834D01*
X133638144Y-158185779D01*
X133637000Y-158162500D01*
X133637000Y-157587500D01*
X133638144Y-157564221D01*
X133641563Y-157541166D01*
X133647227Y-157518557D01*
X133655079Y-157496613D01*
X133665044Y-157475543D01*
X133677026Y-157455552D01*
X133690910Y-157436832D01*
X133706562Y-157419562D01*
X133723832Y-157403910D01*
X133742552Y-157390026D01*
X133762543Y-157378044D01*
X133783613Y-157368079D01*
X133805557Y-157360227D01*
X133828166Y-157354563D01*
X133851221Y-157351144D01*
X133874500Y-157350000D01*
X134349500Y-157350000D01*
X134372779Y-157351144D01*
G37*
G36*
X136531779Y-127633144D02*
G01*
X136554834Y-127636563D01*
X136577443Y-127642227D01*
X136599387Y-127650079D01*
X136620457Y-127660044D01*
X136640448Y-127672026D01*
X136659168Y-127685910D01*
X136676438Y-127701562D01*
X136692090Y-127718832D01*
X136705974Y-127737552D01*
X136717956Y-127757543D01*
X136727921Y-127778613D01*
X136735773Y-127800557D01*
X136741437Y-127823166D01*
X136744856Y-127846221D01*
X136746000Y-127869500D01*
X136746000Y-128444500D01*
X136744856Y-128467779D01*
X136741437Y-128490834D01*
X136735773Y-128513443D01*
X136727921Y-128535387D01*
X136717956Y-128556457D01*
X136705974Y-128576448D01*
X136692090Y-128595168D01*
X136676438Y-128612438D01*
X136659168Y-128628090D01*
X136640448Y-128641974D01*
X136620457Y-128653956D01*
X136599387Y-128663921D01*
X136577443Y-128671773D01*
X136554834Y-128677437D01*
X136531779Y-128680856D01*
X136508500Y-128682000D01*
X136033500Y-128682000D01*
X136010221Y-128680856D01*
X135987166Y-128677437D01*
X135964557Y-128671773D01*
X135942613Y-128663921D01*
X135921543Y-128653956D01*
X135901552Y-128641974D01*
X135882832Y-128628090D01*
X135865562Y-128612438D01*
X135849910Y-128595168D01*
X135836026Y-128576448D01*
X135824044Y-128556457D01*
X135814079Y-128535387D01*
X135806227Y-128513443D01*
X135800563Y-128490834D01*
X135797144Y-128467779D01*
X135796000Y-128444500D01*
X135796000Y-127869500D01*
X135797144Y-127846221D01*
X135800563Y-127823166D01*
X135806227Y-127800557D01*
X135814079Y-127778613D01*
X135824044Y-127757543D01*
X135836026Y-127737552D01*
X135849910Y-127718832D01*
X135865562Y-127701562D01*
X135882832Y-127685910D01*
X135901552Y-127672026D01*
X135921543Y-127660044D01*
X135942613Y-127650079D01*
X135964557Y-127642227D01*
X135987166Y-127636563D01*
X136010221Y-127633144D01*
X136033500Y-127632000D01*
X136508500Y-127632000D01*
X136531779Y-127633144D01*
G37*
G36*
X136531779Y-129383144D02*
G01*
X136554834Y-129386563D01*
X136577443Y-129392227D01*
X136599387Y-129400079D01*
X136620457Y-129410044D01*
X136640448Y-129422026D01*
X136659168Y-129435910D01*
X136676438Y-129451562D01*
X136692090Y-129468832D01*
X136705974Y-129487552D01*
X136717956Y-129507543D01*
X136727921Y-129528613D01*
X136735773Y-129550557D01*
X136741437Y-129573166D01*
X136744856Y-129596221D01*
X136746000Y-129619500D01*
X136746000Y-130194500D01*
X136744856Y-130217779D01*
X136741437Y-130240834D01*
X136735773Y-130263443D01*
X136727921Y-130285387D01*
X136717956Y-130306457D01*
X136705974Y-130326448D01*
X136692090Y-130345168D01*
X136676438Y-130362438D01*
X136659168Y-130378090D01*
X136640448Y-130391974D01*
X136620457Y-130403956D01*
X136599387Y-130413921D01*
X136577443Y-130421773D01*
X136554834Y-130427437D01*
X136531779Y-130430856D01*
X136508500Y-130432000D01*
X136033500Y-130432000D01*
X136010221Y-130430856D01*
X135987166Y-130427437D01*
X135964557Y-130421773D01*
X135942613Y-130413921D01*
X135921543Y-130403956D01*
X135901552Y-130391974D01*
X135882832Y-130378090D01*
X135865562Y-130362438D01*
X135849910Y-130345168D01*
X135836026Y-130326448D01*
X135824044Y-130306457D01*
X135814079Y-130285387D01*
X135806227Y-130263443D01*
X135800563Y-130240834D01*
X135797144Y-130217779D01*
X135796000Y-130194500D01*
X135796000Y-129619500D01*
X135797144Y-129596221D01*
X135800563Y-129573166D01*
X135806227Y-129550557D01*
X135814079Y-129528613D01*
X135824044Y-129507543D01*
X135836026Y-129487552D01*
X135849910Y-129468832D01*
X135865562Y-129451562D01*
X135882832Y-129435910D01*
X135901552Y-129422026D01*
X135921543Y-129410044D01*
X135942613Y-129400079D01*
X135964557Y-129392227D01*
X135987166Y-129386563D01*
X136010221Y-129383144D01*
X136033500Y-129382000D01*
X136508500Y-129382000D01*
X136531779Y-129383144D01*
G37*
M02*
