G04 #@! TF.GenerationSoftware,KiCad,Pcbnew,(5.1.5)-2*
G04 #@! TF.CreationDate,2020-02-26T12:35:05-06:00*
G04 #@! TF.ProjectId,WirelessEStop_Tx,57697265-6c65-4737-9345-53746f705f54,rev?*
G04 #@! TF.SameCoordinates,Original*
G04 #@! TF.FileFunction,Profile,NP*
%FSLAX46Y46*%
G04 Gerber Fmt 4.6, Leading zero omitted, Abs format (unit mm)*
G04 Created by KiCad (PCBNEW (5.1.5)-2) date 2020-02-26 12:35:05*
%MOMM*%
%LPD*%
G04 APERTURE LIST*
%ADD10C,0.100000*%
G04 APERTURE END LIST*
D10*
X104945500Y-147173000D02*
G75*
G03X104945500Y-147173000I-1250000J0D01*
G01*
X151427500Y-160317500D02*
G75*
G03X151427500Y-160317500I-1250000J0D01*
G01*
X138493500Y-162560000D02*
X131127500Y-162560000D01*
X143510000Y-162560000D02*
X138493500Y-162560000D01*
X147828000Y-162560000D02*
X143510000Y-162560000D01*
X151384000Y-162560000D02*
X147828000Y-162560000D01*
X131127500Y-165925500D02*
X131127500Y-162560000D01*
X125031500Y-165925500D02*
X131127500Y-165925500D01*
X123444000Y-165925500D02*
X125031500Y-165925500D01*
X122809000Y-165925500D02*
X123444000Y-165925500D01*
X122809000Y-165862000D02*
X122809000Y-165925500D01*
X122809000Y-162560000D02*
X122809000Y-165862000D01*
X122555000Y-162560000D02*
X122809000Y-162560000D01*
X102616000Y-162560000D02*
X122555000Y-162560000D01*
X152400000Y-161544000D02*
G75*
G02X151384000Y-162560000I-1016000J0D01*
G01*
X151384000Y-118110000D02*
G75*
G02X152400000Y-119126000I0J-1016000D01*
G01*
X101600000Y-119126000D02*
G75*
G02X102616000Y-118110000I1016000J0D01*
G01*
X102616000Y-162560000D02*
G75*
G02X101600000Y-161544000I0J1016000D01*
G01*
X152400000Y-119126000D02*
X152400000Y-161544000D01*
X102616000Y-118110000D02*
X151384000Y-118110000D01*
X101600000Y-161544000D02*
X101600000Y-119126000D01*
M02*
