G04 #@! TF.GenerationSoftware,KiCad,Pcbnew,(5.1.5)-2*
G04 #@! TF.CreationDate,2020-02-26T12:35:05-06:00*
G04 #@! TF.ProjectId,WirelessEStop_Tx,57697265-6c65-4737-9345-53746f705f54,rev?*
G04 #@! TF.SameCoordinates,Original*
G04 #@! TF.FileFunction,Paste,Bot*
G04 #@! TF.FilePolarity,Positive*
%FSLAX46Y46*%
G04 Gerber Fmt 4.6, Leading zero omitted, Abs format (unit mm)*
G04 Created by KiCad (PCBNEW (5.1.5)-2) date 2020-02-26 12:35:05*
%MOMM*%
%LPD*%
G04 APERTURE LIST*
%ADD10C,0.100000*%
G04 APERTURE END LIST*
D10*
G36*
X116424279Y-141385144D02*
G01*
X116447334Y-141388563D01*
X116469943Y-141394227D01*
X116491887Y-141402079D01*
X116512957Y-141412044D01*
X116532948Y-141424026D01*
X116551668Y-141437910D01*
X116568938Y-141453562D01*
X116584590Y-141470832D01*
X116598474Y-141489552D01*
X116610456Y-141509543D01*
X116620421Y-141530613D01*
X116628273Y-141552557D01*
X116633937Y-141575166D01*
X116637356Y-141598221D01*
X116638500Y-141621500D01*
X116638500Y-142096500D01*
X116637356Y-142119779D01*
X116633937Y-142142834D01*
X116628273Y-142165443D01*
X116620421Y-142187387D01*
X116610456Y-142208457D01*
X116598474Y-142228448D01*
X116584590Y-142247168D01*
X116568938Y-142264438D01*
X116551668Y-142280090D01*
X116532948Y-142293974D01*
X116512957Y-142305956D01*
X116491887Y-142315921D01*
X116469943Y-142323773D01*
X116447334Y-142329437D01*
X116424279Y-142332856D01*
X116401000Y-142334000D01*
X115826000Y-142334000D01*
X115802721Y-142332856D01*
X115779666Y-142329437D01*
X115757057Y-142323773D01*
X115735113Y-142315921D01*
X115714043Y-142305956D01*
X115694052Y-142293974D01*
X115675332Y-142280090D01*
X115658062Y-142264438D01*
X115642410Y-142247168D01*
X115628526Y-142228448D01*
X115616544Y-142208457D01*
X115606579Y-142187387D01*
X115598727Y-142165443D01*
X115593063Y-142142834D01*
X115589644Y-142119779D01*
X115588500Y-142096500D01*
X115588500Y-141621500D01*
X115589644Y-141598221D01*
X115593063Y-141575166D01*
X115598727Y-141552557D01*
X115606579Y-141530613D01*
X115616544Y-141509543D01*
X115628526Y-141489552D01*
X115642410Y-141470832D01*
X115658062Y-141453562D01*
X115675332Y-141437910D01*
X115694052Y-141424026D01*
X115714043Y-141412044D01*
X115735113Y-141402079D01*
X115757057Y-141394227D01*
X115779666Y-141388563D01*
X115802721Y-141385144D01*
X115826000Y-141384000D01*
X116401000Y-141384000D01*
X116424279Y-141385144D01*
G37*
G36*
X114674279Y-141385144D02*
G01*
X114697334Y-141388563D01*
X114719943Y-141394227D01*
X114741887Y-141402079D01*
X114762957Y-141412044D01*
X114782948Y-141424026D01*
X114801668Y-141437910D01*
X114818938Y-141453562D01*
X114834590Y-141470832D01*
X114848474Y-141489552D01*
X114860456Y-141509543D01*
X114870421Y-141530613D01*
X114878273Y-141552557D01*
X114883937Y-141575166D01*
X114887356Y-141598221D01*
X114888500Y-141621500D01*
X114888500Y-142096500D01*
X114887356Y-142119779D01*
X114883937Y-142142834D01*
X114878273Y-142165443D01*
X114870421Y-142187387D01*
X114860456Y-142208457D01*
X114848474Y-142228448D01*
X114834590Y-142247168D01*
X114818938Y-142264438D01*
X114801668Y-142280090D01*
X114782948Y-142293974D01*
X114762957Y-142305956D01*
X114741887Y-142315921D01*
X114719943Y-142323773D01*
X114697334Y-142329437D01*
X114674279Y-142332856D01*
X114651000Y-142334000D01*
X114076000Y-142334000D01*
X114052721Y-142332856D01*
X114029666Y-142329437D01*
X114007057Y-142323773D01*
X113985113Y-142315921D01*
X113964043Y-142305956D01*
X113944052Y-142293974D01*
X113925332Y-142280090D01*
X113908062Y-142264438D01*
X113892410Y-142247168D01*
X113878526Y-142228448D01*
X113866544Y-142208457D01*
X113856579Y-142187387D01*
X113848727Y-142165443D01*
X113843063Y-142142834D01*
X113839644Y-142119779D01*
X113838500Y-142096500D01*
X113838500Y-141621500D01*
X113839644Y-141598221D01*
X113843063Y-141575166D01*
X113848727Y-141552557D01*
X113856579Y-141530613D01*
X113866544Y-141509543D01*
X113878526Y-141489552D01*
X113892410Y-141470832D01*
X113908062Y-141453562D01*
X113925332Y-141437910D01*
X113944052Y-141424026D01*
X113964043Y-141412044D01*
X113985113Y-141402079D01*
X114007057Y-141394227D01*
X114029666Y-141388563D01*
X114052721Y-141385144D01*
X114076000Y-141384000D01*
X114651000Y-141384000D01*
X114674279Y-141385144D01*
G37*
M02*
