G04 #@! TF.GenerationSoftware,KiCad,Pcbnew,(5.1.5)-2*
G04 #@! TF.CreationDate,2020-02-26T12:35:05-06:00*
G04 #@! TF.ProjectId,WirelessEStop_Tx,57697265-6c65-4737-9345-53746f705f54,rev?*
G04 #@! TF.SameCoordinates,Original*
G04 #@! TF.FileFunction,Copper,L2,Bot*
G04 #@! TF.FilePolarity,Positive*
%FSLAX46Y46*%
G04 Gerber Fmt 4.6, Leading zero omitted, Abs format (unit mm)*
G04 Created by KiCad (PCBNEW (5.1.5)-2) date 2020-02-26 12:35:05*
%MOMM*%
%LPD*%
G04 APERTURE LIST*
%ADD10C,0.100000*%
%ADD11O,1.700000X2.000000*%
%ADD12O,1.700000X1.950000*%
%ADD13O,1.100000X1.500000*%
%ADD14O,1.350000X1.700000*%
%ADD15C,0.800000*%
%ADD16C,0.500000*%
%ADD17C,0.250000*%
%ADD18C,0.762000*%
%ADD19C,0.571500*%
%ADD20C,0.381000*%
%ADD21C,0.254000*%
G04 APERTURE END LIST*
G04 #@! TA.AperFunction,SMDPad,CuDef*
D10*
G36*
X116424279Y-141385144D02*
G01*
X116447334Y-141388563D01*
X116469943Y-141394227D01*
X116491887Y-141402079D01*
X116512957Y-141412044D01*
X116532948Y-141424026D01*
X116551668Y-141437910D01*
X116568938Y-141453562D01*
X116584590Y-141470832D01*
X116598474Y-141489552D01*
X116610456Y-141509543D01*
X116620421Y-141530613D01*
X116628273Y-141552557D01*
X116633937Y-141575166D01*
X116637356Y-141598221D01*
X116638500Y-141621500D01*
X116638500Y-142096500D01*
X116637356Y-142119779D01*
X116633937Y-142142834D01*
X116628273Y-142165443D01*
X116620421Y-142187387D01*
X116610456Y-142208457D01*
X116598474Y-142228448D01*
X116584590Y-142247168D01*
X116568938Y-142264438D01*
X116551668Y-142280090D01*
X116532948Y-142293974D01*
X116512957Y-142305956D01*
X116491887Y-142315921D01*
X116469943Y-142323773D01*
X116447334Y-142329437D01*
X116424279Y-142332856D01*
X116401000Y-142334000D01*
X115826000Y-142334000D01*
X115802721Y-142332856D01*
X115779666Y-142329437D01*
X115757057Y-142323773D01*
X115735113Y-142315921D01*
X115714043Y-142305956D01*
X115694052Y-142293974D01*
X115675332Y-142280090D01*
X115658062Y-142264438D01*
X115642410Y-142247168D01*
X115628526Y-142228448D01*
X115616544Y-142208457D01*
X115606579Y-142187387D01*
X115598727Y-142165443D01*
X115593063Y-142142834D01*
X115589644Y-142119779D01*
X115588500Y-142096500D01*
X115588500Y-141621500D01*
X115589644Y-141598221D01*
X115593063Y-141575166D01*
X115598727Y-141552557D01*
X115606579Y-141530613D01*
X115616544Y-141509543D01*
X115628526Y-141489552D01*
X115642410Y-141470832D01*
X115658062Y-141453562D01*
X115675332Y-141437910D01*
X115694052Y-141424026D01*
X115714043Y-141412044D01*
X115735113Y-141402079D01*
X115757057Y-141394227D01*
X115779666Y-141388563D01*
X115802721Y-141385144D01*
X115826000Y-141384000D01*
X116401000Y-141384000D01*
X116424279Y-141385144D01*
G37*
G04 #@! TD.AperFunction*
G04 #@! TA.AperFunction,SMDPad,CuDef*
G36*
X114674279Y-141385144D02*
G01*
X114697334Y-141388563D01*
X114719943Y-141394227D01*
X114741887Y-141402079D01*
X114762957Y-141412044D01*
X114782948Y-141424026D01*
X114801668Y-141437910D01*
X114818938Y-141453562D01*
X114834590Y-141470832D01*
X114848474Y-141489552D01*
X114860456Y-141509543D01*
X114870421Y-141530613D01*
X114878273Y-141552557D01*
X114883937Y-141575166D01*
X114887356Y-141598221D01*
X114888500Y-141621500D01*
X114888500Y-142096500D01*
X114887356Y-142119779D01*
X114883937Y-142142834D01*
X114878273Y-142165443D01*
X114870421Y-142187387D01*
X114860456Y-142208457D01*
X114848474Y-142228448D01*
X114834590Y-142247168D01*
X114818938Y-142264438D01*
X114801668Y-142280090D01*
X114782948Y-142293974D01*
X114762957Y-142305956D01*
X114741887Y-142315921D01*
X114719943Y-142323773D01*
X114697334Y-142329437D01*
X114674279Y-142332856D01*
X114651000Y-142334000D01*
X114076000Y-142334000D01*
X114052721Y-142332856D01*
X114029666Y-142329437D01*
X114007057Y-142323773D01*
X113985113Y-142315921D01*
X113964043Y-142305956D01*
X113944052Y-142293974D01*
X113925332Y-142280090D01*
X113908062Y-142264438D01*
X113892410Y-142247168D01*
X113878526Y-142228448D01*
X113866544Y-142208457D01*
X113856579Y-142187387D01*
X113848727Y-142165443D01*
X113843063Y-142142834D01*
X113839644Y-142119779D01*
X113838500Y-142096500D01*
X113838500Y-141621500D01*
X113839644Y-141598221D01*
X113843063Y-141575166D01*
X113848727Y-141552557D01*
X113856579Y-141530613D01*
X113866544Y-141509543D01*
X113878526Y-141489552D01*
X113892410Y-141470832D01*
X113908062Y-141453562D01*
X113925332Y-141437910D01*
X113944052Y-141424026D01*
X113964043Y-141412044D01*
X113985113Y-141402079D01*
X114007057Y-141394227D01*
X114029666Y-141388563D01*
X114052721Y-141385144D01*
X114076000Y-141384000D01*
X114651000Y-141384000D01*
X114674279Y-141385144D01*
G37*
G04 #@! TD.AperFunction*
G04 #@! TA.AperFunction,ComponentPad*
G36*
X133974504Y-121429204D02*
G01*
X133998773Y-121432804D01*
X134022571Y-121438765D01*
X134045671Y-121447030D01*
X134067849Y-121457520D01*
X134088893Y-121470133D01*
X134108598Y-121484747D01*
X134126777Y-121501223D01*
X134143253Y-121519402D01*
X134157867Y-121539107D01*
X134170480Y-121560151D01*
X134180970Y-121582329D01*
X134189235Y-121605429D01*
X134195196Y-121629227D01*
X134198796Y-121653496D01*
X134200000Y-121678000D01*
X134200000Y-123178000D01*
X134198796Y-123202504D01*
X134195196Y-123226773D01*
X134189235Y-123250571D01*
X134180970Y-123273671D01*
X134170480Y-123295849D01*
X134157867Y-123316893D01*
X134143253Y-123336598D01*
X134126777Y-123354777D01*
X134108598Y-123371253D01*
X134088893Y-123385867D01*
X134067849Y-123398480D01*
X134045671Y-123408970D01*
X134022571Y-123417235D01*
X133998773Y-123423196D01*
X133974504Y-123426796D01*
X133950000Y-123428000D01*
X132750000Y-123428000D01*
X132725496Y-123426796D01*
X132701227Y-123423196D01*
X132677429Y-123417235D01*
X132654329Y-123408970D01*
X132632151Y-123398480D01*
X132611107Y-123385867D01*
X132591402Y-123371253D01*
X132573223Y-123354777D01*
X132556747Y-123336598D01*
X132542133Y-123316893D01*
X132529520Y-123295849D01*
X132519030Y-123273671D01*
X132510765Y-123250571D01*
X132504804Y-123226773D01*
X132501204Y-123202504D01*
X132500000Y-123178000D01*
X132500000Y-121678000D01*
X132501204Y-121653496D01*
X132504804Y-121629227D01*
X132510765Y-121605429D01*
X132519030Y-121582329D01*
X132529520Y-121560151D01*
X132542133Y-121539107D01*
X132556747Y-121519402D01*
X132573223Y-121501223D01*
X132591402Y-121484747D01*
X132611107Y-121470133D01*
X132632151Y-121457520D01*
X132654329Y-121447030D01*
X132677429Y-121438765D01*
X132701227Y-121432804D01*
X132725496Y-121429204D01*
X132750000Y-121428000D01*
X133950000Y-121428000D01*
X133974504Y-121429204D01*
G37*
G04 #@! TD.AperFunction*
D11*
X135850000Y-122428000D03*
X108799000Y-122491500D03*
G04 #@! TA.AperFunction,ComponentPad*
D10*
G36*
X106923504Y-121492704D02*
G01*
X106947773Y-121496304D01*
X106971571Y-121502265D01*
X106994671Y-121510530D01*
X107016849Y-121521020D01*
X107037893Y-121533633D01*
X107057598Y-121548247D01*
X107075777Y-121564723D01*
X107092253Y-121582902D01*
X107106867Y-121602607D01*
X107119480Y-121623651D01*
X107129970Y-121645829D01*
X107138235Y-121668929D01*
X107144196Y-121692727D01*
X107147796Y-121716996D01*
X107149000Y-121741500D01*
X107149000Y-123241500D01*
X107147796Y-123266004D01*
X107144196Y-123290273D01*
X107138235Y-123314071D01*
X107129970Y-123337171D01*
X107119480Y-123359349D01*
X107106867Y-123380393D01*
X107092253Y-123400098D01*
X107075777Y-123418277D01*
X107057598Y-123434753D01*
X107037893Y-123449367D01*
X107016849Y-123461980D01*
X106994671Y-123472470D01*
X106971571Y-123480735D01*
X106947773Y-123486696D01*
X106923504Y-123490296D01*
X106899000Y-123491500D01*
X105699000Y-123491500D01*
X105674496Y-123490296D01*
X105650227Y-123486696D01*
X105626429Y-123480735D01*
X105603329Y-123472470D01*
X105581151Y-123461980D01*
X105560107Y-123449367D01*
X105540402Y-123434753D01*
X105522223Y-123418277D01*
X105505747Y-123400098D01*
X105491133Y-123380393D01*
X105478520Y-123359349D01*
X105468030Y-123337171D01*
X105459765Y-123314071D01*
X105453804Y-123290273D01*
X105450204Y-123266004D01*
X105449000Y-123241500D01*
X105449000Y-121741500D01*
X105450204Y-121716996D01*
X105453804Y-121692727D01*
X105459765Y-121668929D01*
X105468030Y-121645829D01*
X105478520Y-121623651D01*
X105491133Y-121602607D01*
X105505747Y-121582902D01*
X105522223Y-121564723D01*
X105540402Y-121548247D01*
X105560107Y-121533633D01*
X105581151Y-121521020D01*
X105603329Y-121510530D01*
X105626429Y-121502265D01*
X105650227Y-121496304D01*
X105674496Y-121492704D01*
X105699000Y-121491500D01*
X106899000Y-121491500D01*
X106923504Y-121492704D01*
G37*
G04 #@! TD.AperFunction*
D11*
X147661000Y-128778000D03*
G04 #@! TA.AperFunction,ComponentPad*
D10*
G36*
X145785504Y-127779204D02*
G01*
X145809773Y-127782804D01*
X145833571Y-127788765D01*
X145856671Y-127797030D01*
X145878849Y-127807520D01*
X145899893Y-127820133D01*
X145919598Y-127834747D01*
X145937777Y-127851223D01*
X145954253Y-127869402D01*
X145968867Y-127889107D01*
X145981480Y-127910151D01*
X145991970Y-127932329D01*
X146000235Y-127955429D01*
X146006196Y-127979227D01*
X146009796Y-128003496D01*
X146011000Y-128028000D01*
X146011000Y-129528000D01*
X146009796Y-129552504D01*
X146006196Y-129576773D01*
X146000235Y-129600571D01*
X145991970Y-129623671D01*
X145981480Y-129645849D01*
X145968867Y-129666893D01*
X145954253Y-129686598D01*
X145937777Y-129704777D01*
X145919598Y-129721253D01*
X145899893Y-129735867D01*
X145878849Y-129748480D01*
X145856671Y-129758970D01*
X145833571Y-129767235D01*
X145809773Y-129773196D01*
X145785504Y-129776796D01*
X145761000Y-129778000D01*
X144561000Y-129778000D01*
X144536496Y-129776796D01*
X144512227Y-129773196D01*
X144488429Y-129767235D01*
X144465329Y-129758970D01*
X144443151Y-129748480D01*
X144422107Y-129735867D01*
X144402402Y-129721253D01*
X144384223Y-129704777D01*
X144367747Y-129686598D01*
X144353133Y-129666893D01*
X144340520Y-129645849D01*
X144330030Y-129623671D01*
X144321765Y-129600571D01*
X144315804Y-129576773D01*
X144312204Y-129552504D01*
X144311000Y-129528000D01*
X144311000Y-128028000D01*
X144312204Y-128003496D01*
X144315804Y-127979227D01*
X144321765Y-127955429D01*
X144330030Y-127932329D01*
X144340520Y-127910151D01*
X144353133Y-127889107D01*
X144367747Y-127869402D01*
X144384223Y-127851223D01*
X144402402Y-127834747D01*
X144422107Y-127820133D01*
X144443151Y-127807520D01*
X144465329Y-127797030D01*
X144488429Y-127788765D01*
X144512227Y-127782804D01*
X144536496Y-127779204D01*
X144561000Y-127778000D01*
X145761000Y-127778000D01*
X145785504Y-127779204D01*
G37*
G04 #@! TD.AperFunction*
D11*
X108799000Y-128778000D03*
G04 #@! TA.AperFunction,ComponentPad*
D10*
G36*
X106923504Y-127779204D02*
G01*
X106947773Y-127782804D01*
X106971571Y-127788765D01*
X106994671Y-127797030D01*
X107016849Y-127807520D01*
X107037893Y-127820133D01*
X107057598Y-127834747D01*
X107075777Y-127851223D01*
X107092253Y-127869402D01*
X107106867Y-127889107D01*
X107119480Y-127910151D01*
X107129970Y-127932329D01*
X107138235Y-127955429D01*
X107144196Y-127979227D01*
X107147796Y-128003496D01*
X107149000Y-128028000D01*
X107149000Y-129528000D01*
X107147796Y-129552504D01*
X107144196Y-129576773D01*
X107138235Y-129600571D01*
X107129970Y-129623671D01*
X107119480Y-129645849D01*
X107106867Y-129666893D01*
X107092253Y-129686598D01*
X107075777Y-129704777D01*
X107057598Y-129721253D01*
X107037893Y-129735867D01*
X107016849Y-129748480D01*
X106994671Y-129758970D01*
X106971571Y-129767235D01*
X106947773Y-129773196D01*
X106923504Y-129776796D01*
X106899000Y-129778000D01*
X105699000Y-129778000D01*
X105674496Y-129776796D01*
X105650227Y-129773196D01*
X105626429Y-129767235D01*
X105603329Y-129758970D01*
X105581151Y-129748480D01*
X105560107Y-129735867D01*
X105540402Y-129721253D01*
X105522223Y-129704777D01*
X105505747Y-129686598D01*
X105491133Y-129666893D01*
X105478520Y-129645849D01*
X105468030Y-129623671D01*
X105459765Y-129600571D01*
X105453804Y-129576773D01*
X105450204Y-129552504D01*
X105449000Y-129528000D01*
X105449000Y-128028000D01*
X105450204Y-128003496D01*
X105453804Y-127979227D01*
X105459765Y-127955429D01*
X105468030Y-127932329D01*
X105478520Y-127910151D01*
X105491133Y-127889107D01*
X105505747Y-127869402D01*
X105522223Y-127851223D01*
X105540402Y-127834747D01*
X105560107Y-127820133D01*
X105581151Y-127807520D01*
X105603329Y-127797030D01*
X105626429Y-127788765D01*
X105650227Y-127782804D01*
X105674496Y-127779204D01*
X105699000Y-127778000D01*
X106899000Y-127778000D01*
X106923504Y-127779204D01*
G37*
G04 #@! TD.AperFunction*
D11*
X147661000Y-122428000D03*
G04 #@! TA.AperFunction,ComponentPad*
D10*
G36*
X145785504Y-121429204D02*
G01*
X145809773Y-121432804D01*
X145833571Y-121438765D01*
X145856671Y-121447030D01*
X145878849Y-121457520D01*
X145899893Y-121470133D01*
X145919598Y-121484747D01*
X145937777Y-121501223D01*
X145954253Y-121519402D01*
X145968867Y-121539107D01*
X145981480Y-121560151D01*
X145991970Y-121582329D01*
X146000235Y-121605429D01*
X146006196Y-121629227D01*
X146009796Y-121653496D01*
X146011000Y-121678000D01*
X146011000Y-123178000D01*
X146009796Y-123202504D01*
X146006196Y-123226773D01*
X146000235Y-123250571D01*
X145991970Y-123273671D01*
X145981480Y-123295849D01*
X145968867Y-123316893D01*
X145954253Y-123336598D01*
X145937777Y-123354777D01*
X145919598Y-123371253D01*
X145899893Y-123385867D01*
X145878849Y-123398480D01*
X145856671Y-123408970D01*
X145833571Y-123417235D01*
X145809773Y-123423196D01*
X145785504Y-123426796D01*
X145761000Y-123428000D01*
X144561000Y-123428000D01*
X144536496Y-123426796D01*
X144512227Y-123423196D01*
X144488429Y-123417235D01*
X144465329Y-123408970D01*
X144443151Y-123398480D01*
X144422107Y-123385867D01*
X144402402Y-123371253D01*
X144384223Y-123354777D01*
X144367747Y-123336598D01*
X144353133Y-123316893D01*
X144340520Y-123295849D01*
X144330030Y-123273671D01*
X144321765Y-123250571D01*
X144315804Y-123226773D01*
X144312204Y-123202504D01*
X144311000Y-123178000D01*
X144311000Y-121678000D01*
X144312204Y-121653496D01*
X144315804Y-121629227D01*
X144321765Y-121605429D01*
X144330030Y-121582329D01*
X144340520Y-121560151D01*
X144353133Y-121539107D01*
X144367747Y-121519402D01*
X144384223Y-121501223D01*
X144402402Y-121484747D01*
X144422107Y-121470133D01*
X144443151Y-121457520D01*
X144465329Y-121447030D01*
X144488429Y-121438765D01*
X144512227Y-121432804D01*
X144536496Y-121429204D01*
X144561000Y-121428000D01*
X145761000Y-121428000D01*
X145785504Y-121429204D01*
G37*
G04 #@! TD.AperFunction*
D12*
X123681500Y-122491500D03*
X121181500Y-122491500D03*
G04 #@! TA.AperFunction,ComponentPad*
D10*
G36*
X119306004Y-121517704D02*
G01*
X119330273Y-121521304D01*
X119354071Y-121527265D01*
X119377171Y-121535530D01*
X119399349Y-121546020D01*
X119420393Y-121558633D01*
X119440098Y-121573247D01*
X119458277Y-121589723D01*
X119474753Y-121607902D01*
X119489367Y-121627607D01*
X119501980Y-121648651D01*
X119512470Y-121670829D01*
X119520735Y-121693929D01*
X119526696Y-121717727D01*
X119530296Y-121741996D01*
X119531500Y-121766500D01*
X119531500Y-123216500D01*
X119530296Y-123241004D01*
X119526696Y-123265273D01*
X119520735Y-123289071D01*
X119512470Y-123312171D01*
X119501980Y-123334349D01*
X119489367Y-123355393D01*
X119474753Y-123375098D01*
X119458277Y-123393277D01*
X119440098Y-123409753D01*
X119420393Y-123424367D01*
X119399349Y-123436980D01*
X119377171Y-123447470D01*
X119354071Y-123455735D01*
X119330273Y-123461696D01*
X119306004Y-123465296D01*
X119281500Y-123466500D01*
X118081500Y-123466500D01*
X118056996Y-123465296D01*
X118032727Y-123461696D01*
X118008929Y-123455735D01*
X117985829Y-123447470D01*
X117963651Y-123436980D01*
X117942607Y-123424367D01*
X117922902Y-123409753D01*
X117904723Y-123393277D01*
X117888247Y-123375098D01*
X117873633Y-123355393D01*
X117861020Y-123334349D01*
X117850530Y-123312171D01*
X117842265Y-123289071D01*
X117836304Y-123265273D01*
X117832704Y-123241004D01*
X117831500Y-123216500D01*
X117831500Y-121766500D01*
X117832704Y-121741996D01*
X117836304Y-121717727D01*
X117842265Y-121693929D01*
X117850530Y-121670829D01*
X117861020Y-121648651D01*
X117873633Y-121627607D01*
X117888247Y-121607902D01*
X117904723Y-121589723D01*
X117922902Y-121573247D01*
X117942607Y-121558633D01*
X117963651Y-121546020D01*
X117985829Y-121535530D01*
X118008929Y-121527265D01*
X118032727Y-121521304D01*
X118056996Y-121517704D01*
X118081500Y-121516500D01*
X119281500Y-121516500D01*
X119306004Y-121517704D01*
G37*
G04 #@! TD.AperFunction*
D13*
X124555000Y-161195000D03*
X129395000Y-161195000D03*
D14*
X124245000Y-164195000D03*
X129705000Y-164195000D03*
D15*
X120434100Y-146050000D03*
D16*
X112839500Y-141922500D03*
X112204500Y-138176000D03*
D15*
X108902500Y-137477500D03*
X141732000Y-141554200D03*
X116586000Y-126746000D03*
X119443500Y-130429000D03*
D16*
X102616000Y-141605000D03*
X106045000Y-137477500D03*
D15*
X137477500Y-159321500D03*
X142049500Y-158559500D03*
D16*
X148780500Y-147955000D03*
X148590000Y-144462500D03*
X148653500Y-140779500D03*
X148971000Y-151511000D03*
D15*
X141732000Y-134061200D03*
X127825500Y-124396500D03*
X114490500Y-122428000D03*
X141351000Y-129032000D03*
D16*
X148640800Y-138176000D03*
X115252500Y-147764500D03*
D15*
X129286000Y-124396500D03*
X136525000Y-126619000D03*
X134747000Y-154686000D03*
D16*
X130810000Y-155397200D03*
D15*
X118770400Y-156972000D03*
X124714000Y-159258000D03*
X132207000Y-159258000D03*
X105092500Y-137477500D03*
X106997500Y-137477500D03*
D16*
X111506000Y-135255000D03*
X106743500Y-145288000D03*
X107950000Y-137477500D03*
D15*
X120459500Y-143054000D03*
D16*
X105727500Y-145288000D03*
X109791500Y-141605000D03*
D15*
X143065500Y-155638500D03*
X141732000Y-138557000D03*
X113436400Y-156819600D03*
X120497600Y-138557000D03*
X110617000Y-145669000D03*
X113538000Y-148717000D03*
X120459500Y-144554000D03*
D16*
X137096500Y-148653500D03*
D15*
X141579600Y-144554000D03*
D16*
X138023600Y-148640800D03*
D15*
X141579600Y-143052800D03*
D16*
X148590000Y-132588000D03*
D15*
X141732000Y-135554000D03*
X120459500Y-141541500D03*
D17*
X102616000Y-141605000D02*
X105664000Y-141605000D01*
X106045000Y-141224000D02*
X106045000Y-137477500D01*
X105664000Y-141605000D02*
X106045000Y-141224000D01*
D18*
X144907000Y-137922000D02*
X144589500Y-138239500D01*
X145161000Y-137668000D02*
X144589500Y-138239500D01*
X149733000Y-133096000D02*
X145161000Y-137668000D01*
X144399000Y-138430000D02*
X144589500Y-138239500D01*
X137541000Y-153670000D02*
X142748000Y-153670000D01*
X142748000Y-153670000D02*
X144399000Y-152019000D01*
X137541000Y-153670000D02*
X135763000Y-153670000D01*
X135763000Y-153670000D02*
X134747000Y-154686000D01*
X134747000Y-154686000D02*
X134747000Y-154686000D01*
X144399000Y-152019000D02*
X144399000Y-138430000D01*
X136525000Y-126619000D02*
X141224000Y-126619000D01*
X143383000Y-128778000D02*
X145161000Y-128778000D01*
X141224000Y-126619000D02*
X143383000Y-128778000D01*
X145161000Y-128778000D02*
X145161000Y-128397000D01*
X145161000Y-128397000D02*
X146812000Y-126746000D01*
X148336000Y-126746000D02*
X149733000Y-128143000D01*
X146812000Y-126746000D02*
X148336000Y-126746000D01*
X149733000Y-128143000D02*
X149733000Y-133096000D01*
X136525000Y-126619000D02*
X130111500Y-126619000D01*
X129286000Y-125793500D02*
X129286000Y-124396500D01*
X130111500Y-126619000D02*
X129286000Y-125793500D01*
X130810000Y-155397200D02*
X130098800Y-154686000D01*
X130098800Y-154686000D02*
X123494800Y-154686000D01*
X123494800Y-154686000D02*
X121158000Y-154686000D01*
X121056400Y-154686000D02*
X130098800Y-154686000D01*
X118770400Y-156972000D02*
X121056400Y-154686000D01*
D19*
X124714000Y-159258000D02*
X131572000Y-159258000D01*
X131572000Y-159258000D02*
X132207000Y-159258000D01*
X108799000Y-127277500D02*
X108799000Y-128778000D01*
X107823000Y-126301500D02*
X108799000Y-127277500D01*
X105791000Y-126301500D02*
X107823000Y-126301500D01*
X104584500Y-127508000D02*
X105791000Y-126301500D01*
X105092500Y-137341088D02*
X106225990Y-136207598D01*
X105092500Y-137477500D02*
X105092500Y-137341088D01*
X106225990Y-136207598D02*
X106225990Y-131308490D01*
X106225990Y-131308490D02*
X104584500Y-129667000D01*
X104584500Y-129667000D02*
X104584500Y-127508000D01*
X106997500Y-129476500D02*
X106997500Y-137477500D01*
X106299000Y-128778000D02*
X106997500Y-129476500D01*
D20*
X109955058Y-135255000D02*
X111506000Y-135255000D01*
X107950000Y-137260058D02*
X109955058Y-135255000D01*
X107950000Y-137477500D02*
X107950000Y-137260058D01*
X107950000Y-137477500D02*
X107950000Y-144780000D01*
X107442000Y-145288000D02*
X106743500Y-145288000D01*
X107950000Y-144780000D02*
X107442000Y-145288000D01*
X107442000Y-145288000D02*
X108775500Y-146621500D01*
X108775500Y-146621500D02*
X114617500Y-146621500D01*
X114617500Y-146621500D02*
X115316000Y-145923000D01*
X115316000Y-145923000D02*
X115316000Y-143827500D01*
X116089500Y-143054000D02*
X120471000Y-143054000D01*
X115316000Y-143827500D02*
X116089500Y-143054000D01*
D18*
X147661000Y-122428000D02*
X149092010Y-123859010D01*
X147661000Y-122402772D02*
X145654228Y-120396000D01*
X147661000Y-122428000D02*
X147661000Y-122402772D01*
X135382000Y-120396000D02*
X133350000Y-122428000D01*
X139319000Y-120396000D02*
X135382000Y-120396000D01*
X145654228Y-120396000D02*
X139319000Y-120396000D01*
X147661000Y-122428000D02*
X150749000Y-125516000D01*
X150876000Y-125643000D02*
X150749000Y-125516000D01*
X150876000Y-126365000D02*
X150876000Y-125643000D01*
X150876000Y-126365000D02*
X150876000Y-133604000D01*
X150876000Y-125730000D02*
X150876000Y-126365000D01*
X150876000Y-133604000D02*
X145542000Y-138938000D01*
X143065500Y-155638500D02*
X143065500Y-154876500D01*
X143065500Y-154876500D02*
X145542000Y-152400000D01*
X145542000Y-152400000D02*
X145542000Y-138938000D01*
D19*
X106299000Y-122491500D02*
X108140500Y-124333000D01*
X116840000Y-124333000D02*
X118681500Y-122491500D01*
X108140500Y-124333000D02*
X116840000Y-124333000D01*
D18*
X141732000Y-138557000D02*
X142430500Y-138557000D01*
X142430500Y-138557000D02*
X143256000Y-139382500D01*
X143256000Y-139382500D02*
X143256000Y-141160500D01*
X143256000Y-141160500D02*
X143256000Y-145351500D01*
X143256000Y-145351500D02*
X143256000Y-151511000D01*
X143256000Y-151511000D02*
X142240000Y-152527000D01*
X142240000Y-152527000D02*
X141097000Y-152527000D01*
X141097000Y-152527000D02*
X117729000Y-152527000D01*
X117729000Y-152527000D02*
X113436400Y-156819600D01*
X113436400Y-156819600D02*
X113436400Y-156819600D01*
X121181500Y-122491500D02*
X121181500Y-130684900D01*
X121181500Y-130684900D02*
X119761000Y-132105400D01*
X119761000Y-137820400D02*
X120497600Y-138557000D01*
X119761000Y-137591800D02*
X119761000Y-137820400D01*
X119761000Y-132105400D02*
X119761000Y-137591800D01*
D20*
X114007900Y-138366500D02*
X110617000Y-141757400D01*
X110617000Y-141757400D02*
X110617000Y-145669000D01*
X118935500Y-138366500D02*
X114007900Y-138366500D01*
X119761000Y-137591800D02*
X119710200Y-137591800D01*
X119710200Y-137591800D02*
X118935500Y-138366500D01*
D18*
X113538000Y-148717000D02*
X118237000Y-148717000D01*
X120459500Y-144554000D02*
X119796500Y-144554000D01*
X119796500Y-144554000D02*
X118935500Y-145415000D01*
X118935500Y-148018500D02*
X118237000Y-148717000D01*
X118935500Y-145415000D02*
X118935500Y-148018500D01*
D20*
X137096500Y-148653500D02*
X137871200Y-147878800D01*
X137871200Y-147878800D02*
X140817600Y-147878800D01*
X141579600Y-147116800D02*
X140817600Y-147878800D01*
X141579600Y-144554000D02*
X141579600Y-147116800D01*
X142392400Y-143865600D02*
X141579600Y-143052800D01*
X138023600Y-148640800D02*
X141224000Y-148640800D01*
X142392400Y-147472400D02*
X142392400Y-143865600D01*
X141224000Y-148640800D02*
X142392400Y-147472400D01*
D18*
X147661000Y-133517000D02*
X147534000Y-133644000D01*
X147661000Y-128778000D02*
X147701000Y-128778000D01*
X147701000Y-128778000D02*
X148590000Y-129667000D01*
X148590000Y-132588000D02*
X148590000Y-132588000D01*
X148590000Y-129667000D02*
X148590000Y-132588000D01*
X148590000Y-132588000D02*
X147661000Y-133517000D01*
X145624000Y-135554000D02*
X148590000Y-132588000D01*
X141732000Y-135554000D02*
X145624000Y-135554000D01*
X118921500Y-141859000D02*
X120142000Y-141859000D01*
X120142000Y-141859000D02*
X120459500Y-141541500D01*
X116113500Y-141859000D02*
X120142000Y-141859000D01*
D21*
G36*
X151447655Y-118804527D02*
G01*
X151508885Y-118823013D01*
X151565354Y-118853038D01*
X151614918Y-118893462D01*
X151655688Y-118942744D01*
X151686109Y-118999006D01*
X151705022Y-119060104D01*
X151715000Y-119155041D01*
X151715000Y-125063796D01*
X151597896Y-124921104D01*
X151559127Y-124889287D01*
X151502711Y-124832871D01*
X151502706Y-124832865D01*
X149845718Y-123175878D01*
X149845716Y-123175875D01*
X149146000Y-122476159D01*
X149146000Y-122205050D01*
X149124513Y-121986889D01*
X149039599Y-121706966D01*
X148901706Y-121448986D01*
X148716134Y-121222866D01*
X148490013Y-121037294D01*
X148232033Y-120899401D01*
X147952110Y-120814487D01*
X147661000Y-120785815D01*
X147497033Y-120801964D01*
X146407940Y-119712872D01*
X146376124Y-119674104D01*
X146221418Y-119547140D01*
X146044915Y-119452798D01*
X145853399Y-119394702D01*
X145704130Y-119380000D01*
X145654228Y-119375085D01*
X145604326Y-119380000D01*
X135431902Y-119380000D01*
X135382000Y-119375085D01*
X135332098Y-119380000D01*
X135182829Y-119394702D01*
X134991313Y-119452798D01*
X134814810Y-119547140D01*
X134660104Y-119674104D01*
X134628292Y-119712867D01*
X133551232Y-120789928D01*
X132750000Y-120789928D01*
X132576746Y-120806992D01*
X132410150Y-120857528D01*
X132256614Y-120939595D01*
X132122038Y-121050038D01*
X132011595Y-121184614D01*
X131929528Y-121338150D01*
X131878992Y-121504746D01*
X131861928Y-121678000D01*
X131861928Y-123178000D01*
X131878992Y-123351254D01*
X131929528Y-123517850D01*
X132011595Y-123671386D01*
X132122038Y-123805962D01*
X132256614Y-123916405D01*
X132410150Y-123998472D01*
X132576746Y-124049008D01*
X132750000Y-124066072D01*
X133950000Y-124066072D01*
X134123254Y-124049008D01*
X134289850Y-123998472D01*
X134443386Y-123916405D01*
X134577962Y-123805962D01*
X134688405Y-123671386D01*
X134742777Y-123569663D01*
X134794866Y-123633134D01*
X135020987Y-123818706D01*
X135278967Y-123956599D01*
X135558890Y-124041513D01*
X135850000Y-124070185D01*
X136141111Y-124041513D01*
X136421034Y-123956599D01*
X136679014Y-123818706D01*
X136905134Y-123633134D01*
X137090706Y-123407014D01*
X137228599Y-123149033D01*
X137313513Y-122869110D01*
X137335000Y-122650949D01*
X137335000Y-122205050D01*
X137313513Y-121986889D01*
X137228599Y-121706966D01*
X137090706Y-121448986D01*
X137060352Y-121412000D01*
X145233388Y-121412000D01*
X146176000Y-122354613D01*
X146176000Y-122650950D01*
X146197487Y-122869111D01*
X146282401Y-123149034D01*
X146420294Y-123407014D01*
X146605866Y-123633134D01*
X146831987Y-123818706D01*
X147089967Y-123956599D01*
X147369890Y-124041513D01*
X147661000Y-124070185D01*
X147847933Y-124051774D01*
X148408875Y-124612716D01*
X148408878Y-124612718D01*
X149860000Y-126063841D01*
X149860000Y-126833159D01*
X149089712Y-126062872D01*
X149057896Y-126024104D01*
X148903190Y-125897140D01*
X148726687Y-125802798D01*
X148535171Y-125744702D01*
X148385902Y-125730000D01*
X148336000Y-125725085D01*
X148286098Y-125730000D01*
X146861902Y-125730000D01*
X146812000Y-125725085D01*
X146762098Y-125730000D01*
X146612829Y-125744702D01*
X146421313Y-125802798D01*
X146244810Y-125897140D01*
X146090104Y-126024104D01*
X146058292Y-126062867D01*
X144981232Y-127139928D01*
X144561000Y-127139928D01*
X144387746Y-127156992D01*
X144221150Y-127207528D01*
X144067614Y-127289595D01*
X143933038Y-127400038D01*
X143822595Y-127534614D01*
X143740528Y-127688150D01*
X143738076Y-127696235D01*
X141977712Y-125935872D01*
X141945896Y-125897104D01*
X141791190Y-125770140D01*
X141614687Y-125675798D01*
X141423171Y-125617702D01*
X141273902Y-125603000D01*
X141224000Y-125598085D01*
X141174098Y-125603000D01*
X136722459Y-125603000D01*
X136626939Y-125584000D01*
X136423061Y-125584000D01*
X136327541Y-125603000D01*
X130532341Y-125603000D01*
X130302000Y-125372660D01*
X130302000Y-124593959D01*
X130321000Y-124498439D01*
X130321000Y-124294561D01*
X130281226Y-124094602D01*
X130203205Y-123906244D01*
X130089937Y-123736726D01*
X129945774Y-123592563D01*
X129776256Y-123479295D01*
X129587898Y-123401274D01*
X129387939Y-123361500D01*
X129184061Y-123361500D01*
X128984102Y-123401274D01*
X128795744Y-123479295D01*
X128626226Y-123592563D01*
X128482063Y-123736726D01*
X128368795Y-123906244D01*
X128290774Y-124094602D01*
X128251000Y-124294561D01*
X128251000Y-124498439D01*
X128270001Y-124593963D01*
X128270000Y-125743598D01*
X128265085Y-125793500D01*
X128270000Y-125843401D01*
X128284702Y-125992670D01*
X128342798Y-126184186D01*
X128437140Y-126360690D01*
X128564104Y-126515396D01*
X128602872Y-126547212D01*
X129357792Y-127302133D01*
X129389604Y-127340896D01*
X129544310Y-127467860D01*
X129720813Y-127562202D01*
X129912329Y-127620298D01*
X130061598Y-127635000D01*
X130061605Y-127635000D01*
X130111499Y-127639914D01*
X130161393Y-127635000D01*
X136327541Y-127635000D01*
X136423061Y-127654000D01*
X136626939Y-127654000D01*
X136722459Y-127635000D01*
X140803160Y-127635000D01*
X142629292Y-129461133D01*
X142661104Y-129499896D01*
X142815810Y-129626860D01*
X142992313Y-129721202D01*
X143183829Y-129779298D01*
X143382999Y-129798915D01*
X143432901Y-129794000D01*
X143718126Y-129794000D01*
X143740528Y-129867850D01*
X143822595Y-130021386D01*
X143933038Y-130155962D01*
X144067614Y-130266405D01*
X144221150Y-130348472D01*
X144387746Y-130399008D01*
X144561000Y-130416072D01*
X145761000Y-130416072D01*
X145934254Y-130399008D01*
X146100850Y-130348472D01*
X146254386Y-130266405D01*
X146388962Y-130155962D01*
X146499405Y-130021386D01*
X146553777Y-129919663D01*
X146605866Y-129983134D01*
X146831987Y-130168706D01*
X147089967Y-130306599D01*
X147369890Y-130391513D01*
X147574000Y-130411616D01*
X147574001Y-132167158D01*
X145203160Y-134538000D01*
X141929459Y-134538000D01*
X141833939Y-134519000D01*
X141630061Y-134519000D01*
X141430102Y-134558774D01*
X141241744Y-134636795D01*
X141072226Y-134750063D01*
X140928063Y-134894226D01*
X140814795Y-135063744D01*
X140736774Y-135252102D01*
X140697000Y-135452061D01*
X140697000Y-135655939D01*
X140736774Y-135855898D01*
X140814795Y-136044256D01*
X140928063Y-136213774D01*
X141072226Y-136357937D01*
X141241744Y-136471205D01*
X141430102Y-136549226D01*
X141630061Y-136589000D01*
X141833939Y-136589000D01*
X141929459Y-136570000D01*
X144822160Y-136570000D01*
X143715868Y-137676292D01*
X143677105Y-137708104D01*
X143550141Y-137862810D01*
X143494047Y-137967756D01*
X143455799Y-138039313D01*
X143431094Y-138120754D01*
X143184212Y-137873872D01*
X143152396Y-137835104D01*
X142997690Y-137708140D01*
X142821187Y-137613798D01*
X142629671Y-137555702D01*
X142480402Y-137541000D01*
X142430500Y-137536085D01*
X142380598Y-137541000D01*
X141929459Y-137541000D01*
X141833939Y-137522000D01*
X141630061Y-137522000D01*
X141430102Y-137561774D01*
X141241744Y-137639795D01*
X141072226Y-137753063D01*
X140928063Y-137897226D01*
X140814795Y-138066744D01*
X140736774Y-138255102D01*
X140697000Y-138455061D01*
X140697000Y-138658939D01*
X140736774Y-138858898D01*
X140814795Y-139047256D01*
X140928063Y-139216774D01*
X141072226Y-139360937D01*
X141241744Y-139474205D01*
X141430102Y-139552226D01*
X141630061Y-139592000D01*
X141833939Y-139592000D01*
X141929459Y-139573000D01*
X142009660Y-139573000D01*
X142240000Y-139803341D01*
X142240001Y-141110589D01*
X142240000Y-141110599D01*
X142240000Y-142249489D01*
X142239374Y-142248863D01*
X142069856Y-142135595D01*
X141881498Y-142057574D01*
X141681539Y-142017800D01*
X141477661Y-142017800D01*
X141277702Y-142057574D01*
X141089344Y-142135595D01*
X140919826Y-142248863D01*
X140775663Y-142393026D01*
X140662395Y-142562544D01*
X140584374Y-142750902D01*
X140544600Y-142950861D01*
X140544600Y-143154739D01*
X140584374Y-143354698D01*
X140662395Y-143543056D01*
X140775663Y-143712574D01*
X140866489Y-143803400D01*
X140775663Y-143894226D01*
X140662395Y-144063744D01*
X140584374Y-144252102D01*
X140544600Y-144452061D01*
X140544600Y-144655939D01*
X140584374Y-144855898D01*
X140662395Y-145044256D01*
X140754100Y-145181503D01*
X140754101Y-146774866D01*
X140475667Y-147053300D01*
X137911750Y-147053300D01*
X137871199Y-147049306D01*
X137830649Y-147053300D01*
X137830647Y-147053300D01*
X137709374Y-147065244D01*
X137553766Y-147112447D01*
X137474218Y-147154967D01*
X137410357Y-147189101D01*
X137387279Y-147208041D01*
X137284659Y-147292259D01*
X137258808Y-147323759D01*
X136738836Y-147843732D01*
X136677295Y-147869223D01*
X136532345Y-147966076D01*
X136409076Y-148089345D01*
X136312223Y-148234295D01*
X136245510Y-148395355D01*
X136211500Y-148566335D01*
X136211500Y-148740665D01*
X136245510Y-148911645D01*
X136312223Y-149072705D01*
X136409076Y-149217655D01*
X136532345Y-149340924D01*
X136677295Y-149437777D01*
X136838355Y-149504490D01*
X137009335Y-149538500D01*
X137183665Y-149538500D01*
X137354645Y-149504490D01*
X137515705Y-149437777D01*
X137569553Y-149401796D01*
X137604395Y-149425077D01*
X137765455Y-149491790D01*
X137936435Y-149525800D01*
X138110765Y-149525800D01*
X138281745Y-149491790D01*
X138343284Y-149466300D01*
X141183450Y-149466300D01*
X141224000Y-149470294D01*
X141264550Y-149466300D01*
X141264553Y-149466300D01*
X141385826Y-149454356D01*
X141541434Y-149407153D01*
X141684842Y-149330499D01*
X141810541Y-149227341D01*
X141836398Y-149195834D01*
X142240001Y-148792232D01*
X142240001Y-151090158D01*
X141819160Y-151511000D01*
X117778901Y-151511000D01*
X117728999Y-151506085D01*
X117529829Y-151525702D01*
X117338313Y-151583798D01*
X117161810Y-151678140D01*
X117007104Y-151805104D01*
X116975293Y-151843866D01*
X112857606Y-155961554D01*
X112776626Y-156015663D01*
X112632463Y-156159826D01*
X112519195Y-156329344D01*
X112441174Y-156517702D01*
X112401400Y-156717661D01*
X112401400Y-156921539D01*
X112441174Y-157121498D01*
X112519195Y-157309856D01*
X112632463Y-157479374D01*
X112776626Y-157623537D01*
X112946144Y-157736805D01*
X113134502Y-157814826D01*
X113334461Y-157854600D01*
X113538339Y-157854600D01*
X113738298Y-157814826D01*
X113926656Y-157736805D01*
X114096174Y-157623537D01*
X114240337Y-157479374D01*
X114294446Y-157398394D01*
X114822779Y-156870061D01*
X117735400Y-156870061D01*
X117735400Y-157073939D01*
X117775174Y-157273898D01*
X117853195Y-157462256D01*
X117966463Y-157631774D01*
X118110626Y-157775937D01*
X118280144Y-157889205D01*
X118468502Y-157967226D01*
X118668461Y-158007000D01*
X118872339Y-158007000D01*
X119072298Y-157967226D01*
X119260656Y-157889205D01*
X119430174Y-157775937D01*
X119574337Y-157631774D01*
X119628446Y-157550794D01*
X121477241Y-155702000D01*
X129677960Y-155702000D01*
X130126865Y-156150906D01*
X130242810Y-156246059D01*
X130419313Y-156340402D01*
X130610829Y-156398498D01*
X130810000Y-156418115D01*
X131009170Y-156398498D01*
X131200687Y-156340402D01*
X131377189Y-156246059D01*
X131531896Y-156119096D01*
X131658859Y-155964389D01*
X131753202Y-155787887D01*
X131811298Y-155596370D01*
X131830915Y-155397200D01*
X131811298Y-155198029D01*
X131753202Y-155006513D01*
X131658859Y-154830010D01*
X131563706Y-154714065D01*
X130852512Y-154002872D01*
X130820696Y-153964104D01*
X130665990Y-153837140D01*
X130489487Y-153742798D01*
X130297971Y-153684702D01*
X130148702Y-153670000D01*
X130098800Y-153665085D01*
X130048898Y-153670000D01*
X121106293Y-153670000D01*
X121056399Y-153665086D01*
X121006505Y-153670000D01*
X121006498Y-153670000D01*
X120857229Y-153684702D01*
X120665713Y-153742798D01*
X120489210Y-153837140D01*
X120334504Y-153964104D01*
X120302693Y-154002866D01*
X118191606Y-156113954D01*
X118110626Y-156168063D01*
X117966463Y-156312226D01*
X117853195Y-156481744D01*
X117775174Y-156670102D01*
X117735400Y-156870061D01*
X114822779Y-156870061D01*
X118149841Y-153543000D01*
X134453160Y-153543000D01*
X134168205Y-153827954D01*
X134087226Y-153882063D01*
X133943063Y-154026226D01*
X133829795Y-154195744D01*
X133751774Y-154384102D01*
X133712000Y-154584061D01*
X133712000Y-154787939D01*
X133751774Y-154987898D01*
X133829795Y-155176256D01*
X133943063Y-155345774D01*
X134087226Y-155489937D01*
X134256744Y-155603205D01*
X134445102Y-155681226D01*
X134645061Y-155721000D01*
X134848939Y-155721000D01*
X135048898Y-155681226D01*
X135237256Y-155603205D01*
X135406774Y-155489937D01*
X135550937Y-155345774D01*
X135605046Y-155264795D01*
X136183841Y-154686000D01*
X142063348Y-154686000D01*
X142044585Y-154876500D01*
X142049500Y-154926402D01*
X142049500Y-155441041D01*
X142030500Y-155536561D01*
X142030500Y-155740439D01*
X142070274Y-155940398D01*
X142148295Y-156128756D01*
X142261563Y-156298274D01*
X142405726Y-156442437D01*
X142575244Y-156555705D01*
X142763602Y-156633726D01*
X142963561Y-156673500D01*
X143167439Y-156673500D01*
X143367398Y-156633726D01*
X143555756Y-156555705D01*
X143725274Y-156442437D01*
X143869437Y-156298274D01*
X143982705Y-156128756D01*
X144060726Y-155940398D01*
X144100500Y-155740439D01*
X144100500Y-155536561D01*
X144081500Y-155441041D01*
X144081500Y-155297340D01*
X146225133Y-153153708D01*
X146263896Y-153121896D01*
X146390860Y-152967190D01*
X146468925Y-152821140D01*
X146485202Y-152790688D01*
X146543298Y-152599171D01*
X146562915Y-152400000D01*
X146558000Y-152350098D01*
X146558000Y-139358840D01*
X151559133Y-134357708D01*
X151597896Y-134325896D01*
X151715000Y-134183204D01*
X151715001Y-159116571D01*
X151688735Y-159077261D01*
X151417739Y-158806265D01*
X151099081Y-158593344D01*
X150745007Y-158446682D01*
X150369124Y-158371914D01*
X149985876Y-158371914D01*
X149609993Y-158446682D01*
X149255919Y-158593344D01*
X148937261Y-158806265D01*
X148666265Y-159077261D01*
X148453344Y-159395919D01*
X148306682Y-159749993D01*
X148231914Y-160125876D01*
X148231914Y-160509124D01*
X148306682Y-160885007D01*
X148453344Y-161239081D01*
X148666265Y-161557739D01*
X148937261Y-161828735D01*
X149006501Y-161875000D01*
X131161147Y-161875000D01*
X131127500Y-161871686D01*
X131093853Y-161875000D01*
X130993217Y-161884912D01*
X130864094Y-161924081D01*
X130745093Y-161987688D01*
X130640789Y-162073289D01*
X130555188Y-162177593D01*
X130491581Y-162296594D01*
X130452412Y-162425717D01*
X130439186Y-162560000D01*
X130442501Y-162593657D01*
X130442501Y-162930580D01*
X130436317Y-162925505D01*
X130208740Y-162803862D01*
X129961804Y-162728955D01*
X129705000Y-162703662D01*
X129448195Y-162728955D01*
X129201259Y-162803862D01*
X128973682Y-162925505D01*
X128774208Y-163089208D01*
X128610505Y-163288683D01*
X128488862Y-163516260D01*
X128413955Y-163763196D01*
X128395000Y-163955650D01*
X128395000Y-164434351D01*
X128413955Y-164626805D01*
X128488862Y-164873741D01*
X128610505Y-165101318D01*
X128724729Y-165240500D01*
X125225272Y-165240500D01*
X125339495Y-165101318D01*
X125461138Y-164873740D01*
X125536045Y-164626804D01*
X125555000Y-164434350D01*
X125555000Y-163955649D01*
X125536045Y-163763195D01*
X125461138Y-163516259D01*
X125339495Y-163288682D01*
X125175792Y-163089208D01*
X124976317Y-162925505D01*
X124748740Y-162803862D01*
X124501804Y-162728955D01*
X124245000Y-162703662D01*
X123988195Y-162728955D01*
X123741259Y-162803862D01*
X123513682Y-162925505D01*
X123494000Y-162941657D01*
X123494000Y-162593647D01*
X123497314Y-162560000D01*
X123484088Y-162425717D01*
X123444919Y-162296594D01*
X123381312Y-162177593D01*
X123295711Y-162073289D01*
X123191407Y-161987688D01*
X123072406Y-161924081D01*
X122943283Y-161884912D01*
X122842647Y-161875000D01*
X122809000Y-161871686D01*
X122775353Y-161875000D01*
X102649506Y-161875000D01*
X102552346Y-161865473D01*
X102491117Y-161846987D01*
X102434644Y-161816960D01*
X102385082Y-161776538D01*
X102344313Y-161727257D01*
X102313891Y-161670993D01*
X102294978Y-161609896D01*
X102285000Y-161514959D01*
X102285000Y-160936794D01*
X123370000Y-160936794D01*
X123370000Y-161453207D01*
X123387147Y-161627300D01*
X123454906Y-161850674D01*
X123564943Y-162056536D01*
X123713026Y-162236975D01*
X123893465Y-162385058D01*
X124099327Y-162495094D01*
X124322701Y-162562853D01*
X124555000Y-162585733D01*
X124787300Y-162562853D01*
X125010674Y-162495094D01*
X125216536Y-162385058D01*
X125396975Y-162236975D01*
X125545058Y-162056536D01*
X125655094Y-161850673D01*
X125722853Y-161627299D01*
X125740000Y-161453206D01*
X125740000Y-160936793D01*
X125722853Y-160762700D01*
X125655094Y-160539326D01*
X125545058Y-160333464D01*
X125418087Y-160178750D01*
X128531913Y-160178750D01*
X128404942Y-160333465D01*
X128294906Y-160539327D01*
X128227147Y-160762701D01*
X128210000Y-160936794D01*
X128210000Y-161453207D01*
X128227147Y-161627300D01*
X128294906Y-161850674D01*
X128404943Y-162056536D01*
X128553026Y-162236975D01*
X128733465Y-162385058D01*
X128939327Y-162495094D01*
X129162701Y-162562853D01*
X129395000Y-162585733D01*
X129627300Y-162562853D01*
X129850674Y-162495094D01*
X130056536Y-162385058D01*
X130236975Y-162236975D01*
X130385058Y-162056536D01*
X130495094Y-161850673D01*
X130562853Y-161627299D01*
X130580000Y-161453206D01*
X130580000Y-160936793D01*
X130562853Y-160762700D01*
X130495094Y-160539326D01*
X130385058Y-160333464D01*
X130258087Y-160178750D01*
X131725302Y-160178750D01*
X131905102Y-160253226D01*
X132105061Y-160293000D01*
X132308939Y-160293000D01*
X132508898Y-160253226D01*
X132697256Y-160175205D01*
X132866774Y-160061937D01*
X133010937Y-159917774D01*
X133124205Y-159748256D01*
X133202226Y-159559898D01*
X133242000Y-159359939D01*
X133242000Y-159156061D01*
X133202226Y-158956102D01*
X133124205Y-158767744D01*
X133010937Y-158598226D01*
X132866774Y-158454063D01*
X132697256Y-158340795D01*
X132508898Y-158262774D01*
X132308939Y-158223000D01*
X132105061Y-158223000D01*
X131905102Y-158262774D01*
X131725302Y-158337250D01*
X125195698Y-158337250D01*
X125015898Y-158262774D01*
X124815939Y-158223000D01*
X124612061Y-158223000D01*
X124412102Y-158262774D01*
X124223744Y-158340795D01*
X124054226Y-158454063D01*
X123910063Y-158598226D01*
X123796795Y-158767744D01*
X123718774Y-158956102D01*
X123679000Y-159156061D01*
X123679000Y-159359939D01*
X123718774Y-159559898D01*
X123796795Y-159748256D01*
X123910063Y-159917774D01*
X123961086Y-159968797D01*
X123893464Y-160004942D01*
X123713025Y-160153025D01*
X123564942Y-160333465D01*
X123454906Y-160539327D01*
X123387147Y-160762701D01*
X123370000Y-160936794D01*
X102285000Y-160936794D01*
X102285000Y-148513974D01*
X102455261Y-148684235D01*
X102773919Y-148897156D01*
X103127993Y-149043818D01*
X103503876Y-149118586D01*
X103887124Y-149118586D01*
X104263007Y-149043818D01*
X104617081Y-148897156D01*
X104935739Y-148684235D01*
X105206735Y-148413239D01*
X105419656Y-148094581D01*
X105566318Y-147740507D01*
X105641086Y-147364624D01*
X105641086Y-146981376D01*
X105566318Y-146605493D01*
X105419656Y-146251419D01*
X105293232Y-146062212D01*
X105308295Y-146072277D01*
X105469355Y-146138990D01*
X105640335Y-146173000D01*
X105814665Y-146173000D01*
X105985645Y-146138990D01*
X106146705Y-146072277D01*
X106235500Y-146012946D01*
X106324295Y-146072277D01*
X106485355Y-146138990D01*
X106656335Y-146173000D01*
X106830665Y-146173000D01*
X107001645Y-146138990D01*
X107063184Y-146113500D01*
X107100068Y-146113500D01*
X108163111Y-147176545D01*
X108188959Y-147208041D01*
X108220455Y-147233889D01*
X108220458Y-147233892D01*
X108314657Y-147311199D01*
X108362948Y-147337011D01*
X108458066Y-147387853D01*
X108613674Y-147435056D01*
X108734947Y-147447000D01*
X108734949Y-147447000D01*
X108775500Y-147450994D01*
X108816050Y-147447000D01*
X114576950Y-147447000D01*
X114617500Y-147450994D01*
X114658050Y-147447000D01*
X114658053Y-147447000D01*
X114779326Y-147435056D01*
X114934934Y-147387853D01*
X115078342Y-147311199D01*
X115204041Y-147208041D01*
X115229898Y-147176534D01*
X115871040Y-146535393D01*
X115902541Y-146509541D01*
X115963425Y-146435353D01*
X116005699Y-146383843D01*
X116082353Y-146240434D01*
X116104111Y-146168706D01*
X116129556Y-146084826D01*
X116141500Y-145963553D01*
X116141500Y-145963551D01*
X116145494Y-145923001D01*
X116141500Y-145882450D01*
X116141500Y-144169432D01*
X116431433Y-143879500D01*
X119034159Y-143879500D01*
X118252372Y-144661288D01*
X118213604Y-144693104D01*
X118086640Y-144847810D01*
X117992298Y-145024314D01*
X117970117Y-145097435D01*
X117934202Y-145215830D01*
X117914585Y-145415000D01*
X117919500Y-145464902D01*
X117919501Y-147597659D01*
X117816160Y-147701000D01*
X113735459Y-147701000D01*
X113639939Y-147682000D01*
X113436061Y-147682000D01*
X113236102Y-147721774D01*
X113047744Y-147799795D01*
X112878226Y-147913063D01*
X112734063Y-148057226D01*
X112620795Y-148226744D01*
X112542774Y-148415102D01*
X112503000Y-148615061D01*
X112503000Y-148818939D01*
X112542774Y-149018898D01*
X112620795Y-149207256D01*
X112734063Y-149376774D01*
X112878226Y-149520937D01*
X113047744Y-149634205D01*
X113236102Y-149712226D01*
X113436061Y-149752000D01*
X113639939Y-149752000D01*
X113735459Y-149733000D01*
X118187098Y-149733000D01*
X118237000Y-149737915D01*
X118286902Y-149733000D01*
X118436171Y-149718298D01*
X118627687Y-149660202D01*
X118804190Y-149565860D01*
X118958896Y-149438896D01*
X118990712Y-149400128D01*
X119618633Y-148772208D01*
X119657396Y-148740396D01*
X119784360Y-148585690D01*
X119878702Y-148409187D01*
X119936798Y-148217671D01*
X119951500Y-148068402D01*
X119951500Y-148068395D01*
X119956414Y-148018501D01*
X119951500Y-147968607D01*
X119951500Y-145835840D01*
X120217341Y-145570000D01*
X120262041Y-145570000D01*
X120357561Y-145589000D01*
X120561439Y-145589000D01*
X120761398Y-145549226D01*
X120949756Y-145471205D01*
X121119274Y-145357937D01*
X121263437Y-145213774D01*
X121376705Y-145044256D01*
X121454726Y-144855898D01*
X121494500Y-144655939D01*
X121494500Y-144452061D01*
X121454726Y-144252102D01*
X121376705Y-144063744D01*
X121263437Y-143894226D01*
X121173211Y-143804000D01*
X121263437Y-143713774D01*
X121376705Y-143544256D01*
X121454726Y-143355898D01*
X121494500Y-143155939D01*
X121494500Y-142952061D01*
X121454726Y-142752102D01*
X121376705Y-142563744D01*
X121263437Y-142394226D01*
X121166961Y-142297750D01*
X121263437Y-142201274D01*
X121376705Y-142031756D01*
X121454726Y-141843398D01*
X121494500Y-141643439D01*
X121494500Y-141439561D01*
X121454726Y-141239602D01*
X121376705Y-141051244D01*
X121263437Y-140881726D01*
X121119274Y-140737563D01*
X120949756Y-140624295D01*
X120761398Y-140546274D01*
X120561439Y-140506500D01*
X120357561Y-140506500D01*
X120157602Y-140546274D01*
X119969244Y-140624295D01*
X119799726Y-140737563D01*
X119694289Y-140843000D01*
X116792985Y-140843000D01*
X116736067Y-140812577D01*
X116571816Y-140762752D01*
X116401000Y-140745928D01*
X115826000Y-140745928D01*
X115655184Y-140762752D01*
X115490933Y-140812577D01*
X115339558Y-140893488D01*
X115206877Y-141002377D01*
X115097988Y-141135058D01*
X115017077Y-141286433D01*
X114967252Y-141450684D01*
X114950428Y-141621500D01*
X114950428Y-142096500D01*
X114967252Y-142267316D01*
X115017077Y-142431567D01*
X115097988Y-142582942D01*
X115206877Y-142715623D01*
X115236299Y-142739769D01*
X114760961Y-143215107D01*
X114729460Y-143240959D01*
X114703609Y-143272459D01*
X114626301Y-143366658D01*
X114549647Y-143510067D01*
X114502445Y-143665674D01*
X114486506Y-143827500D01*
X114490501Y-143868060D01*
X114490500Y-145581067D01*
X114275568Y-145796000D01*
X111647015Y-145796000D01*
X111652000Y-145770939D01*
X111652000Y-145567061D01*
X111612226Y-145367102D01*
X111534205Y-145178744D01*
X111442500Y-145041497D01*
X111442500Y-142099332D01*
X114349834Y-139192000D01*
X118894950Y-139192000D01*
X118935500Y-139195994D01*
X118976050Y-139192000D01*
X118976053Y-139192000D01*
X119097326Y-139180056D01*
X119252934Y-139132853D01*
X119396342Y-139056199D01*
X119486208Y-138982448D01*
X119639556Y-139135796D01*
X119693663Y-139216774D01*
X119837826Y-139360937D01*
X120007344Y-139474205D01*
X120195702Y-139552226D01*
X120395661Y-139592000D01*
X120599539Y-139592000D01*
X120799498Y-139552226D01*
X120987856Y-139474205D01*
X121157374Y-139360937D01*
X121301537Y-139216774D01*
X121414805Y-139047256D01*
X121492826Y-138858898D01*
X121532600Y-138658939D01*
X121532600Y-138455061D01*
X121492826Y-138255102D01*
X121414805Y-138066744D01*
X121301537Y-137897226D01*
X121157374Y-137753063D01*
X121076396Y-137698956D01*
X120777000Y-137399560D01*
X120777000Y-132526240D01*
X121864633Y-131438608D01*
X121903396Y-131406796D01*
X122030360Y-131252090D01*
X122124702Y-131075587D01*
X122182798Y-130884071D01*
X122197500Y-130734802D01*
X122197500Y-130734795D01*
X122202414Y-130684901D01*
X122197500Y-130635007D01*
X122197500Y-123703750D01*
X122236634Y-123671634D01*
X122422206Y-123445514D01*
X122431500Y-123428126D01*
X122440794Y-123445514D01*
X122626366Y-123671634D01*
X122852487Y-123857206D01*
X123110467Y-123995099D01*
X123390390Y-124080013D01*
X123681500Y-124108685D01*
X123972611Y-124080013D01*
X124252534Y-123995099D01*
X124510514Y-123857206D01*
X124736634Y-123671634D01*
X124922206Y-123445514D01*
X125060099Y-123187533D01*
X125145013Y-122907610D01*
X125166500Y-122689449D01*
X125166500Y-122293550D01*
X125145013Y-122075389D01*
X125060099Y-121795466D01*
X124922206Y-121537486D01*
X124736634Y-121311366D01*
X124510513Y-121125794D01*
X124252533Y-120987901D01*
X123972610Y-120902987D01*
X123681500Y-120874315D01*
X123390389Y-120902987D01*
X123110466Y-120987901D01*
X122852486Y-121125794D01*
X122626366Y-121311366D01*
X122440794Y-121537487D01*
X122431500Y-121554874D01*
X122422206Y-121537486D01*
X122236634Y-121311366D01*
X122010513Y-121125794D01*
X121752533Y-120987901D01*
X121472610Y-120902987D01*
X121181500Y-120874315D01*
X120890389Y-120902987D01*
X120610466Y-120987901D01*
X120352486Y-121125794D01*
X120126366Y-121311366D01*
X120074277Y-121374837D01*
X120019905Y-121273114D01*
X119909462Y-121138538D01*
X119774886Y-121028095D01*
X119621350Y-120946028D01*
X119454754Y-120895492D01*
X119281500Y-120878428D01*
X118081500Y-120878428D01*
X117908246Y-120895492D01*
X117741650Y-120946028D01*
X117588114Y-121028095D01*
X117453538Y-121138538D01*
X117343095Y-121273114D01*
X117261028Y-121426650D01*
X117210492Y-121593246D01*
X117193428Y-121766500D01*
X117193428Y-122677435D01*
X116458614Y-123412250D01*
X110070849Y-123412250D01*
X110177599Y-123212533D01*
X110262513Y-122932610D01*
X110284000Y-122714449D01*
X110284000Y-122268550D01*
X110262513Y-122050389D01*
X110177599Y-121770466D01*
X110039706Y-121512486D01*
X109854134Y-121286366D01*
X109628013Y-121100794D01*
X109370033Y-120962901D01*
X109090110Y-120877987D01*
X108799000Y-120849315D01*
X108507889Y-120877987D01*
X108227966Y-120962901D01*
X107969986Y-121100794D01*
X107743866Y-121286366D01*
X107691777Y-121349837D01*
X107637405Y-121248114D01*
X107526962Y-121113538D01*
X107392386Y-121003095D01*
X107238850Y-120921028D01*
X107072254Y-120870492D01*
X106899000Y-120853428D01*
X105699000Y-120853428D01*
X105525746Y-120870492D01*
X105359150Y-120921028D01*
X105205614Y-121003095D01*
X105071038Y-121113538D01*
X104960595Y-121248114D01*
X104878528Y-121401650D01*
X104827992Y-121568246D01*
X104810928Y-121741500D01*
X104810928Y-123241500D01*
X104827992Y-123414754D01*
X104878528Y-123581350D01*
X104960595Y-123734886D01*
X105071038Y-123869462D01*
X105205614Y-123979905D01*
X105359150Y-124061972D01*
X105525746Y-124112508D01*
X105699000Y-124129572D01*
X106634935Y-124129572D01*
X107457445Y-124952082D01*
X107486281Y-124987219D01*
X107626484Y-125102280D01*
X107786439Y-125187778D01*
X107960000Y-125240427D01*
X108140499Y-125258205D01*
X108185730Y-125253750D01*
X116794769Y-125253750D01*
X116840000Y-125258205D01*
X116885231Y-125253750D01*
X117020499Y-125240427D01*
X117194061Y-125187778D01*
X117354016Y-125102280D01*
X117494219Y-124987219D01*
X117523060Y-124952076D01*
X118370564Y-124104572D01*
X119281500Y-124104572D01*
X119454754Y-124087508D01*
X119621350Y-124036972D01*
X119774886Y-123954905D01*
X119909462Y-123844462D01*
X120019905Y-123709886D01*
X120074277Y-123608163D01*
X120126366Y-123671634D01*
X120165500Y-123703750D01*
X120165501Y-130264058D01*
X119077872Y-131351688D01*
X119039104Y-131383504D01*
X118912140Y-131538210D01*
X118817798Y-131714714D01*
X118785100Y-131822505D01*
X118759702Y-131906230D01*
X118740085Y-132105400D01*
X118745000Y-132155302D01*
X118745001Y-137389567D01*
X118593568Y-137541000D01*
X114048450Y-137541000D01*
X114007900Y-137537006D01*
X113967349Y-137541000D01*
X113967347Y-137541000D01*
X113846074Y-137552944D01*
X113690466Y-137600147D01*
X113547057Y-137676801D01*
X113452858Y-137754108D01*
X113452855Y-137754111D01*
X113421359Y-137779959D01*
X113395511Y-137811455D01*
X110315933Y-140891035D01*
X110210705Y-140820723D01*
X110049645Y-140754010D01*
X109878665Y-140720000D01*
X109704335Y-140720000D01*
X109533355Y-140754010D01*
X109372295Y-140820723D01*
X109227345Y-140917576D01*
X109104076Y-141040845D01*
X109007223Y-141185795D01*
X108940510Y-141346855D01*
X108906500Y-141517835D01*
X108906500Y-141692165D01*
X108940510Y-141863145D01*
X109007223Y-142024205D01*
X109104076Y-142169155D01*
X109227345Y-142292424D01*
X109372295Y-142389277D01*
X109533355Y-142455990D01*
X109704335Y-142490000D01*
X109791500Y-142490000D01*
X109791501Y-145041496D01*
X109699795Y-145178744D01*
X109621774Y-145367102D01*
X109582000Y-145567061D01*
X109582000Y-145770939D01*
X109586985Y-145796000D01*
X109117434Y-145796000D01*
X108604800Y-145283367D01*
X108613563Y-145272689D01*
X108639698Y-145240844D01*
X108672891Y-145178744D01*
X108716353Y-145097434D01*
X108763556Y-144941826D01*
X108775500Y-144820553D01*
X108775500Y-144820541D01*
X108779493Y-144780001D01*
X108775500Y-144739461D01*
X108775500Y-137797184D01*
X108800990Y-137735645D01*
X108835000Y-137564665D01*
X108835000Y-137542490D01*
X110296991Y-136080500D01*
X111186316Y-136080500D01*
X111247855Y-136105990D01*
X111418835Y-136140000D01*
X111593165Y-136140000D01*
X111764145Y-136105990D01*
X111925205Y-136039277D01*
X112070155Y-135942424D01*
X112193424Y-135819155D01*
X112290277Y-135674205D01*
X112356990Y-135513145D01*
X112391000Y-135342165D01*
X112391000Y-135167835D01*
X112356990Y-134996855D01*
X112290277Y-134835795D01*
X112193424Y-134690845D01*
X112070155Y-134567576D01*
X111925205Y-134470723D01*
X111764145Y-134404010D01*
X111593165Y-134370000D01*
X111418835Y-134370000D01*
X111247855Y-134404010D01*
X111186316Y-134429500D01*
X109995608Y-134429500D01*
X109955057Y-134425506D01*
X109914507Y-134429500D01*
X109914505Y-134429500D01*
X109793232Y-134441444D01*
X109637624Y-134488647D01*
X109545451Y-134537915D01*
X109494215Y-134565301D01*
X109445479Y-134605298D01*
X109368517Y-134668459D01*
X109342664Y-134699961D01*
X107918250Y-136124376D01*
X107918250Y-130126247D01*
X107969987Y-130168706D01*
X108227967Y-130306599D01*
X108507890Y-130391513D01*
X108799000Y-130420185D01*
X109090111Y-130391513D01*
X109370034Y-130306599D01*
X109628014Y-130168706D01*
X109854134Y-129983134D01*
X110039706Y-129757014D01*
X110177599Y-129499033D01*
X110262513Y-129219110D01*
X110284000Y-129000949D01*
X110284000Y-128555050D01*
X110262513Y-128336889D01*
X110177599Y-128056966D01*
X110039706Y-127798986D01*
X109854134Y-127572866D01*
X109719750Y-127462580D01*
X109719750Y-127322728D01*
X109724205Y-127277499D01*
X109716552Y-127199798D01*
X109706427Y-127097001D01*
X109653778Y-126923439D01*
X109568280Y-126763484D01*
X109453219Y-126623281D01*
X109418083Y-126594446D01*
X108506059Y-125682423D01*
X108477219Y-125647281D01*
X108337016Y-125532220D01*
X108177061Y-125446722D01*
X108003499Y-125394073D01*
X107868231Y-125380750D01*
X107823000Y-125376295D01*
X107777769Y-125380750D01*
X105836231Y-125380750D01*
X105791000Y-125376295D01*
X105745769Y-125380750D01*
X105610501Y-125394073D01*
X105436939Y-125446722D01*
X105276984Y-125532220D01*
X105136781Y-125647281D01*
X105107945Y-125682418D01*
X103965419Y-126824945D01*
X103930282Y-126853781D01*
X103815221Y-126993984D01*
X103806828Y-127009687D01*
X103729722Y-127153940D01*
X103677073Y-127327502D01*
X103659295Y-127508000D01*
X103663751Y-127553241D01*
X103663750Y-129621768D01*
X103659295Y-129667000D01*
X103668161Y-129757014D01*
X103677073Y-129847498D01*
X103729722Y-130021060D01*
X103815220Y-130181015D01*
X103930281Y-130321219D01*
X103965424Y-130350060D01*
X105305241Y-131689878D01*
X105305240Y-135826211D01*
X104508558Y-136622894D01*
X104432726Y-136673563D01*
X104288563Y-136817726D01*
X104175295Y-136987244D01*
X104097274Y-137175602D01*
X104057500Y-137375561D01*
X104057500Y-137579439D01*
X104097274Y-137779398D01*
X104175295Y-137967756D01*
X104288563Y-138137274D01*
X104432726Y-138281437D01*
X104602244Y-138394705D01*
X104790602Y-138472726D01*
X104990561Y-138512500D01*
X105194439Y-138512500D01*
X105394398Y-138472726D01*
X105582756Y-138394705D01*
X105752274Y-138281437D01*
X105896437Y-138137274D01*
X106009705Y-137967756D01*
X106045000Y-137882547D01*
X106080295Y-137967756D01*
X106193563Y-138137274D01*
X106337726Y-138281437D01*
X106507244Y-138394705D01*
X106695602Y-138472726D01*
X106895561Y-138512500D01*
X107099439Y-138512500D01*
X107124500Y-138507515D01*
X107124501Y-144438067D01*
X107100068Y-144462500D01*
X107063184Y-144462500D01*
X107001645Y-144437010D01*
X106830665Y-144403000D01*
X106656335Y-144403000D01*
X106485355Y-144437010D01*
X106324295Y-144503723D01*
X106235500Y-144563054D01*
X106146705Y-144503723D01*
X105985645Y-144437010D01*
X105814665Y-144403000D01*
X105640335Y-144403000D01*
X105469355Y-144437010D01*
X105308295Y-144503723D01*
X105163345Y-144600576D01*
X105040076Y-144723845D01*
X104943223Y-144868795D01*
X104876510Y-145029855D01*
X104842500Y-145200835D01*
X104842500Y-145375165D01*
X104876510Y-145546145D01*
X104920062Y-145651290D01*
X104617081Y-145448844D01*
X104263007Y-145302182D01*
X103887124Y-145227414D01*
X103503876Y-145227414D01*
X103127993Y-145302182D01*
X102773919Y-145448844D01*
X102455261Y-145661765D01*
X102285000Y-145832026D01*
X102285000Y-119159507D01*
X102294527Y-119062345D01*
X102313013Y-119001115D01*
X102343038Y-118944646D01*
X102383462Y-118895082D01*
X102432744Y-118854312D01*
X102489006Y-118823891D01*
X102550104Y-118804978D01*
X102645041Y-118795000D01*
X151350493Y-118795000D01*
X151447655Y-118804527D01*
G37*
X151447655Y-118804527D02*
X151508885Y-118823013D01*
X151565354Y-118853038D01*
X151614918Y-118893462D01*
X151655688Y-118942744D01*
X151686109Y-118999006D01*
X151705022Y-119060104D01*
X151715000Y-119155041D01*
X151715000Y-125063796D01*
X151597896Y-124921104D01*
X151559127Y-124889287D01*
X151502711Y-124832871D01*
X151502706Y-124832865D01*
X149845718Y-123175878D01*
X149845716Y-123175875D01*
X149146000Y-122476159D01*
X149146000Y-122205050D01*
X149124513Y-121986889D01*
X149039599Y-121706966D01*
X148901706Y-121448986D01*
X148716134Y-121222866D01*
X148490013Y-121037294D01*
X148232033Y-120899401D01*
X147952110Y-120814487D01*
X147661000Y-120785815D01*
X147497033Y-120801964D01*
X146407940Y-119712872D01*
X146376124Y-119674104D01*
X146221418Y-119547140D01*
X146044915Y-119452798D01*
X145853399Y-119394702D01*
X145704130Y-119380000D01*
X145654228Y-119375085D01*
X145604326Y-119380000D01*
X135431902Y-119380000D01*
X135382000Y-119375085D01*
X135332098Y-119380000D01*
X135182829Y-119394702D01*
X134991313Y-119452798D01*
X134814810Y-119547140D01*
X134660104Y-119674104D01*
X134628292Y-119712867D01*
X133551232Y-120789928D01*
X132750000Y-120789928D01*
X132576746Y-120806992D01*
X132410150Y-120857528D01*
X132256614Y-120939595D01*
X132122038Y-121050038D01*
X132011595Y-121184614D01*
X131929528Y-121338150D01*
X131878992Y-121504746D01*
X131861928Y-121678000D01*
X131861928Y-123178000D01*
X131878992Y-123351254D01*
X131929528Y-123517850D01*
X132011595Y-123671386D01*
X132122038Y-123805962D01*
X132256614Y-123916405D01*
X132410150Y-123998472D01*
X132576746Y-124049008D01*
X132750000Y-124066072D01*
X133950000Y-124066072D01*
X134123254Y-124049008D01*
X134289850Y-123998472D01*
X134443386Y-123916405D01*
X134577962Y-123805962D01*
X134688405Y-123671386D01*
X134742777Y-123569663D01*
X134794866Y-123633134D01*
X135020987Y-123818706D01*
X135278967Y-123956599D01*
X135558890Y-124041513D01*
X135850000Y-124070185D01*
X136141111Y-124041513D01*
X136421034Y-123956599D01*
X136679014Y-123818706D01*
X136905134Y-123633134D01*
X137090706Y-123407014D01*
X137228599Y-123149033D01*
X137313513Y-122869110D01*
X137335000Y-122650949D01*
X137335000Y-122205050D01*
X137313513Y-121986889D01*
X137228599Y-121706966D01*
X137090706Y-121448986D01*
X137060352Y-121412000D01*
X145233388Y-121412000D01*
X146176000Y-122354613D01*
X146176000Y-122650950D01*
X146197487Y-122869111D01*
X146282401Y-123149034D01*
X146420294Y-123407014D01*
X146605866Y-123633134D01*
X146831987Y-123818706D01*
X147089967Y-123956599D01*
X147369890Y-124041513D01*
X147661000Y-124070185D01*
X147847933Y-124051774D01*
X148408875Y-124612716D01*
X148408878Y-124612718D01*
X149860000Y-126063841D01*
X149860000Y-126833159D01*
X149089712Y-126062872D01*
X149057896Y-126024104D01*
X148903190Y-125897140D01*
X148726687Y-125802798D01*
X148535171Y-125744702D01*
X148385902Y-125730000D01*
X148336000Y-125725085D01*
X148286098Y-125730000D01*
X146861902Y-125730000D01*
X146812000Y-125725085D01*
X146762098Y-125730000D01*
X146612829Y-125744702D01*
X146421313Y-125802798D01*
X146244810Y-125897140D01*
X146090104Y-126024104D01*
X146058292Y-126062867D01*
X144981232Y-127139928D01*
X144561000Y-127139928D01*
X144387746Y-127156992D01*
X144221150Y-127207528D01*
X144067614Y-127289595D01*
X143933038Y-127400038D01*
X143822595Y-127534614D01*
X143740528Y-127688150D01*
X143738076Y-127696235D01*
X141977712Y-125935872D01*
X141945896Y-125897104D01*
X141791190Y-125770140D01*
X141614687Y-125675798D01*
X141423171Y-125617702D01*
X141273902Y-125603000D01*
X141224000Y-125598085D01*
X141174098Y-125603000D01*
X136722459Y-125603000D01*
X136626939Y-125584000D01*
X136423061Y-125584000D01*
X136327541Y-125603000D01*
X130532341Y-125603000D01*
X130302000Y-125372660D01*
X130302000Y-124593959D01*
X130321000Y-124498439D01*
X130321000Y-124294561D01*
X130281226Y-124094602D01*
X130203205Y-123906244D01*
X130089937Y-123736726D01*
X129945774Y-123592563D01*
X129776256Y-123479295D01*
X129587898Y-123401274D01*
X129387939Y-123361500D01*
X129184061Y-123361500D01*
X128984102Y-123401274D01*
X128795744Y-123479295D01*
X128626226Y-123592563D01*
X128482063Y-123736726D01*
X128368795Y-123906244D01*
X128290774Y-124094602D01*
X128251000Y-124294561D01*
X128251000Y-124498439D01*
X128270001Y-124593963D01*
X128270000Y-125743598D01*
X128265085Y-125793500D01*
X128270000Y-125843401D01*
X128284702Y-125992670D01*
X128342798Y-126184186D01*
X128437140Y-126360690D01*
X128564104Y-126515396D01*
X128602872Y-126547212D01*
X129357792Y-127302133D01*
X129389604Y-127340896D01*
X129544310Y-127467860D01*
X129720813Y-127562202D01*
X129912329Y-127620298D01*
X130061598Y-127635000D01*
X130061605Y-127635000D01*
X130111499Y-127639914D01*
X130161393Y-127635000D01*
X136327541Y-127635000D01*
X136423061Y-127654000D01*
X136626939Y-127654000D01*
X136722459Y-127635000D01*
X140803160Y-127635000D01*
X142629292Y-129461133D01*
X142661104Y-129499896D01*
X142815810Y-129626860D01*
X142992313Y-129721202D01*
X143183829Y-129779298D01*
X143382999Y-129798915D01*
X143432901Y-129794000D01*
X143718126Y-129794000D01*
X143740528Y-129867850D01*
X143822595Y-130021386D01*
X143933038Y-130155962D01*
X144067614Y-130266405D01*
X144221150Y-130348472D01*
X144387746Y-130399008D01*
X144561000Y-130416072D01*
X145761000Y-130416072D01*
X145934254Y-130399008D01*
X146100850Y-130348472D01*
X146254386Y-130266405D01*
X146388962Y-130155962D01*
X146499405Y-130021386D01*
X146553777Y-129919663D01*
X146605866Y-129983134D01*
X146831987Y-130168706D01*
X147089967Y-130306599D01*
X147369890Y-130391513D01*
X147574000Y-130411616D01*
X147574001Y-132167158D01*
X145203160Y-134538000D01*
X141929459Y-134538000D01*
X141833939Y-134519000D01*
X141630061Y-134519000D01*
X141430102Y-134558774D01*
X141241744Y-134636795D01*
X141072226Y-134750063D01*
X140928063Y-134894226D01*
X140814795Y-135063744D01*
X140736774Y-135252102D01*
X140697000Y-135452061D01*
X140697000Y-135655939D01*
X140736774Y-135855898D01*
X140814795Y-136044256D01*
X140928063Y-136213774D01*
X141072226Y-136357937D01*
X141241744Y-136471205D01*
X141430102Y-136549226D01*
X141630061Y-136589000D01*
X141833939Y-136589000D01*
X141929459Y-136570000D01*
X144822160Y-136570000D01*
X143715868Y-137676292D01*
X143677105Y-137708104D01*
X143550141Y-137862810D01*
X143494047Y-137967756D01*
X143455799Y-138039313D01*
X143431094Y-138120754D01*
X143184212Y-137873872D01*
X143152396Y-137835104D01*
X142997690Y-137708140D01*
X142821187Y-137613798D01*
X142629671Y-137555702D01*
X142480402Y-137541000D01*
X142430500Y-137536085D01*
X142380598Y-137541000D01*
X141929459Y-137541000D01*
X141833939Y-137522000D01*
X141630061Y-137522000D01*
X141430102Y-137561774D01*
X141241744Y-137639795D01*
X141072226Y-137753063D01*
X140928063Y-137897226D01*
X140814795Y-138066744D01*
X140736774Y-138255102D01*
X140697000Y-138455061D01*
X140697000Y-138658939D01*
X140736774Y-138858898D01*
X140814795Y-139047256D01*
X140928063Y-139216774D01*
X141072226Y-139360937D01*
X141241744Y-139474205D01*
X141430102Y-139552226D01*
X141630061Y-139592000D01*
X141833939Y-139592000D01*
X141929459Y-139573000D01*
X142009660Y-139573000D01*
X142240000Y-139803341D01*
X142240001Y-141110589D01*
X142240000Y-141110599D01*
X142240000Y-142249489D01*
X142239374Y-142248863D01*
X142069856Y-142135595D01*
X141881498Y-142057574D01*
X141681539Y-142017800D01*
X141477661Y-142017800D01*
X141277702Y-142057574D01*
X141089344Y-142135595D01*
X140919826Y-142248863D01*
X140775663Y-142393026D01*
X140662395Y-142562544D01*
X140584374Y-142750902D01*
X140544600Y-142950861D01*
X140544600Y-143154739D01*
X140584374Y-143354698D01*
X140662395Y-143543056D01*
X140775663Y-143712574D01*
X140866489Y-143803400D01*
X140775663Y-143894226D01*
X140662395Y-144063744D01*
X140584374Y-144252102D01*
X140544600Y-144452061D01*
X140544600Y-144655939D01*
X140584374Y-144855898D01*
X140662395Y-145044256D01*
X140754100Y-145181503D01*
X140754101Y-146774866D01*
X140475667Y-147053300D01*
X137911750Y-147053300D01*
X137871199Y-147049306D01*
X137830649Y-147053300D01*
X137830647Y-147053300D01*
X137709374Y-147065244D01*
X137553766Y-147112447D01*
X137474218Y-147154967D01*
X137410357Y-147189101D01*
X137387279Y-147208041D01*
X137284659Y-147292259D01*
X137258808Y-147323759D01*
X136738836Y-147843732D01*
X136677295Y-147869223D01*
X136532345Y-147966076D01*
X136409076Y-148089345D01*
X136312223Y-148234295D01*
X136245510Y-148395355D01*
X136211500Y-148566335D01*
X136211500Y-148740665D01*
X136245510Y-148911645D01*
X136312223Y-149072705D01*
X136409076Y-149217655D01*
X136532345Y-149340924D01*
X136677295Y-149437777D01*
X136838355Y-149504490D01*
X137009335Y-149538500D01*
X137183665Y-149538500D01*
X137354645Y-149504490D01*
X137515705Y-149437777D01*
X137569553Y-149401796D01*
X137604395Y-149425077D01*
X137765455Y-149491790D01*
X137936435Y-149525800D01*
X138110765Y-149525800D01*
X138281745Y-149491790D01*
X138343284Y-149466300D01*
X141183450Y-149466300D01*
X141224000Y-149470294D01*
X141264550Y-149466300D01*
X141264553Y-149466300D01*
X141385826Y-149454356D01*
X141541434Y-149407153D01*
X141684842Y-149330499D01*
X141810541Y-149227341D01*
X141836398Y-149195834D01*
X142240001Y-148792232D01*
X142240001Y-151090158D01*
X141819160Y-151511000D01*
X117778901Y-151511000D01*
X117728999Y-151506085D01*
X117529829Y-151525702D01*
X117338313Y-151583798D01*
X117161810Y-151678140D01*
X117007104Y-151805104D01*
X116975293Y-151843866D01*
X112857606Y-155961554D01*
X112776626Y-156015663D01*
X112632463Y-156159826D01*
X112519195Y-156329344D01*
X112441174Y-156517702D01*
X112401400Y-156717661D01*
X112401400Y-156921539D01*
X112441174Y-157121498D01*
X112519195Y-157309856D01*
X112632463Y-157479374D01*
X112776626Y-157623537D01*
X112946144Y-157736805D01*
X113134502Y-157814826D01*
X113334461Y-157854600D01*
X113538339Y-157854600D01*
X113738298Y-157814826D01*
X113926656Y-157736805D01*
X114096174Y-157623537D01*
X114240337Y-157479374D01*
X114294446Y-157398394D01*
X114822779Y-156870061D01*
X117735400Y-156870061D01*
X117735400Y-157073939D01*
X117775174Y-157273898D01*
X117853195Y-157462256D01*
X117966463Y-157631774D01*
X118110626Y-157775937D01*
X118280144Y-157889205D01*
X118468502Y-157967226D01*
X118668461Y-158007000D01*
X118872339Y-158007000D01*
X119072298Y-157967226D01*
X119260656Y-157889205D01*
X119430174Y-157775937D01*
X119574337Y-157631774D01*
X119628446Y-157550794D01*
X121477241Y-155702000D01*
X129677960Y-155702000D01*
X130126865Y-156150906D01*
X130242810Y-156246059D01*
X130419313Y-156340402D01*
X130610829Y-156398498D01*
X130810000Y-156418115D01*
X131009170Y-156398498D01*
X131200687Y-156340402D01*
X131377189Y-156246059D01*
X131531896Y-156119096D01*
X131658859Y-155964389D01*
X131753202Y-155787887D01*
X131811298Y-155596370D01*
X131830915Y-155397200D01*
X131811298Y-155198029D01*
X131753202Y-155006513D01*
X131658859Y-154830010D01*
X131563706Y-154714065D01*
X130852512Y-154002872D01*
X130820696Y-153964104D01*
X130665990Y-153837140D01*
X130489487Y-153742798D01*
X130297971Y-153684702D01*
X130148702Y-153670000D01*
X130098800Y-153665085D01*
X130048898Y-153670000D01*
X121106293Y-153670000D01*
X121056399Y-153665086D01*
X121006505Y-153670000D01*
X121006498Y-153670000D01*
X120857229Y-153684702D01*
X120665713Y-153742798D01*
X120489210Y-153837140D01*
X120334504Y-153964104D01*
X120302693Y-154002866D01*
X118191606Y-156113954D01*
X118110626Y-156168063D01*
X117966463Y-156312226D01*
X117853195Y-156481744D01*
X117775174Y-156670102D01*
X117735400Y-156870061D01*
X114822779Y-156870061D01*
X118149841Y-153543000D01*
X134453160Y-153543000D01*
X134168205Y-153827954D01*
X134087226Y-153882063D01*
X133943063Y-154026226D01*
X133829795Y-154195744D01*
X133751774Y-154384102D01*
X133712000Y-154584061D01*
X133712000Y-154787939D01*
X133751774Y-154987898D01*
X133829795Y-155176256D01*
X133943063Y-155345774D01*
X134087226Y-155489937D01*
X134256744Y-155603205D01*
X134445102Y-155681226D01*
X134645061Y-155721000D01*
X134848939Y-155721000D01*
X135048898Y-155681226D01*
X135237256Y-155603205D01*
X135406774Y-155489937D01*
X135550937Y-155345774D01*
X135605046Y-155264795D01*
X136183841Y-154686000D01*
X142063348Y-154686000D01*
X142044585Y-154876500D01*
X142049500Y-154926402D01*
X142049500Y-155441041D01*
X142030500Y-155536561D01*
X142030500Y-155740439D01*
X142070274Y-155940398D01*
X142148295Y-156128756D01*
X142261563Y-156298274D01*
X142405726Y-156442437D01*
X142575244Y-156555705D01*
X142763602Y-156633726D01*
X142963561Y-156673500D01*
X143167439Y-156673500D01*
X143367398Y-156633726D01*
X143555756Y-156555705D01*
X143725274Y-156442437D01*
X143869437Y-156298274D01*
X143982705Y-156128756D01*
X144060726Y-155940398D01*
X144100500Y-155740439D01*
X144100500Y-155536561D01*
X144081500Y-155441041D01*
X144081500Y-155297340D01*
X146225133Y-153153708D01*
X146263896Y-153121896D01*
X146390860Y-152967190D01*
X146468925Y-152821140D01*
X146485202Y-152790688D01*
X146543298Y-152599171D01*
X146562915Y-152400000D01*
X146558000Y-152350098D01*
X146558000Y-139358840D01*
X151559133Y-134357708D01*
X151597896Y-134325896D01*
X151715000Y-134183204D01*
X151715001Y-159116571D01*
X151688735Y-159077261D01*
X151417739Y-158806265D01*
X151099081Y-158593344D01*
X150745007Y-158446682D01*
X150369124Y-158371914D01*
X149985876Y-158371914D01*
X149609993Y-158446682D01*
X149255919Y-158593344D01*
X148937261Y-158806265D01*
X148666265Y-159077261D01*
X148453344Y-159395919D01*
X148306682Y-159749993D01*
X148231914Y-160125876D01*
X148231914Y-160509124D01*
X148306682Y-160885007D01*
X148453344Y-161239081D01*
X148666265Y-161557739D01*
X148937261Y-161828735D01*
X149006501Y-161875000D01*
X131161147Y-161875000D01*
X131127500Y-161871686D01*
X131093853Y-161875000D01*
X130993217Y-161884912D01*
X130864094Y-161924081D01*
X130745093Y-161987688D01*
X130640789Y-162073289D01*
X130555188Y-162177593D01*
X130491581Y-162296594D01*
X130452412Y-162425717D01*
X130439186Y-162560000D01*
X130442501Y-162593657D01*
X130442501Y-162930580D01*
X130436317Y-162925505D01*
X130208740Y-162803862D01*
X129961804Y-162728955D01*
X129705000Y-162703662D01*
X129448195Y-162728955D01*
X129201259Y-162803862D01*
X128973682Y-162925505D01*
X128774208Y-163089208D01*
X128610505Y-163288683D01*
X128488862Y-163516260D01*
X128413955Y-163763196D01*
X128395000Y-163955650D01*
X128395000Y-164434351D01*
X128413955Y-164626805D01*
X128488862Y-164873741D01*
X128610505Y-165101318D01*
X128724729Y-165240500D01*
X125225272Y-165240500D01*
X125339495Y-165101318D01*
X125461138Y-164873740D01*
X125536045Y-164626804D01*
X125555000Y-164434350D01*
X125555000Y-163955649D01*
X125536045Y-163763195D01*
X125461138Y-163516259D01*
X125339495Y-163288682D01*
X125175792Y-163089208D01*
X124976317Y-162925505D01*
X124748740Y-162803862D01*
X124501804Y-162728955D01*
X124245000Y-162703662D01*
X123988195Y-162728955D01*
X123741259Y-162803862D01*
X123513682Y-162925505D01*
X123494000Y-162941657D01*
X123494000Y-162593647D01*
X123497314Y-162560000D01*
X123484088Y-162425717D01*
X123444919Y-162296594D01*
X123381312Y-162177593D01*
X123295711Y-162073289D01*
X123191407Y-161987688D01*
X123072406Y-161924081D01*
X122943283Y-161884912D01*
X122842647Y-161875000D01*
X122809000Y-161871686D01*
X122775353Y-161875000D01*
X102649506Y-161875000D01*
X102552346Y-161865473D01*
X102491117Y-161846987D01*
X102434644Y-161816960D01*
X102385082Y-161776538D01*
X102344313Y-161727257D01*
X102313891Y-161670993D01*
X102294978Y-161609896D01*
X102285000Y-161514959D01*
X102285000Y-160936794D01*
X123370000Y-160936794D01*
X123370000Y-161453207D01*
X123387147Y-161627300D01*
X123454906Y-161850674D01*
X123564943Y-162056536D01*
X123713026Y-162236975D01*
X123893465Y-162385058D01*
X124099327Y-162495094D01*
X124322701Y-162562853D01*
X124555000Y-162585733D01*
X124787300Y-162562853D01*
X125010674Y-162495094D01*
X125216536Y-162385058D01*
X125396975Y-162236975D01*
X125545058Y-162056536D01*
X125655094Y-161850673D01*
X125722853Y-161627299D01*
X125740000Y-161453206D01*
X125740000Y-160936793D01*
X125722853Y-160762700D01*
X125655094Y-160539326D01*
X125545058Y-160333464D01*
X125418087Y-160178750D01*
X128531913Y-160178750D01*
X128404942Y-160333465D01*
X128294906Y-160539327D01*
X128227147Y-160762701D01*
X128210000Y-160936794D01*
X128210000Y-161453207D01*
X128227147Y-161627300D01*
X128294906Y-161850674D01*
X128404943Y-162056536D01*
X128553026Y-162236975D01*
X128733465Y-162385058D01*
X128939327Y-162495094D01*
X129162701Y-162562853D01*
X129395000Y-162585733D01*
X129627300Y-162562853D01*
X129850674Y-162495094D01*
X130056536Y-162385058D01*
X130236975Y-162236975D01*
X130385058Y-162056536D01*
X130495094Y-161850673D01*
X130562853Y-161627299D01*
X130580000Y-161453206D01*
X130580000Y-160936793D01*
X130562853Y-160762700D01*
X130495094Y-160539326D01*
X130385058Y-160333464D01*
X130258087Y-160178750D01*
X131725302Y-160178750D01*
X131905102Y-160253226D01*
X132105061Y-160293000D01*
X132308939Y-160293000D01*
X132508898Y-160253226D01*
X132697256Y-160175205D01*
X132866774Y-160061937D01*
X133010937Y-159917774D01*
X133124205Y-159748256D01*
X133202226Y-159559898D01*
X133242000Y-159359939D01*
X133242000Y-159156061D01*
X133202226Y-158956102D01*
X133124205Y-158767744D01*
X133010937Y-158598226D01*
X132866774Y-158454063D01*
X132697256Y-158340795D01*
X132508898Y-158262774D01*
X132308939Y-158223000D01*
X132105061Y-158223000D01*
X131905102Y-158262774D01*
X131725302Y-158337250D01*
X125195698Y-158337250D01*
X125015898Y-158262774D01*
X124815939Y-158223000D01*
X124612061Y-158223000D01*
X124412102Y-158262774D01*
X124223744Y-158340795D01*
X124054226Y-158454063D01*
X123910063Y-158598226D01*
X123796795Y-158767744D01*
X123718774Y-158956102D01*
X123679000Y-159156061D01*
X123679000Y-159359939D01*
X123718774Y-159559898D01*
X123796795Y-159748256D01*
X123910063Y-159917774D01*
X123961086Y-159968797D01*
X123893464Y-160004942D01*
X123713025Y-160153025D01*
X123564942Y-160333465D01*
X123454906Y-160539327D01*
X123387147Y-160762701D01*
X123370000Y-160936794D01*
X102285000Y-160936794D01*
X102285000Y-148513974D01*
X102455261Y-148684235D01*
X102773919Y-148897156D01*
X103127993Y-149043818D01*
X103503876Y-149118586D01*
X103887124Y-149118586D01*
X104263007Y-149043818D01*
X104617081Y-148897156D01*
X104935739Y-148684235D01*
X105206735Y-148413239D01*
X105419656Y-148094581D01*
X105566318Y-147740507D01*
X105641086Y-147364624D01*
X105641086Y-146981376D01*
X105566318Y-146605493D01*
X105419656Y-146251419D01*
X105293232Y-146062212D01*
X105308295Y-146072277D01*
X105469355Y-146138990D01*
X105640335Y-146173000D01*
X105814665Y-146173000D01*
X105985645Y-146138990D01*
X106146705Y-146072277D01*
X106235500Y-146012946D01*
X106324295Y-146072277D01*
X106485355Y-146138990D01*
X106656335Y-146173000D01*
X106830665Y-146173000D01*
X107001645Y-146138990D01*
X107063184Y-146113500D01*
X107100068Y-146113500D01*
X108163111Y-147176545D01*
X108188959Y-147208041D01*
X108220455Y-147233889D01*
X108220458Y-147233892D01*
X108314657Y-147311199D01*
X108362948Y-147337011D01*
X108458066Y-147387853D01*
X108613674Y-147435056D01*
X108734947Y-147447000D01*
X108734949Y-147447000D01*
X108775500Y-147450994D01*
X108816050Y-147447000D01*
X114576950Y-147447000D01*
X114617500Y-147450994D01*
X114658050Y-147447000D01*
X114658053Y-147447000D01*
X114779326Y-147435056D01*
X114934934Y-147387853D01*
X115078342Y-147311199D01*
X115204041Y-147208041D01*
X115229898Y-147176534D01*
X115871040Y-146535393D01*
X115902541Y-146509541D01*
X115963425Y-146435353D01*
X116005699Y-146383843D01*
X116082353Y-146240434D01*
X116104111Y-146168706D01*
X116129556Y-146084826D01*
X116141500Y-145963553D01*
X116141500Y-145963551D01*
X116145494Y-145923001D01*
X116141500Y-145882450D01*
X116141500Y-144169432D01*
X116431433Y-143879500D01*
X119034159Y-143879500D01*
X118252372Y-144661288D01*
X118213604Y-144693104D01*
X118086640Y-144847810D01*
X117992298Y-145024314D01*
X117970117Y-145097435D01*
X117934202Y-145215830D01*
X117914585Y-145415000D01*
X117919500Y-145464902D01*
X117919501Y-147597659D01*
X117816160Y-147701000D01*
X113735459Y-147701000D01*
X113639939Y-147682000D01*
X113436061Y-147682000D01*
X113236102Y-147721774D01*
X113047744Y-147799795D01*
X112878226Y-147913063D01*
X112734063Y-148057226D01*
X112620795Y-148226744D01*
X112542774Y-148415102D01*
X112503000Y-148615061D01*
X112503000Y-148818939D01*
X112542774Y-149018898D01*
X112620795Y-149207256D01*
X112734063Y-149376774D01*
X112878226Y-149520937D01*
X113047744Y-149634205D01*
X113236102Y-149712226D01*
X113436061Y-149752000D01*
X113639939Y-149752000D01*
X113735459Y-149733000D01*
X118187098Y-149733000D01*
X118237000Y-149737915D01*
X118286902Y-149733000D01*
X118436171Y-149718298D01*
X118627687Y-149660202D01*
X118804190Y-149565860D01*
X118958896Y-149438896D01*
X118990712Y-149400128D01*
X119618633Y-148772208D01*
X119657396Y-148740396D01*
X119784360Y-148585690D01*
X119878702Y-148409187D01*
X119936798Y-148217671D01*
X119951500Y-148068402D01*
X119951500Y-148068395D01*
X119956414Y-148018501D01*
X119951500Y-147968607D01*
X119951500Y-145835840D01*
X120217341Y-145570000D01*
X120262041Y-145570000D01*
X120357561Y-145589000D01*
X120561439Y-145589000D01*
X120761398Y-145549226D01*
X120949756Y-145471205D01*
X121119274Y-145357937D01*
X121263437Y-145213774D01*
X121376705Y-145044256D01*
X121454726Y-144855898D01*
X121494500Y-144655939D01*
X121494500Y-144452061D01*
X121454726Y-144252102D01*
X121376705Y-144063744D01*
X121263437Y-143894226D01*
X121173211Y-143804000D01*
X121263437Y-143713774D01*
X121376705Y-143544256D01*
X121454726Y-143355898D01*
X121494500Y-143155939D01*
X121494500Y-142952061D01*
X121454726Y-142752102D01*
X121376705Y-142563744D01*
X121263437Y-142394226D01*
X121166961Y-142297750D01*
X121263437Y-142201274D01*
X121376705Y-142031756D01*
X121454726Y-141843398D01*
X121494500Y-141643439D01*
X121494500Y-141439561D01*
X121454726Y-141239602D01*
X121376705Y-141051244D01*
X121263437Y-140881726D01*
X121119274Y-140737563D01*
X120949756Y-140624295D01*
X120761398Y-140546274D01*
X120561439Y-140506500D01*
X120357561Y-140506500D01*
X120157602Y-140546274D01*
X119969244Y-140624295D01*
X119799726Y-140737563D01*
X119694289Y-140843000D01*
X116792985Y-140843000D01*
X116736067Y-140812577D01*
X116571816Y-140762752D01*
X116401000Y-140745928D01*
X115826000Y-140745928D01*
X115655184Y-140762752D01*
X115490933Y-140812577D01*
X115339558Y-140893488D01*
X115206877Y-141002377D01*
X115097988Y-141135058D01*
X115017077Y-141286433D01*
X114967252Y-141450684D01*
X114950428Y-141621500D01*
X114950428Y-142096500D01*
X114967252Y-142267316D01*
X115017077Y-142431567D01*
X115097988Y-142582942D01*
X115206877Y-142715623D01*
X115236299Y-142739769D01*
X114760961Y-143215107D01*
X114729460Y-143240959D01*
X114703609Y-143272459D01*
X114626301Y-143366658D01*
X114549647Y-143510067D01*
X114502445Y-143665674D01*
X114486506Y-143827500D01*
X114490501Y-143868060D01*
X114490500Y-145581067D01*
X114275568Y-145796000D01*
X111647015Y-145796000D01*
X111652000Y-145770939D01*
X111652000Y-145567061D01*
X111612226Y-145367102D01*
X111534205Y-145178744D01*
X111442500Y-145041497D01*
X111442500Y-142099332D01*
X114349834Y-139192000D01*
X118894950Y-139192000D01*
X118935500Y-139195994D01*
X118976050Y-139192000D01*
X118976053Y-139192000D01*
X119097326Y-139180056D01*
X119252934Y-139132853D01*
X119396342Y-139056199D01*
X119486208Y-138982448D01*
X119639556Y-139135796D01*
X119693663Y-139216774D01*
X119837826Y-139360937D01*
X120007344Y-139474205D01*
X120195702Y-139552226D01*
X120395661Y-139592000D01*
X120599539Y-139592000D01*
X120799498Y-139552226D01*
X120987856Y-139474205D01*
X121157374Y-139360937D01*
X121301537Y-139216774D01*
X121414805Y-139047256D01*
X121492826Y-138858898D01*
X121532600Y-138658939D01*
X121532600Y-138455061D01*
X121492826Y-138255102D01*
X121414805Y-138066744D01*
X121301537Y-137897226D01*
X121157374Y-137753063D01*
X121076396Y-137698956D01*
X120777000Y-137399560D01*
X120777000Y-132526240D01*
X121864633Y-131438608D01*
X121903396Y-131406796D01*
X122030360Y-131252090D01*
X122124702Y-131075587D01*
X122182798Y-130884071D01*
X122197500Y-130734802D01*
X122197500Y-130734795D01*
X122202414Y-130684901D01*
X122197500Y-130635007D01*
X122197500Y-123703750D01*
X122236634Y-123671634D01*
X122422206Y-123445514D01*
X122431500Y-123428126D01*
X122440794Y-123445514D01*
X122626366Y-123671634D01*
X122852487Y-123857206D01*
X123110467Y-123995099D01*
X123390390Y-124080013D01*
X123681500Y-124108685D01*
X123972611Y-124080013D01*
X124252534Y-123995099D01*
X124510514Y-123857206D01*
X124736634Y-123671634D01*
X124922206Y-123445514D01*
X125060099Y-123187533D01*
X125145013Y-122907610D01*
X125166500Y-122689449D01*
X125166500Y-122293550D01*
X125145013Y-122075389D01*
X125060099Y-121795466D01*
X124922206Y-121537486D01*
X124736634Y-121311366D01*
X124510513Y-121125794D01*
X124252533Y-120987901D01*
X123972610Y-120902987D01*
X123681500Y-120874315D01*
X123390389Y-120902987D01*
X123110466Y-120987901D01*
X122852486Y-121125794D01*
X122626366Y-121311366D01*
X122440794Y-121537487D01*
X122431500Y-121554874D01*
X122422206Y-121537486D01*
X122236634Y-121311366D01*
X122010513Y-121125794D01*
X121752533Y-120987901D01*
X121472610Y-120902987D01*
X121181500Y-120874315D01*
X120890389Y-120902987D01*
X120610466Y-120987901D01*
X120352486Y-121125794D01*
X120126366Y-121311366D01*
X120074277Y-121374837D01*
X120019905Y-121273114D01*
X119909462Y-121138538D01*
X119774886Y-121028095D01*
X119621350Y-120946028D01*
X119454754Y-120895492D01*
X119281500Y-120878428D01*
X118081500Y-120878428D01*
X117908246Y-120895492D01*
X117741650Y-120946028D01*
X117588114Y-121028095D01*
X117453538Y-121138538D01*
X117343095Y-121273114D01*
X117261028Y-121426650D01*
X117210492Y-121593246D01*
X117193428Y-121766500D01*
X117193428Y-122677435D01*
X116458614Y-123412250D01*
X110070849Y-123412250D01*
X110177599Y-123212533D01*
X110262513Y-122932610D01*
X110284000Y-122714449D01*
X110284000Y-122268550D01*
X110262513Y-122050389D01*
X110177599Y-121770466D01*
X110039706Y-121512486D01*
X109854134Y-121286366D01*
X109628013Y-121100794D01*
X109370033Y-120962901D01*
X109090110Y-120877987D01*
X108799000Y-120849315D01*
X108507889Y-120877987D01*
X108227966Y-120962901D01*
X107969986Y-121100794D01*
X107743866Y-121286366D01*
X107691777Y-121349837D01*
X107637405Y-121248114D01*
X107526962Y-121113538D01*
X107392386Y-121003095D01*
X107238850Y-120921028D01*
X107072254Y-120870492D01*
X106899000Y-120853428D01*
X105699000Y-120853428D01*
X105525746Y-120870492D01*
X105359150Y-120921028D01*
X105205614Y-121003095D01*
X105071038Y-121113538D01*
X104960595Y-121248114D01*
X104878528Y-121401650D01*
X104827992Y-121568246D01*
X104810928Y-121741500D01*
X104810928Y-123241500D01*
X104827992Y-123414754D01*
X104878528Y-123581350D01*
X104960595Y-123734886D01*
X105071038Y-123869462D01*
X105205614Y-123979905D01*
X105359150Y-124061972D01*
X105525746Y-124112508D01*
X105699000Y-124129572D01*
X106634935Y-124129572D01*
X107457445Y-124952082D01*
X107486281Y-124987219D01*
X107626484Y-125102280D01*
X107786439Y-125187778D01*
X107960000Y-125240427D01*
X108140499Y-125258205D01*
X108185730Y-125253750D01*
X116794769Y-125253750D01*
X116840000Y-125258205D01*
X116885231Y-125253750D01*
X117020499Y-125240427D01*
X117194061Y-125187778D01*
X117354016Y-125102280D01*
X117494219Y-124987219D01*
X117523060Y-124952076D01*
X118370564Y-124104572D01*
X119281500Y-124104572D01*
X119454754Y-124087508D01*
X119621350Y-124036972D01*
X119774886Y-123954905D01*
X119909462Y-123844462D01*
X120019905Y-123709886D01*
X120074277Y-123608163D01*
X120126366Y-123671634D01*
X120165500Y-123703750D01*
X120165501Y-130264058D01*
X119077872Y-131351688D01*
X119039104Y-131383504D01*
X118912140Y-131538210D01*
X118817798Y-131714714D01*
X118785100Y-131822505D01*
X118759702Y-131906230D01*
X118740085Y-132105400D01*
X118745000Y-132155302D01*
X118745001Y-137389567D01*
X118593568Y-137541000D01*
X114048450Y-137541000D01*
X114007900Y-137537006D01*
X113967349Y-137541000D01*
X113967347Y-137541000D01*
X113846074Y-137552944D01*
X113690466Y-137600147D01*
X113547057Y-137676801D01*
X113452858Y-137754108D01*
X113452855Y-137754111D01*
X113421359Y-137779959D01*
X113395511Y-137811455D01*
X110315933Y-140891035D01*
X110210705Y-140820723D01*
X110049645Y-140754010D01*
X109878665Y-140720000D01*
X109704335Y-140720000D01*
X109533355Y-140754010D01*
X109372295Y-140820723D01*
X109227345Y-140917576D01*
X109104076Y-141040845D01*
X109007223Y-141185795D01*
X108940510Y-141346855D01*
X108906500Y-141517835D01*
X108906500Y-141692165D01*
X108940510Y-141863145D01*
X109007223Y-142024205D01*
X109104076Y-142169155D01*
X109227345Y-142292424D01*
X109372295Y-142389277D01*
X109533355Y-142455990D01*
X109704335Y-142490000D01*
X109791500Y-142490000D01*
X109791501Y-145041496D01*
X109699795Y-145178744D01*
X109621774Y-145367102D01*
X109582000Y-145567061D01*
X109582000Y-145770939D01*
X109586985Y-145796000D01*
X109117434Y-145796000D01*
X108604800Y-145283367D01*
X108613563Y-145272689D01*
X108639698Y-145240844D01*
X108672891Y-145178744D01*
X108716353Y-145097434D01*
X108763556Y-144941826D01*
X108775500Y-144820553D01*
X108775500Y-144820541D01*
X108779493Y-144780001D01*
X108775500Y-144739461D01*
X108775500Y-137797184D01*
X108800990Y-137735645D01*
X108835000Y-137564665D01*
X108835000Y-137542490D01*
X110296991Y-136080500D01*
X111186316Y-136080500D01*
X111247855Y-136105990D01*
X111418835Y-136140000D01*
X111593165Y-136140000D01*
X111764145Y-136105990D01*
X111925205Y-136039277D01*
X112070155Y-135942424D01*
X112193424Y-135819155D01*
X112290277Y-135674205D01*
X112356990Y-135513145D01*
X112391000Y-135342165D01*
X112391000Y-135167835D01*
X112356990Y-134996855D01*
X112290277Y-134835795D01*
X112193424Y-134690845D01*
X112070155Y-134567576D01*
X111925205Y-134470723D01*
X111764145Y-134404010D01*
X111593165Y-134370000D01*
X111418835Y-134370000D01*
X111247855Y-134404010D01*
X111186316Y-134429500D01*
X109995608Y-134429500D01*
X109955057Y-134425506D01*
X109914507Y-134429500D01*
X109914505Y-134429500D01*
X109793232Y-134441444D01*
X109637624Y-134488647D01*
X109545451Y-134537915D01*
X109494215Y-134565301D01*
X109445479Y-134605298D01*
X109368517Y-134668459D01*
X109342664Y-134699961D01*
X107918250Y-136124376D01*
X107918250Y-130126247D01*
X107969987Y-130168706D01*
X108227967Y-130306599D01*
X108507890Y-130391513D01*
X108799000Y-130420185D01*
X109090111Y-130391513D01*
X109370034Y-130306599D01*
X109628014Y-130168706D01*
X109854134Y-129983134D01*
X110039706Y-129757014D01*
X110177599Y-129499033D01*
X110262513Y-129219110D01*
X110284000Y-129000949D01*
X110284000Y-128555050D01*
X110262513Y-128336889D01*
X110177599Y-128056966D01*
X110039706Y-127798986D01*
X109854134Y-127572866D01*
X109719750Y-127462580D01*
X109719750Y-127322728D01*
X109724205Y-127277499D01*
X109716552Y-127199798D01*
X109706427Y-127097001D01*
X109653778Y-126923439D01*
X109568280Y-126763484D01*
X109453219Y-126623281D01*
X109418083Y-126594446D01*
X108506059Y-125682423D01*
X108477219Y-125647281D01*
X108337016Y-125532220D01*
X108177061Y-125446722D01*
X108003499Y-125394073D01*
X107868231Y-125380750D01*
X107823000Y-125376295D01*
X107777769Y-125380750D01*
X105836231Y-125380750D01*
X105791000Y-125376295D01*
X105745769Y-125380750D01*
X105610501Y-125394073D01*
X105436939Y-125446722D01*
X105276984Y-125532220D01*
X105136781Y-125647281D01*
X105107945Y-125682418D01*
X103965419Y-126824945D01*
X103930282Y-126853781D01*
X103815221Y-126993984D01*
X103806828Y-127009687D01*
X103729722Y-127153940D01*
X103677073Y-127327502D01*
X103659295Y-127508000D01*
X103663751Y-127553241D01*
X103663750Y-129621768D01*
X103659295Y-129667000D01*
X103668161Y-129757014D01*
X103677073Y-129847498D01*
X103729722Y-130021060D01*
X103815220Y-130181015D01*
X103930281Y-130321219D01*
X103965424Y-130350060D01*
X105305241Y-131689878D01*
X105305240Y-135826211D01*
X104508558Y-136622894D01*
X104432726Y-136673563D01*
X104288563Y-136817726D01*
X104175295Y-136987244D01*
X104097274Y-137175602D01*
X104057500Y-137375561D01*
X104057500Y-137579439D01*
X104097274Y-137779398D01*
X104175295Y-137967756D01*
X104288563Y-138137274D01*
X104432726Y-138281437D01*
X104602244Y-138394705D01*
X104790602Y-138472726D01*
X104990561Y-138512500D01*
X105194439Y-138512500D01*
X105394398Y-138472726D01*
X105582756Y-138394705D01*
X105752274Y-138281437D01*
X105896437Y-138137274D01*
X106009705Y-137967756D01*
X106045000Y-137882547D01*
X106080295Y-137967756D01*
X106193563Y-138137274D01*
X106337726Y-138281437D01*
X106507244Y-138394705D01*
X106695602Y-138472726D01*
X106895561Y-138512500D01*
X107099439Y-138512500D01*
X107124500Y-138507515D01*
X107124501Y-144438067D01*
X107100068Y-144462500D01*
X107063184Y-144462500D01*
X107001645Y-144437010D01*
X106830665Y-144403000D01*
X106656335Y-144403000D01*
X106485355Y-144437010D01*
X106324295Y-144503723D01*
X106235500Y-144563054D01*
X106146705Y-144503723D01*
X105985645Y-144437010D01*
X105814665Y-144403000D01*
X105640335Y-144403000D01*
X105469355Y-144437010D01*
X105308295Y-144503723D01*
X105163345Y-144600576D01*
X105040076Y-144723845D01*
X104943223Y-144868795D01*
X104876510Y-145029855D01*
X104842500Y-145200835D01*
X104842500Y-145375165D01*
X104876510Y-145546145D01*
X104920062Y-145651290D01*
X104617081Y-145448844D01*
X104263007Y-145302182D01*
X103887124Y-145227414D01*
X103503876Y-145227414D01*
X103127993Y-145302182D01*
X102773919Y-145448844D01*
X102455261Y-145661765D01*
X102285000Y-145832026D01*
X102285000Y-119159507D01*
X102294527Y-119062345D01*
X102313013Y-119001115D01*
X102343038Y-118944646D01*
X102383462Y-118895082D01*
X102432744Y-118854312D01*
X102489006Y-118823891D01*
X102550104Y-118804978D01*
X102645041Y-118795000D01*
X151350493Y-118795000D01*
X151447655Y-118804527D01*
M02*
