G04 #@! TF.GenerationSoftware,KiCad,Pcbnew,(5.1.5)-2*
G04 #@! TF.CreationDate,2020-01-06T21:48:33-06:00*
G04 #@! TF.ProjectId,WirelessEStop_Tx,57697265-6c65-4737-9345-53746f705f54,rev?*
G04 #@! TF.SameCoordinates,Original*
G04 #@! TF.FileFunction,Copper,L2,Bot*
G04 #@! TF.FilePolarity,Positive*
%FSLAX46Y46*%
G04 Gerber Fmt 4.6, Leading zero omitted, Abs format (unit mm)*
G04 Created by KiCad (PCBNEW (5.1.5)-2) date 2020-01-06 21:48:33*
%MOMM*%
%LPD*%
G04 APERTURE LIST*
%ADD10C,0.100000*%
%ADD11O,1.700000X2.000000*%
%ADD12O,1.700000X1.950000*%
%ADD13C,1.400000*%
%ADD14R,1.400000X1.400000*%
%ADD15O,1.100000X1.500000*%
%ADD16O,1.350000X1.700000*%
%ADD17C,0.500000*%
%ADD18C,0.800000*%
%ADD19C,0.250000*%
%ADD20C,0.762000*%
%ADD21C,0.571500*%
%ADD22C,0.254000*%
G04 APERTURE END LIST*
G04 #@! TA.AperFunction,ComponentPad*
D10*
G36*
X133974504Y-121429204D02*
G01*
X133998773Y-121432804D01*
X134022571Y-121438765D01*
X134045671Y-121447030D01*
X134067849Y-121457520D01*
X134088893Y-121470133D01*
X134108598Y-121484747D01*
X134126777Y-121501223D01*
X134143253Y-121519402D01*
X134157867Y-121539107D01*
X134170480Y-121560151D01*
X134180970Y-121582329D01*
X134189235Y-121605429D01*
X134195196Y-121629227D01*
X134198796Y-121653496D01*
X134200000Y-121678000D01*
X134200000Y-123178000D01*
X134198796Y-123202504D01*
X134195196Y-123226773D01*
X134189235Y-123250571D01*
X134180970Y-123273671D01*
X134170480Y-123295849D01*
X134157867Y-123316893D01*
X134143253Y-123336598D01*
X134126777Y-123354777D01*
X134108598Y-123371253D01*
X134088893Y-123385867D01*
X134067849Y-123398480D01*
X134045671Y-123408970D01*
X134022571Y-123417235D01*
X133998773Y-123423196D01*
X133974504Y-123426796D01*
X133950000Y-123428000D01*
X132750000Y-123428000D01*
X132725496Y-123426796D01*
X132701227Y-123423196D01*
X132677429Y-123417235D01*
X132654329Y-123408970D01*
X132632151Y-123398480D01*
X132611107Y-123385867D01*
X132591402Y-123371253D01*
X132573223Y-123354777D01*
X132556747Y-123336598D01*
X132542133Y-123316893D01*
X132529520Y-123295849D01*
X132519030Y-123273671D01*
X132510765Y-123250571D01*
X132504804Y-123226773D01*
X132501204Y-123202504D01*
X132500000Y-123178000D01*
X132500000Y-121678000D01*
X132501204Y-121653496D01*
X132504804Y-121629227D01*
X132510765Y-121605429D01*
X132519030Y-121582329D01*
X132529520Y-121560151D01*
X132542133Y-121539107D01*
X132556747Y-121519402D01*
X132573223Y-121501223D01*
X132591402Y-121484747D01*
X132611107Y-121470133D01*
X132632151Y-121457520D01*
X132654329Y-121447030D01*
X132677429Y-121438765D01*
X132701227Y-121432804D01*
X132725496Y-121429204D01*
X132750000Y-121428000D01*
X133950000Y-121428000D01*
X133974504Y-121429204D01*
G37*
G04 #@! TD.AperFunction*
D11*
X135850000Y-122428000D03*
X108799000Y-122491500D03*
G04 #@! TA.AperFunction,ComponentPad*
D10*
G36*
X106923504Y-121492704D02*
G01*
X106947773Y-121496304D01*
X106971571Y-121502265D01*
X106994671Y-121510530D01*
X107016849Y-121521020D01*
X107037893Y-121533633D01*
X107057598Y-121548247D01*
X107075777Y-121564723D01*
X107092253Y-121582902D01*
X107106867Y-121602607D01*
X107119480Y-121623651D01*
X107129970Y-121645829D01*
X107138235Y-121668929D01*
X107144196Y-121692727D01*
X107147796Y-121716996D01*
X107149000Y-121741500D01*
X107149000Y-123241500D01*
X107147796Y-123266004D01*
X107144196Y-123290273D01*
X107138235Y-123314071D01*
X107129970Y-123337171D01*
X107119480Y-123359349D01*
X107106867Y-123380393D01*
X107092253Y-123400098D01*
X107075777Y-123418277D01*
X107057598Y-123434753D01*
X107037893Y-123449367D01*
X107016849Y-123461980D01*
X106994671Y-123472470D01*
X106971571Y-123480735D01*
X106947773Y-123486696D01*
X106923504Y-123490296D01*
X106899000Y-123491500D01*
X105699000Y-123491500D01*
X105674496Y-123490296D01*
X105650227Y-123486696D01*
X105626429Y-123480735D01*
X105603329Y-123472470D01*
X105581151Y-123461980D01*
X105560107Y-123449367D01*
X105540402Y-123434753D01*
X105522223Y-123418277D01*
X105505747Y-123400098D01*
X105491133Y-123380393D01*
X105478520Y-123359349D01*
X105468030Y-123337171D01*
X105459765Y-123314071D01*
X105453804Y-123290273D01*
X105450204Y-123266004D01*
X105449000Y-123241500D01*
X105449000Y-121741500D01*
X105450204Y-121716996D01*
X105453804Y-121692727D01*
X105459765Y-121668929D01*
X105468030Y-121645829D01*
X105478520Y-121623651D01*
X105491133Y-121602607D01*
X105505747Y-121582902D01*
X105522223Y-121564723D01*
X105540402Y-121548247D01*
X105560107Y-121533633D01*
X105581151Y-121521020D01*
X105603329Y-121510530D01*
X105626429Y-121502265D01*
X105650227Y-121496304D01*
X105674496Y-121492704D01*
X105699000Y-121491500D01*
X106899000Y-121491500D01*
X106923504Y-121492704D01*
G37*
G04 #@! TD.AperFunction*
D11*
X147661000Y-128778000D03*
G04 #@! TA.AperFunction,ComponentPad*
D10*
G36*
X145785504Y-127779204D02*
G01*
X145809773Y-127782804D01*
X145833571Y-127788765D01*
X145856671Y-127797030D01*
X145878849Y-127807520D01*
X145899893Y-127820133D01*
X145919598Y-127834747D01*
X145937777Y-127851223D01*
X145954253Y-127869402D01*
X145968867Y-127889107D01*
X145981480Y-127910151D01*
X145991970Y-127932329D01*
X146000235Y-127955429D01*
X146006196Y-127979227D01*
X146009796Y-128003496D01*
X146011000Y-128028000D01*
X146011000Y-129528000D01*
X146009796Y-129552504D01*
X146006196Y-129576773D01*
X146000235Y-129600571D01*
X145991970Y-129623671D01*
X145981480Y-129645849D01*
X145968867Y-129666893D01*
X145954253Y-129686598D01*
X145937777Y-129704777D01*
X145919598Y-129721253D01*
X145899893Y-129735867D01*
X145878849Y-129748480D01*
X145856671Y-129758970D01*
X145833571Y-129767235D01*
X145809773Y-129773196D01*
X145785504Y-129776796D01*
X145761000Y-129778000D01*
X144561000Y-129778000D01*
X144536496Y-129776796D01*
X144512227Y-129773196D01*
X144488429Y-129767235D01*
X144465329Y-129758970D01*
X144443151Y-129748480D01*
X144422107Y-129735867D01*
X144402402Y-129721253D01*
X144384223Y-129704777D01*
X144367747Y-129686598D01*
X144353133Y-129666893D01*
X144340520Y-129645849D01*
X144330030Y-129623671D01*
X144321765Y-129600571D01*
X144315804Y-129576773D01*
X144312204Y-129552504D01*
X144311000Y-129528000D01*
X144311000Y-128028000D01*
X144312204Y-128003496D01*
X144315804Y-127979227D01*
X144321765Y-127955429D01*
X144330030Y-127932329D01*
X144340520Y-127910151D01*
X144353133Y-127889107D01*
X144367747Y-127869402D01*
X144384223Y-127851223D01*
X144402402Y-127834747D01*
X144422107Y-127820133D01*
X144443151Y-127807520D01*
X144465329Y-127797030D01*
X144488429Y-127788765D01*
X144512227Y-127782804D01*
X144536496Y-127779204D01*
X144561000Y-127778000D01*
X145761000Y-127778000D01*
X145785504Y-127779204D01*
G37*
G04 #@! TD.AperFunction*
D11*
X108799000Y-128778000D03*
G04 #@! TA.AperFunction,ComponentPad*
D10*
G36*
X106923504Y-127779204D02*
G01*
X106947773Y-127782804D01*
X106971571Y-127788765D01*
X106994671Y-127797030D01*
X107016849Y-127807520D01*
X107037893Y-127820133D01*
X107057598Y-127834747D01*
X107075777Y-127851223D01*
X107092253Y-127869402D01*
X107106867Y-127889107D01*
X107119480Y-127910151D01*
X107129970Y-127932329D01*
X107138235Y-127955429D01*
X107144196Y-127979227D01*
X107147796Y-128003496D01*
X107149000Y-128028000D01*
X107149000Y-129528000D01*
X107147796Y-129552504D01*
X107144196Y-129576773D01*
X107138235Y-129600571D01*
X107129970Y-129623671D01*
X107119480Y-129645849D01*
X107106867Y-129666893D01*
X107092253Y-129686598D01*
X107075777Y-129704777D01*
X107057598Y-129721253D01*
X107037893Y-129735867D01*
X107016849Y-129748480D01*
X106994671Y-129758970D01*
X106971571Y-129767235D01*
X106947773Y-129773196D01*
X106923504Y-129776796D01*
X106899000Y-129778000D01*
X105699000Y-129778000D01*
X105674496Y-129776796D01*
X105650227Y-129773196D01*
X105626429Y-129767235D01*
X105603329Y-129758970D01*
X105581151Y-129748480D01*
X105560107Y-129735867D01*
X105540402Y-129721253D01*
X105522223Y-129704777D01*
X105505747Y-129686598D01*
X105491133Y-129666893D01*
X105478520Y-129645849D01*
X105468030Y-129623671D01*
X105459765Y-129600571D01*
X105453804Y-129576773D01*
X105450204Y-129552504D01*
X105449000Y-129528000D01*
X105449000Y-128028000D01*
X105450204Y-128003496D01*
X105453804Y-127979227D01*
X105459765Y-127955429D01*
X105468030Y-127932329D01*
X105478520Y-127910151D01*
X105491133Y-127889107D01*
X105505747Y-127869402D01*
X105522223Y-127851223D01*
X105540402Y-127834747D01*
X105560107Y-127820133D01*
X105581151Y-127807520D01*
X105603329Y-127797030D01*
X105626429Y-127788765D01*
X105650227Y-127782804D01*
X105674496Y-127779204D01*
X105699000Y-127778000D01*
X106899000Y-127778000D01*
X106923504Y-127779204D01*
G37*
G04 #@! TD.AperFunction*
D11*
X147661000Y-122428000D03*
G04 #@! TA.AperFunction,ComponentPad*
D10*
G36*
X145785504Y-121429204D02*
G01*
X145809773Y-121432804D01*
X145833571Y-121438765D01*
X145856671Y-121447030D01*
X145878849Y-121457520D01*
X145899893Y-121470133D01*
X145919598Y-121484747D01*
X145937777Y-121501223D01*
X145954253Y-121519402D01*
X145968867Y-121539107D01*
X145981480Y-121560151D01*
X145991970Y-121582329D01*
X146000235Y-121605429D01*
X146006196Y-121629227D01*
X146009796Y-121653496D01*
X146011000Y-121678000D01*
X146011000Y-123178000D01*
X146009796Y-123202504D01*
X146006196Y-123226773D01*
X146000235Y-123250571D01*
X145991970Y-123273671D01*
X145981480Y-123295849D01*
X145968867Y-123316893D01*
X145954253Y-123336598D01*
X145937777Y-123354777D01*
X145919598Y-123371253D01*
X145899893Y-123385867D01*
X145878849Y-123398480D01*
X145856671Y-123408970D01*
X145833571Y-123417235D01*
X145809773Y-123423196D01*
X145785504Y-123426796D01*
X145761000Y-123428000D01*
X144561000Y-123428000D01*
X144536496Y-123426796D01*
X144512227Y-123423196D01*
X144488429Y-123417235D01*
X144465329Y-123408970D01*
X144443151Y-123398480D01*
X144422107Y-123385867D01*
X144402402Y-123371253D01*
X144384223Y-123354777D01*
X144367747Y-123336598D01*
X144353133Y-123316893D01*
X144340520Y-123295849D01*
X144330030Y-123273671D01*
X144321765Y-123250571D01*
X144315804Y-123226773D01*
X144312204Y-123202504D01*
X144311000Y-123178000D01*
X144311000Y-121678000D01*
X144312204Y-121653496D01*
X144315804Y-121629227D01*
X144321765Y-121605429D01*
X144330030Y-121582329D01*
X144340520Y-121560151D01*
X144353133Y-121539107D01*
X144367747Y-121519402D01*
X144384223Y-121501223D01*
X144402402Y-121484747D01*
X144422107Y-121470133D01*
X144443151Y-121457520D01*
X144465329Y-121447030D01*
X144488429Y-121438765D01*
X144512227Y-121432804D01*
X144536496Y-121429204D01*
X144561000Y-121428000D01*
X145761000Y-121428000D01*
X145785504Y-121429204D01*
G37*
G04 #@! TD.AperFunction*
D12*
X123681500Y-122491500D03*
X121181500Y-122491500D03*
G04 #@! TA.AperFunction,ComponentPad*
D10*
G36*
X119306004Y-121517704D02*
G01*
X119330273Y-121521304D01*
X119354071Y-121527265D01*
X119377171Y-121535530D01*
X119399349Y-121546020D01*
X119420393Y-121558633D01*
X119440098Y-121573247D01*
X119458277Y-121589723D01*
X119474753Y-121607902D01*
X119489367Y-121627607D01*
X119501980Y-121648651D01*
X119512470Y-121670829D01*
X119520735Y-121693929D01*
X119526696Y-121717727D01*
X119530296Y-121741996D01*
X119531500Y-121766500D01*
X119531500Y-123216500D01*
X119530296Y-123241004D01*
X119526696Y-123265273D01*
X119520735Y-123289071D01*
X119512470Y-123312171D01*
X119501980Y-123334349D01*
X119489367Y-123355393D01*
X119474753Y-123375098D01*
X119458277Y-123393277D01*
X119440098Y-123409753D01*
X119420393Y-123424367D01*
X119399349Y-123436980D01*
X119377171Y-123447470D01*
X119354071Y-123455735D01*
X119330273Y-123461696D01*
X119306004Y-123465296D01*
X119281500Y-123466500D01*
X118081500Y-123466500D01*
X118056996Y-123465296D01*
X118032727Y-123461696D01*
X118008929Y-123455735D01*
X117985829Y-123447470D01*
X117963651Y-123436980D01*
X117942607Y-123424367D01*
X117922902Y-123409753D01*
X117904723Y-123393277D01*
X117888247Y-123375098D01*
X117873633Y-123355393D01*
X117861020Y-123334349D01*
X117850530Y-123312171D01*
X117842265Y-123289071D01*
X117836304Y-123265273D01*
X117832704Y-123241004D01*
X117831500Y-123216500D01*
X117831500Y-121766500D01*
X117832704Y-121741996D01*
X117836304Y-121717727D01*
X117842265Y-121693929D01*
X117850530Y-121670829D01*
X117861020Y-121648651D01*
X117873633Y-121627607D01*
X117888247Y-121607902D01*
X117904723Y-121589723D01*
X117922902Y-121573247D01*
X117942607Y-121558633D01*
X117963651Y-121546020D01*
X117985829Y-121535530D01*
X118008929Y-121527265D01*
X118032727Y-121521304D01*
X118056996Y-121517704D01*
X118081500Y-121516500D01*
X119281500Y-121516500D01*
X119306004Y-121517704D01*
G37*
G04 #@! TD.AperFunction*
D13*
X107440000Y-154512000D03*
X107440000Y-157012000D03*
X107440000Y-159512000D03*
X104140000Y-154512000D03*
X104140000Y-157012000D03*
D14*
X104140000Y-159512000D03*
D15*
X124555000Y-161195000D03*
X129395000Y-161195000D03*
D16*
X124245000Y-164195000D03*
X129705000Y-164195000D03*
D17*
X123444000Y-135509000D03*
D18*
X118999000Y-125539500D03*
X118935500Y-129413000D03*
X123444000Y-155829000D03*
D17*
X119126000Y-153670000D03*
X137096500Y-141287500D03*
X102616000Y-141605000D03*
X106045000Y-137477500D03*
D18*
X114871500Y-141351000D03*
X114871500Y-142621000D03*
X114871500Y-143891000D03*
X114871500Y-146431000D03*
D17*
X123444000Y-143700500D03*
D18*
X127000000Y-148209000D03*
X127952500Y-147256500D03*
X127000000Y-146304000D03*
X126047500Y-147256500D03*
X127000000Y-147256500D03*
D17*
X113347500Y-137985500D03*
X135001000Y-146748500D03*
X132080000Y-140970000D03*
D18*
X137477500Y-159321500D03*
X142049500Y-158559500D03*
D17*
X124968000Y-151574500D03*
D18*
X118935500Y-141351000D03*
X118935500Y-142621000D03*
X118935500Y-143891000D03*
D17*
X119126000Y-152082500D03*
X121348500Y-152781000D03*
X140906500Y-147320000D03*
X148971000Y-147828000D03*
X148971000Y-144208500D03*
X148653500Y-140779500D03*
X148971000Y-151511000D03*
D18*
X141859000Y-139382500D03*
D17*
X140081000Y-152527000D03*
X129794000Y-142240000D03*
X123444000Y-147447000D03*
X131953000Y-157543500D03*
X124333000Y-158496000D03*
X111379000Y-133477000D03*
X111315500Y-135382000D03*
D18*
X124714000Y-125539500D03*
X112712500Y-127317500D03*
D17*
X111315500Y-134429500D03*
D18*
X141859000Y-146304000D03*
X131445000Y-154940000D03*
D17*
X107505500Y-145288000D03*
X120446800Y-137287000D03*
D18*
X137922000Y-151447500D03*
D17*
X109347000Y-146558000D03*
X123444000Y-145161000D03*
X125412500Y-141986000D03*
X123444000Y-146685000D03*
X127952500Y-143700500D03*
X129794000Y-141439900D03*
D18*
X114871500Y-145161000D03*
D17*
X123444000Y-148272500D03*
D18*
X124968000Y-155829000D03*
X132842000Y-155829000D03*
X112712500Y-133350000D03*
X105092500Y-137477500D03*
X106997500Y-137477500D03*
D17*
X107950000Y-137477500D03*
X106616500Y-145288000D03*
X128016000Y-151193500D03*
X109347000Y-147574000D03*
X105727500Y-145288000D03*
X123888500Y-150304500D03*
X108458000Y-147574000D03*
D18*
X143065500Y-155638500D03*
D17*
X110236000Y-147574000D03*
X124460000Y-143700500D03*
X140081000Y-150368000D03*
X130873500Y-146939000D03*
X119126000Y-152844500D03*
X122110500Y-153352500D03*
X126492000Y-151193500D03*
X134112000Y-154940000D03*
X122110500Y-154432000D03*
X134937500Y-154940000D03*
D18*
X108902500Y-137477500D03*
D17*
X129540000Y-151193500D03*
X123444000Y-138430000D03*
X128778000Y-151193500D03*
X127254000Y-151193500D03*
X108204000Y-148336000D03*
X130873500Y-150495000D03*
X129730500Y-144462500D03*
X140652500Y-144716500D03*
X140017500Y-145415000D03*
X130873500Y-149669500D03*
X130238500Y-143891000D03*
D18*
X146304000Y-137033000D03*
D17*
X130873500Y-145288000D03*
X134556500Y-143002000D03*
X140081000Y-148463000D03*
X130873500Y-146113500D03*
D19*
X125857000Y-147447000D02*
X126047500Y-147256500D01*
X102616000Y-141605000D02*
X105664000Y-141605000D01*
X106045000Y-141224000D02*
X106045000Y-137477500D01*
X105664000Y-141605000D02*
X106045000Y-141224000D01*
X123444000Y-147447000D02*
X125857000Y-147447000D01*
X119126000Y-152082500D02*
X119253000Y-152082500D01*
X121348500Y-152781000D02*
X121348500Y-152527000D01*
X119126000Y-152082500D02*
X121094500Y-152082500D01*
X121348500Y-152336500D02*
X121348500Y-152781000D01*
X121094500Y-152082500D02*
X121348500Y-152336500D01*
X119126000Y-152082500D02*
X118618000Y-152082500D01*
X118618000Y-152082500D02*
X118237000Y-152463500D01*
X125412500Y-144907000D02*
X125158500Y-145161000D01*
D20*
X137922000Y-151447500D02*
X140716000Y-151447500D01*
X140716000Y-151447500D02*
X141859000Y-150304500D01*
X141859000Y-140970000D02*
X138176000Y-137287000D01*
D19*
X107505500Y-145288000D02*
X107505500Y-145669000D01*
X109337989Y-146548989D02*
X109347000Y-146558000D01*
X107505500Y-145669000D02*
X108385489Y-146548989D01*
X108385489Y-146548989D02*
X109337989Y-146548989D01*
D20*
X141859000Y-140970000D02*
X141859000Y-150304500D01*
D19*
X123533002Y-146685000D02*
X123444000Y-146685000D01*
X125412500Y-146431000D02*
X125158500Y-146685000D01*
X125158500Y-146685000D02*
X123444000Y-146685000D01*
X125412500Y-145478500D02*
X125412500Y-146431000D01*
X125412500Y-145478500D02*
X125412500Y-141986000D01*
X123444000Y-145161000D02*
X125158500Y-145161000D01*
X125412500Y-141986000D02*
X124079000Y-140652500D01*
X120713500Y-137287000D02*
X120446800Y-137287000D01*
X125412500Y-141986000D02*
X120713500Y-137287000D01*
D20*
X144589500Y-138239500D02*
X141859000Y-140970000D01*
X144907000Y-137922000D02*
X144589500Y-138239500D01*
D19*
X128143000Y-143510000D02*
X127952500Y-143700500D01*
X129030590Y-143510000D02*
X128143000Y-143510000D01*
X129030590Y-143510000D02*
X129662089Y-142878501D01*
X130013396Y-142843284D02*
X130269579Y-142587101D01*
X129662089Y-142878501D02*
X129697306Y-142843284D01*
X129697306Y-142843284D02*
X130013396Y-142843284D01*
X130269579Y-142587101D02*
X130270989Y-142587101D01*
X130270989Y-142587101D02*
X130365500Y-142492590D01*
X130369001Y-141963999D02*
X130369001Y-142487679D01*
X130369001Y-141661348D02*
X130369001Y-142487679D01*
X129794000Y-141439900D02*
X130147553Y-141439900D01*
X130147553Y-141439900D02*
X130369001Y-141661348D01*
X114109500Y-145923000D02*
X114871500Y-145161000D01*
X114109500Y-149352000D02*
X114109500Y-145923000D01*
X123444000Y-149225000D02*
X122560510Y-150108490D01*
X123444000Y-148272500D02*
X123444000Y-149225000D01*
X122560510Y-150108490D02*
X114871500Y-150108490D01*
X114871500Y-150108490D02*
X114115010Y-149352000D01*
X114115010Y-149352000D02*
X114109500Y-149352000D01*
D21*
X132842000Y-155829000D02*
X124968000Y-155829000D01*
X124333000Y-154940000D02*
X123444000Y-155829000D01*
X131445000Y-154940000D02*
X124333000Y-154940000D01*
D20*
X119550292Y-136390492D02*
X113720992Y-136390492D01*
X120446800Y-137287000D02*
X119550292Y-136390492D01*
X113720992Y-136390492D02*
X112712500Y-135382000D01*
X112712500Y-135382000D02*
X112712500Y-129921000D01*
X108799000Y-126007500D02*
X108799000Y-122491500D01*
X112712500Y-129921000D02*
X112712500Y-129921000D01*
X112712500Y-129921000D02*
X108799000Y-126007500D01*
X137279492Y-136390492D02*
X138176000Y-137287000D01*
X119550292Y-136390492D02*
X137279492Y-136390492D01*
X145161000Y-137668000D02*
X144589500Y-138239500D01*
X145161000Y-128778000D02*
X145161000Y-137668000D01*
D21*
X108799000Y-127277500D02*
X108799000Y-128778000D01*
X107823000Y-126301500D02*
X108799000Y-127277500D01*
X105791000Y-126301500D02*
X107823000Y-126301500D01*
X104584500Y-127508000D02*
X105791000Y-126301500D01*
X105092500Y-137341088D02*
X106225990Y-136207598D01*
X105092500Y-137477500D02*
X105092500Y-137341088D01*
X106225990Y-136207598D02*
X106225990Y-131308490D01*
X106225990Y-131308490D02*
X104584500Y-129667000D01*
X104584500Y-129667000D02*
X104584500Y-127508000D01*
X106997500Y-129476500D02*
X106997500Y-137477500D01*
X106299000Y-128778000D02*
X106997500Y-129476500D01*
D19*
X110236000Y-150558500D02*
X122999500Y-150558500D01*
X109352510Y-149675010D02*
X110236000Y-150558500D01*
X109352510Y-147832100D02*
X109352510Y-149675010D01*
X109347000Y-147574000D02*
X109347000Y-147826590D01*
X123313499Y-150244501D02*
X123313499Y-150028499D01*
X109347000Y-147826590D02*
X109352510Y-147832100D01*
X123313499Y-150028499D02*
X123612499Y-149729499D01*
X122999500Y-150558500D02*
X123313499Y-150244501D01*
X123612499Y-149729499D02*
X124164501Y-149729499D01*
X108771999Y-146998999D02*
X108144001Y-146998999D01*
X109347000Y-147574000D02*
X108771999Y-146998999D01*
X107957002Y-146812000D02*
X107950000Y-146812000D01*
X108144001Y-146998999D02*
X107957002Y-146812000D01*
X106616500Y-145478500D02*
X106616500Y-145288000D01*
X107950000Y-146812000D02*
X106616500Y-145478500D01*
X127344542Y-150168489D02*
X124840401Y-150168489D01*
X128016000Y-151193500D02*
X128016000Y-150839947D01*
X128016000Y-150839947D02*
X127344542Y-150168489D01*
X124164501Y-149729499D02*
X123892001Y-149729499D01*
X124603491Y-150168489D02*
X124164501Y-149729499D01*
X124840401Y-150168489D02*
X124603491Y-150168489D01*
X123892001Y-149729499D02*
X123612499Y-149729499D01*
X111315500Y-134429500D02*
X108394500Y-134429500D01*
X107950000Y-134874000D02*
X107950000Y-137477500D01*
X108394500Y-134429500D02*
X107950000Y-134874000D01*
X123763508Y-150430902D02*
X123185900Y-151008510D01*
X123888500Y-150304500D02*
X123763509Y-150429491D01*
X123763509Y-150429491D02*
X123763508Y-150430902D01*
X123185900Y-151008510D02*
X121920000Y-151008510D01*
X121920000Y-151008510D02*
X110176599Y-151008509D01*
X110049599Y-151008509D02*
X108902500Y-149861410D01*
X110176599Y-151008509D02*
X110049599Y-151008509D01*
X108902500Y-148463000D02*
X108902500Y-148463000D01*
X108902500Y-148018500D02*
X108458000Y-147574000D01*
X108902500Y-148717000D02*
X108902500Y-148018500D01*
X108902500Y-148717000D02*
X108902500Y-149861410D01*
X108902500Y-148463000D02*
X108902500Y-148717000D01*
X108013500Y-147574000D02*
X108458000Y-147574000D01*
X105727500Y-145288000D02*
X108013500Y-147574000D01*
D20*
X143065500Y-155638500D02*
X143065500Y-141795500D01*
X146431000Y-138430000D02*
X143065500Y-141795500D01*
X149092010Y-123859010D02*
X149092010Y-130053990D01*
X147661000Y-122428000D02*
X149092010Y-123859010D01*
X149092010Y-130053990D02*
X147447000Y-131699000D01*
X146431000Y-138430000D02*
X147447000Y-137414000D01*
X147447000Y-137414000D02*
X147447000Y-131699000D01*
X147661000Y-122402772D02*
X145654228Y-120396000D01*
X147661000Y-122428000D02*
X147661000Y-122402772D01*
X135382000Y-120396000D02*
X133350000Y-122428000D01*
X139319000Y-120396000D02*
X135382000Y-120396000D01*
X145654228Y-120396000D02*
X139319000Y-120396000D01*
D19*
X124841000Y-143326502D02*
X124833998Y-143326502D01*
X124833998Y-143326502D02*
X124460000Y-143700500D01*
X124837499Y-143323001D02*
X124841000Y-143326502D01*
X110236000Y-137858500D02*
X110998000Y-137096500D01*
X124837499Y-142047409D02*
X124837499Y-143323001D01*
X110236000Y-147574000D02*
X110236000Y-137858500D01*
X110998000Y-137096500D02*
X119257852Y-137096500D01*
X120154362Y-137993010D02*
X120783100Y-137993010D01*
X119257852Y-137096500D02*
X120154362Y-137993010D01*
X120783100Y-137993010D02*
X124837499Y-142047409D01*
X130873500Y-146939000D02*
X130937000Y-146939000D01*
X133527800Y-149529800D02*
X138627690Y-149529800D01*
X130937000Y-146939000D02*
X133527800Y-149529800D01*
X133527800Y-149529800D02*
X139573000Y-149529800D01*
X139573000Y-149529800D02*
X139623800Y-149529800D01*
X140081000Y-150368000D02*
X140081000Y-149987000D01*
X140081000Y-149987000D02*
X139623800Y-149529800D01*
X122106999Y-153356001D02*
X122110500Y-153352500D01*
X119637501Y-153356001D02*
X119126000Y-152844500D01*
X121624501Y-153356001D02*
X119637501Y-153356001D01*
X122110500Y-153352500D02*
X121628002Y-153352500D01*
X121628002Y-153352500D02*
X121624501Y-153356001D01*
X133604000Y-154432000D02*
X134112000Y-154940000D01*
X126492000Y-153479500D02*
X126740490Y-153727990D01*
X126740490Y-153727990D02*
X132391990Y-153727990D01*
X126492000Y-151193500D02*
X126492000Y-153479500D01*
X132391990Y-153727990D02*
X133096000Y-154432000D01*
X133096000Y-154432000D02*
X133604000Y-154432000D01*
X134937500Y-154965502D02*
X134937500Y-154940000D01*
X134328002Y-155575000D02*
X134937500Y-154965502D01*
X133536999Y-155001409D02*
X133536999Y-155216001D01*
X132909600Y-154882010D02*
X133417600Y-154882010D01*
X132205590Y-154178000D02*
X132909600Y-154882010D01*
X133895998Y-155575000D02*
X134328002Y-155575000D01*
X133536999Y-155216001D02*
X133895998Y-155575000D01*
X122110500Y-154432000D02*
X122110500Y-154749500D01*
X122301000Y-154940000D02*
X123444000Y-154940000D01*
X122110500Y-154749500D02*
X122301000Y-154940000D01*
X123444000Y-154940000D02*
X124206000Y-154178000D01*
X133417600Y-154882010D02*
X133536999Y-155001409D01*
X124206000Y-154178000D02*
X132205590Y-154178000D01*
X129280490Y-150580437D02*
X129540000Y-150839947D01*
X129280490Y-144901490D02*
X129280490Y-150580437D01*
X127676499Y-144275501D02*
X128654501Y-144275501D01*
X128654501Y-144275501D02*
X129280490Y-144901490D01*
X125987501Y-142586503D02*
X127676499Y-144275501D01*
X123444000Y-139381090D02*
X125413910Y-141351000D01*
X125987501Y-141709999D02*
X125987501Y-142586503D01*
X125628502Y-141351000D02*
X125987501Y-141709999D01*
X123444000Y-138430000D02*
X123444000Y-139381090D01*
X129540000Y-150839947D02*
X129540000Y-151193500D01*
X125413910Y-141351000D02*
X125628502Y-141351000D01*
D21*
X121181500Y-134389500D02*
X122315732Y-135523732D01*
X121181500Y-122491500D02*
X121181500Y-134389500D01*
X122315732Y-135523732D02*
X123429268Y-135523732D01*
D19*
X127254000Y-151447500D02*
X127254000Y-151193500D01*
X128778000Y-151193500D02*
X128778000Y-151547053D01*
X128778000Y-151547053D02*
X128496553Y-151828500D01*
X128496553Y-151828500D02*
X127635000Y-151828500D01*
X127635000Y-151828500D02*
X127254000Y-151447500D01*
X124168002Y-150876000D02*
X123954820Y-150876000D01*
X124425503Y-150618499D02*
X124168002Y-150876000D01*
X124654001Y-150618499D02*
X124425503Y-150618499D01*
X122682000Y-151458520D02*
X119518019Y-151458519D01*
X127032552Y-150618499D02*
X124654001Y-150618499D01*
X127254000Y-151193500D02*
X127254000Y-150839947D01*
X127254000Y-150839947D02*
X127032552Y-150618499D01*
X123954820Y-150876000D02*
X123372300Y-151458520D01*
X123372300Y-151458520D02*
X122682000Y-151458520D01*
X119518019Y-151458519D02*
X109863198Y-151458518D01*
X108204000Y-148336000D02*
X108204000Y-148336000D01*
X108551840Y-150147160D02*
X108452490Y-150047810D01*
X109863198Y-151458518D02*
X108551840Y-150147160D01*
X108204000Y-148336000D02*
X108394500Y-148526500D01*
X108452490Y-150047810D02*
X108456590Y-150051910D01*
X108452490Y-148584490D02*
X108452490Y-150047810D01*
X108394500Y-148526500D02*
X108452490Y-148584490D01*
X108551840Y-150147160D02*
X108456590Y-150051910D01*
X129730500Y-144462500D02*
X129730500Y-144907000D01*
X129730500Y-149162910D02*
X129730500Y-149161500D01*
X129730500Y-144907000D02*
X129730500Y-149161500D01*
X130200502Y-143293998D02*
X130746500Y-142748000D01*
X130719588Y-142773502D02*
X131317295Y-142175795D01*
X130173590Y-143319500D02*
X130199797Y-143293293D01*
X129857500Y-143319500D02*
X130173590Y-143319500D01*
X129476500Y-143700500D02*
X129857500Y-143319500D01*
X129730500Y-144462500D02*
X129476500Y-144208500D01*
X129476500Y-144208500D02*
X129476500Y-143700500D01*
X131317295Y-142175795D02*
X131512600Y-141980490D01*
X138993900Y-141976990D02*
X140652500Y-143635590D01*
X134094099Y-141976989D02*
X138993900Y-141976990D01*
X131512600Y-141980490D02*
X134090598Y-141980490D01*
X134090598Y-141980490D02*
X134094099Y-141976989D01*
X140652500Y-143635590D02*
X140652500Y-144716500D01*
X140652500Y-144716500D02*
X140652500Y-144716500D01*
X129730500Y-149352000D02*
X129730500Y-149162910D01*
X130873500Y-150495000D02*
X129730500Y-149352000D01*
X130365500Y-144272000D02*
X130365500Y-144653000D01*
X130365500Y-144272000D02*
X130365500Y-144843500D01*
X130365500Y-144843500D02*
X130238500Y-144970500D01*
X130365500Y-144018000D02*
X130238500Y-143891000D01*
X130365500Y-144272000D02*
X130365500Y-144018000D01*
X130238500Y-149034500D02*
X130873500Y-149669500D01*
X130238500Y-147764500D02*
X130238500Y-149034500D01*
X130238500Y-147764500D02*
X130238500Y-148145500D01*
X130238500Y-144970500D02*
X130238500Y-147764500D01*
X140017500Y-143637000D02*
X138807499Y-142426999D01*
X140017500Y-145415000D02*
X140017500Y-143637000D01*
X138807499Y-142426999D02*
X134280499Y-142426999D01*
X134280499Y-142426999D02*
X134276998Y-142430500D01*
X134276998Y-142430500D02*
X131699000Y-142430500D01*
X130239910Y-143891000D02*
X130238500Y-143891000D01*
X131196509Y-142934401D02*
X130239910Y-143891000D01*
X131699000Y-142430500D02*
X131196509Y-142932991D01*
X131196509Y-142932991D02*
X131196509Y-142934401D01*
D20*
X146304000Y-130937000D02*
X146304000Y-137033000D01*
X147661000Y-128778000D02*
X147661000Y-129580000D01*
X147661000Y-129580000D02*
X146304000Y-130937000D01*
D19*
X134556500Y-143002000D02*
X132143500Y-143002000D01*
X130873500Y-144272000D02*
X130873500Y-145288000D01*
X130873500Y-145288000D02*
X130873500Y-143954500D01*
X131826000Y-143002000D02*
X134556500Y-143002000D01*
X130873500Y-143954500D02*
X131826000Y-143002000D01*
X133223000Y-148463000D02*
X130873500Y-146113500D01*
X133731000Y-148971000D02*
X130873500Y-146113500D01*
X140081000Y-148463000D02*
X139573000Y-148971000D01*
X139573000Y-148971000D02*
X133731000Y-148971000D01*
D22*
G36*
X151447655Y-118804527D02*
G01*
X151508885Y-118823013D01*
X151565354Y-118853038D01*
X151614918Y-118893462D01*
X151655688Y-118942744D01*
X151686109Y-118999006D01*
X151705022Y-119060104D01*
X151715000Y-119155041D01*
X151715000Y-133990138D01*
X151561735Y-133760761D01*
X151290739Y-133489765D01*
X150972081Y-133276844D01*
X150618007Y-133130182D01*
X150242124Y-133055414D01*
X149858876Y-133055414D01*
X149482993Y-133130182D01*
X149128919Y-133276844D01*
X148810261Y-133489765D01*
X148539265Y-133760761D01*
X148463000Y-133874899D01*
X148463000Y-132119840D01*
X149775143Y-130807698D01*
X149813906Y-130775886D01*
X149940870Y-130621180D01*
X150035212Y-130444677D01*
X150083321Y-130286085D01*
X150093308Y-130253162D01*
X150103745Y-130147190D01*
X150108010Y-130103892D01*
X150108010Y-130103885D01*
X150112924Y-130053991D01*
X150108010Y-130004097D01*
X150108010Y-123908912D01*
X150112925Y-123859010D01*
X150093308Y-123659839D01*
X150035212Y-123468323D01*
X149983300Y-123371202D01*
X149940870Y-123291820D01*
X149813906Y-123137114D01*
X149775143Y-123105302D01*
X149146000Y-122476159D01*
X149146000Y-122205050D01*
X149124513Y-121986889D01*
X149039599Y-121706966D01*
X148901706Y-121448986D01*
X148716134Y-121222866D01*
X148490013Y-121037294D01*
X148232033Y-120899401D01*
X147952110Y-120814487D01*
X147661000Y-120785815D01*
X147497033Y-120801964D01*
X146407940Y-119712872D01*
X146376124Y-119674104D01*
X146221418Y-119547140D01*
X146044915Y-119452798D01*
X145853399Y-119394702D01*
X145704130Y-119380000D01*
X145654228Y-119375085D01*
X145604326Y-119380000D01*
X135431902Y-119380000D01*
X135382000Y-119375085D01*
X135332098Y-119380000D01*
X135182829Y-119394702D01*
X134991313Y-119452798D01*
X134814810Y-119547140D01*
X134660104Y-119674104D01*
X134628292Y-119712867D01*
X133551232Y-120789928D01*
X132750000Y-120789928D01*
X132576746Y-120806992D01*
X132410150Y-120857528D01*
X132256614Y-120939595D01*
X132122038Y-121050038D01*
X132011595Y-121184614D01*
X131929528Y-121338150D01*
X131878992Y-121504746D01*
X131861928Y-121678000D01*
X131861928Y-123178000D01*
X131878992Y-123351254D01*
X131929528Y-123517850D01*
X132011595Y-123671386D01*
X132122038Y-123805962D01*
X132256614Y-123916405D01*
X132410150Y-123998472D01*
X132576746Y-124049008D01*
X132750000Y-124066072D01*
X133950000Y-124066072D01*
X134123254Y-124049008D01*
X134289850Y-123998472D01*
X134443386Y-123916405D01*
X134577962Y-123805962D01*
X134688405Y-123671386D01*
X134742777Y-123569663D01*
X134794866Y-123633134D01*
X135020987Y-123818706D01*
X135278967Y-123956599D01*
X135558890Y-124041513D01*
X135850000Y-124070185D01*
X136141111Y-124041513D01*
X136421034Y-123956599D01*
X136679014Y-123818706D01*
X136905134Y-123633134D01*
X137090706Y-123407014D01*
X137228599Y-123149033D01*
X137313513Y-122869110D01*
X137335000Y-122650949D01*
X137335000Y-122205050D01*
X137313513Y-121986889D01*
X137228599Y-121706966D01*
X137090706Y-121448986D01*
X137060352Y-121412000D01*
X145233388Y-121412000D01*
X146176000Y-122354613D01*
X146176000Y-122650950D01*
X146197487Y-122869111D01*
X146282401Y-123149034D01*
X146420294Y-123407014D01*
X146605866Y-123633134D01*
X146831987Y-123818706D01*
X147089967Y-123956599D01*
X147369890Y-124041513D01*
X147661000Y-124070185D01*
X147847933Y-124051774D01*
X148076010Y-124279851D01*
X148076011Y-127202072D01*
X147952110Y-127164487D01*
X147661000Y-127135815D01*
X147369889Y-127164487D01*
X147089966Y-127249401D01*
X146831986Y-127387294D01*
X146605866Y-127572866D01*
X146553777Y-127636337D01*
X146499405Y-127534614D01*
X146388962Y-127400038D01*
X146254386Y-127289595D01*
X146100850Y-127207528D01*
X145934254Y-127156992D01*
X145761000Y-127139928D01*
X144561000Y-127139928D01*
X144387746Y-127156992D01*
X144221150Y-127207528D01*
X144067614Y-127289595D01*
X143933038Y-127400038D01*
X143822595Y-127534614D01*
X143740528Y-127688150D01*
X143689992Y-127854746D01*
X143672928Y-128028000D01*
X143672928Y-129528000D01*
X143689992Y-129701254D01*
X143740528Y-129867850D01*
X143822595Y-130021386D01*
X143933038Y-130155962D01*
X144067614Y-130266405D01*
X144145000Y-130307769D01*
X144145001Y-137247159D01*
X143906371Y-137485789D01*
X143906365Y-137485794D01*
X141859000Y-139533159D01*
X138929710Y-136603870D01*
X138929706Y-136603865D01*
X138033204Y-135707364D01*
X138001388Y-135668596D01*
X137846682Y-135541632D01*
X137670179Y-135447290D01*
X137478663Y-135389194D01*
X137329394Y-135374492D01*
X137279492Y-135369577D01*
X137229590Y-135374492D01*
X124339774Y-135374492D01*
X124336695Y-135343233D01*
X124284046Y-135169671D01*
X124198548Y-135009716D01*
X124083487Y-134869513D01*
X123943284Y-134754452D01*
X123783329Y-134668954D01*
X123609767Y-134616305D01*
X123474499Y-134602982D01*
X122697119Y-134602982D01*
X122102250Y-134008114D01*
X122102250Y-123781920D01*
X122236634Y-123671634D01*
X122422206Y-123445514D01*
X122431500Y-123428126D01*
X122440794Y-123445514D01*
X122626366Y-123671634D01*
X122852487Y-123857206D01*
X123110467Y-123995099D01*
X123390390Y-124080013D01*
X123681500Y-124108685D01*
X123972611Y-124080013D01*
X124252534Y-123995099D01*
X124510514Y-123857206D01*
X124736634Y-123671634D01*
X124922206Y-123445514D01*
X125060099Y-123187533D01*
X125145013Y-122907610D01*
X125166500Y-122689449D01*
X125166500Y-122293550D01*
X125145013Y-122075389D01*
X125060099Y-121795466D01*
X124922206Y-121537486D01*
X124736634Y-121311366D01*
X124510513Y-121125794D01*
X124252533Y-120987901D01*
X123972610Y-120902987D01*
X123681500Y-120874315D01*
X123390389Y-120902987D01*
X123110466Y-120987901D01*
X122852486Y-121125794D01*
X122626366Y-121311366D01*
X122440794Y-121537487D01*
X122431500Y-121554874D01*
X122422206Y-121537486D01*
X122236634Y-121311366D01*
X122010513Y-121125794D01*
X121752533Y-120987901D01*
X121472610Y-120902987D01*
X121181500Y-120874315D01*
X120890389Y-120902987D01*
X120610466Y-120987901D01*
X120352486Y-121125794D01*
X120126366Y-121311366D01*
X120074277Y-121374837D01*
X120019905Y-121273114D01*
X119909462Y-121138538D01*
X119774886Y-121028095D01*
X119621350Y-120946028D01*
X119454754Y-120895492D01*
X119281500Y-120878428D01*
X118081500Y-120878428D01*
X117908246Y-120895492D01*
X117741650Y-120946028D01*
X117588114Y-121028095D01*
X117453538Y-121138538D01*
X117343095Y-121273114D01*
X117261028Y-121426650D01*
X117210492Y-121593246D01*
X117193428Y-121766500D01*
X117193428Y-123216500D01*
X117210492Y-123389754D01*
X117261028Y-123556350D01*
X117343095Y-123709886D01*
X117453538Y-123844462D01*
X117588114Y-123954905D01*
X117741650Y-124036972D01*
X117908246Y-124087508D01*
X118081500Y-124104572D01*
X119281500Y-124104572D01*
X119454754Y-124087508D01*
X119621350Y-124036972D01*
X119774886Y-123954905D01*
X119909462Y-123844462D01*
X120019905Y-123709886D01*
X120074277Y-123608163D01*
X120126366Y-123671634D01*
X120260750Y-123781920D01*
X120260751Y-133835902D01*
X120162792Y-133599409D01*
X119956338Y-133290428D01*
X119693572Y-133027662D01*
X119384591Y-132821208D01*
X119041271Y-132679000D01*
X118676804Y-132606503D01*
X118305196Y-132606503D01*
X117940729Y-132679000D01*
X117597409Y-132821208D01*
X117288428Y-133027662D01*
X117025662Y-133290428D01*
X116819208Y-133599409D01*
X116677000Y-133942729D01*
X116604503Y-134307196D01*
X116604503Y-134678804D01*
X116677000Y-135043271D01*
X116814196Y-135374492D01*
X114141833Y-135374492D01*
X113728500Y-134961160D01*
X113728500Y-133547459D01*
X113747500Y-133451939D01*
X113747500Y-133248061D01*
X113728500Y-133152541D01*
X113728500Y-129970902D01*
X113733415Y-129921000D01*
X113713798Y-129721829D01*
X113655702Y-129530313D01*
X113561360Y-129353810D01*
X113434396Y-129199104D01*
X113395633Y-129167292D01*
X109815000Y-125586660D01*
X109815000Y-123728750D01*
X109854134Y-123696634D01*
X110039706Y-123470514D01*
X110177599Y-123212533D01*
X110262513Y-122932610D01*
X110284000Y-122714449D01*
X110284000Y-122268550D01*
X110262513Y-122050389D01*
X110177599Y-121770466D01*
X110039706Y-121512486D01*
X109854134Y-121286366D01*
X109628013Y-121100794D01*
X109370033Y-120962901D01*
X109090110Y-120877987D01*
X108799000Y-120849315D01*
X108507889Y-120877987D01*
X108227966Y-120962901D01*
X107969986Y-121100794D01*
X107743866Y-121286366D01*
X107691777Y-121349837D01*
X107637405Y-121248114D01*
X107526962Y-121113538D01*
X107392386Y-121003095D01*
X107238850Y-120921028D01*
X107072254Y-120870492D01*
X106899000Y-120853428D01*
X105699000Y-120853428D01*
X105525746Y-120870492D01*
X105359150Y-120921028D01*
X105205614Y-121003095D01*
X105071038Y-121113538D01*
X104960595Y-121248114D01*
X104878528Y-121401650D01*
X104827992Y-121568246D01*
X104810928Y-121741500D01*
X104810928Y-123241500D01*
X104827992Y-123414754D01*
X104878528Y-123581350D01*
X104960595Y-123734886D01*
X105071038Y-123869462D01*
X105205614Y-123979905D01*
X105359150Y-124061972D01*
X105525746Y-124112508D01*
X105699000Y-124129572D01*
X106899000Y-124129572D01*
X107072254Y-124112508D01*
X107238850Y-124061972D01*
X107392386Y-123979905D01*
X107526962Y-123869462D01*
X107637405Y-123734886D01*
X107691777Y-123633163D01*
X107743866Y-123696634D01*
X107783001Y-123728751D01*
X107783000Y-125380235D01*
X107777769Y-125380750D01*
X105836231Y-125380750D01*
X105791000Y-125376295D01*
X105745769Y-125380750D01*
X105610501Y-125394073D01*
X105436939Y-125446722D01*
X105276984Y-125532220D01*
X105136781Y-125647281D01*
X105107945Y-125682418D01*
X103965419Y-126824945D01*
X103930282Y-126853781D01*
X103815221Y-126993984D01*
X103774173Y-127070780D01*
X103729722Y-127153940D01*
X103677073Y-127327502D01*
X103659295Y-127508000D01*
X103663751Y-127553241D01*
X103663750Y-129621768D01*
X103659295Y-129667000D01*
X103663750Y-129712230D01*
X103677073Y-129847498D01*
X103729722Y-130021060D01*
X103815220Y-130181015D01*
X103930281Y-130321219D01*
X103965424Y-130350060D01*
X105305241Y-131689878D01*
X105305240Y-135826211D01*
X104508558Y-136622894D01*
X104432726Y-136673563D01*
X104288563Y-136817726D01*
X104175295Y-136987244D01*
X104097274Y-137175602D01*
X104057500Y-137375561D01*
X104057500Y-137579439D01*
X104097274Y-137779398D01*
X104175295Y-137967756D01*
X104288563Y-138137274D01*
X104432726Y-138281437D01*
X104602244Y-138394705D01*
X104790602Y-138472726D01*
X104990561Y-138512500D01*
X105194439Y-138512500D01*
X105394398Y-138472726D01*
X105582756Y-138394705D01*
X105752274Y-138281437D01*
X105896437Y-138137274D01*
X106009705Y-137967756D01*
X106045000Y-137882547D01*
X106080295Y-137967756D01*
X106193563Y-138137274D01*
X106337726Y-138281437D01*
X106507244Y-138394705D01*
X106695602Y-138472726D01*
X106895561Y-138512500D01*
X107099439Y-138512500D01*
X107299398Y-138472726D01*
X107487756Y-138394705D01*
X107627036Y-138301641D01*
X107691855Y-138328490D01*
X107862835Y-138362500D01*
X108037165Y-138362500D01*
X108208145Y-138328490D01*
X108272964Y-138301641D01*
X108412244Y-138394705D01*
X108600602Y-138472726D01*
X108800561Y-138512500D01*
X109004439Y-138512500D01*
X109204398Y-138472726D01*
X109392756Y-138394705D01*
X109476001Y-138339083D01*
X109476000Y-145681322D01*
X109434165Y-145673000D01*
X109259835Y-145673000D01*
X109088855Y-145707010D01*
X108927795Y-145773723D01*
X108904948Y-145788989D01*
X108700291Y-145788989D01*
X108373240Y-145461938D01*
X108390500Y-145375165D01*
X108390500Y-145200835D01*
X108356490Y-145029855D01*
X108289777Y-144868795D01*
X108192924Y-144723845D01*
X108069655Y-144600576D01*
X107924705Y-144503723D01*
X107763645Y-144437010D01*
X107592665Y-144403000D01*
X107418335Y-144403000D01*
X107247355Y-144437010D01*
X107086295Y-144503723D01*
X107061000Y-144520625D01*
X107035705Y-144503723D01*
X106874645Y-144437010D01*
X106703665Y-144403000D01*
X106529335Y-144403000D01*
X106358355Y-144437010D01*
X106197295Y-144503723D01*
X106172000Y-144520625D01*
X106146705Y-144503723D01*
X105985645Y-144437010D01*
X105814665Y-144403000D01*
X105640335Y-144403000D01*
X105469355Y-144437010D01*
X105308295Y-144503723D01*
X105163345Y-144600576D01*
X105040076Y-144723845D01*
X104943223Y-144868795D01*
X104876510Y-145029855D01*
X104842500Y-145200835D01*
X104842500Y-145375165D01*
X104876510Y-145546145D01*
X104943223Y-145707205D01*
X105040076Y-145852155D01*
X105163345Y-145975424D01*
X105308295Y-146072277D01*
X105469355Y-146138990D01*
X105512214Y-146147515D01*
X107379236Y-148014538D01*
X107353010Y-148077855D01*
X107319000Y-148248835D01*
X107319000Y-148423165D01*
X107353010Y-148594145D01*
X107419723Y-148755205D01*
X107516576Y-148900155D01*
X107639845Y-149023424D01*
X107692490Y-149058601D01*
X107692491Y-150010478D01*
X107688814Y-150047810D01*
X107692491Y-150085143D01*
X107703488Y-150196796D01*
X107709718Y-150217335D01*
X107746944Y-150340056D01*
X107817516Y-150472086D01*
X107882115Y-150550799D01*
X107912490Y-150587811D01*
X107941488Y-150611609D01*
X107988041Y-150658162D01*
X109299403Y-151969525D01*
X109323197Y-151998518D01*
X109352190Y-152022312D01*
X109352195Y-152022317D01*
X109438921Y-152093491D01*
X109570951Y-152164064D01*
X109714211Y-152207520D01*
X109863197Y-152222194D01*
X109900530Y-152218517D01*
X118500402Y-152218519D01*
X118438576Y-152280345D01*
X118341723Y-152425295D01*
X118275010Y-152586355D01*
X118241000Y-152757335D01*
X118241000Y-152931665D01*
X118275010Y-153102645D01*
X118341723Y-153263705D01*
X118438576Y-153408655D01*
X118561845Y-153531924D01*
X118706795Y-153628777D01*
X118867855Y-153695490D01*
X118910713Y-153704015D01*
X119073701Y-153867003D01*
X119097500Y-153896002D01*
X119213225Y-153990975D01*
X119345254Y-154061547D01*
X119488515Y-154105004D01*
X119600168Y-154116001D01*
X119600176Y-154116001D01*
X119637501Y-154119677D01*
X119674826Y-154116001D01*
X121283474Y-154116001D01*
X121259510Y-154173855D01*
X121225500Y-154344835D01*
X121225500Y-154519165D01*
X121259510Y-154690145D01*
X121326223Y-154851205D01*
X121364558Y-154908577D01*
X121404954Y-155041747D01*
X121475526Y-155173776D01*
X121570499Y-155289501D01*
X121599502Y-155313303D01*
X121737196Y-155450997D01*
X121760999Y-155480001D01*
X121876724Y-155574974D01*
X122008753Y-155645546D01*
X122152014Y-155689003D01*
X122263667Y-155700000D01*
X122263675Y-155700000D01*
X122301000Y-155703676D01*
X122338325Y-155700000D01*
X122414383Y-155700000D01*
X122409000Y-155727061D01*
X122409000Y-155930939D01*
X122448774Y-156130898D01*
X122526795Y-156319256D01*
X122640063Y-156488774D01*
X122784226Y-156632937D01*
X122953744Y-156746205D01*
X123142102Y-156824226D01*
X123342061Y-156864000D01*
X123545939Y-156864000D01*
X123745898Y-156824226D01*
X123934256Y-156746205D01*
X124103774Y-156632937D01*
X124206000Y-156530711D01*
X124308226Y-156632937D01*
X124477744Y-156746205D01*
X124666102Y-156824226D01*
X124866061Y-156864000D01*
X125069939Y-156864000D01*
X125269898Y-156824226D01*
X125449698Y-156749750D01*
X132360302Y-156749750D01*
X132540102Y-156824226D01*
X132740061Y-156864000D01*
X132943939Y-156864000D01*
X133143898Y-156824226D01*
X133332256Y-156746205D01*
X133501774Y-156632937D01*
X133645937Y-156488774D01*
X133755476Y-156324837D01*
X133858665Y-156335000D01*
X133858674Y-156335000D01*
X133895997Y-156338676D01*
X133933320Y-156335000D01*
X134290680Y-156335000D01*
X134328002Y-156338676D01*
X134365324Y-156335000D01*
X134365335Y-156335000D01*
X134476988Y-156324003D01*
X134620249Y-156280546D01*
X134752278Y-156209974D01*
X134868003Y-156115001D01*
X134891805Y-156085998D01*
X135184621Y-155793183D01*
X135195645Y-155790990D01*
X135356705Y-155724277D01*
X135501655Y-155627424D01*
X135624924Y-155504155D01*
X135721777Y-155359205D01*
X135788490Y-155198145D01*
X135822500Y-155027165D01*
X135822500Y-154852835D01*
X135788490Y-154681855D01*
X135721777Y-154520795D01*
X135624924Y-154375845D01*
X135501655Y-154252576D01*
X135356705Y-154155723D01*
X135195645Y-154089010D01*
X135024665Y-154055000D01*
X134850335Y-154055000D01*
X134679355Y-154089010D01*
X134524750Y-154153049D01*
X134370145Y-154089010D01*
X134327286Y-154080485D01*
X134167803Y-153921002D01*
X134144001Y-153891999D01*
X134028276Y-153797026D01*
X133896247Y-153726454D01*
X133752986Y-153682997D01*
X133641333Y-153672000D01*
X133641322Y-153672000D01*
X133604000Y-153668324D01*
X133566678Y-153672000D01*
X133410802Y-153672000D01*
X132955793Y-153216992D01*
X132931991Y-153187989D01*
X132816266Y-153093016D01*
X132684237Y-153022444D01*
X132540976Y-152978987D01*
X132429323Y-152967990D01*
X132429312Y-152967990D01*
X132391990Y-152964314D01*
X132354668Y-152967990D01*
X127252000Y-152967990D01*
X127252000Y-152485537D01*
X127342753Y-152534046D01*
X127486014Y-152577503D01*
X127597667Y-152588500D01*
X127597676Y-152588500D01*
X127634999Y-152592176D01*
X127672322Y-152588500D01*
X128459231Y-152588500D01*
X128496553Y-152592176D01*
X128533875Y-152588500D01*
X128533886Y-152588500D01*
X128645539Y-152577503D01*
X128788800Y-152534046D01*
X128920829Y-152463474D01*
X129036554Y-152368501D01*
X129060357Y-152339497D01*
X129288997Y-152110857D01*
X129318001Y-152087054D01*
X129342958Y-152056644D01*
X129452835Y-152078500D01*
X129627165Y-152078500D01*
X129798145Y-152044490D01*
X129959205Y-151977777D01*
X130104155Y-151880924D01*
X130227424Y-151757655D01*
X130324277Y-151612705D01*
X130390990Y-151451645D01*
X130425000Y-151280665D01*
X130425000Y-151259703D01*
X130454295Y-151279277D01*
X130615355Y-151345990D01*
X130786335Y-151380000D01*
X130960665Y-151380000D01*
X131131645Y-151345990D01*
X131292705Y-151279277D01*
X131437655Y-151182424D01*
X131560924Y-151059155D01*
X131657777Y-150914205D01*
X131724490Y-150753145D01*
X131758500Y-150582165D01*
X131758500Y-150407835D01*
X131724490Y-150236855D01*
X131660451Y-150082250D01*
X131724490Y-149927645D01*
X131758500Y-149756665D01*
X131758500Y-149582335D01*
X131724490Y-149411355D01*
X131657777Y-149250295D01*
X131560924Y-149105345D01*
X131437655Y-148982076D01*
X131292705Y-148885223D01*
X131131645Y-148818510D01*
X131088786Y-148809985D01*
X130998500Y-148719699D01*
X130998500Y-148075301D01*
X132964005Y-150040808D01*
X132987799Y-150069801D01*
X133016792Y-150093595D01*
X133016796Y-150093599D01*
X133069980Y-150137245D01*
X133103524Y-150164774D01*
X133235553Y-150235346D01*
X133378814Y-150278803D01*
X133490467Y-150289800D01*
X133490476Y-150289800D01*
X133527799Y-150293476D01*
X133565122Y-150289800D01*
X139196000Y-150289800D01*
X139196000Y-150431500D01*
X138119459Y-150431500D01*
X138023939Y-150412500D01*
X137820061Y-150412500D01*
X137620102Y-150452274D01*
X137431744Y-150530295D01*
X137262226Y-150643563D01*
X137118063Y-150787726D01*
X137004795Y-150957244D01*
X136926774Y-151145602D01*
X136887000Y-151345561D01*
X136887000Y-151549439D01*
X136926774Y-151749398D01*
X137004795Y-151937756D01*
X137118063Y-152107274D01*
X137262226Y-152251437D01*
X137431744Y-152364705D01*
X137620102Y-152442726D01*
X137820061Y-152482500D01*
X138023939Y-152482500D01*
X138119459Y-152463500D01*
X140666098Y-152463500D01*
X140716000Y-152468415D01*
X140765902Y-152463500D01*
X140915171Y-152448798D01*
X141106687Y-152390702D01*
X141283190Y-152296360D01*
X141437896Y-152169396D01*
X141469712Y-152130628D01*
X142049500Y-151550840D01*
X142049500Y-155441041D01*
X142030500Y-155536561D01*
X142030500Y-155740439D01*
X142070274Y-155940398D01*
X142148295Y-156128756D01*
X142261563Y-156298274D01*
X142405726Y-156442437D01*
X142575244Y-156555705D01*
X142763602Y-156633726D01*
X142963561Y-156673500D01*
X143167439Y-156673500D01*
X143367398Y-156633726D01*
X143555756Y-156555705D01*
X143725274Y-156442437D01*
X143869437Y-156298274D01*
X143982705Y-156128756D01*
X144060726Y-155940398D01*
X144100500Y-155740439D01*
X144100500Y-155536561D01*
X144081500Y-155441041D01*
X144081500Y-142216340D01*
X147184706Y-139113135D01*
X147184710Y-139113130D01*
X148130133Y-138167708D01*
X148168896Y-138135896D01*
X148295860Y-137981190D01*
X148390202Y-137804687D01*
X148448298Y-137613171D01*
X148463000Y-137463902D01*
X148463000Y-137463901D01*
X148467915Y-137414000D01*
X148463000Y-137364098D01*
X148463000Y-136127101D01*
X148539265Y-136241239D01*
X148810261Y-136512235D01*
X149128919Y-136725156D01*
X149482993Y-136871818D01*
X149858876Y-136946586D01*
X150242124Y-136946586D01*
X150618007Y-136871818D01*
X150972081Y-136725156D01*
X151290739Y-136512235D01*
X151561735Y-136241239D01*
X151715000Y-136011862D01*
X151715001Y-159116571D01*
X151688735Y-159077261D01*
X151417739Y-158806265D01*
X151099081Y-158593344D01*
X150745007Y-158446682D01*
X150369124Y-158371914D01*
X149985876Y-158371914D01*
X149609993Y-158446682D01*
X149255919Y-158593344D01*
X148937261Y-158806265D01*
X148666265Y-159077261D01*
X148453344Y-159395919D01*
X148306682Y-159749993D01*
X148231914Y-160125876D01*
X148231914Y-160509124D01*
X148306682Y-160885007D01*
X148453344Y-161239081D01*
X148666265Y-161557739D01*
X148937261Y-161828735D01*
X149006501Y-161875000D01*
X131161147Y-161875000D01*
X131127500Y-161871686D01*
X131093853Y-161875000D01*
X130993217Y-161884912D01*
X130864094Y-161924081D01*
X130745093Y-161987688D01*
X130640789Y-162073289D01*
X130555188Y-162177593D01*
X130491581Y-162296594D01*
X130452412Y-162425717D01*
X130439186Y-162560000D01*
X130442501Y-162593657D01*
X130442501Y-162930580D01*
X130436317Y-162925505D01*
X130208740Y-162803862D01*
X129961804Y-162728955D01*
X129705000Y-162703662D01*
X129448195Y-162728955D01*
X129201259Y-162803862D01*
X128973682Y-162925505D01*
X128774208Y-163089208D01*
X128610505Y-163288683D01*
X128488862Y-163516260D01*
X128413955Y-163763196D01*
X128395000Y-163955650D01*
X128395000Y-164434351D01*
X128413955Y-164626805D01*
X128488862Y-164873741D01*
X128610505Y-165101318D01*
X128724729Y-165240500D01*
X125225272Y-165240500D01*
X125339495Y-165101318D01*
X125461138Y-164873740D01*
X125536045Y-164626804D01*
X125555000Y-164434350D01*
X125555000Y-163955649D01*
X125536045Y-163763195D01*
X125461138Y-163516259D01*
X125339495Y-163288682D01*
X125175792Y-163089208D01*
X124976317Y-162925505D01*
X124748740Y-162803862D01*
X124501804Y-162728955D01*
X124245000Y-162703662D01*
X123988195Y-162728955D01*
X123741259Y-162803862D01*
X123513682Y-162925505D01*
X123494000Y-162941657D01*
X123494000Y-162593647D01*
X123497314Y-162560000D01*
X123484088Y-162425717D01*
X123444919Y-162296594D01*
X123381312Y-162177593D01*
X123295711Y-162073289D01*
X123191407Y-161987688D01*
X123072406Y-161924081D01*
X122943283Y-161884912D01*
X122842647Y-161875000D01*
X122809000Y-161871686D01*
X122775353Y-161875000D01*
X102649506Y-161875000D01*
X102552346Y-161865473D01*
X102491117Y-161846987D01*
X102434644Y-161816960D01*
X102385082Y-161776538D01*
X102344313Y-161727257D01*
X102313891Y-161670993D01*
X102294978Y-161609896D01*
X102285000Y-161514959D01*
X102285000Y-160936794D01*
X123370000Y-160936794D01*
X123370000Y-161453207D01*
X123387147Y-161627300D01*
X123454906Y-161850674D01*
X123564943Y-162056536D01*
X123713026Y-162236975D01*
X123893465Y-162385058D01*
X124099327Y-162495094D01*
X124322701Y-162562853D01*
X124555000Y-162585733D01*
X124787300Y-162562853D01*
X125010674Y-162495094D01*
X125216536Y-162385058D01*
X125396975Y-162236975D01*
X125545058Y-162056536D01*
X125655094Y-161850673D01*
X125722853Y-161627299D01*
X125740000Y-161453206D01*
X125740000Y-160936794D01*
X128210000Y-160936794D01*
X128210000Y-161453207D01*
X128227147Y-161627300D01*
X128294906Y-161850674D01*
X128404943Y-162056536D01*
X128553026Y-162236975D01*
X128733465Y-162385058D01*
X128939327Y-162495094D01*
X129162701Y-162562853D01*
X129395000Y-162585733D01*
X129627300Y-162562853D01*
X129850674Y-162495094D01*
X130056536Y-162385058D01*
X130236975Y-162236975D01*
X130385058Y-162056536D01*
X130495094Y-161850673D01*
X130562853Y-161627299D01*
X130580000Y-161453206D01*
X130580000Y-160936793D01*
X130562853Y-160762700D01*
X130495094Y-160539326D01*
X130385058Y-160333464D01*
X130236975Y-160153025D01*
X130056535Y-160004942D01*
X129850673Y-159894906D01*
X129627299Y-159827147D01*
X129395000Y-159804267D01*
X129162700Y-159827147D01*
X128939326Y-159894906D01*
X128733464Y-160004942D01*
X128553025Y-160153025D01*
X128404942Y-160333465D01*
X128294906Y-160539327D01*
X128227147Y-160762701D01*
X128210000Y-160936794D01*
X125740000Y-160936794D01*
X125740000Y-160936793D01*
X125722853Y-160762700D01*
X125655094Y-160539326D01*
X125545058Y-160333464D01*
X125396975Y-160153025D01*
X125216535Y-160004942D01*
X125010673Y-159894906D01*
X124787299Y-159827147D01*
X124555000Y-159804267D01*
X124322700Y-159827147D01*
X124099326Y-159894906D01*
X123893464Y-160004942D01*
X123713025Y-160153025D01*
X123564942Y-160333465D01*
X123454906Y-160539327D01*
X123387147Y-160762701D01*
X123370000Y-160936794D01*
X102285000Y-160936794D01*
X102285000Y-158812000D01*
X102801928Y-158812000D01*
X102801928Y-160212000D01*
X102814188Y-160336482D01*
X102850498Y-160456180D01*
X102909463Y-160566494D01*
X102988815Y-160663185D01*
X103085506Y-160742537D01*
X103195820Y-160801502D01*
X103315518Y-160837812D01*
X103440000Y-160850072D01*
X104840000Y-160850072D01*
X104964482Y-160837812D01*
X105084180Y-160801502D01*
X105194494Y-160742537D01*
X105291185Y-160663185D01*
X105370537Y-160566494D01*
X105429502Y-160456180D01*
X105465812Y-160336482D01*
X105478072Y-160212000D01*
X105478072Y-158812000D01*
X105465812Y-158687518D01*
X105429502Y-158567820D01*
X105370537Y-158457506D01*
X105291185Y-158360815D01*
X105194494Y-158281463D01*
X105084180Y-158222498D01*
X104964482Y-158186188D01*
X104840000Y-158173928D01*
X103440000Y-158173928D01*
X103315518Y-158186188D01*
X103195820Y-158222498D01*
X103085506Y-158281463D01*
X102988815Y-158360815D01*
X102909463Y-158457506D01*
X102850498Y-158567820D01*
X102814188Y-158687518D01*
X102801928Y-158812000D01*
X102285000Y-158812000D01*
X102285000Y-154380514D01*
X102805000Y-154380514D01*
X102805000Y-154643486D01*
X102856304Y-154901405D01*
X102956939Y-155144359D01*
X103103038Y-155363013D01*
X103288987Y-155548962D01*
X103507641Y-155695061D01*
X103750595Y-155795696D01*
X104008514Y-155847000D01*
X104271486Y-155847000D01*
X104529405Y-155795696D01*
X104772359Y-155695061D01*
X104991013Y-155548962D01*
X105176962Y-155363013D01*
X105323061Y-155144359D01*
X105423696Y-154901405D01*
X105475000Y-154643486D01*
X105475000Y-154380514D01*
X106105000Y-154380514D01*
X106105000Y-154643486D01*
X106156304Y-154901405D01*
X106256939Y-155144359D01*
X106403038Y-155363013D01*
X106588987Y-155548962D01*
X106807641Y-155695061D01*
X106969246Y-155762000D01*
X106807641Y-155828939D01*
X106588987Y-155975038D01*
X106403038Y-156160987D01*
X106256939Y-156379641D01*
X106156304Y-156622595D01*
X106105000Y-156880514D01*
X106105000Y-157143486D01*
X106156304Y-157401405D01*
X106256939Y-157644359D01*
X106403038Y-157863013D01*
X106588987Y-158048962D01*
X106807641Y-158195061D01*
X106969246Y-158262000D01*
X106807641Y-158328939D01*
X106588987Y-158475038D01*
X106403038Y-158660987D01*
X106256939Y-158879641D01*
X106156304Y-159122595D01*
X106105000Y-159380514D01*
X106105000Y-159643486D01*
X106156304Y-159901405D01*
X106256939Y-160144359D01*
X106403038Y-160363013D01*
X106588987Y-160548962D01*
X106807641Y-160695061D01*
X107050595Y-160795696D01*
X107308514Y-160847000D01*
X107571486Y-160847000D01*
X107829405Y-160795696D01*
X108072359Y-160695061D01*
X108291013Y-160548962D01*
X108476962Y-160363013D01*
X108623061Y-160144359D01*
X108723696Y-159901405D01*
X108775000Y-159643486D01*
X108775000Y-159380514D01*
X108723696Y-159122595D01*
X108623061Y-158879641D01*
X108476962Y-158660987D01*
X108291013Y-158475038D01*
X108072359Y-158328939D01*
X107910754Y-158262000D01*
X108072359Y-158195061D01*
X108291013Y-158048962D01*
X108476962Y-157863013D01*
X108623061Y-157644359D01*
X108723696Y-157401405D01*
X108775000Y-157143486D01*
X108775000Y-156880514D01*
X108723696Y-156622595D01*
X108623061Y-156379641D01*
X108476962Y-156160987D01*
X108291013Y-155975038D01*
X108072359Y-155828939D01*
X107910754Y-155762000D01*
X108072359Y-155695061D01*
X108291013Y-155548962D01*
X108476962Y-155363013D01*
X108623061Y-155144359D01*
X108723696Y-154901405D01*
X108775000Y-154643486D01*
X108775000Y-154380514D01*
X108723696Y-154122595D01*
X108623061Y-153879641D01*
X108476962Y-153660987D01*
X108291013Y-153475038D01*
X108072359Y-153328939D01*
X107829405Y-153228304D01*
X107571486Y-153177000D01*
X107308514Y-153177000D01*
X107050595Y-153228304D01*
X106807641Y-153328939D01*
X106588987Y-153475038D01*
X106403038Y-153660987D01*
X106256939Y-153879641D01*
X106156304Y-154122595D01*
X106105000Y-154380514D01*
X105475000Y-154380514D01*
X105423696Y-154122595D01*
X105323061Y-153879641D01*
X105176962Y-153660987D01*
X104991013Y-153475038D01*
X104772359Y-153328939D01*
X104529405Y-153228304D01*
X104271486Y-153177000D01*
X104008514Y-153177000D01*
X103750595Y-153228304D01*
X103507641Y-153328939D01*
X103288987Y-153475038D01*
X103103038Y-153660987D01*
X102956939Y-153879641D01*
X102856304Y-154122595D01*
X102805000Y-154380514D01*
X102285000Y-154380514D01*
X102285000Y-119159507D01*
X102294527Y-119062345D01*
X102313013Y-119001115D01*
X102343038Y-118944646D01*
X102383462Y-118895082D01*
X102432744Y-118854312D01*
X102489006Y-118823891D01*
X102550104Y-118804978D01*
X102645041Y-118795000D01*
X151350493Y-118795000D01*
X151447655Y-118804527D01*
G37*
X151447655Y-118804527D02*
X151508885Y-118823013D01*
X151565354Y-118853038D01*
X151614918Y-118893462D01*
X151655688Y-118942744D01*
X151686109Y-118999006D01*
X151705022Y-119060104D01*
X151715000Y-119155041D01*
X151715000Y-133990138D01*
X151561735Y-133760761D01*
X151290739Y-133489765D01*
X150972081Y-133276844D01*
X150618007Y-133130182D01*
X150242124Y-133055414D01*
X149858876Y-133055414D01*
X149482993Y-133130182D01*
X149128919Y-133276844D01*
X148810261Y-133489765D01*
X148539265Y-133760761D01*
X148463000Y-133874899D01*
X148463000Y-132119840D01*
X149775143Y-130807698D01*
X149813906Y-130775886D01*
X149940870Y-130621180D01*
X150035212Y-130444677D01*
X150083321Y-130286085D01*
X150093308Y-130253162D01*
X150103745Y-130147190D01*
X150108010Y-130103892D01*
X150108010Y-130103885D01*
X150112924Y-130053991D01*
X150108010Y-130004097D01*
X150108010Y-123908912D01*
X150112925Y-123859010D01*
X150093308Y-123659839D01*
X150035212Y-123468323D01*
X149983300Y-123371202D01*
X149940870Y-123291820D01*
X149813906Y-123137114D01*
X149775143Y-123105302D01*
X149146000Y-122476159D01*
X149146000Y-122205050D01*
X149124513Y-121986889D01*
X149039599Y-121706966D01*
X148901706Y-121448986D01*
X148716134Y-121222866D01*
X148490013Y-121037294D01*
X148232033Y-120899401D01*
X147952110Y-120814487D01*
X147661000Y-120785815D01*
X147497033Y-120801964D01*
X146407940Y-119712872D01*
X146376124Y-119674104D01*
X146221418Y-119547140D01*
X146044915Y-119452798D01*
X145853399Y-119394702D01*
X145704130Y-119380000D01*
X145654228Y-119375085D01*
X145604326Y-119380000D01*
X135431902Y-119380000D01*
X135382000Y-119375085D01*
X135332098Y-119380000D01*
X135182829Y-119394702D01*
X134991313Y-119452798D01*
X134814810Y-119547140D01*
X134660104Y-119674104D01*
X134628292Y-119712867D01*
X133551232Y-120789928D01*
X132750000Y-120789928D01*
X132576746Y-120806992D01*
X132410150Y-120857528D01*
X132256614Y-120939595D01*
X132122038Y-121050038D01*
X132011595Y-121184614D01*
X131929528Y-121338150D01*
X131878992Y-121504746D01*
X131861928Y-121678000D01*
X131861928Y-123178000D01*
X131878992Y-123351254D01*
X131929528Y-123517850D01*
X132011595Y-123671386D01*
X132122038Y-123805962D01*
X132256614Y-123916405D01*
X132410150Y-123998472D01*
X132576746Y-124049008D01*
X132750000Y-124066072D01*
X133950000Y-124066072D01*
X134123254Y-124049008D01*
X134289850Y-123998472D01*
X134443386Y-123916405D01*
X134577962Y-123805962D01*
X134688405Y-123671386D01*
X134742777Y-123569663D01*
X134794866Y-123633134D01*
X135020987Y-123818706D01*
X135278967Y-123956599D01*
X135558890Y-124041513D01*
X135850000Y-124070185D01*
X136141111Y-124041513D01*
X136421034Y-123956599D01*
X136679014Y-123818706D01*
X136905134Y-123633134D01*
X137090706Y-123407014D01*
X137228599Y-123149033D01*
X137313513Y-122869110D01*
X137335000Y-122650949D01*
X137335000Y-122205050D01*
X137313513Y-121986889D01*
X137228599Y-121706966D01*
X137090706Y-121448986D01*
X137060352Y-121412000D01*
X145233388Y-121412000D01*
X146176000Y-122354613D01*
X146176000Y-122650950D01*
X146197487Y-122869111D01*
X146282401Y-123149034D01*
X146420294Y-123407014D01*
X146605866Y-123633134D01*
X146831987Y-123818706D01*
X147089967Y-123956599D01*
X147369890Y-124041513D01*
X147661000Y-124070185D01*
X147847933Y-124051774D01*
X148076010Y-124279851D01*
X148076011Y-127202072D01*
X147952110Y-127164487D01*
X147661000Y-127135815D01*
X147369889Y-127164487D01*
X147089966Y-127249401D01*
X146831986Y-127387294D01*
X146605866Y-127572866D01*
X146553777Y-127636337D01*
X146499405Y-127534614D01*
X146388962Y-127400038D01*
X146254386Y-127289595D01*
X146100850Y-127207528D01*
X145934254Y-127156992D01*
X145761000Y-127139928D01*
X144561000Y-127139928D01*
X144387746Y-127156992D01*
X144221150Y-127207528D01*
X144067614Y-127289595D01*
X143933038Y-127400038D01*
X143822595Y-127534614D01*
X143740528Y-127688150D01*
X143689992Y-127854746D01*
X143672928Y-128028000D01*
X143672928Y-129528000D01*
X143689992Y-129701254D01*
X143740528Y-129867850D01*
X143822595Y-130021386D01*
X143933038Y-130155962D01*
X144067614Y-130266405D01*
X144145000Y-130307769D01*
X144145001Y-137247159D01*
X143906371Y-137485789D01*
X143906365Y-137485794D01*
X141859000Y-139533159D01*
X138929710Y-136603870D01*
X138929706Y-136603865D01*
X138033204Y-135707364D01*
X138001388Y-135668596D01*
X137846682Y-135541632D01*
X137670179Y-135447290D01*
X137478663Y-135389194D01*
X137329394Y-135374492D01*
X137279492Y-135369577D01*
X137229590Y-135374492D01*
X124339774Y-135374492D01*
X124336695Y-135343233D01*
X124284046Y-135169671D01*
X124198548Y-135009716D01*
X124083487Y-134869513D01*
X123943284Y-134754452D01*
X123783329Y-134668954D01*
X123609767Y-134616305D01*
X123474499Y-134602982D01*
X122697119Y-134602982D01*
X122102250Y-134008114D01*
X122102250Y-123781920D01*
X122236634Y-123671634D01*
X122422206Y-123445514D01*
X122431500Y-123428126D01*
X122440794Y-123445514D01*
X122626366Y-123671634D01*
X122852487Y-123857206D01*
X123110467Y-123995099D01*
X123390390Y-124080013D01*
X123681500Y-124108685D01*
X123972611Y-124080013D01*
X124252534Y-123995099D01*
X124510514Y-123857206D01*
X124736634Y-123671634D01*
X124922206Y-123445514D01*
X125060099Y-123187533D01*
X125145013Y-122907610D01*
X125166500Y-122689449D01*
X125166500Y-122293550D01*
X125145013Y-122075389D01*
X125060099Y-121795466D01*
X124922206Y-121537486D01*
X124736634Y-121311366D01*
X124510513Y-121125794D01*
X124252533Y-120987901D01*
X123972610Y-120902987D01*
X123681500Y-120874315D01*
X123390389Y-120902987D01*
X123110466Y-120987901D01*
X122852486Y-121125794D01*
X122626366Y-121311366D01*
X122440794Y-121537487D01*
X122431500Y-121554874D01*
X122422206Y-121537486D01*
X122236634Y-121311366D01*
X122010513Y-121125794D01*
X121752533Y-120987901D01*
X121472610Y-120902987D01*
X121181500Y-120874315D01*
X120890389Y-120902987D01*
X120610466Y-120987901D01*
X120352486Y-121125794D01*
X120126366Y-121311366D01*
X120074277Y-121374837D01*
X120019905Y-121273114D01*
X119909462Y-121138538D01*
X119774886Y-121028095D01*
X119621350Y-120946028D01*
X119454754Y-120895492D01*
X119281500Y-120878428D01*
X118081500Y-120878428D01*
X117908246Y-120895492D01*
X117741650Y-120946028D01*
X117588114Y-121028095D01*
X117453538Y-121138538D01*
X117343095Y-121273114D01*
X117261028Y-121426650D01*
X117210492Y-121593246D01*
X117193428Y-121766500D01*
X117193428Y-123216500D01*
X117210492Y-123389754D01*
X117261028Y-123556350D01*
X117343095Y-123709886D01*
X117453538Y-123844462D01*
X117588114Y-123954905D01*
X117741650Y-124036972D01*
X117908246Y-124087508D01*
X118081500Y-124104572D01*
X119281500Y-124104572D01*
X119454754Y-124087508D01*
X119621350Y-124036972D01*
X119774886Y-123954905D01*
X119909462Y-123844462D01*
X120019905Y-123709886D01*
X120074277Y-123608163D01*
X120126366Y-123671634D01*
X120260750Y-123781920D01*
X120260751Y-133835902D01*
X120162792Y-133599409D01*
X119956338Y-133290428D01*
X119693572Y-133027662D01*
X119384591Y-132821208D01*
X119041271Y-132679000D01*
X118676804Y-132606503D01*
X118305196Y-132606503D01*
X117940729Y-132679000D01*
X117597409Y-132821208D01*
X117288428Y-133027662D01*
X117025662Y-133290428D01*
X116819208Y-133599409D01*
X116677000Y-133942729D01*
X116604503Y-134307196D01*
X116604503Y-134678804D01*
X116677000Y-135043271D01*
X116814196Y-135374492D01*
X114141833Y-135374492D01*
X113728500Y-134961160D01*
X113728500Y-133547459D01*
X113747500Y-133451939D01*
X113747500Y-133248061D01*
X113728500Y-133152541D01*
X113728500Y-129970902D01*
X113733415Y-129921000D01*
X113713798Y-129721829D01*
X113655702Y-129530313D01*
X113561360Y-129353810D01*
X113434396Y-129199104D01*
X113395633Y-129167292D01*
X109815000Y-125586660D01*
X109815000Y-123728750D01*
X109854134Y-123696634D01*
X110039706Y-123470514D01*
X110177599Y-123212533D01*
X110262513Y-122932610D01*
X110284000Y-122714449D01*
X110284000Y-122268550D01*
X110262513Y-122050389D01*
X110177599Y-121770466D01*
X110039706Y-121512486D01*
X109854134Y-121286366D01*
X109628013Y-121100794D01*
X109370033Y-120962901D01*
X109090110Y-120877987D01*
X108799000Y-120849315D01*
X108507889Y-120877987D01*
X108227966Y-120962901D01*
X107969986Y-121100794D01*
X107743866Y-121286366D01*
X107691777Y-121349837D01*
X107637405Y-121248114D01*
X107526962Y-121113538D01*
X107392386Y-121003095D01*
X107238850Y-120921028D01*
X107072254Y-120870492D01*
X106899000Y-120853428D01*
X105699000Y-120853428D01*
X105525746Y-120870492D01*
X105359150Y-120921028D01*
X105205614Y-121003095D01*
X105071038Y-121113538D01*
X104960595Y-121248114D01*
X104878528Y-121401650D01*
X104827992Y-121568246D01*
X104810928Y-121741500D01*
X104810928Y-123241500D01*
X104827992Y-123414754D01*
X104878528Y-123581350D01*
X104960595Y-123734886D01*
X105071038Y-123869462D01*
X105205614Y-123979905D01*
X105359150Y-124061972D01*
X105525746Y-124112508D01*
X105699000Y-124129572D01*
X106899000Y-124129572D01*
X107072254Y-124112508D01*
X107238850Y-124061972D01*
X107392386Y-123979905D01*
X107526962Y-123869462D01*
X107637405Y-123734886D01*
X107691777Y-123633163D01*
X107743866Y-123696634D01*
X107783001Y-123728751D01*
X107783000Y-125380235D01*
X107777769Y-125380750D01*
X105836231Y-125380750D01*
X105791000Y-125376295D01*
X105745769Y-125380750D01*
X105610501Y-125394073D01*
X105436939Y-125446722D01*
X105276984Y-125532220D01*
X105136781Y-125647281D01*
X105107945Y-125682418D01*
X103965419Y-126824945D01*
X103930282Y-126853781D01*
X103815221Y-126993984D01*
X103774173Y-127070780D01*
X103729722Y-127153940D01*
X103677073Y-127327502D01*
X103659295Y-127508000D01*
X103663751Y-127553241D01*
X103663750Y-129621768D01*
X103659295Y-129667000D01*
X103663750Y-129712230D01*
X103677073Y-129847498D01*
X103729722Y-130021060D01*
X103815220Y-130181015D01*
X103930281Y-130321219D01*
X103965424Y-130350060D01*
X105305241Y-131689878D01*
X105305240Y-135826211D01*
X104508558Y-136622894D01*
X104432726Y-136673563D01*
X104288563Y-136817726D01*
X104175295Y-136987244D01*
X104097274Y-137175602D01*
X104057500Y-137375561D01*
X104057500Y-137579439D01*
X104097274Y-137779398D01*
X104175295Y-137967756D01*
X104288563Y-138137274D01*
X104432726Y-138281437D01*
X104602244Y-138394705D01*
X104790602Y-138472726D01*
X104990561Y-138512500D01*
X105194439Y-138512500D01*
X105394398Y-138472726D01*
X105582756Y-138394705D01*
X105752274Y-138281437D01*
X105896437Y-138137274D01*
X106009705Y-137967756D01*
X106045000Y-137882547D01*
X106080295Y-137967756D01*
X106193563Y-138137274D01*
X106337726Y-138281437D01*
X106507244Y-138394705D01*
X106695602Y-138472726D01*
X106895561Y-138512500D01*
X107099439Y-138512500D01*
X107299398Y-138472726D01*
X107487756Y-138394705D01*
X107627036Y-138301641D01*
X107691855Y-138328490D01*
X107862835Y-138362500D01*
X108037165Y-138362500D01*
X108208145Y-138328490D01*
X108272964Y-138301641D01*
X108412244Y-138394705D01*
X108600602Y-138472726D01*
X108800561Y-138512500D01*
X109004439Y-138512500D01*
X109204398Y-138472726D01*
X109392756Y-138394705D01*
X109476001Y-138339083D01*
X109476000Y-145681322D01*
X109434165Y-145673000D01*
X109259835Y-145673000D01*
X109088855Y-145707010D01*
X108927795Y-145773723D01*
X108904948Y-145788989D01*
X108700291Y-145788989D01*
X108373240Y-145461938D01*
X108390500Y-145375165D01*
X108390500Y-145200835D01*
X108356490Y-145029855D01*
X108289777Y-144868795D01*
X108192924Y-144723845D01*
X108069655Y-144600576D01*
X107924705Y-144503723D01*
X107763645Y-144437010D01*
X107592665Y-144403000D01*
X107418335Y-144403000D01*
X107247355Y-144437010D01*
X107086295Y-144503723D01*
X107061000Y-144520625D01*
X107035705Y-144503723D01*
X106874645Y-144437010D01*
X106703665Y-144403000D01*
X106529335Y-144403000D01*
X106358355Y-144437010D01*
X106197295Y-144503723D01*
X106172000Y-144520625D01*
X106146705Y-144503723D01*
X105985645Y-144437010D01*
X105814665Y-144403000D01*
X105640335Y-144403000D01*
X105469355Y-144437010D01*
X105308295Y-144503723D01*
X105163345Y-144600576D01*
X105040076Y-144723845D01*
X104943223Y-144868795D01*
X104876510Y-145029855D01*
X104842500Y-145200835D01*
X104842500Y-145375165D01*
X104876510Y-145546145D01*
X104943223Y-145707205D01*
X105040076Y-145852155D01*
X105163345Y-145975424D01*
X105308295Y-146072277D01*
X105469355Y-146138990D01*
X105512214Y-146147515D01*
X107379236Y-148014538D01*
X107353010Y-148077855D01*
X107319000Y-148248835D01*
X107319000Y-148423165D01*
X107353010Y-148594145D01*
X107419723Y-148755205D01*
X107516576Y-148900155D01*
X107639845Y-149023424D01*
X107692490Y-149058601D01*
X107692491Y-150010478D01*
X107688814Y-150047810D01*
X107692491Y-150085143D01*
X107703488Y-150196796D01*
X107709718Y-150217335D01*
X107746944Y-150340056D01*
X107817516Y-150472086D01*
X107882115Y-150550799D01*
X107912490Y-150587811D01*
X107941488Y-150611609D01*
X107988041Y-150658162D01*
X109299403Y-151969525D01*
X109323197Y-151998518D01*
X109352190Y-152022312D01*
X109352195Y-152022317D01*
X109438921Y-152093491D01*
X109570951Y-152164064D01*
X109714211Y-152207520D01*
X109863197Y-152222194D01*
X109900530Y-152218517D01*
X118500402Y-152218519D01*
X118438576Y-152280345D01*
X118341723Y-152425295D01*
X118275010Y-152586355D01*
X118241000Y-152757335D01*
X118241000Y-152931665D01*
X118275010Y-153102645D01*
X118341723Y-153263705D01*
X118438576Y-153408655D01*
X118561845Y-153531924D01*
X118706795Y-153628777D01*
X118867855Y-153695490D01*
X118910713Y-153704015D01*
X119073701Y-153867003D01*
X119097500Y-153896002D01*
X119213225Y-153990975D01*
X119345254Y-154061547D01*
X119488515Y-154105004D01*
X119600168Y-154116001D01*
X119600176Y-154116001D01*
X119637501Y-154119677D01*
X119674826Y-154116001D01*
X121283474Y-154116001D01*
X121259510Y-154173855D01*
X121225500Y-154344835D01*
X121225500Y-154519165D01*
X121259510Y-154690145D01*
X121326223Y-154851205D01*
X121364558Y-154908577D01*
X121404954Y-155041747D01*
X121475526Y-155173776D01*
X121570499Y-155289501D01*
X121599502Y-155313303D01*
X121737196Y-155450997D01*
X121760999Y-155480001D01*
X121876724Y-155574974D01*
X122008753Y-155645546D01*
X122152014Y-155689003D01*
X122263667Y-155700000D01*
X122263675Y-155700000D01*
X122301000Y-155703676D01*
X122338325Y-155700000D01*
X122414383Y-155700000D01*
X122409000Y-155727061D01*
X122409000Y-155930939D01*
X122448774Y-156130898D01*
X122526795Y-156319256D01*
X122640063Y-156488774D01*
X122784226Y-156632937D01*
X122953744Y-156746205D01*
X123142102Y-156824226D01*
X123342061Y-156864000D01*
X123545939Y-156864000D01*
X123745898Y-156824226D01*
X123934256Y-156746205D01*
X124103774Y-156632937D01*
X124206000Y-156530711D01*
X124308226Y-156632937D01*
X124477744Y-156746205D01*
X124666102Y-156824226D01*
X124866061Y-156864000D01*
X125069939Y-156864000D01*
X125269898Y-156824226D01*
X125449698Y-156749750D01*
X132360302Y-156749750D01*
X132540102Y-156824226D01*
X132740061Y-156864000D01*
X132943939Y-156864000D01*
X133143898Y-156824226D01*
X133332256Y-156746205D01*
X133501774Y-156632937D01*
X133645937Y-156488774D01*
X133755476Y-156324837D01*
X133858665Y-156335000D01*
X133858674Y-156335000D01*
X133895997Y-156338676D01*
X133933320Y-156335000D01*
X134290680Y-156335000D01*
X134328002Y-156338676D01*
X134365324Y-156335000D01*
X134365335Y-156335000D01*
X134476988Y-156324003D01*
X134620249Y-156280546D01*
X134752278Y-156209974D01*
X134868003Y-156115001D01*
X134891805Y-156085998D01*
X135184621Y-155793183D01*
X135195645Y-155790990D01*
X135356705Y-155724277D01*
X135501655Y-155627424D01*
X135624924Y-155504155D01*
X135721777Y-155359205D01*
X135788490Y-155198145D01*
X135822500Y-155027165D01*
X135822500Y-154852835D01*
X135788490Y-154681855D01*
X135721777Y-154520795D01*
X135624924Y-154375845D01*
X135501655Y-154252576D01*
X135356705Y-154155723D01*
X135195645Y-154089010D01*
X135024665Y-154055000D01*
X134850335Y-154055000D01*
X134679355Y-154089010D01*
X134524750Y-154153049D01*
X134370145Y-154089010D01*
X134327286Y-154080485D01*
X134167803Y-153921002D01*
X134144001Y-153891999D01*
X134028276Y-153797026D01*
X133896247Y-153726454D01*
X133752986Y-153682997D01*
X133641333Y-153672000D01*
X133641322Y-153672000D01*
X133604000Y-153668324D01*
X133566678Y-153672000D01*
X133410802Y-153672000D01*
X132955793Y-153216992D01*
X132931991Y-153187989D01*
X132816266Y-153093016D01*
X132684237Y-153022444D01*
X132540976Y-152978987D01*
X132429323Y-152967990D01*
X132429312Y-152967990D01*
X132391990Y-152964314D01*
X132354668Y-152967990D01*
X127252000Y-152967990D01*
X127252000Y-152485537D01*
X127342753Y-152534046D01*
X127486014Y-152577503D01*
X127597667Y-152588500D01*
X127597676Y-152588500D01*
X127634999Y-152592176D01*
X127672322Y-152588500D01*
X128459231Y-152588500D01*
X128496553Y-152592176D01*
X128533875Y-152588500D01*
X128533886Y-152588500D01*
X128645539Y-152577503D01*
X128788800Y-152534046D01*
X128920829Y-152463474D01*
X129036554Y-152368501D01*
X129060357Y-152339497D01*
X129288997Y-152110857D01*
X129318001Y-152087054D01*
X129342958Y-152056644D01*
X129452835Y-152078500D01*
X129627165Y-152078500D01*
X129798145Y-152044490D01*
X129959205Y-151977777D01*
X130104155Y-151880924D01*
X130227424Y-151757655D01*
X130324277Y-151612705D01*
X130390990Y-151451645D01*
X130425000Y-151280665D01*
X130425000Y-151259703D01*
X130454295Y-151279277D01*
X130615355Y-151345990D01*
X130786335Y-151380000D01*
X130960665Y-151380000D01*
X131131645Y-151345990D01*
X131292705Y-151279277D01*
X131437655Y-151182424D01*
X131560924Y-151059155D01*
X131657777Y-150914205D01*
X131724490Y-150753145D01*
X131758500Y-150582165D01*
X131758500Y-150407835D01*
X131724490Y-150236855D01*
X131660451Y-150082250D01*
X131724490Y-149927645D01*
X131758500Y-149756665D01*
X131758500Y-149582335D01*
X131724490Y-149411355D01*
X131657777Y-149250295D01*
X131560924Y-149105345D01*
X131437655Y-148982076D01*
X131292705Y-148885223D01*
X131131645Y-148818510D01*
X131088786Y-148809985D01*
X130998500Y-148719699D01*
X130998500Y-148075301D01*
X132964005Y-150040808D01*
X132987799Y-150069801D01*
X133016792Y-150093595D01*
X133016796Y-150093599D01*
X133069980Y-150137245D01*
X133103524Y-150164774D01*
X133235553Y-150235346D01*
X133378814Y-150278803D01*
X133490467Y-150289800D01*
X133490476Y-150289800D01*
X133527799Y-150293476D01*
X133565122Y-150289800D01*
X139196000Y-150289800D01*
X139196000Y-150431500D01*
X138119459Y-150431500D01*
X138023939Y-150412500D01*
X137820061Y-150412500D01*
X137620102Y-150452274D01*
X137431744Y-150530295D01*
X137262226Y-150643563D01*
X137118063Y-150787726D01*
X137004795Y-150957244D01*
X136926774Y-151145602D01*
X136887000Y-151345561D01*
X136887000Y-151549439D01*
X136926774Y-151749398D01*
X137004795Y-151937756D01*
X137118063Y-152107274D01*
X137262226Y-152251437D01*
X137431744Y-152364705D01*
X137620102Y-152442726D01*
X137820061Y-152482500D01*
X138023939Y-152482500D01*
X138119459Y-152463500D01*
X140666098Y-152463500D01*
X140716000Y-152468415D01*
X140765902Y-152463500D01*
X140915171Y-152448798D01*
X141106687Y-152390702D01*
X141283190Y-152296360D01*
X141437896Y-152169396D01*
X141469712Y-152130628D01*
X142049500Y-151550840D01*
X142049500Y-155441041D01*
X142030500Y-155536561D01*
X142030500Y-155740439D01*
X142070274Y-155940398D01*
X142148295Y-156128756D01*
X142261563Y-156298274D01*
X142405726Y-156442437D01*
X142575244Y-156555705D01*
X142763602Y-156633726D01*
X142963561Y-156673500D01*
X143167439Y-156673500D01*
X143367398Y-156633726D01*
X143555756Y-156555705D01*
X143725274Y-156442437D01*
X143869437Y-156298274D01*
X143982705Y-156128756D01*
X144060726Y-155940398D01*
X144100500Y-155740439D01*
X144100500Y-155536561D01*
X144081500Y-155441041D01*
X144081500Y-142216340D01*
X147184706Y-139113135D01*
X147184710Y-139113130D01*
X148130133Y-138167708D01*
X148168896Y-138135896D01*
X148295860Y-137981190D01*
X148390202Y-137804687D01*
X148448298Y-137613171D01*
X148463000Y-137463902D01*
X148463000Y-137463901D01*
X148467915Y-137414000D01*
X148463000Y-137364098D01*
X148463000Y-136127101D01*
X148539265Y-136241239D01*
X148810261Y-136512235D01*
X149128919Y-136725156D01*
X149482993Y-136871818D01*
X149858876Y-136946586D01*
X150242124Y-136946586D01*
X150618007Y-136871818D01*
X150972081Y-136725156D01*
X151290739Y-136512235D01*
X151561735Y-136241239D01*
X151715000Y-136011862D01*
X151715001Y-159116571D01*
X151688735Y-159077261D01*
X151417739Y-158806265D01*
X151099081Y-158593344D01*
X150745007Y-158446682D01*
X150369124Y-158371914D01*
X149985876Y-158371914D01*
X149609993Y-158446682D01*
X149255919Y-158593344D01*
X148937261Y-158806265D01*
X148666265Y-159077261D01*
X148453344Y-159395919D01*
X148306682Y-159749993D01*
X148231914Y-160125876D01*
X148231914Y-160509124D01*
X148306682Y-160885007D01*
X148453344Y-161239081D01*
X148666265Y-161557739D01*
X148937261Y-161828735D01*
X149006501Y-161875000D01*
X131161147Y-161875000D01*
X131127500Y-161871686D01*
X131093853Y-161875000D01*
X130993217Y-161884912D01*
X130864094Y-161924081D01*
X130745093Y-161987688D01*
X130640789Y-162073289D01*
X130555188Y-162177593D01*
X130491581Y-162296594D01*
X130452412Y-162425717D01*
X130439186Y-162560000D01*
X130442501Y-162593657D01*
X130442501Y-162930580D01*
X130436317Y-162925505D01*
X130208740Y-162803862D01*
X129961804Y-162728955D01*
X129705000Y-162703662D01*
X129448195Y-162728955D01*
X129201259Y-162803862D01*
X128973682Y-162925505D01*
X128774208Y-163089208D01*
X128610505Y-163288683D01*
X128488862Y-163516260D01*
X128413955Y-163763196D01*
X128395000Y-163955650D01*
X128395000Y-164434351D01*
X128413955Y-164626805D01*
X128488862Y-164873741D01*
X128610505Y-165101318D01*
X128724729Y-165240500D01*
X125225272Y-165240500D01*
X125339495Y-165101318D01*
X125461138Y-164873740D01*
X125536045Y-164626804D01*
X125555000Y-164434350D01*
X125555000Y-163955649D01*
X125536045Y-163763195D01*
X125461138Y-163516259D01*
X125339495Y-163288682D01*
X125175792Y-163089208D01*
X124976317Y-162925505D01*
X124748740Y-162803862D01*
X124501804Y-162728955D01*
X124245000Y-162703662D01*
X123988195Y-162728955D01*
X123741259Y-162803862D01*
X123513682Y-162925505D01*
X123494000Y-162941657D01*
X123494000Y-162593647D01*
X123497314Y-162560000D01*
X123484088Y-162425717D01*
X123444919Y-162296594D01*
X123381312Y-162177593D01*
X123295711Y-162073289D01*
X123191407Y-161987688D01*
X123072406Y-161924081D01*
X122943283Y-161884912D01*
X122842647Y-161875000D01*
X122809000Y-161871686D01*
X122775353Y-161875000D01*
X102649506Y-161875000D01*
X102552346Y-161865473D01*
X102491117Y-161846987D01*
X102434644Y-161816960D01*
X102385082Y-161776538D01*
X102344313Y-161727257D01*
X102313891Y-161670993D01*
X102294978Y-161609896D01*
X102285000Y-161514959D01*
X102285000Y-160936794D01*
X123370000Y-160936794D01*
X123370000Y-161453207D01*
X123387147Y-161627300D01*
X123454906Y-161850674D01*
X123564943Y-162056536D01*
X123713026Y-162236975D01*
X123893465Y-162385058D01*
X124099327Y-162495094D01*
X124322701Y-162562853D01*
X124555000Y-162585733D01*
X124787300Y-162562853D01*
X125010674Y-162495094D01*
X125216536Y-162385058D01*
X125396975Y-162236975D01*
X125545058Y-162056536D01*
X125655094Y-161850673D01*
X125722853Y-161627299D01*
X125740000Y-161453206D01*
X125740000Y-160936794D01*
X128210000Y-160936794D01*
X128210000Y-161453207D01*
X128227147Y-161627300D01*
X128294906Y-161850674D01*
X128404943Y-162056536D01*
X128553026Y-162236975D01*
X128733465Y-162385058D01*
X128939327Y-162495094D01*
X129162701Y-162562853D01*
X129395000Y-162585733D01*
X129627300Y-162562853D01*
X129850674Y-162495094D01*
X130056536Y-162385058D01*
X130236975Y-162236975D01*
X130385058Y-162056536D01*
X130495094Y-161850673D01*
X130562853Y-161627299D01*
X130580000Y-161453206D01*
X130580000Y-160936793D01*
X130562853Y-160762700D01*
X130495094Y-160539326D01*
X130385058Y-160333464D01*
X130236975Y-160153025D01*
X130056535Y-160004942D01*
X129850673Y-159894906D01*
X129627299Y-159827147D01*
X129395000Y-159804267D01*
X129162700Y-159827147D01*
X128939326Y-159894906D01*
X128733464Y-160004942D01*
X128553025Y-160153025D01*
X128404942Y-160333465D01*
X128294906Y-160539327D01*
X128227147Y-160762701D01*
X128210000Y-160936794D01*
X125740000Y-160936794D01*
X125740000Y-160936793D01*
X125722853Y-160762700D01*
X125655094Y-160539326D01*
X125545058Y-160333464D01*
X125396975Y-160153025D01*
X125216535Y-160004942D01*
X125010673Y-159894906D01*
X124787299Y-159827147D01*
X124555000Y-159804267D01*
X124322700Y-159827147D01*
X124099326Y-159894906D01*
X123893464Y-160004942D01*
X123713025Y-160153025D01*
X123564942Y-160333465D01*
X123454906Y-160539327D01*
X123387147Y-160762701D01*
X123370000Y-160936794D01*
X102285000Y-160936794D01*
X102285000Y-158812000D01*
X102801928Y-158812000D01*
X102801928Y-160212000D01*
X102814188Y-160336482D01*
X102850498Y-160456180D01*
X102909463Y-160566494D01*
X102988815Y-160663185D01*
X103085506Y-160742537D01*
X103195820Y-160801502D01*
X103315518Y-160837812D01*
X103440000Y-160850072D01*
X104840000Y-160850072D01*
X104964482Y-160837812D01*
X105084180Y-160801502D01*
X105194494Y-160742537D01*
X105291185Y-160663185D01*
X105370537Y-160566494D01*
X105429502Y-160456180D01*
X105465812Y-160336482D01*
X105478072Y-160212000D01*
X105478072Y-158812000D01*
X105465812Y-158687518D01*
X105429502Y-158567820D01*
X105370537Y-158457506D01*
X105291185Y-158360815D01*
X105194494Y-158281463D01*
X105084180Y-158222498D01*
X104964482Y-158186188D01*
X104840000Y-158173928D01*
X103440000Y-158173928D01*
X103315518Y-158186188D01*
X103195820Y-158222498D01*
X103085506Y-158281463D01*
X102988815Y-158360815D01*
X102909463Y-158457506D01*
X102850498Y-158567820D01*
X102814188Y-158687518D01*
X102801928Y-158812000D01*
X102285000Y-158812000D01*
X102285000Y-154380514D01*
X102805000Y-154380514D01*
X102805000Y-154643486D01*
X102856304Y-154901405D01*
X102956939Y-155144359D01*
X103103038Y-155363013D01*
X103288987Y-155548962D01*
X103507641Y-155695061D01*
X103750595Y-155795696D01*
X104008514Y-155847000D01*
X104271486Y-155847000D01*
X104529405Y-155795696D01*
X104772359Y-155695061D01*
X104991013Y-155548962D01*
X105176962Y-155363013D01*
X105323061Y-155144359D01*
X105423696Y-154901405D01*
X105475000Y-154643486D01*
X105475000Y-154380514D01*
X106105000Y-154380514D01*
X106105000Y-154643486D01*
X106156304Y-154901405D01*
X106256939Y-155144359D01*
X106403038Y-155363013D01*
X106588987Y-155548962D01*
X106807641Y-155695061D01*
X106969246Y-155762000D01*
X106807641Y-155828939D01*
X106588987Y-155975038D01*
X106403038Y-156160987D01*
X106256939Y-156379641D01*
X106156304Y-156622595D01*
X106105000Y-156880514D01*
X106105000Y-157143486D01*
X106156304Y-157401405D01*
X106256939Y-157644359D01*
X106403038Y-157863013D01*
X106588987Y-158048962D01*
X106807641Y-158195061D01*
X106969246Y-158262000D01*
X106807641Y-158328939D01*
X106588987Y-158475038D01*
X106403038Y-158660987D01*
X106256939Y-158879641D01*
X106156304Y-159122595D01*
X106105000Y-159380514D01*
X106105000Y-159643486D01*
X106156304Y-159901405D01*
X106256939Y-160144359D01*
X106403038Y-160363013D01*
X106588987Y-160548962D01*
X106807641Y-160695061D01*
X107050595Y-160795696D01*
X107308514Y-160847000D01*
X107571486Y-160847000D01*
X107829405Y-160795696D01*
X108072359Y-160695061D01*
X108291013Y-160548962D01*
X108476962Y-160363013D01*
X108623061Y-160144359D01*
X108723696Y-159901405D01*
X108775000Y-159643486D01*
X108775000Y-159380514D01*
X108723696Y-159122595D01*
X108623061Y-158879641D01*
X108476962Y-158660987D01*
X108291013Y-158475038D01*
X108072359Y-158328939D01*
X107910754Y-158262000D01*
X108072359Y-158195061D01*
X108291013Y-158048962D01*
X108476962Y-157863013D01*
X108623061Y-157644359D01*
X108723696Y-157401405D01*
X108775000Y-157143486D01*
X108775000Y-156880514D01*
X108723696Y-156622595D01*
X108623061Y-156379641D01*
X108476962Y-156160987D01*
X108291013Y-155975038D01*
X108072359Y-155828939D01*
X107910754Y-155762000D01*
X108072359Y-155695061D01*
X108291013Y-155548962D01*
X108476962Y-155363013D01*
X108623061Y-155144359D01*
X108723696Y-154901405D01*
X108775000Y-154643486D01*
X108775000Y-154380514D01*
X108723696Y-154122595D01*
X108623061Y-153879641D01*
X108476962Y-153660987D01*
X108291013Y-153475038D01*
X108072359Y-153328939D01*
X107829405Y-153228304D01*
X107571486Y-153177000D01*
X107308514Y-153177000D01*
X107050595Y-153228304D01*
X106807641Y-153328939D01*
X106588987Y-153475038D01*
X106403038Y-153660987D01*
X106256939Y-153879641D01*
X106156304Y-154122595D01*
X106105000Y-154380514D01*
X105475000Y-154380514D01*
X105423696Y-154122595D01*
X105323061Y-153879641D01*
X105176962Y-153660987D01*
X104991013Y-153475038D01*
X104772359Y-153328939D01*
X104529405Y-153228304D01*
X104271486Y-153177000D01*
X104008514Y-153177000D01*
X103750595Y-153228304D01*
X103507641Y-153328939D01*
X103288987Y-153475038D01*
X103103038Y-153660987D01*
X102956939Y-153879641D01*
X102856304Y-154122595D01*
X102805000Y-154380514D01*
X102285000Y-154380514D01*
X102285000Y-119159507D01*
X102294527Y-119062345D01*
X102313013Y-119001115D01*
X102343038Y-118944646D01*
X102383462Y-118895082D01*
X102432744Y-118854312D01*
X102489006Y-118823891D01*
X102550104Y-118804978D01*
X102645041Y-118795000D01*
X151350493Y-118795000D01*
X151447655Y-118804527D01*
G36*
X125641010Y-151451645D02*
G01*
X125707723Y-151612705D01*
X125732000Y-151649038D01*
X125732001Y-153418000D01*
X124243325Y-153418000D01*
X124206000Y-153414324D01*
X124168675Y-153418000D01*
X124168667Y-153418000D01*
X124057014Y-153428997D01*
X123913753Y-153472454D01*
X123781724Y-153543026D01*
X123665999Y-153637999D01*
X123642201Y-153666998D01*
X123129199Y-154180000D01*
X122962712Y-154180000D01*
X122961490Y-154173855D01*
X122894777Y-154012795D01*
X122814231Y-153892250D01*
X122894777Y-153771705D01*
X122961490Y-153610645D01*
X122995500Y-153439665D01*
X122995500Y-153265335D01*
X122961490Y-153094355D01*
X122894777Y-152933295D01*
X122797924Y-152788345D01*
X122674655Y-152665076D01*
X122529705Y-152568223D01*
X122368645Y-152501510D01*
X122197665Y-152467500D01*
X122023335Y-152467500D01*
X121852355Y-152501510D01*
X121691295Y-152568223D01*
X121656293Y-152591611D01*
X121628001Y-152588824D01*
X121590679Y-152592500D01*
X121590669Y-152592500D01*
X121555123Y-152596001D01*
X119978909Y-152596001D01*
X119976990Y-152586355D01*
X119910277Y-152425295D01*
X119813424Y-152280345D01*
X119751597Y-152218518D01*
X122644667Y-152218520D01*
X123334978Y-152218520D01*
X123372300Y-152222196D01*
X123409622Y-152218520D01*
X123409633Y-152218520D01*
X123521286Y-152207523D01*
X123664547Y-152164066D01*
X123796576Y-152093494D01*
X123912301Y-151998521D01*
X123936103Y-151969518D01*
X124276645Y-151628976D01*
X124316988Y-151625003D01*
X124460249Y-151581546D01*
X124592278Y-151510974D01*
X124708003Y-151416001D01*
X124731805Y-151386998D01*
X124740304Y-151378499D01*
X125626460Y-151378499D01*
X125641010Y-151451645D01*
G37*
X125641010Y-151451645D02*
X125707723Y-151612705D01*
X125732000Y-151649038D01*
X125732001Y-153418000D01*
X124243325Y-153418000D01*
X124206000Y-153414324D01*
X124168675Y-153418000D01*
X124168667Y-153418000D01*
X124057014Y-153428997D01*
X123913753Y-153472454D01*
X123781724Y-153543026D01*
X123665999Y-153637999D01*
X123642201Y-153666998D01*
X123129199Y-154180000D01*
X122962712Y-154180000D01*
X122961490Y-154173855D01*
X122894777Y-154012795D01*
X122814231Y-153892250D01*
X122894777Y-153771705D01*
X122961490Y-153610645D01*
X122995500Y-153439665D01*
X122995500Y-153265335D01*
X122961490Y-153094355D01*
X122894777Y-152933295D01*
X122797924Y-152788345D01*
X122674655Y-152665076D01*
X122529705Y-152568223D01*
X122368645Y-152501510D01*
X122197665Y-152467500D01*
X122023335Y-152467500D01*
X121852355Y-152501510D01*
X121691295Y-152568223D01*
X121656293Y-152591611D01*
X121628001Y-152588824D01*
X121590679Y-152592500D01*
X121590669Y-152592500D01*
X121555123Y-152596001D01*
X119978909Y-152596001D01*
X119976990Y-152586355D01*
X119910277Y-152425295D01*
X119813424Y-152280345D01*
X119751597Y-152218518D01*
X122644667Y-152218520D01*
X123334978Y-152218520D01*
X123372300Y-152222196D01*
X123409622Y-152218520D01*
X123409633Y-152218520D01*
X123521286Y-152207523D01*
X123664547Y-152164066D01*
X123796576Y-152093494D01*
X123912301Y-151998521D01*
X123936103Y-151969518D01*
X124276645Y-151628976D01*
X124316988Y-151625003D01*
X124460249Y-151581546D01*
X124592278Y-151510974D01*
X124708003Y-151416001D01*
X124731805Y-151386998D01*
X124740304Y-151378499D01*
X125626460Y-151378499D01*
X125641010Y-151451645D01*
G36*
X127112699Y-144786503D02*
G01*
X127136498Y-144815502D01*
X127165496Y-144839300D01*
X127252222Y-144910475D01*
X127340205Y-144957503D01*
X127384252Y-144981047D01*
X127527513Y-145024504D01*
X127639166Y-145035501D01*
X127639176Y-145035501D01*
X127676499Y-145039177D01*
X127713822Y-145035501D01*
X128339700Y-145035501D01*
X128520490Y-145216292D01*
X128520491Y-150269636D01*
X127908345Y-149657491D01*
X127884543Y-149628488D01*
X127768818Y-149533515D01*
X127636789Y-149462943D01*
X127493528Y-149419486D01*
X127381875Y-149408489D01*
X127381864Y-149408489D01*
X127344542Y-149404813D01*
X127307220Y-149408489D01*
X124918292Y-149408489D01*
X124728305Y-149218502D01*
X124704502Y-149189498D01*
X124588777Y-149094525D01*
X124456748Y-149023953D01*
X124313487Y-148980496D01*
X124204000Y-148969712D01*
X124204000Y-148728038D01*
X124228277Y-148691705D01*
X124294990Y-148530645D01*
X124329000Y-148359665D01*
X124329000Y-148185335D01*
X124294990Y-148014355D01*
X124228277Y-147853295D01*
X124131424Y-147708345D01*
X124008155Y-147585076D01*
X123863205Y-147488223D01*
X123840335Y-147478750D01*
X123863205Y-147469277D01*
X123899538Y-147445000D01*
X125121178Y-147445000D01*
X125158500Y-147448676D01*
X125195822Y-147445000D01*
X125195833Y-147445000D01*
X125307486Y-147434003D01*
X125450747Y-147390546D01*
X125582776Y-147319974D01*
X125698501Y-147225001D01*
X125722304Y-147195997D01*
X125923497Y-146994804D01*
X125952501Y-146971001D01*
X126047474Y-146855276D01*
X126118046Y-146723247D01*
X126161503Y-146579986D01*
X126172500Y-146468333D01*
X126172500Y-146468324D01*
X126176176Y-146431001D01*
X126172500Y-146393678D01*
X126172500Y-144944324D01*
X126176176Y-144907001D01*
X126172500Y-144869678D01*
X126172500Y-143846303D01*
X127112699Y-144786503D01*
G37*
X127112699Y-144786503D02*
X127136498Y-144815502D01*
X127165496Y-144839300D01*
X127252222Y-144910475D01*
X127340205Y-144957503D01*
X127384252Y-144981047D01*
X127527513Y-145024504D01*
X127639166Y-145035501D01*
X127639176Y-145035501D01*
X127676499Y-145039177D01*
X127713822Y-145035501D01*
X128339700Y-145035501D01*
X128520490Y-145216292D01*
X128520491Y-150269636D01*
X127908345Y-149657491D01*
X127884543Y-149628488D01*
X127768818Y-149533515D01*
X127636789Y-149462943D01*
X127493528Y-149419486D01*
X127381875Y-149408489D01*
X127381864Y-149408489D01*
X127344542Y-149404813D01*
X127307220Y-149408489D01*
X124918292Y-149408489D01*
X124728305Y-149218502D01*
X124704502Y-149189498D01*
X124588777Y-149094525D01*
X124456748Y-149023953D01*
X124313487Y-148980496D01*
X124204000Y-148969712D01*
X124204000Y-148728038D01*
X124228277Y-148691705D01*
X124294990Y-148530645D01*
X124329000Y-148359665D01*
X124329000Y-148185335D01*
X124294990Y-148014355D01*
X124228277Y-147853295D01*
X124131424Y-147708345D01*
X124008155Y-147585076D01*
X123863205Y-147488223D01*
X123840335Y-147478750D01*
X123863205Y-147469277D01*
X123899538Y-147445000D01*
X125121178Y-147445000D01*
X125158500Y-147448676D01*
X125195822Y-147445000D01*
X125195833Y-147445000D01*
X125307486Y-147434003D01*
X125450747Y-147390546D01*
X125582776Y-147319974D01*
X125698501Y-147225001D01*
X125722304Y-147195997D01*
X125923497Y-146994804D01*
X125952501Y-146971001D01*
X126047474Y-146855276D01*
X126118046Y-146723247D01*
X126161503Y-146579986D01*
X126172500Y-146468333D01*
X126172500Y-146468324D01*
X126176176Y-146431001D01*
X126172500Y-146393678D01*
X126172500Y-144944324D01*
X126176176Y-144907001D01*
X126172500Y-144869678D01*
X126172500Y-143846303D01*
X127112699Y-144786503D01*
G36*
X119590562Y-138504012D02*
G01*
X119614361Y-138533011D01*
X119643359Y-138556809D01*
X119730086Y-138627984D01*
X119862115Y-138698556D01*
X120005376Y-138742013D01*
X120154362Y-138756687D01*
X120191695Y-138753010D01*
X120468299Y-138753010D01*
X124077499Y-142362211D01*
X124077500Y-142901019D01*
X124040795Y-142916223D01*
X123895845Y-143013076D01*
X123772576Y-143136345D01*
X123675723Y-143281295D01*
X123609010Y-143442355D01*
X123575000Y-143613335D01*
X123575000Y-143787665D01*
X123609010Y-143958645D01*
X123675723Y-144119705D01*
X123772576Y-144264655D01*
X123895845Y-144387924D01*
X123915415Y-144401000D01*
X123899538Y-144401000D01*
X123863205Y-144376723D01*
X123702145Y-144310010D01*
X123531165Y-144276000D01*
X123356835Y-144276000D01*
X123185855Y-144310010D01*
X123024795Y-144376723D01*
X122879845Y-144473576D01*
X122756576Y-144596845D01*
X122659723Y-144741795D01*
X122593010Y-144902855D01*
X122559000Y-145073835D01*
X122559000Y-145248165D01*
X122593010Y-145419145D01*
X122659723Y-145580205D01*
X122756576Y-145725155D01*
X122879845Y-145848424D01*
X122991455Y-145923000D01*
X122879845Y-145997576D01*
X122756576Y-146120845D01*
X122659723Y-146265795D01*
X122593010Y-146426855D01*
X122559000Y-146597835D01*
X122559000Y-146772165D01*
X122593010Y-146943145D01*
X122659723Y-147104205D01*
X122756576Y-147249155D01*
X122879845Y-147372424D01*
X123024795Y-147469277D01*
X123047665Y-147478750D01*
X123024795Y-147488223D01*
X122879845Y-147585076D01*
X122756576Y-147708345D01*
X122659723Y-147853295D01*
X122593010Y-148014355D01*
X122559000Y-148185335D01*
X122559000Y-148359665D01*
X122593010Y-148530645D01*
X122659723Y-148691705D01*
X122684000Y-148728039D01*
X122684001Y-148910198D01*
X122245709Y-149348490D01*
X115186302Y-149348490D01*
X114869500Y-149031688D01*
X114869500Y-146237801D01*
X114911301Y-146196000D01*
X114973439Y-146196000D01*
X115173398Y-146156226D01*
X115361756Y-146078205D01*
X115531274Y-145964937D01*
X115675437Y-145820774D01*
X115788705Y-145651256D01*
X115866726Y-145462898D01*
X115906500Y-145262939D01*
X115906500Y-145059061D01*
X115866726Y-144859102D01*
X115788705Y-144670744D01*
X115675437Y-144501226D01*
X115531274Y-144357063D01*
X115361756Y-144243795D01*
X115173398Y-144165774D01*
X114973439Y-144126000D01*
X114769561Y-144126000D01*
X114569602Y-144165774D01*
X114381244Y-144243795D01*
X114211726Y-144357063D01*
X114067563Y-144501226D01*
X113954295Y-144670744D01*
X113876274Y-144859102D01*
X113836500Y-145059061D01*
X113836500Y-145121199D01*
X113598498Y-145359201D01*
X113569500Y-145382999D01*
X113545702Y-145411997D01*
X113545701Y-145411998D01*
X113474526Y-145498724D01*
X113403954Y-145630754D01*
X113380751Y-145707247D01*
X113360498Y-145774014D01*
X113355845Y-145821254D01*
X113345824Y-145923000D01*
X113349501Y-145960332D01*
X113349500Y-149314667D01*
X113345823Y-149352000D01*
X113360497Y-149500986D01*
X113403954Y-149644247D01*
X113474526Y-149776276D01*
X113492765Y-149798500D01*
X110550802Y-149798500D01*
X110112510Y-149360209D01*
X110112510Y-148451775D01*
X110148835Y-148459000D01*
X110323165Y-148459000D01*
X110494145Y-148424990D01*
X110655205Y-148358277D01*
X110800155Y-148261424D01*
X110923424Y-148138155D01*
X111020277Y-147993205D01*
X111086990Y-147832145D01*
X111121000Y-147661165D01*
X111121000Y-147486835D01*
X111086990Y-147315855D01*
X111020277Y-147154795D01*
X110996000Y-147118462D01*
X110996000Y-138173301D01*
X111312802Y-137856500D01*
X118943051Y-137856500D01*
X119590562Y-138504012D01*
G37*
X119590562Y-138504012D02*
X119614361Y-138533011D01*
X119643359Y-138556809D01*
X119730086Y-138627984D01*
X119862115Y-138698556D01*
X120005376Y-138742013D01*
X120154362Y-138756687D01*
X120191695Y-138753010D01*
X120468299Y-138753010D01*
X124077499Y-142362211D01*
X124077500Y-142901019D01*
X124040795Y-142916223D01*
X123895845Y-143013076D01*
X123772576Y-143136345D01*
X123675723Y-143281295D01*
X123609010Y-143442355D01*
X123575000Y-143613335D01*
X123575000Y-143787665D01*
X123609010Y-143958645D01*
X123675723Y-144119705D01*
X123772576Y-144264655D01*
X123895845Y-144387924D01*
X123915415Y-144401000D01*
X123899538Y-144401000D01*
X123863205Y-144376723D01*
X123702145Y-144310010D01*
X123531165Y-144276000D01*
X123356835Y-144276000D01*
X123185855Y-144310010D01*
X123024795Y-144376723D01*
X122879845Y-144473576D01*
X122756576Y-144596845D01*
X122659723Y-144741795D01*
X122593010Y-144902855D01*
X122559000Y-145073835D01*
X122559000Y-145248165D01*
X122593010Y-145419145D01*
X122659723Y-145580205D01*
X122756576Y-145725155D01*
X122879845Y-145848424D01*
X122991455Y-145923000D01*
X122879845Y-145997576D01*
X122756576Y-146120845D01*
X122659723Y-146265795D01*
X122593010Y-146426855D01*
X122559000Y-146597835D01*
X122559000Y-146772165D01*
X122593010Y-146943145D01*
X122659723Y-147104205D01*
X122756576Y-147249155D01*
X122879845Y-147372424D01*
X123024795Y-147469277D01*
X123047665Y-147478750D01*
X123024795Y-147488223D01*
X122879845Y-147585076D01*
X122756576Y-147708345D01*
X122659723Y-147853295D01*
X122593010Y-148014355D01*
X122559000Y-148185335D01*
X122559000Y-148359665D01*
X122593010Y-148530645D01*
X122659723Y-148691705D01*
X122684000Y-148728039D01*
X122684001Y-148910198D01*
X122245709Y-149348490D01*
X115186302Y-149348490D01*
X114869500Y-149031688D01*
X114869500Y-146237801D01*
X114911301Y-146196000D01*
X114973439Y-146196000D01*
X115173398Y-146156226D01*
X115361756Y-146078205D01*
X115531274Y-145964937D01*
X115675437Y-145820774D01*
X115788705Y-145651256D01*
X115866726Y-145462898D01*
X115906500Y-145262939D01*
X115906500Y-145059061D01*
X115866726Y-144859102D01*
X115788705Y-144670744D01*
X115675437Y-144501226D01*
X115531274Y-144357063D01*
X115361756Y-144243795D01*
X115173398Y-144165774D01*
X114973439Y-144126000D01*
X114769561Y-144126000D01*
X114569602Y-144165774D01*
X114381244Y-144243795D01*
X114211726Y-144357063D01*
X114067563Y-144501226D01*
X113954295Y-144670744D01*
X113876274Y-144859102D01*
X113836500Y-145059061D01*
X113836500Y-145121199D01*
X113598498Y-145359201D01*
X113569500Y-145382999D01*
X113545702Y-145411997D01*
X113545701Y-145411998D01*
X113474526Y-145498724D01*
X113403954Y-145630754D01*
X113380751Y-145707247D01*
X113360498Y-145774014D01*
X113355845Y-145821254D01*
X113345824Y-145923000D01*
X113349501Y-145960332D01*
X113349500Y-149314667D01*
X113345823Y-149352000D01*
X113360497Y-149500986D01*
X113403954Y-149644247D01*
X113474526Y-149776276D01*
X113492765Y-149798500D01*
X110550802Y-149798500D01*
X110112510Y-149360209D01*
X110112510Y-148451775D01*
X110148835Y-148459000D01*
X110323165Y-148459000D01*
X110494145Y-148424990D01*
X110655205Y-148358277D01*
X110800155Y-148261424D01*
X110923424Y-148138155D01*
X111020277Y-147993205D01*
X111086990Y-147832145D01*
X111121000Y-147661165D01*
X111121000Y-147486835D01*
X111086990Y-147315855D01*
X111020277Y-147154795D01*
X110996000Y-147118462D01*
X110996000Y-138173301D01*
X111312802Y-137856500D01*
X118943051Y-137856500D01*
X119590562Y-138504012D01*
G36*
X139257501Y-143951803D02*
G01*
X139257500Y-144959462D01*
X139233223Y-144995795D01*
X139166510Y-145156855D01*
X139132500Y-145327835D01*
X139132500Y-145502165D01*
X139166510Y-145673145D01*
X139233223Y-145834205D01*
X139330076Y-145979155D01*
X139453345Y-146102424D01*
X139598295Y-146199277D01*
X139759355Y-146265990D01*
X139930335Y-146300000D01*
X140104665Y-146300000D01*
X140275645Y-146265990D01*
X140436705Y-146199277D01*
X140581655Y-146102424D01*
X140704924Y-145979155D01*
X140801777Y-145834205D01*
X140843001Y-145734682D01*
X140843001Y-146106538D01*
X140824000Y-146202061D01*
X140824000Y-146405939D01*
X140843001Y-146501462D01*
X140843001Y-148010456D01*
X140768424Y-147898845D01*
X140645155Y-147775576D01*
X140500205Y-147678723D01*
X140339145Y-147612010D01*
X140168165Y-147578000D01*
X139993835Y-147578000D01*
X139822855Y-147612010D01*
X139661795Y-147678723D01*
X139516845Y-147775576D01*
X139393576Y-147898845D01*
X139296723Y-148043795D01*
X139230010Y-148204855D01*
X139228788Y-148211000D01*
X134045802Y-148211000D01*
X132835625Y-147000823D01*
X131733015Y-145898214D01*
X131724490Y-145855355D01*
X131660451Y-145700750D01*
X131724490Y-145546145D01*
X131758500Y-145375165D01*
X131758500Y-145200835D01*
X131724490Y-145029855D01*
X131657777Y-144868795D01*
X131633500Y-144832462D01*
X131633500Y-144269301D01*
X132140803Y-143762000D01*
X134100962Y-143762000D01*
X134137295Y-143786277D01*
X134298355Y-143852990D01*
X134469335Y-143887000D01*
X134643665Y-143887000D01*
X134814645Y-143852990D01*
X134975705Y-143786277D01*
X135120655Y-143689424D01*
X135243924Y-143566155D01*
X135340777Y-143421205D01*
X135407490Y-143260145D01*
X135422040Y-143186999D01*
X138492698Y-143186999D01*
X139257501Y-143951803D01*
G37*
X139257501Y-143951803D02*
X139257500Y-144959462D01*
X139233223Y-144995795D01*
X139166510Y-145156855D01*
X139132500Y-145327835D01*
X139132500Y-145502165D01*
X139166510Y-145673145D01*
X139233223Y-145834205D01*
X139330076Y-145979155D01*
X139453345Y-146102424D01*
X139598295Y-146199277D01*
X139759355Y-146265990D01*
X139930335Y-146300000D01*
X140104665Y-146300000D01*
X140275645Y-146265990D01*
X140436705Y-146199277D01*
X140581655Y-146102424D01*
X140704924Y-145979155D01*
X140801777Y-145834205D01*
X140843001Y-145734682D01*
X140843001Y-146106538D01*
X140824000Y-146202061D01*
X140824000Y-146405939D01*
X140843001Y-146501462D01*
X140843001Y-148010456D01*
X140768424Y-147898845D01*
X140645155Y-147775576D01*
X140500205Y-147678723D01*
X140339145Y-147612010D01*
X140168165Y-147578000D01*
X139993835Y-147578000D01*
X139822855Y-147612010D01*
X139661795Y-147678723D01*
X139516845Y-147775576D01*
X139393576Y-147898845D01*
X139296723Y-148043795D01*
X139230010Y-148204855D01*
X139228788Y-148211000D01*
X134045802Y-148211000D01*
X132835625Y-147000823D01*
X131733015Y-145898214D01*
X131724490Y-145855355D01*
X131660451Y-145700750D01*
X131724490Y-145546145D01*
X131758500Y-145375165D01*
X131758500Y-145200835D01*
X131724490Y-145029855D01*
X131657777Y-144868795D01*
X131633500Y-144832462D01*
X131633500Y-144269301D01*
X132140803Y-143762000D01*
X134100962Y-143762000D01*
X134137295Y-143786277D01*
X134298355Y-143852990D01*
X134469335Y-143887000D01*
X134643665Y-143887000D01*
X134814645Y-143852990D01*
X134975705Y-143786277D01*
X135120655Y-143689424D01*
X135243924Y-143566155D01*
X135340777Y-143421205D01*
X135407490Y-143260145D01*
X135422040Y-143186999D01*
X138492698Y-143186999D01*
X139257501Y-143951803D01*
G36*
X137492865Y-138040706D02*
G01*
X137492870Y-138040710D01*
X140843000Y-141390841D01*
X140843000Y-142751288D01*
X139557699Y-141465988D01*
X139533901Y-141436990D01*
X139494693Y-141404813D01*
X139418176Y-141342016D01*
X139286146Y-141271444D01*
X139186342Y-141241170D01*
X139142886Y-141227988D01*
X139031233Y-141216991D01*
X138993900Y-141213314D01*
X138956568Y-141216991D01*
X134131421Y-141216989D01*
X134094098Y-141213313D01*
X134056776Y-141216989D01*
X134056767Y-141216989D01*
X134021221Y-141220490D01*
X131549922Y-141220490D01*
X131512600Y-141216814D01*
X131475277Y-141220490D01*
X131475267Y-141220490D01*
X131363614Y-141231487D01*
X131220353Y-141274944D01*
X131088324Y-141345516D01*
X131069985Y-141360566D01*
X131003975Y-141237072D01*
X130909002Y-141121347D01*
X130879999Y-141097545D01*
X130711357Y-140928903D01*
X130687554Y-140899899D01*
X130571829Y-140804926D01*
X130439800Y-140734354D01*
X130296539Y-140690897D01*
X130260715Y-140687369D01*
X130213205Y-140655623D01*
X130052145Y-140588910D01*
X129881165Y-140554900D01*
X129706835Y-140554900D01*
X129535855Y-140588910D01*
X129374795Y-140655623D01*
X129229845Y-140752476D01*
X129106576Y-140875745D01*
X129009723Y-141020695D01*
X128943010Y-141181755D01*
X128909000Y-141352735D01*
X128909000Y-141527065D01*
X128943010Y-141698045D01*
X129009723Y-141859105D01*
X129106576Y-142004055D01*
X129229845Y-142127324D01*
X129316375Y-142185142D01*
X129273030Y-142208310D01*
X129157305Y-142303283D01*
X129133511Y-142332276D01*
X128715788Y-142750000D01*
X128180325Y-142750000D01*
X128143000Y-142746324D01*
X128105675Y-142750000D01*
X128105667Y-142750000D01*
X127994014Y-142760997D01*
X127850753Y-142804454D01*
X127809197Y-142826667D01*
X127694355Y-142849510D01*
X127533295Y-142916223D01*
X127448609Y-142972809D01*
X126747501Y-142271702D01*
X126747501Y-141747321D01*
X126751177Y-141709998D01*
X126747501Y-141672675D01*
X126747501Y-141672666D01*
X126736504Y-141561013D01*
X126693047Y-141417752D01*
X126622475Y-141285723D01*
X126527502Y-141169998D01*
X126498499Y-141146196D01*
X126192306Y-140840003D01*
X126168503Y-140810999D01*
X126052778Y-140716026D01*
X125920749Y-140645454D01*
X125777488Y-140601997D01*
X125735582Y-140597870D01*
X124204000Y-139066289D01*
X124204000Y-138885538D01*
X124228277Y-138849205D01*
X124294990Y-138688145D01*
X124329000Y-138517165D01*
X124329000Y-138342835D01*
X124294990Y-138171855D01*
X124228277Y-138010795D01*
X124131424Y-137865845D01*
X124008155Y-137742576D01*
X123863205Y-137645723D01*
X123702145Y-137579010D01*
X123531165Y-137545000D01*
X123356835Y-137545000D01*
X123185855Y-137579010D01*
X123024795Y-137645723D01*
X122879845Y-137742576D01*
X122756576Y-137865845D01*
X122659723Y-138010795D01*
X122616484Y-138115183D01*
X121907793Y-137406492D01*
X136858652Y-137406492D01*
X137492865Y-138040706D01*
G37*
X137492865Y-138040706D02*
X137492870Y-138040710D01*
X140843000Y-141390841D01*
X140843000Y-142751288D01*
X139557699Y-141465988D01*
X139533901Y-141436990D01*
X139494693Y-141404813D01*
X139418176Y-141342016D01*
X139286146Y-141271444D01*
X139186342Y-141241170D01*
X139142886Y-141227988D01*
X139031233Y-141216991D01*
X138993900Y-141213314D01*
X138956568Y-141216991D01*
X134131421Y-141216989D01*
X134094098Y-141213313D01*
X134056776Y-141216989D01*
X134056767Y-141216989D01*
X134021221Y-141220490D01*
X131549922Y-141220490D01*
X131512600Y-141216814D01*
X131475277Y-141220490D01*
X131475267Y-141220490D01*
X131363614Y-141231487D01*
X131220353Y-141274944D01*
X131088324Y-141345516D01*
X131069985Y-141360566D01*
X131003975Y-141237072D01*
X130909002Y-141121347D01*
X130879999Y-141097545D01*
X130711357Y-140928903D01*
X130687554Y-140899899D01*
X130571829Y-140804926D01*
X130439800Y-140734354D01*
X130296539Y-140690897D01*
X130260715Y-140687369D01*
X130213205Y-140655623D01*
X130052145Y-140588910D01*
X129881165Y-140554900D01*
X129706835Y-140554900D01*
X129535855Y-140588910D01*
X129374795Y-140655623D01*
X129229845Y-140752476D01*
X129106576Y-140875745D01*
X129009723Y-141020695D01*
X128943010Y-141181755D01*
X128909000Y-141352735D01*
X128909000Y-141527065D01*
X128943010Y-141698045D01*
X129009723Y-141859105D01*
X129106576Y-142004055D01*
X129229845Y-142127324D01*
X129316375Y-142185142D01*
X129273030Y-142208310D01*
X129157305Y-142303283D01*
X129133511Y-142332276D01*
X128715788Y-142750000D01*
X128180325Y-142750000D01*
X128143000Y-142746324D01*
X128105675Y-142750000D01*
X128105667Y-142750000D01*
X127994014Y-142760997D01*
X127850753Y-142804454D01*
X127809197Y-142826667D01*
X127694355Y-142849510D01*
X127533295Y-142916223D01*
X127448609Y-142972809D01*
X126747501Y-142271702D01*
X126747501Y-141747321D01*
X126751177Y-141709998D01*
X126747501Y-141672675D01*
X126747501Y-141672666D01*
X126736504Y-141561013D01*
X126693047Y-141417752D01*
X126622475Y-141285723D01*
X126527502Y-141169998D01*
X126498499Y-141146196D01*
X126192306Y-140840003D01*
X126168503Y-140810999D01*
X126052778Y-140716026D01*
X125920749Y-140645454D01*
X125777488Y-140601997D01*
X125735582Y-140597870D01*
X124204000Y-139066289D01*
X124204000Y-138885538D01*
X124228277Y-138849205D01*
X124294990Y-138688145D01*
X124329000Y-138517165D01*
X124329000Y-138342835D01*
X124294990Y-138171855D01*
X124228277Y-138010795D01*
X124131424Y-137865845D01*
X124008155Y-137742576D01*
X123863205Y-137645723D01*
X123702145Y-137579010D01*
X123531165Y-137545000D01*
X123356835Y-137545000D01*
X123185855Y-137579010D01*
X123024795Y-137645723D01*
X122879845Y-137742576D01*
X122756576Y-137865845D01*
X122659723Y-138010795D01*
X122616484Y-138115183D01*
X121907793Y-137406492D01*
X136858652Y-137406492D01*
X137492865Y-138040706D01*
G36*
X110896295Y-135213777D02*
G01*
X111057355Y-135280490D01*
X111228335Y-135314500D01*
X111402665Y-135314500D01*
X111573645Y-135280490D01*
X111696500Y-135229602D01*
X111696500Y-135332098D01*
X111691585Y-135382000D01*
X111696500Y-135431901D01*
X111711202Y-135581170D01*
X111769298Y-135772686D01*
X111863640Y-135949190D01*
X111990604Y-136103896D01*
X112029372Y-136135712D01*
X112230160Y-136336500D01*
X111035325Y-136336500D01*
X110998000Y-136332824D01*
X110960675Y-136336500D01*
X110960667Y-136336500D01*
X110849014Y-136347497D01*
X110705753Y-136390954D01*
X110573724Y-136461526D01*
X110457999Y-136556499D01*
X110434201Y-136585498D01*
X109882018Y-137137680D01*
X109819705Y-136987244D01*
X109706437Y-136817726D01*
X109562274Y-136673563D01*
X109392756Y-136560295D01*
X109204398Y-136482274D01*
X109004439Y-136442500D01*
X108800561Y-136442500D01*
X108710000Y-136460514D01*
X108710000Y-135189500D01*
X110859962Y-135189500D01*
X110896295Y-135213777D01*
G37*
X110896295Y-135213777D02*
X111057355Y-135280490D01*
X111228335Y-135314500D01*
X111402665Y-135314500D01*
X111573645Y-135280490D01*
X111696500Y-135229602D01*
X111696500Y-135332098D01*
X111691585Y-135382000D01*
X111696500Y-135431901D01*
X111711202Y-135581170D01*
X111769298Y-135772686D01*
X111863640Y-135949190D01*
X111990604Y-136103896D01*
X112029372Y-136135712D01*
X112230160Y-136336500D01*
X111035325Y-136336500D01*
X110998000Y-136332824D01*
X110960675Y-136336500D01*
X110960667Y-136336500D01*
X110849014Y-136347497D01*
X110705753Y-136390954D01*
X110573724Y-136461526D01*
X110457999Y-136556499D01*
X110434201Y-136585498D01*
X109882018Y-137137680D01*
X109819705Y-136987244D01*
X109706437Y-136817726D01*
X109562274Y-136673563D01*
X109392756Y-136560295D01*
X109204398Y-136482274D01*
X109004439Y-136442500D01*
X108800561Y-136442500D01*
X108710000Y-136460514D01*
X108710000Y-135189500D01*
X110859962Y-135189500D01*
X110896295Y-135213777D01*
G36*
X111696501Y-130341842D02*
G01*
X111696500Y-133152539D01*
X111677500Y-133248061D01*
X111677500Y-133451939D01*
X111696500Y-133547461D01*
X111696500Y-133629398D01*
X111573645Y-133578510D01*
X111402665Y-133544500D01*
X111228335Y-133544500D01*
X111057355Y-133578510D01*
X110896295Y-133645223D01*
X110859962Y-133669500D01*
X108431823Y-133669500D01*
X108394500Y-133665824D01*
X108357177Y-133669500D01*
X108357167Y-133669500D01*
X108245514Y-133680497D01*
X108102253Y-133723954D01*
X107970223Y-133794526D01*
X107927646Y-133829469D01*
X107918250Y-133837180D01*
X107918250Y-130126247D01*
X107969987Y-130168706D01*
X108227967Y-130306599D01*
X108507890Y-130391513D01*
X108799000Y-130420185D01*
X109090111Y-130391513D01*
X109370034Y-130306599D01*
X109628014Y-130168706D01*
X109854134Y-129983134D01*
X110039706Y-129757014D01*
X110177599Y-129499033D01*
X110262513Y-129219110D01*
X110284000Y-129000949D01*
X110284000Y-128929341D01*
X111696501Y-130341842D01*
G37*
X111696501Y-130341842D02*
X111696500Y-133152539D01*
X111677500Y-133248061D01*
X111677500Y-133451939D01*
X111696500Y-133547461D01*
X111696500Y-133629398D01*
X111573645Y-133578510D01*
X111402665Y-133544500D01*
X111228335Y-133544500D01*
X111057355Y-133578510D01*
X110896295Y-133645223D01*
X110859962Y-133669500D01*
X108431823Y-133669500D01*
X108394500Y-133665824D01*
X108357177Y-133669500D01*
X108357167Y-133669500D01*
X108245514Y-133680497D01*
X108102253Y-133723954D01*
X107970223Y-133794526D01*
X107927646Y-133829469D01*
X107918250Y-133837180D01*
X107918250Y-130126247D01*
X107969987Y-130168706D01*
X108227967Y-130306599D01*
X108507890Y-130391513D01*
X108799000Y-130420185D01*
X109090111Y-130391513D01*
X109370034Y-130306599D01*
X109628014Y-130168706D01*
X109854134Y-129983134D01*
X110039706Y-129757014D01*
X110177599Y-129499033D01*
X110262513Y-129219110D01*
X110284000Y-129000949D01*
X110284000Y-128929341D01*
X111696501Y-130341842D01*
M02*
