M48
; DRILL file {KiCad (5.1.5)-2} date 2/26/2020 12:34:42 PM
; FORMAT={-:-/ absolute / inch / decimal}
; #@! TF.CreationDate,2020-02-26T12:34:42-06:00
; #@! TF.GenerationSoftware,Kicad,Pcbnew,(5.1.5)-2
; #@! TF.FileFunction,Plated,1,2,PTH
FMAT,2
INCH
T1C0.0118
T2C0.0157
T3C0.0256
T4C0.0276
T5C0.0374
T6C0.0394
%
G90
G05
T1
X4.04Y-5.575
X4.1625Y-5.72
X4.175Y-5.4125
X4.2025Y-5.72
X4.25Y-5.4125
X4.3225Y-5.575
X4.39Y-5.325
X4.4175Y-5.44
X4.4425Y-5.5875
X4.5375Y-5.8175
X5.15Y-6.118
X5.3975Y-5.8525
X5.434Y-5.852
X5.85Y-5.22
X5.85Y-5.6875
X5.852Y-5.44
X5.8525Y-5.5425
X5.8575Y-5.825
X5.865Y-5.965
T2
X4.1375Y-5.4125
X4.2125Y-5.4125
X4.2875Y-5.4125
X4.355Y-5.735
X4.466Y-6.174
X4.47Y-5.855
X4.5075Y-4.82
X4.59Y-4.99
X4.676Y-6.18
X4.7025Y-5.135
X4.7415Y-5.75
X4.7425Y-5.5725
X4.7425Y-5.632
X4.7425Y-5.6911
X4.744Y-5.455
X4.91Y-6.27
X5.0325Y-4.8975
X5.09Y-4.8975
X5.205Y-6.27
X5.305Y-6.09
X5.375Y-4.985
X5.4125Y-6.2725
X5.565Y-5.08
X5.574Y-5.632
X5.574Y-5.6911
X5.58Y-5.278
X5.58Y-5.3368
X5.58Y-5.455
X5.58Y-5.573
X5.5925Y-6.2425
X5.6325Y-6.1275
T5
X4.6725Y-4.8225
X4.7709Y-4.8225
X4.8694Y-4.8225
T6
X4.185Y-5.07
X4.2834Y-5.07
X5.715Y-4.82
X5.8134Y-4.82
X5.25Y-4.82
X5.3484Y-4.82
X5.715Y-5.07
X5.8134Y-5.07
X4.185Y-4.8225
X4.2834Y-4.8225
T3
G00X4.9037Y-6.3541
M15
G01X4.9037Y-6.3384
M16
G05
G00X5.0943Y-6.3541
M15
G01X5.0943Y-6.3384
M16
G05
T4
G00X4.8915Y-6.4742
M15
G01X4.8915Y-6.4545
M16
G05
G00X5.1065Y-6.4742
M15
G01X5.1065Y-6.4545
M16
G05
T0
M30
