G04 #@! TF.GenerationSoftware,KiCad,Pcbnew,(5.1.5)-2*
G04 #@! TF.CreationDate,2020-01-06T21:48:33-06:00*
G04 #@! TF.ProjectId,WirelessEStop_Tx,57697265-6c65-4737-9345-53746f705f54,rev?*
G04 #@! TF.SameCoordinates,Original*
G04 #@! TF.FileFunction,Legend,Top*
G04 #@! TF.FilePolarity,Positive*
%FSLAX46Y46*%
G04 Gerber Fmt 4.6, Leading zero omitted, Abs format (unit mm)*
G04 Created by KiCad (PCBNEW (5.1.5)-2) date 2020-01-06 21:48:33*
%MOMM*%
%LPD*%
G04 APERTURE LIST*
%ADD10C,0.250000*%
%ADD11C,0.120000*%
%ADD12C,0.152400*%
%ADD13C,0.100000*%
%ADD14C,0.203200*%
%ADD15C,0.127000*%
%ADD16C,0.050000*%
%ADD17C,0.200000*%
%ADD18C,0.150000*%
G04 APERTURE END LIST*
D10*
X130461261Y-119213380D02*
X130651738Y-119213380D01*
X130746976Y-119261000D01*
X130842214Y-119356238D01*
X130889833Y-119546714D01*
X130889833Y-119880047D01*
X130842214Y-120070523D01*
X130746976Y-120165761D01*
X130651738Y-120213380D01*
X130461261Y-120213380D01*
X130366023Y-120165761D01*
X130270785Y-120070523D01*
X130223166Y-119880047D01*
X130223166Y-119546714D01*
X130270785Y-119356238D01*
X130366023Y-119261000D01*
X130461261Y-119213380D01*
X131318404Y-119546714D02*
X131318404Y-120213380D01*
X131318404Y-119641952D02*
X131366023Y-119594333D01*
X131461261Y-119546714D01*
X131604119Y-119546714D01*
X131699357Y-119594333D01*
X131746976Y-119689571D01*
X131746976Y-120213380D01*
X132937452Y-119165761D02*
X132080309Y-120451476D01*
X133461261Y-119213380D02*
X133651738Y-119213380D01*
X133746976Y-119261000D01*
X133842214Y-119356238D01*
X133889833Y-119546714D01*
X133889833Y-119880047D01*
X133842214Y-120070523D01*
X133746976Y-120165761D01*
X133651738Y-120213380D01*
X133461261Y-120213380D01*
X133366023Y-120165761D01*
X133270785Y-120070523D01*
X133223166Y-119880047D01*
X133223166Y-119546714D01*
X133270785Y-119356238D01*
X133366023Y-119261000D01*
X133461261Y-119213380D01*
X134175547Y-119546714D02*
X134556500Y-119546714D01*
X134318404Y-120213380D02*
X134318404Y-119356238D01*
X134366023Y-119261000D01*
X134461261Y-119213380D01*
X134556500Y-119213380D01*
X134746976Y-119546714D02*
X135127928Y-119546714D01*
X134889833Y-120213380D02*
X134889833Y-119356238D01*
X134937452Y-119261000D01*
X135032690Y-119213380D01*
X135127928Y-119213380D01*
X136223166Y-120213380D02*
X136223166Y-119213380D01*
X136604119Y-119213380D01*
X136699357Y-119261000D01*
X136746976Y-119308619D01*
X136794595Y-119403857D01*
X136794595Y-119546714D01*
X136746976Y-119641952D01*
X136699357Y-119689571D01*
X136604119Y-119737190D01*
X136223166Y-119737190D01*
X137366023Y-120213380D02*
X137270785Y-120165761D01*
X137223166Y-120118142D01*
X137175547Y-120022904D01*
X137175547Y-119737190D01*
X137223166Y-119641952D01*
X137270785Y-119594333D01*
X137366023Y-119546714D01*
X137508880Y-119546714D01*
X137604119Y-119594333D01*
X137651738Y-119641952D01*
X137699357Y-119737190D01*
X137699357Y-120022904D01*
X137651738Y-120118142D01*
X137604119Y-120165761D01*
X137508880Y-120213380D01*
X137366023Y-120213380D01*
X138127928Y-120213380D02*
X138127928Y-119546714D01*
X138127928Y-119737190D02*
X138175547Y-119641952D01*
X138223166Y-119594333D01*
X138318404Y-119546714D01*
X138413642Y-119546714D01*
X138604119Y-119546714D02*
X138985071Y-119546714D01*
X138746976Y-119213380D02*
X138746976Y-120070523D01*
X138794595Y-120165761D01*
X138889833Y-120213380D01*
X138985071Y-120213380D01*
X142367500Y-119562571D02*
X142510357Y-119610190D01*
X142557976Y-119657809D01*
X142605595Y-119753047D01*
X142605595Y-119895904D01*
X142557976Y-119991142D01*
X142510357Y-120038761D01*
X142415119Y-120086380D01*
X142034166Y-120086380D01*
X142034166Y-119086380D01*
X142367500Y-119086380D01*
X142462738Y-119134000D01*
X142510357Y-119181619D01*
X142557976Y-119276857D01*
X142557976Y-119372095D01*
X142510357Y-119467333D01*
X142462738Y-119514952D01*
X142367500Y-119562571D01*
X142034166Y-119562571D01*
X143462738Y-120086380D02*
X143462738Y-119562571D01*
X143415119Y-119467333D01*
X143319880Y-119419714D01*
X143129404Y-119419714D01*
X143034166Y-119467333D01*
X143462738Y-120038761D02*
X143367500Y-120086380D01*
X143129404Y-120086380D01*
X143034166Y-120038761D01*
X142986547Y-119943523D01*
X142986547Y-119848285D01*
X143034166Y-119753047D01*
X143129404Y-119705428D01*
X143367500Y-119705428D01*
X143462738Y-119657809D01*
X143796071Y-119419714D02*
X144177023Y-119419714D01*
X143938928Y-119086380D02*
X143938928Y-119943523D01*
X143986547Y-120038761D01*
X144081785Y-120086380D01*
X144177023Y-120086380D01*
X144367500Y-119419714D02*
X144748452Y-119419714D01*
X144510357Y-119086380D02*
X144510357Y-119943523D01*
X144557976Y-120038761D01*
X144653214Y-120086380D01*
X144748452Y-120086380D01*
X145462738Y-120038761D02*
X145367500Y-120086380D01*
X145177023Y-120086380D01*
X145081785Y-120038761D01*
X145034166Y-119943523D01*
X145034166Y-119562571D01*
X145081785Y-119467333D01*
X145177023Y-119419714D01*
X145367500Y-119419714D01*
X145462738Y-119467333D01*
X145510357Y-119562571D01*
X145510357Y-119657809D01*
X145034166Y-119753047D01*
X145938928Y-120086380D02*
X145938928Y-119419714D01*
X145938928Y-119610190D02*
X145986547Y-119514952D01*
X146034166Y-119467333D01*
X146129404Y-119419714D01*
X146224642Y-119419714D01*
X146462738Y-119419714D02*
X146700833Y-120086380D01*
X146938928Y-119419714D02*
X146700833Y-120086380D01*
X146605595Y-120324476D01*
X146557976Y-120372095D01*
X146462738Y-120419714D01*
X148081785Y-120086380D02*
X148081785Y-119086380D01*
X148462738Y-119086380D01*
X148557976Y-119134000D01*
X148605595Y-119181619D01*
X148653214Y-119276857D01*
X148653214Y-119419714D01*
X148605595Y-119514952D01*
X148557976Y-119562571D01*
X148462738Y-119610190D01*
X148081785Y-119610190D01*
X149224642Y-120086380D02*
X149129404Y-120038761D01*
X149081785Y-119991142D01*
X149034166Y-119895904D01*
X149034166Y-119610190D01*
X149081785Y-119514952D01*
X149129404Y-119467333D01*
X149224642Y-119419714D01*
X149367500Y-119419714D01*
X149462738Y-119467333D01*
X149510357Y-119514952D01*
X149557976Y-119610190D01*
X149557976Y-119895904D01*
X149510357Y-119991142D01*
X149462738Y-120038761D01*
X149367500Y-120086380D01*
X149224642Y-120086380D01*
X149986547Y-120086380D02*
X149986547Y-119419714D01*
X149986547Y-119610190D02*
X150034166Y-119514952D01*
X150081785Y-119467333D01*
X150177023Y-119419714D01*
X150272261Y-119419714D01*
X150462738Y-119419714D02*
X150843690Y-119419714D01*
X150605595Y-119086380D02*
X150605595Y-119943523D01*
X150653214Y-120038761D01*
X150748452Y-120086380D01*
X150843690Y-120086380D01*
X143224642Y-126150666D02*
X143700833Y-126150666D01*
X143129404Y-126436380D02*
X143462738Y-125436380D01*
X143796071Y-126436380D01*
X144129404Y-126436380D02*
X144129404Y-125769714D01*
X144129404Y-125960190D02*
X144177023Y-125864952D01*
X144224642Y-125817333D01*
X144319880Y-125769714D01*
X144415119Y-125769714D01*
X144748452Y-126436380D02*
X144748452Y-125769714D01*
X144748452Y-125864952D02*
X144796071Y-125817333D01*
X144891309Y-125769714D01*
X145034166Y-125769714D01*
X145129404Y-125817333D01*
X145177023Y-125912571D01*
X145177023Y-126436380D01*
X145177023Y-125912571D02*
X145224642Y-125817333D01*
X145319880Y-125769714D01*
X145462738Y-125769714D01*
X145557976Y-125817333D01*
X145605595Y-125912571D01*
X145605595Y-126436380D01*
X146843690Y-126436380D02*
X146843690Y-125436380D01*
X147224642Y-125436380D01*
X147319880Y-125484000D01*
X147367500Y-125531619D01*
X147415119Y-125626857D01*
X147415119Y-125769714D01*
X147367500Y-125864952D01*
X147319880Y-125912571D01*
X147224642Y-125960190D01*
X146843690Y-125960190D01*
X147986547Y-126436380D02*
X147891309Y-126388761D01*
X147843690Y-126341142D01*
X147796071Y-126245904D01*
X147796071Y-125960190D01*
X147843690Y-125864952D01*
X147891309Y-125817333D01*
X147986547Y-125769714D01*
X148129404Y-125769714D01*
X148224642Y-125817333D01*
X148272261Y-125864952D01*
X148319880Y-125960190D01*
X148319880Y-126245904D01*
X148272261Y-126341142D01*
X148224642Y-126388761D01*
X148129404Y-126436380D01*
X147986547Y-126436380D01*
X148748452Y-126436380D02*
X148748452Y-125769714D01*
X148748452Y-125960190D02*
X148796071Y-125864952D01*
X148843690Y-125817333D01*
X148938928Y-125769714D01*
X149034166Y-125769714D01*
X149224642Y-125769714D02*
X149605595Y-125769714D01*
X149367500Y-125436380D02*
X149367500Y-126293523D01*
X149415119Y-126388761D01*
X149510357Y-126436380D01*
X149605595Y-126436380D01*
X142200476Y-136691666D02*
X142676666Y-136691666D01*
X142105238Y-136977380D02*
X142438571Y-135977380D01*
X142771904Y-136977380D01*
X143676666Y-136977380D02*
X143343333Y-136501190D01*
X143105238Y-136977380D02*
X143105238Y-135977380D01*
X143486190Y-135977380D01*
X143581428Y-136025000D01*
X143629047Y-136072619D01*
X143676666Y-136167857D01*
X143676666Y-136310714D01*
X143629047Y-136405952D01*
X143581428Y-136453571D01*
X143486190Y-136501190D01*
X143105238Y-136501190D01*
X144105238Y-136977380D02*
X144105238Y-135977380D01*
X144438571Y-136691666D01*
X144771904Y-135977380D01*
X144771904Y-136977380D01*
X123381571Y-131574380D02*
X123619666Y-132574380D01*
X123810142Y-131860095D01*
X124000619Y-132574380D01*
X124238714Y-131574380D01*
X124619666Y-132574380D02*
X124619666Y-131907714D01*
X124619666Y-131574380D02*
X124572047Y-131622000D01*
X124619666Y-131669619D01*
X124667285Y-131622000D01*
X124619666Y-131574380D01*
X124619666Y-131669619D01*
X125095857Y-132574380D02*
X125095857Y-131907714D01*
X125095857Y-132098190D02*
X125143476Y-132002952D01*
X125191095Y-131955333D01*
X125286333Y-131907714D01*
X125381571Y-131907714D01*
X126095857Y-132526761D02*
X126000619Y-132574380D01*
X125810142Y-132574380D01*
X125714904Y-132526761D01*
X125667285Y-132431523D01*
X125667285Y-132050571D01*
X125714904Y-131955333D01*
X125810142Y-131907714D01*
X126000619Y-131907714D01*
X126095857Y-131955333D01*
X126143476Y-132050571D01*
X126143476Y-132145809D01*
X125667285Y-132241047D01*
X126714904Y-132574380D02*
X126619666Y-132526761D01*
X126572047Y-132431523D01*
X126572047Y-131574380D01*
X127476809Y-132526761D02*
X127381571Y-132574380D01*
X127191095Y-132574380D01*
X127095857Y-132526761D01*
X127048238Y-132431523D01*
X127048238Y-132050571D01*
X127095857Y-131955333D01*
X127191095Y-131907714D01*
X127381571Y-131907714D01*
X127476809Y-131955333D01*
X127524428Y-132050571D01*
X127524428Y-132145809D01*
X127048238Y-132241047D01*
X127905380Y-132526761D02*
X128000619Y-132574380D01*
X128191095Y-132574380D01*
X128286333Y-132526761D01*
X128333952Y-132431523D01*
X128333952Y-132383904D01*
X128286333Y-132288666D01*
X128191095Y-132241047D01*
X128048238Y-132241047D01*
X127953000Y-132193428D01*
X127905380Y-132098190D01*
X127905380Y-132050571D01*
X127953000Y-131955333D01*
X128048238Y-131907714D01*
X128191095Y-131907714D01*
X128286333Y-131955333D01*
X128714904Y-132526761D02*
X128810142Y-132574380D01*
X129000619Y-132574380D01*
X129095857Y-132526761D01*
X129143476Y-132431523D01*
X129143476Y-132383904D01*
X129095857Y-132288666D01*
X129000619Y-132241047D01*
X128857761Y-132241047D01*
X128762523Y-132193428D01*
X128714904Y-132098190D01*
X128714904Y-132050571D01*
X128762523Y-131955333D01*
X128857761Y-131907714D01*
X129000619Y-131907714D01*
X129095857Y-131955333D01*
X130333952Y-132050571D02*
X130667285Y-132050571D01*
X130810142Y-132574380D02*
X130333952Y-132574380D01*
X130333952Y-131574380D01*
X130810142Y-131574380D01*
X131238714Y-132193428D02*
X132000619Y-132193428D01*
X132429190Y-132526761D02*
X132572047Y-132574380D01*
X132810142Y-132574380D01*
X132905380Y-132526761D01*
X132953000Y-132479142D01*
X133000619Y-132383904D01*
X133000619Y-132288666D01*
X132953000Y-132193428D01*
X132905380Y-132145809D01*
X132810142Y-132098190D01*
X132619666Y-132050571D01*
X132524428Y-132002952D01*
X132476809Y-131955333D01*
X132429190Y-131860095D01*
X132429190Y-131764857D01*
X132476809Y-131669619D01*
X132524428Y-131622000D01*
X132619666Y-131574380D01*
X132857761Y-131574380D01*
X133000619Y-131622000D01*
X133286333Y-131907714D02*
X133667285Y-131907714D01*
X133429190Y-131574380D02*
X133429190Y-132431523D01*
X133476809Y-132526761D01*
X133572047Y-132574380D01*
X133667285Y-132574380D01*
X134143476Y-132574380D02*
X134048238Y-132526761D01*
X134000619Y-132479142D01*
X133953000Y-132383904D01*
X133953000Y-132098190D01*
X134000619Y-132002952D01*
X134048238Y-131955333D01*
X134143476Y-131907714D01*
X134286333Y-131907714D01*
X134381571Y-131955333D01*
X134429190Y-132002952D01*
X134476809Y-132098190D01*
X134476809Y-132383904D01*
X134429190Y-132479142D01*
X134381571Y-132526761D01*
X134286333Y-132574380D01*
X134143476Y-132574380D01*
X134905380Y-131907714D02*
X134905380Y-132907714D01*
X134905380Y-131955333D02*
X135000619Y-131907714D01*
X135191095Y-131907714D01*
X135286333Y-131955333D01*
X135333952Y-132002952D01*
X135381571Y-132098190D01*
X135381571Y-132383904D01*
X135333952Y-132479142D01*
X135286333Y-132526761D01*
X135191095Y-132574380D01*
X135000619Y-132574380D01*
X134905380Y-132526761D01*
X137143476Y-132574380D02*
X136810142Y-132098190D01*
X136572047Y-132574380D02*
X136572047Y-131574380D01*
X136953000Y-131574380D01*
X137048238Y-131622000D01*
X137095857Y-131669619D01*
X137143476Y-131764857D01*
X137143476Y-131907714D01*
X137095857Y-132002952D01*
X137048238Y-132050571D01*
X136953000Y-132098190D01*
X136572047Y-132098190D01*
X137953000Y-132526761D02*
X137857761Y-132574380D01*
X137667285Y-132574380D01*
X137572047Y-132526761D01*
X137524428Y-132431523D01*
X137524428Y-132050571D01*
X137572047Y-131955333D01*
X137667285Y-131907714D01*
X137857761Y-131907714D01*
X137953000Y-131955333D01*
X138000619Y-132050571D01*
X138000619Y-132145809D01*
X137524428Y-132241047D01*
X138333952Y-131907714D02*
X138572047Y-132574380D01*
X138810142Y-131907714D01*
X140476809Y-132574380D02*
X139905380Y-132574380D01*
X140191095Y-132574380D02*
X140191095Y-131574380D01*
X140095857Y-131717238D01*
X140000619Y-131812476D01*
X139905380Y-131860095D01*
X122833952Y-134324380D02*
X122833952Y-133324380D01*
X123167285Y-134038666D01*
X123500619Y-133324380D01*
X123500619Y-134324380D01*
X124405380Y-134324380D02*
X124405380Y-133800571D01*
X124357761Y-133705333D01*
X124262523Y-133657714D01*
X124072047Y-133657714D01*
X123976809Y-133705333D01*
X124405380Y-134276761D02*
X124310142Y-134324380D01*
X124072047Y-134324380D01*
X123976809Y-134276761D01*
X123929190Y-134181523D01*
X123929190Y-134086285D01*
X123976809Y-133991047D01*
X124072047Y-133943428D01*
X124310142Y-133943428D01*
X124405380Y-133895809D01*
X124881571Y-134324380D02*
X124881571Y-133657714D01*
X124881571Y-133848190D02*
X124929190Y-133752952D01*
X124976809Y-133705333D01*
X125072047Y-133657714D01*
X125167285Y-133657714D01*
X125452999Y-134276761D02*
X125548238Y-134324380D01*
X125738714Y-134324380D01*
X125833952Y-134276761D01*
X125881571Y-134181523D01*
X125881571Y-134133904D01*
X125833952Y-134038666D01*
X125738714Y-133991047D01*
X125595857Y-133991047D01*
X125500619Y-133943428D01*
X125452999Y-133848190D01*
X125452999Y-133800571D01*
X125500619Y-133705333D01*
X125595857Y-133657714D01*
X125738714Y-133657714D01*
X125833952Y-133705333D01*
X127643476Y-134324380D02*
X127310142Y-133848190D01*
X127072047Y-134324380D02*
X127072047Y-133324380D01*
X127452999Y-133324380D01*
X127548238Y-133372000D01*
X127595857Y-133419619D01*
X127643476Y-133514857D01*
X127643476Y-133657714D01*
X127595857Y-133752952D01*
X127548238Y-133800571D01*
X127452999Y-133848190D01*
X127072047Y-133848190D01*
X128214904Y-134324380D02*
X128119666Y-134276761D01*
X128072047Y-134229142D01*
X128024428Y-134133904D01*
X128024428Y-133848190D01*
X128072047Y-133752952D01*
X128119666Y-133705333D01*
X128214904Y-133657714D01*
X128357761Y-133657714D01*
X128452999Y-133705333D01*
X128500619Y-133752952D01*
X128548238Y-133848190D01*
X128548238Y-134133904D01*
X128500619Y-134229142D01*
X128452999Y-134276761D01*
X128357761Y-134324380D01*
X128214904Y-134324380D01*
X128881571Y-133657714D02*
X129119666Y-134324380D01*
X129357761Y-133657714D01*
X130119666Y-134276761D02*
X130024428Y-134324380D01*
X129833952Y-134324380D01*
X129738714Y-134276761D01*
X129691095Y-134181523D01*
X129691095Y-133800571D01*
X129738714Y-133705333D01*
X129833952Y-133657714D01*
X130024428Y-133657714D01*
X130119666Y-133705333D01*
X130167285Y-133800571D01*
X130167285Y-133895809D01*
X129691095Y-133991047D01*
X130595857Y-134324380D02*
X130595857Y-133657714D01*
X130595857Y-133848190D02*
X130643476Y-133752952D01*
X130691095Y-133705333D01*
X130786333Y-133657714D01*
X130881571Y-133657714D01*
X131976809Y-134324380D02*
X131976809Y-133324380D01*
X132214904Y-133324380D01*
X132357761Y-133372000D01*
X132453000Y-133467238D01*
X132500619Y-133562476D01*
X132548238Y-133752952D01*
X132548238Y-133895809D01*
X132500619Y-134086285D01*
X132453000Y-134181523D01*
X132357761Y-134276761D01*
X132214904Y-134324380D01*
X131976809Y-134324380D01*
X133357761Y-134276761D02*
X133262523Y-134324380D01*
X133072047Y-134324380D01*
X132976809Y-134276761D01*
X132929190Y-134181523D01*
X132929190Y-133800571D01*
X132976809Y-133705333D01*
X133072047Y-133657714D01*
X133262523Y-133657714D01*
X133357761Y-133705333D01*
X133405380Y-133800571D01*
X133405380Y-133895809D01*
X132929190Y-133991047D01*
X133786333Y-134276761D02*
X133881571Y-134324380D01*
X134072047Y-134324380D01*
X134167285Y-134276761D01*
X134214904Y-134181523D01*
X134214904Y-134133904D01*
X134167285Y-134038666D01*
X134072047Y-133991047D01*
X133929190Y-133991047D01*
X133833952Y-133943428D01*
X133786333Y-133848190D01*
X133786333Y-133800571D01*
X133833952Y-133705333D01*
X133929190Y-133657714D01*
X134072047Y-133657714D01*
X134167285Y-133705333D01*
X134643476Y-134324380D02*
X134643476Y-133657714D01*
X134643476Y-133324380D02*
X134595857Y-133372000D01*
X134643476Y-133419619D01*
X134691095Y-133372000D01*
X134643476Y-133324380D01*
X134643476Y-133419619D01*
X135548238Y-133657714D02*
X135548238Y-134467238D01*
X135500619Y-134562476D01*
X135453000Y-134610095D01*
X135357761Y-134657714D01*
X135214904Y-134657714D01*
X135119666Y-134610095D01*
X135548238Y-134276761D02*
X135453000Y-134324380D01*
X135262523Y-134324380D01*
X135167285Y-134276761D01*
X135119666Y-134229142D01*
X135072047Y-134133904D01*
X135072047Y-133848190D01*
X135119666Y-133752952D01*
X135167285Y-133705333D01*
X135262523Y-133657714D01*
X135453000Y-133657714D01*
X135548238Y-133705333D01*
X136024428Y-133657714D02*
X136024428Y-134324380D01*
X136024428Y-133752952D02*
X136072047Y-133705333D01*
X136167285Y-133657714D01*
X136310142Y-133657714D01*
X136405380Y-133705333D01*
X136453000Y-133800571D01*
X136453000Y-134324380D01*
X137548238Y-133324380D02*
X138119666Y-133324380D01*
X137833952Y-134324380D02*
X137833952Y-133324380D01*
X138833952Y-134276761D02*
X138738714Y-134324380D01*
X138548238Y-134324380D01*
X138453000Y-134276761D01*
X138405380Y-134181523D01*
X138405380Y-133800571D01*
X138453000Y-133705333D01*
X138548238Y-133657714D01*
X138738714Y-133657714D01*
X138833952Y-133705333D01*
X138881571Y-133800571D01*
X138881571Y-133895809D01*
X138405380Y-133991047D01*
X139738714Y-134324380D02*
X139738714Y-133800571D01*
X139691095Y-133705333D01*
X139595857Y-133657714D01*
X139405380Y-133657714D01*
X139310142Y-133705333D01*
X139738714Y-134276761D02*
X139643476Y-134324380D01*
X139405380Y-134324380D01*
X139310142Y-134276761D01*
X139262523Y-134181523D01*
X139262523Y-134086285D01*
X139310142Y-133991047D01*
X139405380Y-133943428D01*
X139643476Y-133943428D01*
X139738714Y-133895809D01*
X140214904Y-134324380D02*
X140214904Y-133657714D01*
X140214904Y-133752952D02*
X140262523Y-133705333D01*
X140357761Y-133657714D01*
X140500619Y-133657714D01*
X140595857Y-133705333D01*
X140643476Y-133800571D01*
X140643476Y-134324380D01*
X140643476Y-133800571D02*
X140691095Y-133705333D01*
X140786333Y-133657714D01*
X140929190Y-133657714D01*
X141024428Y-133705333D01*
X141072047Y-133800571D01*
X141072047Y-134324380D01*
X124738714Y-136074380D02*
X124738714Y-135074380D01*
X125072047Y-135788666D01*
X125405380Y-135074380D01*
X125405380Y-136074380D01*
X125881571Y-136074380D02*
X125881571Y-135407714D01*
X125881571Y-135074380D02*
X125833952Y-135122000D01*
X125881571Y-135169619D01*
X125929190Y-135122000D01*
X125881571Y-135074380D01*
X125881571Y-135169619D01*
X126310142Y-136026761D02*
X126405380Y-136074380D01*
X126595857Y-136074380D01*
X126691095Y-136026761D01*
X126738714Y-135931523D01*
X126738714Y-135883904D01*
X126691095Y-135788666D01*
X126595857Y-135741047D01*
X126453000Y-135741047D01*
X126357761Y-135693428D01*
X126310142Y-135598190D01*
X126310142Y-135550571D01*
X126357761Y-135455333D01*
X126453000Y-135407714D01*
X126595857Y-135407714D01*
X126691095Y-135455333D01*
X127119666Y-136026761D02*
X127214904Y-136074380D01*
X127405380Y-136074380D01*
X127500619Y-136026761D01*
X127548238Y-135931523D01*
X127548238Y-135883904D01*
X127500619Y-135788666D01*
X127405380Y-135741047D01*
X127262523Y-135741047D01*
X127167285Y-135693428D01*
X127119666Y-135598190D01*
X127119666Y-135550571D01*
X127167285Y-135455333D01*
X127262523Y-135407714D01*
X127405380Y-135407714D01*
X127500619Y-135455333D01*
X128119666Y-136074380D02*
X128024428Y-136026761D01*
X127976809Y-135979142D01*
X127929190Y-135883904D01*
X127929190Y-135598190D01*
X127976809Y-135502952D01*
X128024428Y-135455333D01*
X128119666Y-135407714D01*
X128262523Y-135407714D01*
X128357761Y-135455333D01*
X128405380Y-135502952D01*
X128453000Y-135598190D01*
X128453000Y-135883904D01*
X128405380Y-135979142D01*
X128357761Y-136026761D01*
X128262523Y-136074380D01*
X128119666Y-136074380D01*
X129310142Y-135407714D02*
X129310142Y-136074380D01*
X128881571Y-135407714D02*
X128881571Y-135931523D01*
X128929190Y-136026761D01*
X129024428Y-136074380D01*
X129167285Y-136074380D01*
X129262523Y-136026761D01*
X129310142Y-135979142D01*
X129786333Y-136074380D02*
X129786333Y-135407714D01*
X129786333Y-135598190D02*
X129833952Y-135502952D01*
X129881571Y-135455333D01*
X129976809Y-135407714D01*
X130072047Y-135407714D01*
X130405380Y-136074380D02*
X130405380Y-135407714D01*
X130405380Y-135074380D02*
X130357761Y-135122000D01*
X130405380Y-135169619D01*
X130453000Y-135122000D01*
X130405380Y-135074380D01*
X130405380Y-135169619D01*
X131595857Y-136026761D02*
X131738714Y-136074380D01*
X131976809Y-136074380D01*
X132072047Y-136026761D01*
X132119666Y-135979142D01*
X132167285Y-135883904D01*
X132167285Y-135788666D01*
X132119666Y-135693428D01*
X132072047Y-135645809D01*
X131976809Y-135598190D01*
X131786333Y-135550571D01*
X131691095Y-135502952D01*
X131643476Y-135455333D01*
X131595857Y-135360095D01*
X131595857Y-135264857D01*
X131643476Y-135169619D01*
X131691095Y-135122000D01*
X131786333Y-135074380D01*
X132024428Y-135074380D01*
X132167285Y-135122000D01*
X133405380Y-136074380D02*
X133357761Y-136074380D01*
X133262523Y-136026761D01*
X133119666Y-135883904D01*
X132881571Y-135598190D01*
X132786333Y-135455333D01*
X132738714Y-135312476D01*
X132738714Y-135217238D01*
X132786333Y-135122000D01*
X132881571Y-135074380D01*
X132929190Y-135074380D01*
X133024428Y-135122000D01*
X133072047Y-135217238D01*
X133072047Y-135264857D01*
X133024428Y-135360095D01*
X132976809Y-135407714D01*
X132691095Y-135598190D01*
X132643476Y-135645809D01*
X132595857Y-135741047D01*
X132595857Y-135883904D01*
X132643476Y-135979142D01*
X132691095Y-136026761D01*
X132786333Y-136074380D01*
X132929190Y-136074380D01*
X133024428Y-136026761D01*
X133072047Y-135979142D01*
X133214904Y-135788666D01*
X133262523Y-135645809D01*
X133262523Y-135550571D01*
X133691095Y-135074380D02*
X134262523Y-135074380D01*
X133976809Y-136074380D02*
X133976809Y-135074380D01*
X134643476Y-136026761D02*
X134643476Y-136074380D01*
X134595857Y-136169619D01*
X134548238Y-136217238D01*
X135786333Y-135169619D02*
X135833952Y-135122000D01*
X135929190Y-135074380D01*
X136167285Y-135074380D01*
X136262523Y-135122000D01*
X136310142Y-135169619D01*
X136357761Y-135264857D01*
X136357761Y-135360095D01*
X136310142Y-135502952D01*
X135738714Y-136074380D01*
X136357761Y-136074380D01*
X136976809Y-135074380D02*
X137072047Y-135074380D01*
X137167285Y-135122000D01*
X137214904Y-135169619D01*
X137262523Y-135264857D01*
X137310142Y-135455333D01*
X137310142Y-135693428D01*
X137262523Y-135883904D01*
X137214904Y-135979142D01*
X137167285Y-136026761D01*
X137072047Y-136074380D01*
X136976809Y-136074380D01*
X136881571Y-136026761D01*
X136833952Y-135979142D01*
X136786333Y-135883904D01*
X136738714Y-135693428D01*
X136738714Y-135455333D01*
X136786333Y-135264857D01*
X136833952Y-135169619D01*
X136881571Y-135122000D01*
X136976809Y-135074380D01*
X137691095Y-135169619D02*
X137738714Y-135122000D01*
X137833952Y-135074380D01*
X138072047Y-135074380D01*
X138167285Y-135122000D01*
X138214904Y-135169619D01*
X138262523Y-135264857D01*
X138262523Y-135360095D01*
X138214904Y-135502952D01*
X137643476Y-136074380D01*
X138262523Y-136074380D01*
X138881571Y-135074380D02*
X138976809Y-135074380D01*
X139072047Y-135122000D01*
X139119666Y-135169619D01*
X139167285Y-135264857D01*
X139214904Y-135455333D01*
X139214904Y-135693428D01*
X139167285Y-135883904D01*
X139119666Y-135979142D01*
X139072047Y-136026761D01*
X138976809Y-136074380D01*
X138881571Y-136074380D01*
X138786333Y-136026761D01*
X138738714Y-135979142D01*
X138691095Y-135883904D01*
X138643476Y-135693428D01*
X138643476Y-135455333D01*
X138691095Y-135264857D01*
X138738714Y-135169619D01*
X138786333Y-135122000D01*
X138881571Y-135074380D01*
X125572047Y-137824380D02*
X125572047Y-136824380D01*
X125810142Y-136824380D01*
X125952999Y-136872000D01*
X126048238Y-136967238D01*
X126095857Y-137062476D01*
X126143476Y-137252952D01*
X126143476Y-137395809D01*
X126095857Y-137586285D01*
X126048238Y-137681523D01*
X125952999Y-137776761D01*
X125810142Y-137824380D01*
X125572047Y-137824380D01*
X127000619Y-137824380D02*
X127000619Y-137300571D01*
X126952999Y-137205333D01*
X126857761Y-137157714D01*
X126667285Y-137157714D01*
X126572047Y-137205333D01*
X127000619Y-137776761D02*
X126905380Y-137824380D01*
X126667285Y-137824380D01*
X126572047Y-137776761D01*
X126524428Y-137681523D01*
X126524428Y-137586285D01*
X126572047Y-137491047D01*
X126667285Y-137443428D01*
X126905380Y-137443428D01*
X127000619Y-137395809D01*
X127476809Y-137157714D02*
X127476809Y-137824380D01*
X127476809Y-137252952D02*
X127524428Y-137205333D01*
X127619666Y-137157714D01*
X127762523Y-137157714D01*
X127857761Y-137205333D01*
X127905380Y-137300571D01*
X127905380Y-137824380D01*
X129143476Y-137824380D02*
X129143476Y-136824380D01*
X129714904Y-137824380D01*
X129714904Y-136824380D01*
X130619666Y-137824380D02*
X130619666Y-137300571D01*
X130572047Y-137205333D01*
X130476809Y-137157714D01*
X130286333Y-137157714D01*
X130191095Y-137205333D01*
X130619666Y-137776761D02*
X130524428Y-137824380D01*
X130286333Y-137824380D01*
X130191095Y-137776761D01*
X130143476Y-137681523D01*
X130143476Y-137586285D01*
X130191095Y-137491047D01*
X130286333Y-137443428D01*
X130524428Y-137443428D01*
X130619666Y-137395809D01*
X131095857Y-137157714D02*
X131095857Y-138157714D01*
X131095857Y-137205333D02*
X131191095Y-137157714D01*
X131381571Y-137157714D01*
X131476809Y-137205333D01*
X131524428Y-137252952D01*
X131572047Y-137348190D01*
X131572047Y-137633904D01*
X131524428Y-137729142D01*
X131476809Y-137776761D01*
X131381571Y-137824380D01*
X131191095Y-137824380D01*
X131095857Y-137776761D01*
X132000619Y-137824380D02*
X132000619Y-137157714D01*
X132000619Y-136824380D02*
X131952999Y-136872000D01*
X132000619Y-136919619D01*
X132048238Y-136872000D01*
X132000619Y-136824380D01*
X132000619Y-136919619D01*
X132857761Y-137776761D02*
X132762523Y-137824380D01*
X132572047Y-137824380D01*
X132476809Y-137776761D01*
X132429190Y-137681523D01*
X132429190Y-137300571D01*
X132476809Y-137205333D01*
X132572047Y-137157714D01*
X132762523Y-137157714D01*
X132857761Y-137205333D01*
X132905380Y-137300571D01*
X132905380Y-137395809D01*
X132429190Y-137491047D01*
X133333952Y-137824380D02*
X133333952Y-137157714D01*
X133333952Y-137348190D02*
X133381571Y-137252952D01*
X133429190Y-137205333D01*
X133524428Y-137157714D01*
X133619666Y-137157714D01*
X133953000Y-137824380D02*
X133953000Y-136824380D01*
X134048238Y-137443428D02*
X134333952Y-137824380D01*
X134333952Y-137157714D02*
X133953000Y-137538666D01*
X134905380Y-137824380D02*
X134810142Y-137776761D01*
X134762523Y-137729142D01*
X134714904Y-137633904D01*
X134714904Y-137348190D01*
X134762523Y-137252952D01*
X134810142Y-137205333D01*
X134905380Y-137157714D01*
X135048238Y-137157714D01*
X135143476Y-137205333D01*
X135191095Y-137252952D01*
X135238714Y-137348190D01*
X135238714Y-137633904D01*
X135191095Y-137729142D01*
X135143476Y-137776761D01*
X135048238Y-137824380D01*
X134905380Y-137824380D01*
X135572047Y-137157714D02*
X135762523Y-137824380D01*
X135953000Y-137348190D01*
X136143476Y-137824380D01*
X136333952Y-137157714D01*
X136667285Y-137776761D02*
X136762523Y-137824380D01*
X136953000Y-137824380D01*
X137048238Y-137776761D01*
X137095857Y-137681523D01*
X137095857Y-137633904D01*
X137048238Y-137538666D01*
X136953000Y-137491047D01*
X136810142Y-137491047D01*
X136714904Y-137443428D01*
X136667285Y-137348190D01*
X136667285Y-137300571D01*
X136714904Y-137205333D01*
X136810142Y-137157714D01*
X136953000Y-137157714D01*
X137048238Y-137205333D01*
X137524428Y-137824380D02*
X137524428Y-136824380D01*
X137619666Y-137443428D02*
X137905380Y-137824380D01*
X137905380Y-137157714D02*
X137524428Y-137538666D01*
X138333952Y-137824380D02*
X138333952Y-137157714D01*
X138333952Y-136824380D02*
X138286333Y-136872000D01*
X138333952Y-136919619D01*
X138381571Y-136872000D01*
X138333952Y-136824380D01*
X138333952Y-136919619D01*
X116959595Y-119086380D02*
X117531023Y-119086380D01*
X117245309Y-120086380D02*
X117245309Y-119086380D01*
X118007214Y-120086380D02*
X117911976Y-120038761D01*
X117864357Y-119991142D01*
X117816738Y-119895904D01*
X117816738Y-119610190D01*
X117864357Y-119514952D01*
X117911976Y-119467333D01*
X118007214Y-119419714D01*
X118150071Y-119419714D01*
X118245309Y-119467333D01*
X118292928Y-119514952D01*
X118340547Y-119610190D01*
X118340547Y-119895904D01*
X118292928Y-119991142D01*
X118245309Y-120038761D01*
X118150071Y-120086380D01*
X118007214Y-120086380D01*
X119197690Y-119419714D02*
X119197690Y-120229238D01*
X119150071Y-120324476D01*
X119102452Y-120372095D01*
X119007214Y-120419714D01*
X118864357Y-120419714D01*
X118769119Y-120372095D01*
X119197690Y-120038761D02*
X119102452Y-120086380D01*
X118911976Y-120086380D01*
X118816738Y-120038761D01*
X118769119Y-119991142D01*
X118721500Y-119895904D01*
X118721500Y-119610190D01*
X118769119Y-119514952D01*
X118816738Y-119467333D01*
X118911976Y-119419714D01*
X119102452Y-119419714D01*
X119197690Y-119467333D01*
X120102452Y-119419714D02*
X120102452Y-120229238D01*
X120054833Y-120324476D01*
X120007214Y-120372095D01*
X119911976Y-120419714D01*
X119769119Y-120419714D01*
X119673880Y-120372095D01*
X120102452Y-120038761D02*
X120007214Y-120086380D01*
X119816738Y-120086380D01*
X119721500Y-120038761D01*
X119673880Y-119991142D01*
X119626261Y-119895904D01*
X119626261Y-119610190D01*
X119673880Y-119514952D01*
X119721500Y-119467333D01*
X119816738Y-119419714D01*
X120007214Y-119419714D01*
X120102452Y-119467333D01*
X120721500Y-120086380D02*
X120626261Y-120038761D01*
X120578642Y-119943523D01*
X120578642Y-119086380D01*
X121483404Y-120038761D02*
X121388166Y-120086380D01*
X121197690Y-120086380D01*
X121102452Y-120038761D01*
X121054833Y-119943523D01*
X121054833Y-119562571D01*
X121102452Y-119467333D01*
X121197690Y-119419714D01*
X121388166Y-119419714D01*
X121483404Y-119467333D01*
X121531023Y-119562571D01*
X121531023Y-119657809D01*
X121054833Y-119753047D01*
X122721500Y-120086380D02*
X122721500Y-119086380D01*
X123102452Y-119086380D01*
X123197690Y-119134000D01*
X123245309Y-119181619D01*
X123292928Y-119276857D01*
X123292928Y-119419714D01*
X123245309Y-119514952D01*
X123197690Y-119562571D01*
X123102452Y-119610190D01*
X122721500Y-119610190D01*
X123864357Y-120086380D02*
X123769119Y-120038761D01*
X123721500Y-119991142D01*
X123673880Y-119895904D01*
X123673880Y-119610190D01*
X123721500Y-119514952D01*
X123769119Y-119467333D01*
X123864357Y-119419714D01*
X124007214Y-119419714D01*
X124102452Y-119467333D01*
X124150071Y-119514952D01*
X124197690Y-119610190D01*
X124197690Y-119895904D01*
X124150071Y-119991142D01*
X124102452Y-120038761D01*
X124007214Y-120086380D01*
X123864357Y-120086380D01*
X124626261Y-120086380D02*
X124626261Y-119419714D01*
X124626261Y-119610190D02*
X124673880Y-119514952D01*
X124721500Y-119467333D01*
X124816738Y-119419714D01*
X124911976Y-119419714D01*
X125102452Y-119419714D02*
X125483404Y-119419714D01*
X125245309Y-119086380D02*
X125245309Y-119943523D01*
X125292928Y-120038761D01*
X125388166Y-120086380D01*
X125483404Y-120086380D01*
X123563285Y-129881380D02*
X124134714Y-129881380D01*
X123849000Y-130881380D02*
X123849000Y-129881380D01*
X125039476Y-130881380D02*
X124706142Y-130405190D01*
X124468047Y-130881380D02*
X124468047Y-129881380D01*
X124849000Y-129881380D01*
X124944238Y-129929000D01*
X124991857Y-129976619D01*
X125039476Y-130071857D01*
X125039476Y-130214714D01*
X124991857Y-130309952D01*
X124944238Y-130357571D01*
X124849000Y-130405190D01*
X124468047Y-130405190D01*
X125991857Y-129929000D02*
X125896619Y-129881380D01*
X125753761Y-129881380D01*
X125610904Y-129929000D01*
X125515666Y-130024238D01*
X125468047Y-130119476D01*
X125420428Y-130309952D01*
X125420428Y-130452809D01*
X125468047Y-130643285D01*
X125515666Y-130738523D01*
X125610904Y-130833761D01*
X125753761Y-130881380D01*
X125849000Y-130881380D01*
X125991857Y-130833761D01*
X126039476Y-130786142D01*
X126039476Y-130452809D01*
X125849000Y-130452809D01*
X127039476Y-130881380D02*
X126706142Y-130405190D01*
X126468047Y-130881380D02*
X126468047Y-129881380D01*
X126849000Y-129881380D01*
X126944238Y-129929000D01*
X126991857Y-129976619D01*
X127039476Y-130071857D01*
X127039476Y-130214714D01*
X126991857Y-130309952D01*
X126944238Y-130357571D01*
X126849000Y-130405190D01*
X126468047Y-130405190D01*
X102973738Y-119086380D02*
X103545166Y-119086380D01*
X103259452Y-120086380D02*
X103259452Y-119086380D01*
X103878500Y-120086380D02*
X103878500Y-119419714D01*
X103878500Y-119610190D02*
X103926119Y-119514952D01*
X103973738Y-119467333D01*
X104068976Y-119419714D01*
X104164214Y-119419714D01*
X104497547Y-120086380D02*
X104497547Y-119419714D01*
X104497547Y-119086380D02*
X104449928Y-119134000D01*
X104497547Y-119181619D01*
X104545166Y-119134000D01*
X104497547Y-119086380D01*
X104497547Y-119181619D01*
X105402309Y-119419714D02*
X105402309Y-120229238D01*
X105354690Y-120324476D01*
X105307071Y-120372095D01*
X105211833Y-120419714D01*
X105068976Y-120419714D01*
X104973738Y-120372095D01*
X105402309Y-120038761D02*
X105307071Y-120086380D01*
X105116595Y-120086380D01*
X105021357Y-120038761D01*
X104973738Y-119991142D01*
X104926119Y-119895904D01*
X104926119Y-119610190D01*
X104973738Y-119514952D01*
X105021357Y-119467333D01*
X105116595Y-119419714D01*
X105307071Y-119419714D01*
X105402309Y-119467333D01*
X106307071Y-119419714D02*
X106307071Y-120229238D01*
X106259452Y-120324476D01*
X106211833Y-120372095D01*
X106116595Y-120419714D01*
X105973738Y-120419714D01*
X105878500Y-120372095D01*
X106307071Y-120038761D02*
X106211833Y-120086380D01*
X106021357Y-120086380D01*
X105926119Y-120038761D01*
X105878500Y-119991142D01*
X105830880Y-119895904D01*
X105830880Y-119610190D01*
X105878500Y-119514952D01*
X105926119Y-119467333D01*
X106021357Y-119419714D01*
X106211833Y-119419714D01*
X106307071Y-119467333D01*
X107164214Y-120038761D02*
X107068976Y-120086380D01*
X106878500Y-120086380D01*
X106783261Y-120038761D01*
X106735642Y-119943523D01*
X106735642Y-119562571D01*
X106783261Y-119467333D01*
X106878500Y-119419714D01*
X107068976Y-119419714D01*
X107164214Y-119467333D01*
X107211833Y-119562571D01*
X107211833Y-119657809D01*
X106735642Y-119753047D01*
X107640404Y-120086380D02*
X107640404Y-119419714D01*
X107640404Y-119610190D02*
X107688023Y-119514952D01*
X107735642Y-119467333D01*
X107830880Y-119419714D01*
X107926119Y-119419714D01*
X109021357Y-120086380D02*
X109021357Y-119086380D01*
X109402309Y-119086380D01*
X109497547Y-119134000D01*
X109545166Y-119181619D01*
X109592785Y-119276857D01*
X109592785Y-119419714D01*
X109545166Y-119514952D01*
X109497547Y-119562571D01*
X109402309Y-119610190D01*
X109021357Y-119610190D01*
X110164214Y-120086380D02*
X110068976Y-120038761D01*
X110021357Y-119991142D01*
X109973738Y-119895904D01*
X109973738Y-119610190D01*
X110021357Y-119514952D01*
X110068976Y-119467333D01*
X110164214Y-119419714D01*
X110307071Y-119419714D01*
X110402309Y-119467333D01*
X110449928Y-119514952D01*
X110497547Y-119610190D01*
X110497547Y-119895904D01*
X110449928Y-119991142D01*
X110402309Y-120038761D01*
X110307071Y-120086380D01*
X110164214Y-120086380D01*
X110926119Y-120086380D02*
X110926119Y-119419714D01*
X110926119Y-119610190D02*
X110973738Y-119514952D01*
X111021357Y-119467333D01*
X111116595Y-119419714D01*
X111211833Y-119419714D01*
X111402309Y-119419714D02*
X111783261Y-119419714D01*
X111545166Y-119086380D02*
X111545166Y-119943523D01*
X111592785Y-120038761D01*
X111688023Y-120086380D01*
X111783261Y-120086380D01*
X103680095Y-126690380D02*
X103680095Y-125690380D01*
X104013428Y-126404666D01*
X104346761Y-125690380D01*
X104346761Y-126690380D01*
X104965809Y-126690380D02*
X104870571Y-126642761D01*
X104822952Y-126595142D01*
X104775333Y-126499904D01*
X104775333Y-126214190D01*
X104822952Y-126118952D01*
X104870571Y-126071333D01*
X104965809Y-126023714D01*
X105108666Y-126023714D01*
X105203904Y-126071333D01*
X105251523Y-126118952D01*
X105299142Y-126214190D01*
X105299142Y-126499904D01*
X105251523Y-126595142D01*
X105203904Y-126642761D01*
X105108666Y-126690380D01*
X104965809Y-126690380D01*
X105584857Y-126023714D02*
X105965809Y-126023714D01*
X105727714Y-125690380D02*
X105727714Y-126547523D01*
X105775333Y-126642761D01*
X105870571Y-126690380D01*
X105965809Y-126690380D01*
X106442000Y-126690380D02*
X106346761Y-126642761D01*
X106299142Y-126595142D01*
X106251523Y-126499904D01*
X106251523Y-126214190D01*
X106299142Y-126118952D01*
X106346761Y-126071333D01*
X106442000Y-126023714D01*
X106584857Y-126023714D01*
X106680095Y-126071333D01*
X106727714Y-126118952D01*
X106775333Y-126214190D01*
X106775333Y-126499904D01*
X106727714Y-126595142D01*
X106680095Y-126642761D01*
X106584857Y-126690380D01*
X106442000Y-126690380D01*
X107203904Y-126690380D02*
X107203904Y-126023714D01*
X107203904Y-126214190D02*
X107251523Y-126118952D01*
X107299142Y-126071333D01*
X107394380Y-126023714D01*
X107489619Y-126023714D01*
X108584857Y-126690380D02*
X108584857Y-125690380D01*
X108965809Y-125690380D01*
X109061047Y-125738000D01*
X109108666Y-125785619D01*
X109156285Y-125880857D01*
X109156285Y-126023714D01*
X109108666Y-126118952D01*
X109061047Y-126166571D01*
X108965809Y-126214190D01*
X108584857Y-126214190D01*
X109727714Y-126690380D02*
X109632476Y-126642761D01*
X109584857Y-126595142D01*
X109537238Y-126499904D01*
X109537238Y-126214190D01*
X109584857Y-126118952D01*
X109632476Y-126071333D01*
X109727714Y-126023714D01*
X109870571Y-126023714D01*
X109965809Y-126071333D01*
X110013428Y-126118952D01*
X110061047Y-126214190D01*
X110061047Y-126499904D01*
X110013428Y-126595142D01*
X109965809Y-126642761D01*
X109870571Y-126690380D01*
X109727714Y-126690380D01*
X110489619Y-126690380D02*
X110489619Y-126023714D01*
X110489619Y-126214190D02*
X110537238Y-126118952D01*
X110584857Y-126071333D01*
X110680095Y-126023714D01*
X110775333Y-126023714D01*
X110965809Y-126023714D02*
X111346761Y-126023714D01*
X111108666Y-125690380D02*
X111108666Y-126547523D01*
X111156285Y-126642761D01*
X111251523Y-126690380D01*
X111346761Y-126690380D01*
X145946833Y-143708380D02*
X145613500Y-143232190D01*
X145375404Y-143708380D02*
X145375404Y-142708380D01*
X145756357Y-142708380D01*
X145851595Y-142756000D01*
X145899214Y-142803619D01*
X145946833Y-142898857D01*
X145946833Y-143041714D01*
X145899214Y-143136952D01*
X145851595Y-143184571D01*
X145756357Y-143232190D01*
X145375404Y-143232190D01*
X146280166Y-142708380D02*
X146946833Y-143708380D01*
X146946833Y-142708380D02*
X146280166Y-143708380D01*
X145415095Y-138898380D02*
X145986523Y-138898380D01*
X145700809Y-139898380D02*
X145700809Y-138898380D01*
X146224619Y-138898380D02*
X146891285Y-139898380D01*
X146891285Y-138898380D02*
X146224619Y-139898380D01*
X143089690Y-147280261D02*
X143232547Y-147327880D01*
X143470642Y-147327880D01*
X143565880Y-147280261D01*
X143613500Y-147232642D01*
X143661119Y-147137404D01*
X143661119Y-147042166D01*
X143613500Y-146946928D01*
X143565880Y-146899309D01*
X143470642Y-146851690D01*
X143280166Y-146804071D01*
X143184928Y-146756452D01*
X143137309Y-146708833D01*
X143089690Y-146613595D01*
X143089690Y-146518357D01*
X143137309Y-146423119D01*
X143184928Y-146375500D01*
X143280166Y-146327880D01*
X143518261Y-146327880D01*
X143661119Y-146375500D01*
X144232547Y-147327880D02*
X144137309Y-147280261D01*
X144089690Y-147232642D01*
X144042071Y-147137404D01*
X144042071Y-146851690D01*
X144089690Y-146756452D01*
X144137309Y-146708833D01*
X144232547Y-146661214D01*
X144375404Y-146661214D01*
X144470642Y-146708833D01*
X144518261Y-146756452D01*
X144565880Y-146851690D01*
X144565880Y-147137404D01*
X144518261Y-147232642D01*
X144470642Y-147280261D01*
X144375404Y-147327880D01*
X144232547Y-147327880D01*
X144851595Y-146661214D02*
X145232547Y-146661214D01*
X144994452Y-147327880D02*
X144994452Y-146470738D01*
X145042071Y-146375500D01*
X145137309Y-146327880D01*
X145232547Y-146327880D01*
X145423023Y-146661214D02*
X145803976Y-146661214D01*
X145565880Y-146327880D02*
X145565880Y-147185023D01*
X145613500Y-147280261D01*
X145708738Y-147327880D01*
X145803976Y-147327880D01*
X146042071Y-146661214D02*
X146232547Y-147327880D01*
X146423023Y-146851690D01*
X146613500Y-147327880D01*
X146803976Y-146661214D01*
X147613500Y-147327880D02*
X147613500Y-146804071D01*
X147565880Y-146708833D01*
X147470642Y-146661214D01*
X147280166Y-146661214D01*
X147184928Y-146708833D01*
X147613500Y-147280261D02*
X147518261Y-147327880D01*
X147280166Y-147327880D01*
X147184928Y-147280261D01*
X147137309Y-147185023D01*
X147137309Y-147089785D01*
X147184928Y-146994547D01*
X147280166Y-146946928D01*
X147518261Y-146946928D01*
X147613500Y-146899309D01*
X148089690Y-147327880D02*
X148089690Y-146661214D01*
X148089690Y-146851690D02*
X148137309Y-146756452D01*
X148184928Y-146708833D01*
X148280166Y-146661214D01*
X148375404Y-146661214D01*
X149089690Y-147280261D02*
X148994452Y-147327880D01*
X148803976Y-147327880D01*
X148708738Y-147280261D01*
X148661119Y-147185023D01*
X148661119Y-146804071D01*
X148708738Y-146708833D01*
X148803976Y-146661214D01*
X148994452Y-146661214D01*
X149089690Y-146708833D01*
X149137309Y-146804071D01*
X149137309Y-146899309D01*
X148661119Y-146994547D01*
X107989809Y-133040380D02*
X107989809Y-132040380D01*
X108418380Y-132135619D02*
X108466000Y-132088000D01*
X108561238Y-132040380D01*
X108799333Y-132040380D01*
X108894571Y-132088000D01*
X108942190Y-132135619D01*
X108989809Y-132230857D01*
X108989809Y-132326095D01*
X108942190Y-132468952D01*
X108370761Y-133040380D01*
X108989809Y-133040380D01*
X109989809Y-132945142D02*
X109942190Y-132992761D01*
X109799333Y-133040380D01*
X109704095Y-133040380D01*
X109561238Y-132992761D01*
X109466000Y-132897523D01*
X109418380Y-132802285D01*
X109370761Y-132611809D01*
X109370761Y-132468952D01*
X109418380Y-132278476D01*
X109466000Y-132183238D01*
X109561238Y-132088000D01*
X109704095Y-132040380D01*
X109799333Y-132040380D01*
X109942190Y-132088000D01*
X109989809Y-132135619D01*
X143572219Y-151074380D02*
X143096028Y-151074380D01*
X143096028Y-150074380D01*
X143810314Y-150074380D02*
X144048409Y-151074380D01*
X144238885Y-150360095D01*
X144429361Y-151074380D01*
X144667457Y-150074380D01*
X146143647Y-150550571D02*
X146286504Y-150598190D01*
X146334123Y-150645809D01*
X146381742Y-150741047D01*
X146381742Y-150883904D01*
X146334123Y-150979142D01*
X146286504Y-151026761D01*
X146191266Y-151074380D01*
X145810314Y-151074380D01*
X145810314Y-150074380D01*
X146143647Y-150074380D01*
X146238885Y-150122000D01*
X146286504Y-150169619D01*
X146334123Y-150264857D01*
X146334123Y-150360095D01*
X146286504Y-150455333D01*
X146238885Y-150502952D01*
X146143647Y-150550571D01*
X145810314Y-150550571D01*
X146667457Y-150074380D02*
X147238885Y-150074380D01*
X146953171Y-151074380D02*
X146953171Y-150074380D01*
X148143647Y-151074380D02*
X147810314Y-150598190D01*
X147572219Y-151074380D02*
X147572219Y-150074380D01*
X147953171Y-150074380D01*
X148048409Y-150122000D01*
X148096028Y-150169619D01*
X148143647Y-150264857D01*
X148143647Y-150407714D01*
X148096028Y-150502952D01*
X148048409Y-150550571D01*
X147953171Y-150598190D01*
X147572219Y-150598190D01*
X148762695Y-150598190D02*
X148762695Y-151074380D01*
X148429361Y-150074380D02*
X148762695Y-150598190D01*
X149096028Y-150074380D01*
X115982880Y-149709142D02*
X115935261Y-149756761D01*
X115792404Y-149804380D01*
X115697166Y-149804380D01*
X115554309Y-149756761D01*
X115459071Y-149661523D01*
X115411452Y-149566285D01*
X115363833Y-149375809D01*
X115363833Y-149232952D01*
X115411452Y-149042476D01*
X115459071Y-148947238D01*
X115554309Y-148852000D01*
X115697166Y-148804380D01*
X115792404Y-148804380D01*
X115935261Y-148852000D01*
X115982880Y-148899619D01*
X116554309Y-149804380D02*
X116459071Y-149756761D01*
X116411452Y-149709142D01*
X116363833Y-149613904D01*
X116363833Y-149328190D01*
X116411452Y-149232952D01*
X116459071Y-149185333D01*
X116554309Y-149137714D01*
X116697166Y-149137714D01*
X116792404Y-149185333D01*
X116840023Y-149232952D01*
X116887642Y-149328190D01*
X116887642Y-149613904D01*
X116840023Y-149709142D01*
X116792404Y-149756761D01*
X116697166Y-149804380D01*
X116554309Y-149804380D01*
X117316214Y-149137714D02*
X117316214Y-149804380D01*
X117316214Y-149232952D02*
X117363833Y-149185333D01*
X117459071Y-149137714D01*
X117601928Y-149137714D01*
X117697166Y-149185333D01*
X117744785Y-149280571D01*
X117744785Y-149804380D01*
X118220976Y-149137714D02*
X118220976Y-149804380D01*
X118220976Y-149232952D02*
X118268595Y-149185333D01*
X118363833Y-149137714D01*
X118506690Y-149137714D01*
X118601928Y-149185333D01*
X118649547Y-149280571D01*
X118649547Y-149804380D01*
X102751166Y-133040380D02*
X102751166Y-132040380D01*
X103084500Y-132754666D01*
X103417833Y-132040380D01*
X103417833Y-133040380D01*
X104036880Y-133040380D02*
X103941642Y-132992761D01*
X103894023Y-132945142D01*
X103846404Y-132849904D01*
X103846404Y-132564190D01*
X103894023Y-132468952D01*
X103941642Y-132421333D01*
X104036880Y-132373714D01*
X104179738Y-132373714D01*
X104274976Y-132421333D01*
X104322595Y-132468952D01*
X104370214Y-132564190D01*
X104370214Y-132849904D01*
X104322595Y-132945142D01*
X104274976Y-132992761D01*
X104179738Y-133040380D01*
X104036880Y-133040380D01*
X104655928Y-132373714D02*
X105036880Y-132373714D01*
X104798785Y-132040380D02*
X104798785Y-132897523D01*
X104846404Y-132992761D01*
X104941642Y-133040380D01*
X105036880Y-133040380D01*
X105513071Y-133040380D02*
X105417833Y-132992761D01*
X105370214Y-132945142D01*
X105322595Y-132849904D01*
X105322595Y-132564190D01*
X105370214Y-132468952D01*
X105417833Y-132421333D01*
X105513071Y-132373714D01*
X105655928Y-132373714D01*
X105751166Y-132421333D01*
X105798785Y-132468952D01*
X105846404Y-132564190D01*
X105846404Y-132849904D01*
X105798785Y-132945142D01*
X105751166Y-132992761D01*
X105655928Y-133040380D01*
X105513071Y-133040380D01*
X106274976Y-133040380D02*
X106274976Y-132373714D01*
X106274976Y-132564190D02*
X106322595Y-132468952D01*
X106370214Y-132421333D01*
X106465452Y-132373714D01*
X106560690Y-132373714D01*
X137739666Y-141358880D02*
X137739666Y-140358880D01*
X138073000Y-141073166D01*
X138406333Y-140358880D01*
X138406333Y-141358880D01*
X138882523Y-141358880D02*
X138882523Y-140358880D01*
X139215857Y-141073166D01*
X139549190Y-140358880D01*
X139549190Y-141358880D01*
X140596809Y-141358880D02*
X140263476Y-140882690D01*
X140025380Y-141358880D02*
X140025380Y-140358880D01*
X140406333Y-140358880D01*
X140501571Y-140406500D01*
X140549190Y-140454119D01*
X140596809Y-140549357D01*
X140596809Y-140692214D01*
X140549190Y-140787452D01*
X140501571Y-140835071D01*
X140406333Y-140882690D01*
X140025380Y-140882690D01*
X141215857Y-140882690D02*
X141215857Y-141358880D01*
X140882523Y-140358880D02*
X141215857Y-140882690D01*
X141549190Y-140358880D01*
X103771142Y-151022857D02*
X103271142Y-151022857D01*
X103271142Y-151808571D02*
X103271142Y-150308571D01*
X103985428Y-150308571D01*
X105271142Y-151808571D02*
X104556857Y-151808571D01*
X104556857Y-150308571D01*
X105699714Y-151737142D02*
X105914000Y-151808571D01*
X106271142Y-151808571D01*
X106414000Y-151737142D01*
X106485428Y-151665714D01*
X106556857Y-151522857D01*
X106556857Y-151380000D01*
X106485428Y-151237142D01*
X106414000Y-151165714D01*
X106271142Y-151094285D01*
X105985428Y-151022857D01*
X105842571Y-150951428D01*
X105771142Y-150880000D01*
X105699714Y-150737142D01*
X105699714Y-150594285D01*
X105771142Y-150451428D01*
X105842571Y-150380000D01*
X105985428Y-150308571D01*
X106342571Y-150308571D01*
X106556857Y-150380000D01*
X107199714Y-151808571D02*
X107199714Y-150308571D01*
X107199714Y-151022857D02*
X108056857Y-151022857D01*
X108056857Y-151808571D02*
X108056857Y-150308571D01*
X111700571Y-151808571D02*
X111200571Y-151094285D01*
X110843428Y-151808571D02*
X110843428Y-150308571D01*
X111414857Y-150308571D01*
X111557714Y-150380000D01*
X111629142Y-150451428D01*
X111700571Y-150594285D01*
X111700571Y-150808571D01*
X111629142Y-150951428D01*
X111557714Y-151022857D01*
X111414857Y-151094285D01*
X110843428Y-151094285D01*
X112272000Y-151737142D02*
X112486285Y-151808571D01*
X112843428Y-151808571D01*
X112986285Y-151737142D01*
X113057714Y-151665714D01*
X113129142Y-151522857D01*
X113129142Y-151380000D01*
X113057714Y-151237142D01*
X112986285Y-151165714D01*
X112843428Y-151094285D01*
X112557714Y-151022857D01*
X112414857Y-150951428D01*
X112343428Y-150880000D01*
X112272000Y-150737142D01*
X112272000Y-150594285D01*
X112343428Y-150451428D01*
X112414857Y-150380000D01*
X112557714Y-150308571D01*
X112914857Y-150308571D01*
X113129142Y-150380000D01*
X113557714Y-150308571D02*
X114414857Y-150308571D01*
X113986285Y-151808571D02*
X113986285Y-150308571D01*
X115649571Y-160599428D02*
X116411476Y-160599428D01*
X116030523Y-160980380D02*
X116030523Y-160218476D01*
X116792428Y-159980380D02*
X117411476Y-159980380D01*
X117078142Y-160361333D01*
X117221000Y-160361333D01*
X117316238Y-160408952D01*
X117363857Y-160456571D01*
X117411476Y-160551809D01*
X117411476Y-160789904D01*
X117363857Y-160885142D01*
X117316238Y-160932761D01*
X117221000Y-160980380D01*
X116935285Y-160980380D01*
X116840047Y-160932761D01*
X116792428Y-160885142D01*
X117840047Y-160885142D02*
X117887666Y-160932761D01*
X117840047Y-160980380D01*
X117792428Y-160932761D01*
X117840047Y-160885142D01*
X117840047Y-160980380D01*
X118221000Y-159980380D02*
X118840047Y-159980380D01*
X118506714Y-160361333D01*
X118649571Y-160361333D01*
X118744809Y-160408952D01*
X118792428Y-160456571D01*
X118840047Y-160551809D01*
X118840047Y-160789904D01*
X118792428Y-160885142D01*
X118744809Y-160932761D01*
X118649571Y-160980380D01*
X118363857Y-160980380D01*
X118268619Y-160932761D01*
X118221000Y-160885142D01*
X120427857Y-160599428D02*
X121189761Y-160599428D01*
X120808809Y-160980380D02*
X120808809Y-160218476D01*
X122142142Y-159980380D02*
X121665952Y-159980380D01*
X121618333Y-160456571D01*
X121665952Y-160408952D01*
X121761190Y-160361333D01*
X121999285Y-160361333D01*
X122094523Y-160408952D01*
X122142142Y-160456571D01*
X122189761Y-160551809D01*
X122189761Y-160789904D01*
X122142142Y-160885142D01*
X122094523Y-160932761D01*
X121999285Y-160980380D01*
X121761190Y-160980380D01*
X121665952Y-160932761D01*
X121618333Y-160885142D01*
X143875404Y-154471642D02*
X143827785Y-154519261D01*
X143684928Y-154566880D01*
X143589690Y-154566880D01*
X143446833Y-154519261D01*
X143351595Y-154424023D01*
X143303976Y-154328785D01*
X143256357Y-154138309D01*
X143256357Y-153995452D01*
X143303976Y-153804976D01*
X143351595Y-153709738D01*
X143446833Y-153614500D01*
X143589690Y-153566880D01*
X143684928Y-153566880D01*
X143827785Y-153614500D01*
X143875404Y-153662119D01*
X144303976Y-154566880D02*
X144303976Y-153566880D01*
X144732547Y-154566880D02*
X144732547Y-154043071D01*
X144684928Y-153947833D01*
X144589690Y-153900214D01*
X144446833Y-153900214D01*
X144351595Y-153947833D01*
X144303976Y-153995452D01*
X145637309Y-154566880D02*
X145637309Y-154043071D01*
X145589690Y-153947833D01*
X145494452Y-153900214D01*
X145303976Y-153900214D01*
X145208738Y-153947833D01*
X145637309Y-154519261D02*
X145542071Y-154566880D01*
X145303976Y-154566880D01*
X145208738Y-154519261D01*
X145161119Y-154424023D01*
X145161119Y-154328785D01*
X145208738Y-154233547D01*
X145303976Y-154185928D01*
X145542071Y-154185928D01*
X145637309Y-154138309D01*
X146113500Y-154566880D02*
X146113500Y-153900214D01*
X146113500Y-154090690D02*
X146161119Y-153995452D01*
X146208738Y-153947833D01*
X146303976Y-153900214D01*
X146399214Y-153900214D01*
X147161119Y-153900214D02*
X147161119Y-154709738D01*
X147113500Y-154804976D01*
X147065880Y-154852595D01*
X146970642Y-154900214D01*
X146827785Y-154900214D01*
X146732547Y-154852595D01*
X147161119Y-154519261D02*
X147065880Y-154566880D01*
X146875404Y-154566880D01*
X146780166Y-154519261D01*
X146732547Y-154471642D01*
X146684928Y-154376404D01*
X146684928Y-154090690D01*
X146732547Y-153995452D01*
X146780166Y-153947833D01*
X146875404Y-153900214D01*
X147065880Y-153900214D01*
X147161119Y-153947833D01*
X148018261Y-154519261D02*
X147923023Y-154566880D01*
X147732547Y-154566880D01*
X147637309Y-154519261D01*
X147589690Y-154424023D01*
X147589690Y-154043071D01*
X147637309Y-153947833D01*
X147732547Y-153900214D01*
X147923023Y-153900214D01*
X148018261Y-153947833D01*
X148065880Y-154043071D01*
X148065880Y-154138309D01*
X147589690Y-154233547D01*
X148923023Y-154566880D02*
X148923023Y-153566880D01*
X148923023Y-154519261D02*
X148827785Y-154566880D01*
X148637309Y-154566880D01*
X148542071Y-154519261D01*
X148494452Y-154471642D01*
X148446833Y-154376404D01*
X148446833Y-154090690D01*
X148494452Y-153995452D01*
X148542071Y-153947833D01*
X148637309Y-153900214D01*
X148827785Y-153900214D01*
X148923023Y-153947833D01*
X143613500Y-158027642D02*
X143565880Y-158075261D01*
X143423023Y-158122880D01*
X143327785Y-158122880D01*
X143184928Y-158075261D01*
X143089690Y-157980023D01*
X143042071Y-157884785D01*
X142994452Y-157694309D01*
X142994452Y-157551452D01*
X143042071Y-157360976D01*
X143089690Y-157265738D01*
X143184928Y-157170500D01*
X143327785Y-157122880D01*
X143423023Y-157122880D01*
X143565880Y-157170500D01*
X143613500Y-157218119D01*
X144042071Y-158122880D02*
X144042071Y-157122880D01*
X144470642Y-158122880D02*
X144470642Y-157599071D01*
X144423023Y-157503833D01*
X144327785Y-157456214D01*
X144184928Y-157456214D01*
X144089690Y-157503833D01*
X144042071Y-157551452D01*
X145375404Y-158122880D02*
X145375404Y-157599071D01*
X145327785Y-157503833D01*
X145232547Y-157456214D01*
X145042071Y-157456214D01*
X144946833Y-157503833D01*
X145375404Y-158075261D02*
X145280166Y-158122880D01*
X145042071Y-158122880D01*
X144946833Y-158075261D01*
X144899214Y-157980023D01*
X144899214Y-157884785D01*
X144946833Y-157789547D01*
X145042071Y-157741928D01*
X145280166Y-157741928D01*
X145375404Y-157694309D01*
X145851595Y-158122880D02*
X145851595Y-157456214D01*
X145851595Y-157646690D02*
X145899214Y-157551452D01*
X145946833Y-157503833D01*
X146042071Y-157456214D01*
X146137309Y-157456214D01*
X146899214Y-157456214D02*
X146899214Y-158265738D01*
X146851595Y-158360976D01*
X146803976Y-158408595D01*
X146708738Y-158456214D01*
X146565880Y-158456214D01*
X146470642Y-158408595D01*
X146899214Y-158075261D02*
X146803976Y-158122880D01*
X146613500Y-158122880D01*
X146518261Y-158075261D01*
X146470642Y-158027642D01*
X146423023Y-157932404D01*
X146423023Y-157646690D01*
X146470642Y-157551452D01*
X146518261Y-157503833D01*
X146613500Y-157456214D01*
X146803976Y-157456214D01*
X146899214Y-157503833D01*
X147375404Y-158122880D02*
X147375404Y-157456214D01*
X147375404Y-157122880D02*
X147327785Y-157170500D01*
X147375404Y-157218119D01*
X147423023Y-157170500D01*
X147375404Y-157122880D01*
X147375404Y-157218119D01*
X147851595Y-157456214D02*
X147851595Y-158122880D01*
X147851595Y-157551452D02*
X147899214Y-157503833D01*
X147994452Y-157456214D01*
X148137309Y-157456214D01*
X148232547Y-157503833D01*
X148280166Y-157599071D01*
X148280166Y-158122880D01*
X149184928Y-157456214D02*
X149184928Y-158265738D01*
X149137309Y-158360976D01*
X149089690Y-158408595D01*
X148994452Y-158456214D01*
X148851595Y-158456214D01*
X148756357Y-158408595D01*
X149184928Y-158075261D02*
X149089690Y-158122880D01*
X148899214Y-158122880D01*
X148803976Y-158075261D01*
X148756357Y-158027642D01*
X148708738Y-157932404D01*
X148708738Y-157646690D01*
X148756357Y-157551452D01*
X148803976Y-157503833D01*
X148899214Y-157456214D01*
X149089690Y-157456214D01*
X149184928Y-157503833D01*
D11*
X130740000Y-120718000D02*
X130740000Y-124738000D01*
X130740000Y-124738000D02*
X138460000Y-124738000D01*
X138460000Y-124738000D02*
X138460000Y-120718000D01*
X138460000Y-120718000D02*
X130740000Y-120718000D01*
X130740000Y-122428000D02*
X131240000Y-122428000D01*
X131240000Y-122428000D02*
X131240000Y-121218000D01*
X131240000Y-121218000D02*
X137960000Y-121218000D01*
X137960000Y-121218000D02*
X137960000Y-122428000D01*
X137960000Y-122428000D02*
X138460000Y-122428000D01*
X130740000Y-123238000D02*
X131740000Y-123238000D01*
X131740000Y-123238000D02*
X131740000Y-124738000D01*
X138460000Y-123238000D02*
X137460000Y-123238000D01*
X137460000Y-123238000D02*
X137460000Y-124738000D01*
X130440000Y-122538000D02*
X130440000Y-125038000D01*
X130440000Y-125038000D02*
X132940000Y-125038000D01*
X103389000Y-125101500D02*
X105889000Y-125101500D01*
X103389000Y-122601500D02*
X103389000Y-125101500D01*
X110409000Y-123301500D02*
X110409000Y-124801500D01*
X111409000Y-123301500D02*
X110409000Y-123301500D01*
X104689000Y-123301500D02*
X104689000Y-124801500D01*
X103689000Y-123301500D02*
X104689000Y-123301500D01*
X110909000Y-122491500D02*
X111409000Y-122491500D01*
X110909000Y-121281500D02*
X110909000Y-122491500D01*
X104189000Y-121281500D02*
X110909000Y-121281500D01*
X104189000Y-122491500D02*
X104189000Y-121281500D01*
X103689000Y-122491500D02*
X104189000Y-122491500D01*
X111409000Y-120781500D02*
X103689000Y-120781500D01*
X111409000Y-124801500D02*
X111409000Y-120781500D01*
X103689000Y-124801500D02*
X111409000Y-124801500D01*
X103689000Y-120781500D02*
X103689000Y-124801500D01*
X142251000Y-131388000D02*
X144751000Y-131388000D01*
X142251000Y-128888000D02*
X142251000Y-131388000D01*
X149271000Y-129588000D02*
X149271000Y-131088000D01*
X150271000Y-129588000D02*
X149271000Y-129588000D01*
X143551000Y-129588000D02*
X143551000Y-131088000D01*
X142551000Y-129588000D02*
X143551000Y-129588000D01*
X149771000Y-128778000D02*
X150271000Y-128778000D01*
X149771000Y-127568000D02*
X149771000Y-128778000D01*
X143051000Y-127568000D02*
X149771000Y-127568000D01*
X143051000Y-128778000D02*
X143051000Y-127568000D01*
X142551000Y-128778000D02*
X143051000Y-128778000D01*
X150271000Y-127068000D02*
X142551000Y-127068000D01*
X150271000Y-131088000D02*
X150271000Y-127068000D01*
X142551000Y-131088000D02*
X150271000Y-131088000D01*
X142551000Y-127068000D02*
X142551000Y-131088000D01*
X103389000Y-131388000D02*
X105889000Y-131388000D01*
X103389000Y-128888000D02*
X103389000Y-131388000D01*
X110409000Y-129588000D02*
X110409000Y-131088000D01*
X111409000Y-129588000D02*
X110409000Y-129588000D01*
X104689000Y-129588000D02*
X104689000Y-131088000D01*
X103689000Y-129588000D02*
X104689000Y-129588000D01*
X110909000Y-128778000D02*
X111409000Y-128778000D01*
X110909000Y-127568000D02*
X110909000Y-128778000D01*
X104189000Y-127568000D02*
X110909000Y-127568000D01*
X104189000Y-128778000D02*
X104189000Y-127568000D01*
X103689000Y-128778000D02*
X104189000Y-128778000D01*
X111409000Y-127068000D02*
X103689000Y-127068000D01*
X111409000Y-131088000D02*
X111409000Y-127068000D01*
X103689000Y-131088000D02*
X111409000Y-131088000D01*
X103689000Y-127068000D02*
X103689000Y-131088000D01*
X142251000Y-125038000D02*
X144751000Y-125038000D01*
X142251000Y-122538000D02*
X142251000Y-125038000D01*
X149271000Y-123238000D02*
X149271000Y-124738000D01*
X150271000Y-123238000D02*
X149271000Y-123238000D01*
X143551000Y-123238000D02*
X143551000Y-124738000D01*
X142551000Y-123238000D02*
X143551000Y-123238000D01*
X149771000Y-122428000D02*
X150271000Y-122428000D01*
X149771000Y-121218000D02*
X149771000Y-122428000D01*
X143051000Y-121218000D02*
X149771000Y-121218000D01*
X143051000Y-122428000D02*
X143051000Y-121218000D01*
X142551000Y-122428000D02*
X143051000Y-122428000D01*
X150271000Y-120718000D02*
X142551000Y-120718000D01*
X150271000Y-124738000D02*
X150271000Y-120718000D01*
X142551000Y-124738000D02*
X150271000Y-124738000D01*
X142551000Y-120718000D02*
X142551000Y-124738000D01*
X115771500Y-125101500D02*
X118271500Y-125101500D01*
X115771500Y-122601500D02*
X115771500Y-125101500D01*
X125291500Y-123301500D02*
X125291500Y-124801500D01*
X126291500Y-123301500D02*
X125291500Y-123301500D01*
X117071500Y-123301500D02*
X117071500Y-124801500D01*
X116071500Y-123301500D02*
X117071500Y-123301500D01*
X125791500Y-122491500D02*
X126291500Y-122491500D01*
X125791500Y-121281500D02*
X125791500Y-122491500D01*
X116571500Y-121281500D02*
X125791500Y-121281500D01*
X116571500Y-122491500D02*
X116571500Y-121281500D01*
X116071500Y-122491500D02*
X116571500Y-122491500D01*
X126291500Y-120781500D02*
X116071500Y-120781500D01*
X126291500Y-124801500D02*
X126291500Y-120781500D01*
X116071500Y-124801500D02*
X126291500Y-124801500D01*
X116071500Y-120781500D02*
X116071500Y-124801500D01*
D12*
X121335798Y-126174503D02*
G75*
G02X120929400Y-126453900I-301017J2583D01*
G01*
X121335800Y-126174500D02*
X120751600Y-126174500D01*
X121742200Y-126174500D02*
X121335800Y-126174500D01*
X121742200Y-129222500D02*
X121742200Y-128308100D01*
X120751600Y-129222500D02*
X121742200Y-129222500D01*
X121742200Y-127088900D02*
X121742200Y-126174500D01*
D13*
X132892800Y-126212600D02*
G75*
G02X132283200Y-126212600I-304800J0D01*
G01*
D12*
X132283200Y-126212600D02*
X131978400Y-126212600D01*
X132892800Y-126212600D02*
X132283200Y-126212600D01*
X133197600Y-126212600D02*
X132892800Y-126212600D01*
D13*
X139458700Y-157632400D02*
G75*
G02X140068300Y-157632400I304800J0D01*
G01*
D12*
X140068300Y-157632400D02*
X140373100Y-157632400D01*
X139458700Y-157632400D02*
X140068300Y-157632400D01*
X139153900Y-157632400D02*
X139458700Y-157632400D01*
D14*
X128400000Y-151991000D02*
X125600000Y-151991000D01*
X125600000Y-154841000D02*
X128400000Y-154841000D01*
D15*
X132455600Y-145269200D02*
X132455600Y-149269200D01*
X137495600Y-145269200D02*
X137495600Y-149269200D01*
D11*
X103690000Y-160412000D02*
X103690000Y-161612000D01*
X103690000Y-161612000D02*
X107890000Y-161612000D01*
X107890000Y-161612000D02*
X107890000Y-160412000D01*
X103690000Y-153612000D02*
X103690000Y-152412000D01*
X103690000Y-152412000D02*
X107890000Y-152412000D01*
X107890000Y-152412000D02*
X107890000Y-153612000D01*
X103390000Y-160712000D02*
X103390000Y-161912000D01*
X103390000Y-161912000D02*
X104590000Y-161912000D01*
X113552000Y-159342000D02*
X111492000Y-159342000D01*
X113552000Y-154602000D02*
X111492000Y-154602000D01*
X114892000Y-154602000D02*
X114492000Y-154602000D01*
X114892000Y-159342000D02*
X114892000Y-154602000D01*
X114892000Y-159342000D02*
X114492000Y-159342000D01*
X110152000Y-154602000D02*
X110552000Y-154602000D01*
X110152000Y-159342000D02*
X110552000Y-159342000D01*
X110152000Y-159342000D02*
X110152000Y-154602000D01*
X126602500Y-143136000D02*
X129302500Y-143136000D01*
X126602500Y-140836000D02*
X126602500Y-143136000D01*
D16*
X124500000Y-145445000D02*
X124900000Y-145445000D01*
X124500000Y-145695000D02*
X124900000Y-145695000D01*
X124500000Y-145695000D02*
X124500000Y-145445000D01*
X124900000Y-145695000D02*
X124900000Y-145445000D01*
X124500000Y-145945000D02*
X124900000Y-145945000D01*
X124500000Y-146195000D02*
X124900000Y-146195000D01*
X124500000Y-146195000D02*
X124500000Y-145945000D01*
X124900000Y-146195000D02*
X124900000Y-145945000D01*
X124500000Y-146445000D02*
X124900000Y-146445000D01*
X124500000Y-146695000D02*
X124900000Y-146695000D01*
X124500000Y-146695000D02*
X124500000Y-146445000D01*
X124900000Y-146695000D02*
X124900000Y-146445000D01*
X124500000Y-146945000D02*
X124900000Y-146945000D01*
X124500000Y-147195000D02*
X124900000Y-147195000D01*
X124500000Y-147195000D02*
X124500000Y-146945000D01*
X124900000Y-147195000D02*
X124900000Y-146945000D01*
X124500000Y-147445000D02*
X124900000Y-147445000D01*
X124500000Y-147695000D02*
X124900000Y-147695000D01*
X124500000Y-147695000D02*
X124500000Y-147445000D01*
X124900000Y-147695000D02*
X124900000Y-147445000D01*
X124500000Y-147945000D02*
X124900000Y-147945000D01*
X124500000Y-148195000D02*
X124900000Y-148195000D01*
X124500000Y-148195000D02*
X124500000Y-147945000D01*
X124900000Y-148195000D02*
X124900000Y-147945000D01*
X124500000Y-148445000D02*
X124900000Y-148445000D01*
X124500000Y-148695000D02*
X124900000Y-148695000D01*
X124500000Y-148695000D02*
X124500000Y-148445000D01*
X124900000Y-148695000D02*
X124900000Y-148445000D01*
X124500000Y-148945000D02*
X124900000Y-148945000D01*
X124500000Y-149195000D02*
X124900000Y-149195000D01*
X124500000Y-149195000D02*
X124500000Y-148945000D01*
X124900000Y-149195000D02*
X124900000Y-148945000D01*
X125125000Y-149820000D02*
X125125000Y-149420000D01*
X125375000Y-149820000D02*
X125375000Y-149420000D01*
X125375000Y-149820000D02*
X125125000Y-149820000D01*
X125375000Y-149420000D02*
X125125000Y-149420000D01*
X125625000Y-149820000D02*
X125625000Y-149420000D01*
X125875000Y-149820000D02*
X125875000Y-149420000D01*
X125875000Y-149820000D02*
X125625000Y-149820000D01*
X125875000Y-149420000D02*
X125625000Y-149420000D01*
X126125000Y-149820000D02*
X126125000Y-149420000D01*
X126375000Y-149820000D02*
X126375000Y-149420000D01*
X126375000Y-149820000D02*
X126125000Y-149820000D01*
X126375000Y-149420000D02*
X126125000Y-149420000D01*
X126625000Y-149820000D02*
X126625000Y-149420000D01*
X126875000Y-149820000D02*
X126875000Y-149420000D01*
X126875000Y-149820000D02*
X126625000Y-149820000D01*
X126875000Y-149420000D02*
X126625000Y-149420000D01*
X127125000Y-149820000D02*
X127125000Y-149420000D01*
X127375000Y-149820000D02*
X127375000Y-149420000D01*
X127375000Y-149820000D02*
X127125000Y-149820000D01*
X127375000Y-149420000D02*
X127125000Y-149420000D01*
X127625000Y-149820000D02*
X127625000Y-149420000D01*
X127875000Y-149820000D02*
X127875000Y-149420000D01*
X127875000Y-149820000D02*
X127625000Y-149820000D01*
X127875000Y-149420000D02*
X127625000Y-149420000D01*
X128125000Y-149820000D02*
X128125000Y-149420000D01*
X128375000Y-149820000D02*
X128375000Y-149420000D01*
X128375000Y-149820000D02*
X128125000Y-149820000D01*
X128375000Y-149420000D02*
X128125000Y-149420000D01*
X128625000Y-149820000D02*
X128625000Y-149420000D01*
X128875000Y-149820000D02*
X128875000Y-149420000D01*
X128875000Y-149820000D02*
X128625000Y-149820000D01*
X128875000Y-149420000D02*
X128625000Y-149420000D01*
X129500000Y-149195000D02*
X129100000Y-149195000D01*
X129500000Y-148945000D02*
X129100000Y-148945000D01*
X129500000Y-148945000D02*
X129500000Y-149195000D01*
X129100000Y-148945000D02*
X129100000Y-149195000D01*
X129500000Y-148695000D02*
X129100000Y-148695000D01*
X129500000Y-148445000D02*
X129100000Y-148445000D01*
X129500000Y-148445000D02*
X129500000Y-148695000D01*
X129100000Y-148445000D02*
X129100000Y-148695000D01*
X129500000Y-148195000D02*
X129100000Y-148195000D01*
X129500000Y-147945000D02*
X129100000Y-147945000D01*
X129500000Y-147945000D02*
X129500000Y-148195000D01*
X129100000Y-147945000D02*
X129100000Y-148195000D01*
X129500000Y-147695000D02*
X129100000Y-147695000D01*
X129500000Y-147445000D02*
X129100000Y-147445000D01*
X129500000Y-147445000D02*
X129500000Y-147695000D01*
X129100000Y-147445000D02*
X129100000Y-147695000D01*
X129500000Y-147195000D02*
X129100000Y-147195000D01*
X129500000Y-146945000D02*
X129100000Y-146945000D01*
X129500000Y-146945000D02*
X129500000Y-147195000D01*
X129100000Y-146945000D02*
X129100000Y-147195000D01*
X129500000Y-146695000D02*
X129100000Y-146695000D01*
X129500000Y-146445000D02*
X129100000Y-146445000D01*
X129500000Y-146445000D02*
X129500000Y-146695000D01*
X129100000Y-146445000D02*
X129100000Y-146695000D01*
X129500000Y-146195000D02*
X129100000Y-146195000D01*
X129500000Y-145945000D02*
X129100000Y-145945000D01*
X129500000Y-145945000D02*
X129500000Y-146195000D01*
X129100000Y-145945000D02*
X129100000Y-146195000D01*
X129500000Y-145695000D02*
X129100000Y-145695000D01*
X129500000Y-145445000D02*
X129100000Y-145445000D01*
X129500000Y-145445000D02*
X129500000Y-145695000D01*
X129100000Y-145445000D02*
X129100000Y-145695000D01*
X128875000Y-144820000D02*
X128875000Y-145220000D01*
X128625000Y-144820000D02*
X128625000Y-145220000D01*
X128625000Y-144820000D02*
X128875000Y-144820000D01*
X128625000Y-145220000D02*
X128875000Y-145220000D01*
X128375000Y-144820000D02*
X128375000Y-145220000D01*
X128125000Y-144820000D02*
X128125000Y-145220000D01*
X128125000Y-144820000D02*
X128375000Y-144820000D01*
X128125000Y-145220000D02*
X128375000Y-145220000D01*
X127875000Y-144820000D02*
X127875000Y-145220000D01*
X127625000Y-144820000D02*
X127625000Y-145220000D01*
X127625000Y-144820000D02*
X127875000Y-144820000D01*
X127625000Y-145220000D02*
X127875000Y-145220000D01*
X127375000Y-144820000D02*
X127375000Y-145220000D01*
X127125000Y-144820000D02*
X127125000Y-145220000D01*
X127125000Y-144820000D02*
X127375000Y-144820000D01*
X127125000Y-145220000D02*
X127375000Y-145220000D01*
X126875000Y-144820000D02*
X126875000Y-145220000D01*
X126625000Y-144820000D02*
X126625000Y-145220000D01*
X126625000Y-144820000D02*
X126875000Y-144820000D01*
X126625000Y-145220000D02*
X126875000Y-145220000D01*
X126375000Y-144820000D02*
X126375000Y-145220000D01*
X126125000Y-144820000D02*
X126125000Y-145220000D01*
X126125000Y-144820000D02*
X126375000Y-144820000D01*
X126125000Y-145220000D02*
X126375000Y-145220000D01*
X125875000Y-144820000D02*
X125875000Y-145220000D01*
X125625000Y-144820000D02*
X125625000Y-145220000D01*
X125625000Y-144820000D02*
X125875000Y-144820000D01*
X125625000Y-145220000D02*
X125875000Y-145220000D01*
X125125000Y-144820000D02*
X125125000Y-145220000D01*
X125375000Y-144820000D02*
X125375000Y-145220000D01*
X125125000Y-144820000D02*
X125375000Y-144820000D01*
X125125000Y-145220000D02*
X125375000Y-145220000D01*
X128550000Y-145470000D02*
X128850000Y-145770000D01*
X128850000Y-149170000D02*
X128850000Y-145770000D01*
X125150000Y-149170000D02*
X125150000Y-145470000D01*
X125150000Y-149170000D02*
X128850000Y-149170000D01*
X125150000Y-145470000D02*
X128550000Y-145470000D01*
X124500000Y-149820000D02*
X124500000Y-144820000D01*
X129500000Y-149820000D02*
X129500000Y-144820000D01*
X124500000Y-149820000D02*
X129500000Y-149820000D01*
X124500000Y-144820000D02*
X129500000Y-144820000D01*
D11*
X138432000Y-127947267D02*
X138432000Y-127604733D01*
X137412000Y-127947267D02*
X137412000Y-127604733D01*
X135380000Y-127590733D02*
X135380000Y-127933267D01*
X136400000Y-127590733D02*
X136400000Y-127933267D01*
X116986233Y-157482000D02*
X117328767Y-157482000D01*
X116986233Y-156462000D02*
X117328767Y-156462000D01*
X150941500Y-140633267D02*
X150941500Y-140290733D01*
X149921500Y-140633267D02*
X149921500Y-140290733D01*
X150941500Y-144316267D02*
X150941500Y-143973733D01*
X149921500Y-144316267D02*
X149921500Y-143973733D01*
X108794733Y-136781000D02*
X109137267Y-136781000D01*
X108794733Y-135761000D02*
X109137267Y-135761000D01*
X105746733Y-146941000D02*
X106089267Y-146941000D01*
X105746733Y-145921000D02*
X106089267Y-145921000D01*
X125128233Y-127383000D02*
X125470767Y-127383000D01*
X125128233Y-126363000D02*
X125470767Y-126363000D01*
X138110500Y-145243733D02*
X138110500Y-145586267D01*
X139130500Y-145243733D02*
X139130500Y-145586267D01*
X104286233Y-136755600D02*
X104628767Y-136755600D01*
X104286233Y-135735600D02*
X104628767Y-135735600D01*
X143199033Y-133313900D02*
X143541567Y-133313900D01*
X143199033Y-132293900D02*
X143541567Y-132293900D01*
X139998267Y-158430500D02*
X139655733Y-158430500D01*
X139998267Y-159450500D02*
X139655733Y-159450500D01*
X150941500Y-155365267D02*
X150941500Y-155022733D01*
X149921500Y-155365267D02*
X149921500Y-155022733D01*
X135507000Y-158578733D02*
X135507000Y-158921267D01*
X136527000Y-158578733D02*
X136527000Y-158921267D01*
X112629767Y-140206000D02*
X112287233Y-140206000D01*
X112629767Y-141226000D02*
X112287233Y-141226000D01*
X112643767Y-142111000D02*
X112301233Y-142111000D01*
X112643767Y-143131000D02*
X112301233Y-143131000D01*
X121177233Y-157545500D02*
X121519767Y-157545500D01*
X121177233Y-156525500D02*
X121519767Y-156525500D01*
X149921500Y-151339733D02*
X149921500Y-151682267D01*
X150941500Y-151339733D02*
X150941500Y-151682267D01*
X149921500Y-147670733D02*
X149921500Y-148013267D01*
X150941500Y-147670733D02*
X150941500Y-148013267D01*
X116845233Y-153354500D02*
X117187767Y-153354500D01*
X116845233Y-152334500D02*
X117187767Y-152334500D01*
X108075000Y-139606233D02*
X108075000Y-139948767D01*
X109095000Y-139606233D02*
X109095000Y-139948767D01*
X138110500Y-148990233D02*
X138110500Y-149332767D01*
X139130500Y-148990233D02*
X139130500Y-149332767D01*
X109082300Y-143667267D02*
X109082300Y-143324733D01*
X108062300Y-143667267D02*
X108062300Y-143324733D01*
X112350733Y-148846000D02*
X112693267Y-148846000D01*
X112350733Y-147826000D02*
X112693267Y-147826000D01*
X121493067Y-141730000D02*
X121150533Y-141730000D01*
X121493067Y-142750000D02*
X121150533Y-142750000D01*
X116834767Y-126236000D02*
X116492233Y-126236000D01*
X116834767Y-127256000D02*
X116492233Y-127256000D01*
X116833467Y-128077500D02*
X116490933Y-128077500D01*
X116833467Y-129097500D02*
X116490933Y-129097500D01*
X116820767Y-129919000D02*
X116478233Y-129919000D01*
X116820767Y-130939000D02*
X116478233Y-130939000D01*
X121519767Y-150433500D02*
X121177233Y-150433500D01*
X121519767Y-149413500D02*
X121177233Y-149413500D01*
X121177233Y-145565400D02*
X121519767Y-145565400D01*
X121177233Y-146585400D02*
X121519767Y-146585400D01*
X122825000Y-163015000D02*
X122825000Y-161465000D01*
X122825000Y-163015000D02*
X123125000Y-163015000D01*
X123125000Y-165815000D02*
X123125000Y-163015000D01*
X131125000Y-163015000D02*
X131125000Y-161465000D01*
X130825000Y-163015000D02*
X131125000Y-163015000D01*
X130825000Y-165815000D02*
X130825000Y-163015000D01*
X126075000Y-159765000D02*
X125675000Y-160215000D01*
X125275000Y-159765000D02*
X126075000Y-159765000D01*
X125675000Y-160215000D02*
X125275000Y-159765000D01*
D15*
X118203500Y-137638000D02*
X115603500Y-137638000D01*
D17*
X104545000Y-144251000D02*
X104545000Y-142851000D01*
X107545000Y-142501000D02*
X104545000Y-142501000D01*
X107545000Y-140201000D02*
X107545000Y-142501000D01*
X104545000Y-140201000D02*
X107545000Y-140201000D01*
X104545000Y-142501000D02*
X104545000Y-140201000D01*
D11*
X118817500Y-158142000D02*
X116357500Y-158142000D01*
X118817500Y-159612000D02*
X118817500Y-158142000D01*
X116357500Y-159612000D02*
X118817500Y-159612000D01*
X147773500Y-140616000D02*
X145313500Y-140616000D01*
X147773500Y-142086000D02*
X147773500Y-140616000D01*
X145313500Y-142086000D02*
X147773500Y-142086000D01*
X147773500Y-144299000D02*
X145313500Y-144299000D01*
X147773500Y-145769000D02*
X147773500Y-144299000D01*
X145313500Y-145769000D02*
X147773500Y-145769000D01*
X110640000Y-133694500D02*
X108180000Y-133694500D01*
X110640000Y-135164500D02*
X110640000Y-133694500D01*
X108180000Y-135164500D02*
X110640000Y-135164500D01*
X107564000Y-147601000D02*
X105104000Y-147601000D01*
X107564000Y-149071000D02*
X107564000Y-147601000D01*
X105104000Y-149071000D02*
X107564000Y-149071000D01*
X126945500Y-127916000D02*
X124485500Y-127916000D01*
X126945500Y-129386000D02*
X126945500Y-127916000D01*
X124485500Y-129386000D02*
X126945500Y-129386000D01*
X137849500Y-143546500D02*
X140309500Y-143546500D01*
X137849500Y-142076500D02*
X137849500Y-143546500D01*
X140309500Y-142076500D02*
X137849500Y-142076500D01*
X106117500Y-133681800D02*
X103657500Y-133681800D01*
X106117500Y-135151800D02*
X106117500Y-133681800D01*
X103657500Y-135151800D02*
X106117500Y-135151800D01*
X145030300Y-134100900D02*
X142570300Y-134100900D01*
X145030300Y-135570900D02*
X145030300Y-134100900D01*
X142570300Y-135570900D02*
X145030300Y-135570900D01*
X147773500Y-147982000D02*
X145313500Y-147982000D01*
X147773500Y-149452000D02*
X147773500Y-147982000D01*
X145313500Y-149452000D02*
X147773500Y-149452000D01*
X118690500Y-150268000D02*
X116230500Y-150268000D01*
X118690500Y-151738000D02*
X118690500Y-150268000D01*
X116230500Y-151738000D02*
X118690500Y-151738000D01*
X147773500Y-155348000D02*
X145313500Y-155348000D01*
X147773500Y-156818000D02*
X147773500Y-155348000D01*
X145313500Y-156818000D02*
X147773500Y-156818000D01*
X147773500Y-158904000D02*
X145313500Y-158904000D01*
X147773500Y-160374000D02*
X147773500Y-158904000D01*
X145313500Y-160374000D02*
X147773500Y-160374000D01*
X123008500Y-158142000D02*
X120548500Y-158142000D01*
X123008500Y-159612000D02*
X123008500Y-158142000D01*
X120548500Y-159612000D02*
X123008500Y-159612000D01*
X147773500Y-151665000D02*
X145313500Y-151665000D01*
X147773500Y-153135000D02*
X147773500Y-151665000D01*
X145313500Y-153135000D02*
X147773500Y-153135000D01*
X103020400Y-139579533D02*
X103020400Y-139922067D01*
X104040400Y-139579533D02*
X104040400Y-139922067D01*
X104040400Y-143630467D02*
X104040400Y-143287933D01*
X103020400Y-143630467D02*
X103020400Y-143287933D01*
X121151833Y-140845000D02*
X121494367Y-140845000D01*
X121151833Y-139825000D02*
X121494367Y-139825000D01*
X121151833Y-138940000D02*
X121494367Y-138940000D01*
X121151833Y-137920000D02*
X121494367Y-137920000D01*
X112350733Y-146941000D02*
X112693267Y-146941000D01*
X112350733Y-145921000D02*
X112693267Y-145921000D01*
X132967000Y-158578733D02*
X132967000Y-158921267D01*
X133987000Y-158578733D02*
X133987000Y-158921267D01*
X112301233Y-144972500D02*
X112643767Y-144972500D01*
X112301233Y-143952500D02*
X112643767Y-143952500D01*
X129622733Y-139892500D02*
X129965267Y-139892500D01*
X129622733Y-138872500D02*
X129965267Y-138872500D01*
X126282267Y-138872500D02*
X125939733Y-138872500D01*
X126282267Y-139892500D02*
X125939733Y-139892500D01*
X121177233Y-143635000D02*
X121519767Y-143635000D01*
X121177233Y-144655000D02*
X121519767Y-144655000D01*
X121177233Y-151255000D02*
X121519767Y-151255000D01*
X121177233Y-152275000D02*
X121519767Y-152275000D01*
X121177233Y-148528500D02*
X121519767Y-148528500D01*
X121177233Y-147508500D02*
X121519767Y-147508500D01*
D18*
D16*
X125491285Y-145914142D02*
X125491285Y-146302714D01*
X125514142Y-146348428D01*
X125537000Y-146371285D01*
X125582714Y-146394142D01*
X125674142Y-146394142D01*
X125719857Y-146371285D01*
X125742714Y-146348428D01*
X125765571Y-146302714D01*
X125765571Y-145914142D01*
X125948428Y-145914142D02*
X126245571Y-145914142D01*
X126085571Y-146097000D01*
X126154142Y-146097000D01*
X126199857Y-146119857D01*
X126222714Y-146142714D01*
X126245571Y-146188428D01*
X126245571Y-146302714D01*
X126222714Y-146348428D01*
X126199857Y-146371285D01*
X126154142Y-146394142D01*
X126017000Y-146394142D01*
X125971285Y-146371285D01*
X125948428Y-146348428D01*
D18*
X106195761Y-158305333D02*
X106243380Y-158162476D01*
X106243380Y-157924380D01*
X106195761Y-157829142D01*
X106148142Y-157781523D01*
X106052904Y-157733904D01*
X105957666Y-157733904D01*
X105862428Y-157781523D01*
X105814809Y-157829142D01*
X105767190Y-157924380D01*
X105719571Y-158114857D01*
X105671952Y-158210095D01*
X105624333Y-158257714D01*
X105529095Y-158305333D01*
X105433857Y-158305333D01*
X105338619Y-158257714D01*
X105291000Y-158210095D01*
X105243380Y-158114857D01*
X105243380Y-157876761D01*
X105291000Y-157733904D01*
X105243380Y-157400571D02*
X106243380Y-157162476D01*
X105529095Y-156972000D01*
X106243380Y-156781523D01*
X105243380Y-156543428D01*
X105243380Y-155686285D02*
X105243380Y-156162476D01*
X105719571Y-156210095D01*
X105671952Y-156162476D01*
X105624333Y-156067238D01*
X105624333Y-155829142D01*
X105671952Y-155733904D01*
X105719571Y-155686285D01*
X105814809Y-155638666D01*
X106052904Y-155638666D01*
X106148142Y-155686285D01*
X106195761Y-155733904D01*
X106243380Y-155829142D01*
X106243380Y-156067238D01*
X106195761Y-156162476D01*
X106148142Y-156210095D01*
X112926761Y-158305333D02*
X112974380Y-158162476D01*
X112974380Y-157924380D01*
X112926761Y-157829142D01*
X112879142Y-157781523D01*
X112783904Y-157733904D01*
X112688666Y-157733904D01*
X112593428Y-157781523D01*
X112545809Y-157829142D01*
X112498190Y-157924380D01*
X112450571Y-158114857D01*
X112402952Y-158210095D01*
X112355333Y-158257714D01*
X112260095Y-158305333D01*
X112164857Y-158305333D01*
X112069619Y-158257714D01*
X112022000Y-158210095D01*
X111974380Y-158114857D01*
X111974380Y-157876761D01*
X112022000Y-157733904D01*
X111974380Y-157400571D02*
X112974380Y-157162476D01*
X112260095Y-156972000D01*
X112974380Y-156781523D01*
X111974380Y-156543428D01*
X112307714Y-155733904D02*
X112974380Y-155733904D01*
X111926761Y-155972000D02*
X112641047Y-156210095D01*
X112641047Y-155591047D01*
X128591666Y-159167380D02*
X128591666Y-159881666D01*
X128544047Y-160024523D01*
X128448809Y-160119761D01*
X128305952Y-160167380D01*
X128210714Y-160167380D01*
X128972619Y-159167380D02*
X129591666Y-159167380D01*
X129258333Y-159548333D01*
X129401190Y-159548333D01*
X129496428Y-159595952D01*
X129544047Y-159643571D01*
X129591666Y-159738809D01*
X129591666Y-159976904D01*
X129544047Y-160072142D01*
X129496428Y-160119761D01*
X129401190Y-160167380D01*
X129115476Y-160167380D01*
X129020238Y-160119761D01*
X128972619Y-160072142D01*
M02*
