G04 #@! TF.GenerationSoftware,KiCad,Pcbnew,(5.1.5)-2*
G04 #@! TF.CreationDate,2020-02-26T12:35:05-06:00*
G04 #@! TF.ProjectId,WirelessEStop_Tx,57697265-6c65-4737-9345-53746f705f54,rev?*
G04 #@! TF.SameCoordinates,Original*
G04 #@! TF.FileFunction,Legend,Top*
G04 #@! TF.FilePolarity,Positive*
%FSLAX46Y46*%
G04 Gerber Fmt 4.6, Leading zero omitted, Abs format (unit mm)*
G04 Created by KiCad (PCBNEW (5.1.5)-2) date 2020-02-26 12:35:05*
%MOMM*%
%LPD*%
G04 APERTURE LIST*
%ADD10C,0.250000*%
%ADD11C,0.127000*%
%ADD12C,0.400000*%
%ADD13C,0.120000*%
%ADD14C,0.200000*%
%ADD15C,0.152400*%
%ADD16C,0.100000*%
%ADD17C,0.203200*%
%ADD18C,0.015000*%
%ADD19C,0.150000*%
%ADD20C,0.050000*%
G04 APERTURE END LIST*
D10*
X107084880Y-155519380D02*
X106751547Y-155043190D01*
X106513452Y-155519380D02*
X106513452Y-154519380D01*
X106894404Y-154519380D01*
X106989642Y-154567000D01*
X107037261Y-154614619D01*
X107084880Y-154709857D01*
X107084880Y-154852714D01*
X107037261Y-154947952D01*
X106989642Y-154995571D01*
X106894404Y-155043190D01*
X106513452Y-155043190D01*
X107465833Y-155471761D02*
X107608690Y-155519380D01*
X107846785Y-155519380D01*
X107942023Y-155471761D01*
X107989642Y-155424142D01*
X108037261Y-155328904D01*
X108037261Y-155233666D01*
X107989642Y-155138428D01*
X107942023Y-155090809D01*
X107846785Y-155043190D01*
X107656309Y-154995571D01*
X107561071Y-154947952D01*
X107513452Y-154900333D01*
X107465833Y-154805095D01*
X107465833Y-154709857D01*
X107513452Y-154614619D01*
X107561071Y-154567000D01*
X107656309Y-154519380D01*
X107894404Y-154519380D01*
X108037261Y-154567000D01*
X108322976Y-154519380D02*
X108894404Y-154519380D01*
X108608690Y-155519380D02*
X108608690Y-154519380D01*
X106497595Y-148010571D02*
X106164261Y-148010571D01*
X106164261Y-148534380D02*
X106164261Y-147534380D01*
X106640452Y-147534380D01*
X107497595Y-148534380D02*
X107021404Y-148534380D01*
X107021404Y-147534380D01*
X107783309Y-148486761D02*
X107926166Y-148534380D01*
X108164261Y-148534380D01*
X108259500Y-148486761D01*
X108307119Y-148439142D01*
X108354738Y-148343904D01*
X108354738Y-148248666D01*
X108307119Y-148153428D01*
X108259500Y-148105809D01*
X108164261Y-148058190D01*
X107973785Y-148010571D01*
X107878547Y-147962952D01*
X107830928Y-147915333D01*
X107783309Y-147820095D01*
X107783309Y-147724857D01*
X107830928Y-147629619D01*
X107878547Y-147582000D01*
X107973785Y-147534380D01*
X108211880Y-147534380D01*
X108354738Y-147582000D01*
X108783309Y-148534380D02*
X108783309Y-147534380D01*
X108783309Y-148010571D02*
X109354738Y-148010571D01*
X109354738Y-148534380D02*
X109354738Y-147534380D01*
X117285571Y-148211380D02*
X117523666Y-149211380D01*
X117714142Y-148497095D01*
X117904619Y-149211380D01*
X118142714Y-148211380D01*
X118523666Y-149211380D02*
X118523666Y-148544714D01*
X118523666Y-148211380D02*
X118476047Y-148259000D01*
X118523666Y-148306619D01*
X118571285Y-148259000D01*
X118523666Y-148211380D01*
X118523666Y-148306619D01*
X118999857Y-149211380D02*
X118999857Y-148544714D01*
X118999857Y-148735190D02*
X119047476Y-148639952D01*
X119095095Y-148592333D01*
X119190333Y-148544714D01*
X119285571Y-148544714D01*
X119999857Y-149163761D02*
X119904619Y-149211380D01*
X119714142Y-149211380D01*
X119618904Y-149163761D01*
X119571285Y-149068523D01*
X119571285Y-148687571D01*
X119618904Y-148592333D01*
X119714142Y-148544714D01*
X119904619Y-148544714D01*
X119999857Y-148592333D01*
X120047476Y-148687571D01*
X120047476Y-148782809D01*
X119571285Y-148878047D01*
X120618904Y-149211380D02*
X120523666Y-149163761D01*
X120476047Y-149068523D01*
X120476047Y-148211380D01*
X121380809Y-149163761D02*
X121285571Y-149211380D01*
X121095095Y-149211380D01*
X120999857Y-149163761D01*
X120952238Y-149068523D01*
X120952238Y-148687571D01*
X120999857Y-148592333D01*
X121095095Y-148544714D01*
X121285571Y-148544714D01*
X121380809Y-148592333D01*
X121428428Y-148687571D01*
X121428428Y-148782809D01*
X120952238Y-148878047D01*
X121809380Y-149163761D02*
X121904619Y-149211380D01*
X122095095Y-149211380D01*
X122190333Y-149163761D01*
X122237952Y-149068523D01*
X122237952Y-149020904D01*
X122190333Y-148925666D01*
X122095095Y-148878047D01*
X121952238Y-148878047D01*
X121857000Y-148830428D01*
X121809380Y-148735190D01*
X121809380Y-148687571D01*
X121857000Y-148592333D01*
X121952238Y-148544714D01*
X122095095Y-148544714D01*
X122190333Y-148592333D01*
X122618904Y-149163761D02*
X122714142Y-149211380D01*
X122904619Y-149211380D01*
X122999857Y-149163761D01*
X123047476Y-149068523D01*
X123047476Y-149020904D01*
X122999857Y-148925666D01*
X122904619Y-148878047D01*
X122761761Y-148878047D01*
X122666523Y-148830428D01*
X122618904Y-148735190D01*
X122618904Y-148687571D01*
X122666523Y-148592333D01*
X122761761Y-148544714D01*
X122904619Y-148544714D01*
X122999857Y-148592333D01*
X124237952Y-148687571D02*
X124571285Y-148687571D01*
X124714142Y-149211380D02*
X124237952Y-149211380D01*
X124237952Y-148211380D01*
X124714142Y-148211380D01*
X125142714Y-148830428D02*
X125904619Y-148830428D01*
X126333190Y-149163761D02*
X126476047Y-149211380D01*
X126714142Y-149211380D01*
X126809380Y-149163761D01*
X126857000Y-149116142D01*
X126904619Y-149020904D01*
X126904619Y-148925666D01*
X126857000Y-148830428D01*
X126809380Y-148782809D01*
X126714142Y-148735190D01*
X126523666Y-148687571D01*
X126428428Y-148639952D01*
X126380809Y-148592333D01*
X126333190Y-148497095D01*
X126333190Y-148401857D01*
X126380809Y-148306619D01*
X126428428Y-148259000D01*
X126523666Y-148211380D01*
X126761761Y-148211380D01*
X126904619Y-148259000D01*
X127190333Y-148544714D02*
X127571285Y-148544714D01*
X127333190Y-148211380D02*
X127333190Y-149068523D01*
X127380809Y-149163761D01*
X127476047Y-149211380D01*
X127571285Y-149211380D01*
X128047476Y-149211380D02*
X127952238Y-149163761D01*
X127904619Y-149116142D01*
X127857000Y-149020904D01*
X127857000Y-148735190D01*
X127904619Y-148639952D01*
X127952238Y-148592333D01*
X128047476Y-148544714D01*
X128190333Y-148544714D01*
X128285571Y-148592333D01*
X128333190Y-148639952D01*
X128380809Y-148735190D01*
X128380809Y-149020904D01*
X128333190Y-149116142D01*
X128285571Y-149163761D01*
X128190333Y-149211380D01*
X128047476Y-149211380D01*
X128809380Y-148544714D02*
X128809380Y-149544714D01*
X128809380Y-148592333D02*
X128904619Y-148544714D01*
X129095095Y-148544714D01*
X129190333Y-148592333D01*
X129237952Y-148639952D01*
X129285571Y-148735190D01*
X129285571Y-149020904D01*
X129237952Y-149116142D01*
X129190333Y-149163761D01*
X129095095Y-149211380D01*
X128904619Y-149211380D01*
X128809380Y-149163761D01*
X131047476Y-149211380D02*
X130714142Y-148735190D01*
X130476047Y-149211380D02*
X130476047Y-148211380D01*
X130857000Y-148211380D01*
X130952238Y-148259000D01*
X130999857Y-148306619D01*
X131047476Y-148401857D01*
X131047476Y-148544714D01*
X130999857Y-148639952D01*
X130952238Y-148687571D01*
X130857000Y-148735190D01*
X130476047Y-148735190D01*
X131857000Y-149163761D02*
X131761761Y-149211380D01*
X131571285Y-149211380D01*
X131476047Y-149163761D01*
X131428428Y-149068523D01*
X131428428Y-148687571D01*
X131476047Y-148592333D01*
X131571285Y-148544714D01*
X131761761Y-148544714D01*
X131857000Y-148592333D01*
X131904619Y-148687571D01*
X131904619Y-148782809D01*
X131428428Y-148878047D01*
X132237952Y-148544714D02*
X132476047Y-149211380D01*
X132714142Y-148544714D01*
X133809380Y-148306619D02*
X133857000Y-148259000D01*
X133952238Y-148211380D01*
X134190333Y-148211380D01*
X134285571Y-148259000D01*
X134333190Y-148306619D01*
X134380809Y-148401857D01*
X134380809Y-148497095D01*
X134333190Y-148639952D01*
X133761761Y-149211380D01*
X134380809Y-149211380D01*
X116737952Y-150961380D02*
X116737952Y-149961380D01*
X117071285Y-150675666D01*
X117404619Y-149961380D01*
X117404619Y-150961380D01*
X118309380Y-150961380D02*
X118309380Y-150437571D01*
X118261761Y-150342333D01*
X118166523Y-150294714D01*
X117976047Y-150294714D01*
X117880809Y-150342333D01*
X118309380Y-150913761D02*
X118214142Y-150961380D01*
X117976047Y-150961380D01*
X117880809Y-150913761D01*
X117833190Y-150818523D01*
X117833190Y-150723285D01*
X117880809Y-150628047D01*
X117976047Y-150580428D01*
X118214142Y-150580428D01*
X118309380Y-150532809D01*
X118785571Y-150961380D02*
X118785571Y-150294714D01*
X118785571Y-150485190D02*
X118833190Y-150389952D01*
X118880809Y-150342333D01*
X118976047Y-150294714D01*
X119071285Y-150294714D01*
X119356999Y-150913761D02*
X119452238Y-150961380D01*
X119642714Y-150961380D01*
X119737952Y-150913761D01*
X119785571Y-150818523D01*
X119785571Y-150770904D01*
X119737952Y-150675666D01*
X119642714Y-150628047D01*
X119499857Y-150628047D01*
X119404619Y-150580428D01*
X119356999Y-150485190D01*
X119356999Y-150437571D01*
X119404619Y-150342333D01*
X119499857Y-150294714D01*
X119642714Y-150294714D01*
X119737952Y-150342333D01*
X121547476Y-150961380D02*
X121214142Y-150485190D01*
X120976047Y-150961380D02*
X120976047Y-149961380D01*
X121356999Y-149961380D01*
X121452238Y-150009000D01*
X121499857Y-150056619D01*
X121547476Y-150151857D01*
X121547476Y-150294714D01*
X121499857Y-150389952D01*
X121452238Y-150437571D01*
X121356999Y-150485190D01*
X120976047Y-150485190D01*
X122118904Y-150961380D02*
X122023666Y-150913761D01*
X121976047Y-150866142D01*
X121928428Y-150770904D01*
X121928428Y-150485190D01*
X121976047Y-150389952D01*
X122023666Y-150342333D01*
X122118904Y-150294714D01*
X122261761Y-150294714D01*
X122356999Y-150342333D01*
X122404619Y-150389952D01*
X122452238Y-150485190D01*
X122452238Y-150770904D01*
X122404619Y-150866142D01*
X122356999Y-150913761D01*
X122261761Y-150961380D01*
X122118904Y-150961380D01*
X122785571Y-150294714D02*
X123023666Y-150961380D01*
X123261761Y-150294714D01*
X124023666Y-150913761D02*
X123928428Y-150961380D01*
X123737952Y-150961380D01*
X123642714Y-150913761D01*
X123595095Y-150818523D01*
X123595095Y-150437571D01*
X123642714Y-150342333D01*
X123737952Y-150294714D01*
X123928428Y-150294714D01*
X124023666Y-150342333D01*
X124071285Y-150437571D01*
X124071285Y-150532809D01*
X123595095Y-150628047D01*
X124499857Y-150961380D02*
X124499857Y-150294714D01*
X124499857Y-150485190D02*
X124547476Y-150389952D01*
X124595095Y-150342333D01*
X124690333Y-150294714D01*
X124785571Y-150294714D01*
X125880809Y-150961380D02*
X125880809Y-149961380D01*
X126118904Y-149961380D01*
X126261761Y-150009000D01*
X126357000Y-150104238D01*
X126404619Y-150199476D01*
X126452238Y-150389952D01*
X126452238Y-150532809D01*
X126404619Y-150723285D01*
X126357000Y-150818523D01*
X126261761Y-150913761D01*
X126118904Y-150961380D01*
X125880809Y-150961380D01*
X127261761Y-150913761D02*
X127166523Y-150961380D01*
X126976047Y-150961380D01*
X126880809Y-150913761D01*
X126833190Y-150818523D01*
X126833190Y-150437571D01*
X126880809Y-150342333D01*
X126976047Y-150294714D01*
X127166523Y-150294714D01*
X127261761Y-150342333D01*
X127309380Y-150437571D01*
X127309380Y-150532809D01*
X126833190Y-150628047D01*
X127690333Y-150913761D02*
X127785571Y-150961380D01*
X127976047Y-150961380D01*
X128071285Y-150913761D01*
X128118904Y-150818523D01*
X128118904Y-150770904D01*
X128071285Y-150675666D01*
X127976047Y-150628047D01*
X127833190Y-150628047D01*
X127737952Y-150580428D01*
X127690333Y-150485190D01*
X127690333Y-150437571D01*
X127737952Y-150342333D01*
X127833190Y-150294714D01*
X127976047Y-150294714D01*
X128071285Y-150342333D01*
X128547476Y-150961380D02*
X128547476Y-150294714D01*
X128547476Y-149961380D02*
X128499857Y-150009000D01*
X128547476Y-150056619D01*
X128595095Y-150009000D01*
X128547476Y-149961380D01*
X128547476Y-150056619D01*
X129452238Y-150294714D02*
X129452238Y-151104238D01*
X129404619Y-151199476D01*
X129356999Y-151247095D01*
X129261761Y-151294714D01*
X129118904Y-151294714D01*
X129023666Y-151247095D01*
X129452238Y-150913761D02*
X129356999Y-150961380D01*
X129166523Y-150961380D01*
X129071285Y-150913761D01*
X129023666Y-150866142D01*
X128976047Y-150770904D01*
X128976047Y-150485190D01*
X129023666Y-150389952D01*
X129071285Y-150342333D01*
X129166523Y-150294714D01*
X129356999Y-150294714D01*
X129452238Y-150342333D01*
X129928428Y-150294714D02*
X129928428Y-150961380D01*
X129928428Y-150389952D02*
X129976047Y-150342333D01*
X130071285Y-150294714D01*
X130214142Y-150294714D01*
X130309380Y-150342333D01*
X130356999Y-150437571D01*
X130356999Y-150961380D01*
X131452238Y-149961380D02*
X132023666Y-149961380D01*
X131737952Y-150961380D02*
X131737952Y-149961380D01*
X132737952Y-150913761D02*
X132642714Y-150961380D01*
X132452238Y-150961380D01*
X132356999Y-150913761D01*
X132309380Y-150818523D01*
X132309380Y-150437571D01*
X132356999Y-150342333D01*
X132452238Y-150294714D01*
X132642714Y-150294714D01*
X132737952Y-150342333D01*
X132785571Y-150437571D01*
X132785571Y-150532809D01*
X132309380Y-150628047D01*
X133642714Y-150961380D02*
X133642714Y-150437571D01*
X133595095Y-150342333D01*
X133499857Y-150294714D01*
X133309380Y-150294714D01*
X133214142Y-150342333D01*
X133642714Y-150913761D02*
X133547476Y-150961380D01*
X133309380Y-150961380D01*
X133214142Y-150913761D01*
X133166523Y-150818523D01*
X133166523Y-150723285D01*
X133214142Y-150628047D01*
X133309380Y-150580428D01*
X133547476Y-150580428D01*
X133642714Y-150532809D01*
X134118904Y-150961380D02*
X134118904Y-150294714D01*
X134118904Y-150389952D02*
X134166523Y-150342333D01*
X134261761Y-150294714D01*
X134404619Y-150294714D01*
X134499857Y-150342333D01*
X134547476Y-150437571D01*
X134547476Y-150961380D01*
X134547476Y-150437571D02*
X134595095Y-150342333D01*
X134690333Y-150294714D01*
X134833190Y-150294714D01*
X134928428Y-150342333D01*
X134976047Y-150437571D01*
X134976047Y-150961380D01*
X118642714Y-152711380D02*
X118642714Y-151711380D01*
X118976047Y-152425666D01*
X119309380Y-151711380D01*
X119309380Y-152711380D01*
X119785571Y-152711380D02*
X119785571Y-152044714D01*
X119785571Y-151711380D02*
X119737952Y-151759000D01*
X119785571Y-151806619D01*
X119833190Y-151759000D01*
X119785571Y-151711380D01*
X119785571Y-151806619D01*
X120214142Y-152663761D02*
X120309380Y-152711380D01*
X120499857Y-152711380D01*
X120595095Y-152663761D01*
X120642714Y-152568523D01*
X120642714Y-152520904D01*
X120595095Y-152425666D01*
X120499857Y-152378047D01*
X120357000Y-152378047D01*
X120261761Y-152330428D01*
X120214142Y-152235190D01*
X120214142Y-152187571D01*
X120261761Y-152092333D01*
X120357000Y-152044714D01*
X120499857Y-152044714D01*
X120595095Y-152092333D01*
X121023666Y-152663761D02*
X121118904Y-152711380D01*
X121309380Y-152711380D01*
X121404619Y-152663761D01*
X121452238Y-152568523D01*
X121452238Y-152520904D01*
X121404619Y-152425666D01*
X121309380Y-152378047D01*
X121166523Y-152378047D01*
X121071285Y-152330428D01*
X121023666Y-152235190D01*
X121023666Y-152187571D01*
X121071285Y-152092333D01*
X121166523Y-152044714D01*
X121309380Y-152044714D01*
X121404619Y-152092333D01*
X122023666Y-152711380D02*
X121928428Y-152663761D01*
X121880809Y-152616142D01*
X121833190Y-152520904D01*
X121833190Y-152235190D01*
X121880809Y-152139952D01*
X121928428Y-152092333D01*
X122023666Y-152044714D01*
X122166523Y-152044714D01*
X122261761Y-152092333D01*
X122309380Y-152139952D01*
X122357000Y-152235190D01*
X122357000Y-152520904D01*
X122309380Y-152616142D01*
X122261761Y-152663761D01*
X122166523Y-152711380D01*
X122023666Y-152711380D01*
X123214142Y-152044714D02*
X123214142Y-152711380D01*
X122785571Y-152044714D02*
X122785571Y-152568523D01*
X122833190Y-152663761D01*
X122928428Y-152711380D01*
X123071285Y-152711380D01*
X123166523Y-152663761D01*
X123214142Y-152616142D01*
X123690333Y-152711380D02*
X123690333Y-152044714D01*
X123690333Y-152235190D02*
X123737952Y-152139952D01*
X123785571Y-152092333D01*
X123880809Y-152044714D01*
X123976047Y-152044714D01*
X124309380Y-152711380D02*
X124309380Y-152044714D01*
X124309380Y-151711380D02*
X124261761Y-151759000D01*
X124309380Y-151806619D01*
X124357000Y-151759000D01*
X124309380Y-151711380D01*
X124309380Y-151806619D01*
X125499857Y-152663761D02*
X125642714Y-152711380D01*
X125880809Y-152711380D01*
X125976047Y-152663761D01*
X126023666Y-152616142D01*
X126071285Y-152520904D01*
X126071285Y-152425666D01*
X126023666Y-152330428D01*
X125976047Y-152282809D01*
X125880809Y-152235190D01*
X125690333Y-152187571D01*
X125595095Y-152139952D01*
X125547476Y-152092333D01*
X125499857Y-151997095D01*
X125499857Y-151901857D01*
X125547476Y-151806619D01*
X125595095Y-151759000D01*
X125690333Y-151711380D01*
X125928428Y-151711380D01*
X126071285Y-151759000D01*
X127309380Y-152711380D02*
X127261761Y-152711380D01*
X127166523Y-152663761D01*
X127023666Y-152520904D01*
X126785571Y-152235190D01*
X126690333Y-152092333D01*
X126642714Y-151949476D01*
X126642714Y-151854238D01*
X126690333Y-151759000D01*
X126785571Y-151711380D01*
X126833190Y-151711380D01*
X126928428Y-151759000D01*
X126976047Y-151854238D01*
X126976047Y-151901857D01*
X126928428Y-151997095D01*
X126880809Y-152044714D01*
X126595095Y-152235190D01*
X126547476Y-152282809D01*
X126499857Y-152378047D01*
X126499857Y-152520904D01*
X126547476Y-152616142D01*
X126595095Y-152663761D01*
X126690333Y-152711380D01*
X126833190Y-152711380D01*
X126928428Y-152663761D01*
X126976047Y-152616142D01*
X127118904Y-152425666D01*
X127166523Y-152282809D01*
X127166523Y-152187571D01*
X127595095Y-151711380D02*
X128166523Y-151711380D01*
X127880809Y-152711380D02*
X127880809Y-151711380D01*
X128547476Y-152663761D02*
X128547476Y-152711380D01*
X128499857Y-152806619D01*
X128452238Y-152854238D01*
X129690333Y-151806619D02*
X129737952Y-151759000D01*
X129833190Y-151711380D01*
X130071285Y-151711380D01*
X130166523Y-151759000D01*
X130214142Y-151806619D01*
X130261761Y-151901857D01*
X130261761Y-151997095D01*
X130214142Y-152139952D01*
X129642714Y-152711380D01*
X130261761Y-152711380D01*
X130880809Y-151711380D02*
X130976047Y-151711380D01*
X131071285Y-151759000D01*
X131118904Y-151806619D01*
X131166523Y-151901857D01*
X131214142Y-152092333D01*
X131214142Y-152330428D01*
X131166523Y-152520904D01*
X131118904Y-152616142D01*
X131071285Y-152663761D01*
X130976047Y-152711380D01*
X130880809Y-152711380D01*
X130785571Y-152663761D01*
X130737952Y-152616142D01*
X130690333Y-152520904D01*
X130642714Y-152330428D01*
X130642714Y-152092333D01*
X130690333Y-151901857D01*
X130737952Y-151806619D01*
X130785571Y-151759000D01*
X130880809Y-151711380D01*
X131595095Y-151806619D02*
X131642714Y-151759000D01*
X131737952Y-151711380D01*
X131976047Y-151711380D01*
X132071285Y-151759000D01*
X132118904Y-151806619D01*
X132166523Y-151901857D01*
X132166523Y-151997095D01*
X132118904Y-152139952D01*
X131547476Y-152711380D01*
X132166523Y-152711380D01*
X132785571Y-151711380D02*
X132880809Y-151711380D01*
X132976047Y-151759000D01*
X133023666Y-151806619D01*
X133071285Y-151901857D01*
X133118904Y-152092333D01*
X133118904Y-152330428D01*
X133071285Y-152520904D01*
X133023666Y-152616142D01*
X132976047Y-152663761D01*
X132880809Y-152711380D01*
X132785571Y-152711380D01*
X132690333Y-152663761D01*
X132642714Y-152616142D01*
X132595095Y-152520904D01*
X132547476Y-152330428D01*
X132547476Y-152092333D01*
X132595095Y-151901857D01*
X132642714Y-151806619D01*
X132690333Y-151759000D01*
X132785571Y-151711380D01*
X119476047Y-154461380D02*
X119476047Y-153461380D01*
X119714142Y-153461380D01*
X119856999Y-153509000D01*
X119952238Y-153604238D01*
X119999857Y-153699476D01*
X120047476Y-153889952D01*
X120047476Y-154032809D01*
X119999857Y-154223285D01*
X119952238Y-154318523D01*
X119856999Y-154413761D01*
X119714142Y-154461380D01*
X119476047Y-154461380D01*
X120904619Y-154461380D02*
X120904619Y-153937571D01*
X120856999Y-153842333D01*
X120761761Y-153794714D01*
X120571285Y-153794714D01*
X120476047Y-153842333D01*
X120904619Y-154413761D02*
X120809380Y-154461380D01*
X120571285Y-154461380D01*
X120476047Y-154413761D01*
X120428428Y-154318523D01*
X120428428Y-154223285D01*
X120476047Y-154128047D01*
X120571285Y-154080428D01*
X120809380Y-154080428D01*
X120904619Y-154032809D01*
X121380809Y-153794714D02*
X121380809Y-154461380D01*
X121380809Y-153889952D02*
X121428428Y-153842333D01*
X121523666Y-153794714D01*
X121666523Y-153794714D01*
X121761761Y-153842333D01*
X121809380Y-153937571D01*
X121809380Y-154461380D01*
X123047476Y-154461380D02*
X123047476Y-153461380D01*
X123618904Y-154461380D01*
X123618904Y-153461380D01*
X124523666Y-154461380D02*
X124523666Y-153937571D01*
X124476047Y-153842333D01*
X124380809Y-153794714D01*
X124190333Y-153794714D01*
X124095095Y-153842333D01*
X124523666Y-154413761D02*
X124428428Y-154461380D01*
X124190333Y-154461380D01*
X124095095Y-154413761D01*
X124047476Y-154318523D01*
X124047476Y-154223285D01*
X124095095Y-154128047D01*
X124190333Y-154080428D01*
X124428428Y-154080428D01*
X124523666Y-154032809D01*
X124999857Y-153794714D02*
X124999857Y-154794714D01*
X124999857Y-153842333D02*
X125095095Y-153794714D01*
X125285571Y-153794714D01*
X125380809Y-153842333D01*
X125428428Y-153889952D01*
X125476047Y-153985190D01*
X125476047Y-154270904D01*
X125428428Y-154366142D01*
X125380809Y-154413761D01*
X125285571Y-154461380D01*
X125095095Y-154461380D01*
X124999857Y-154413761D01*
X125904619Y-154461380D02*
X125904619Y-153794714D01*
X125904619Y-153461380D02*
X125856999Y-153509000D01*
X125904619Y-153556619D01*
X125952238Y-153509000D01*
X125904619Y-153461380D01*
X125904619Y-153556619D01*
X126761761Y-154413761D02*
X126666523Y-154461380D01*
X126476047Y-154461380D01*
X126380809Y-154413761D01*
X126333190Y-154318523D01*
X126333190Y-153937571D01*
X126380809Y-153842333D01*
X126476047Y-153794714D01*
X126666523Y-153794714D01*
X126761761Y-153842333D01*
X126809380Y-153937571D01*
X126809380Y-154032809D01*
X126333190Y-154128047D01*
X127237952Y-154461380D02*
X127237952Y-153794714D01*
X127237952Y-153985190D02*
X127285571Y-153889952D01*
X127333190Y-153842333D01*
X127428428Y-153794714D01*
X127523666Y-153794714D01*
X127857000Y-154461380D02*
X127857000Y-153461380D01*
X127952238Y-154080428D02*
X128237952Y-154461380D01*
X128237952Y-153794714D02*
X127857000Y-154175666D01*
X128809380Y-154461380D02*
X128714142Y-154413761D01*
X128666523Y-154366142D01*
X128618904Y-154270904D01*
X128618904Y-153985190D01*
X128666523Y-153889952D01*
X128714142Y-153842333D01*
X128809380Y-153794714D01*
X128952238Y-153794714D01*
X129047476Y-153842333D01*
X129095095Y-153889952D01*
X129142714Y-153985190D01*
X129142714Y-154270904D01*
X129095095Y-154366142D01*
X129047476Y-154413761D01*
X128952238Y-154461380D01*
X128809380Y-154461380D01*
X129476047Y-153794714D02*
X129666523Y-154461380D01*
X129857000Y-153985190D01*
X130047476Y-154461380D01*
X130237952Y-153794714D01*
X130571285Y-154413761D02*
X130666523Y-154461380D01*
X130856999Y-154461380D01*
X130952238Y-154413761D01*
X130999857Y-154318523D01*
X130999857Y-154270904D01*
X130952238Y-154175666D01*
X130856999Y-154128047D01*
X130714142Y-154128047D01*
X130618904Y-154080428D01*
X130571285Y-153985190D01*
X130571285Y-153937571D01*
X130618904Y-153842333D01*
X130714142Y-153794714D01*
X130856999Y-153794714D01*
X130952238Y-153842333D01*
X131428428Y-154461380D02*
X131428428Y-153461380D01*
X131523666Y-154080428D02*
X131809380Y-154461380D01*
X131809380Y-153794714D02*
X131428428Y-154175666D01*
X132237952Y-154461380D02*
X132237952Y-153794714D01*
X132237952Y-153461380D02*
X132190333Y-153509000D01*
X132237952Y-153556619D01*
X132285571Y-153509000D01*
X132237952Y-153461380D01*
X132237952Y-153556619D01*
X130461261Y-119213380D02*
X130651738Y-119213380D01*
X130746976Y-119261000D01*
X130842214Y-119356238D01*
X130889833Y-119546714D01*
X130889833Y-119880047D01*
X130842214Y-120070523D01*
X130746976Y-120165761D01*
X130651738Y-120213380D01*
X130461261Y-120213380D01*
X130366023Y-120165761D01*
X130270785Y-120070523D01*
X130223166Y-119880047D01*
X130223166Y-119546714D01*
X130270785Y-119356238D01*
X130366023Y-119261000D01*
X130461261Y-119213380D01*
X131318404Y-119546714D02*
X131318404Y-120213380D01*
X131318404Y-119641952D02*
X131366023Y-119594333D01*
X131461261Y-119546714D01*
X131604119Y-119546714D01*
X131699357Y-119594333D01*
X131746976Y-119689571D01*
X131746976Y-120213380D01*
X132937452Y-119165761D02*
X132080309Y-120451476D01*
X133461261Y-119213380D02*
X133651738Y-119213380D01*
X133746976Y-119261000D01*
X133842214Y-119356238D01*
X133889833Y-119546714D01*
X133889833Y-119880047D01*
X133842214Y-120070523D01*
X133746976Y-120165761D01*
X133651738Y-120213380D01*
X133461261Y-120213380D01*
X133366023Y-120165761D01*
X133270785Y-120070523D01*
X133223166Y-119880047D01*
X133223166Y-119546714D01*
X133270785Y-119356238D01*
X133366023Y-119261000D01*
X133461261Y-119213380D01*
X134175547Y-119546714D02*
X134556500Y-119546714D01*
X134318404Y-120213380D02*
X134318404Y-119356238D01*
X134366023Y-119261000D01*
X134461261Y-119213380D01*
X134556500Y-119213380D01*
X134746976Y-119546714D02*
X135127928Y-119546714D01*
X134889833Y-120213380D02*
X134889833Y-119356238D01*
X134937452Y-119261000D01*
X135032690Y-119213380D01*
X135127928Y-119213380D01*
X136223166Y-120213380D02*
X136223166Y-119213380D01*
X136604119Y-119213380D01*
X136699357Y-119261000D01*
X136746976Y-119308619D01*
X136794595Y-119403857D01*
X136794595Y-119546714D01*
X136746976Y-119641952D01*
X136699357Y-119689571D01*
X136604119Y-119737190D01*
X136223166Y-119737190D01*
X137366023Y-120213380D02*
X137270785Y-120165761D01*
X137223166Y-120118142D01*
X137175547Y-120022904D01*
X137175547Y-119737190D01*
X137223166Y-119641952D01*
X137270785Y-119594333D01*
X137366023Y-119546714D01*
X137508880Y-119546714D01*
X137604119Y-119594333D01*
X137651738Y-119641952D01*
X137699357Y-119737190D01*
X137699357Y-120022904D01*
X137651738Y-120118142D01*
X137604119Y-120165761D01*
X137508880Y-120213380D01*
X137366023Y-120213380D01*
X138127928Y-120213380D02*
X138127928Y-119546714D01*
X138127928Y-119737190D02*
X138175547Y-119641952D01*
X138223166Y-119594333D01*
X138318404Y-119546714D01*
X138413642Y-119546714D01*
X138604119Y-119546714D02*
X138985071Y-119546714D01*
X138746976Y-119213380D02*
X138746976Y-120070523D01*
X138794595Y-120165761D01*
X138889833Y-120213380D01*
X138985071Y-120213380D01*
X142367500Y-119562571D02*
X142510357Y-119610190D01*
X142557976Y-119657809D01*
X142605595Y-119753047D01*
X142605595Y-119895904D01*
X142557976Y-119991142D01*
X142510357Y-120038761D01*
X142415119Y-120086380D01*
X142034166Y-120086380D01*
X142034166Y-119086380D01*
X142367500Y-119086380D01*
X142462738Y-119134000D01*
X142510357Y-119181619D01*
X142557976Y-119276857D01*
X142557976Y-119372095D01*
X142510357Y-119467333D01*
X142462738Y-119514952D01*
X142367500Y-119562571D01*
X142034166Y-119562571D01*
X143462738Y-120086380D02*
X143462738Y-119562571D01*
X143415119Y-119467333D01*
X143319880Y-119419714D01*
X143129404Y-119419714D01*
X143034166Y-119467333D01*
X143462738Y-120038761D02*
X143367500Y-120086380D01*
X143129404Y-120086380D01*
X143034166Y-120038761D01*
X142986547Y-119943523D01*
X142986547Y-119848285D01*
X143034166Y-119753047D01*
X143129404Y-119705428D01*
X143367500Y-119705428D01*
X143462738Y-119657809D01*
X143796071Y-119419714D02*
X144177023Y-119419714D01*
X143938928Y-119086380D02*
X143938928Y-119943523D01*
X143986547Y-120038761D01*
X144081785Y-120086380D01*
X144177023Y-120086380D01*
X144367500Y-119419714D02*
X144748452Y-119419714D01*
X144510357Y-119086380D02*
X144510357Y-119943523D01*
X144557976Y-120038761D01*
X144653214Y-120086380D01*
X144748452Y-120086380D01*
X145462738Y-120038761D02*
X145367500Y-120086380D01*
X145177023Y-120086380D01*
X145081785Y-120038761D01*
X145034166Y-119943523D01*
X145034166Y-119562571D01*
X145081785Y-119467333D01*
X145177023Y-119419714D01*
X145367500Y-119419714D01*
X145462738Y-119467333D01*
X145510357Y-119562571D01*
X145510357Y-119657809D01*
X145034166Y-119753047D01*
X145938928Y-120086380D02*
X145938928Y-119419714D01*
X145938928Y-119610190D02*
X145986547Y-119514952D01*
X146034166Y-119467333D01*
X146129404Y-119419714D01*
X146224642Y-119419714D01*
X146462738Y-119419714D02*
X146700833Y-120086380D01*
X146938928Y-119419714D02*
X146700833Y-120086380D01*
X146605595Y-120324476D01*
X146557976Y-120372095D01*
X146462738Y-120419714D01*
X148081785Y-120086380D02*
X148081785Y-119086380D01*
X148462738Y-119086380D01*
X148557976Y-119134000D01*
X148605595Y-119181619D01*
X148653214Y-119276857D01*
X148653214Y-119419714D01*
X148605595Y-119514952D01*
X148557976Y-119562571D01*
X148462738Y-119610190D01*
X148081785Y-119610190D01*
X149224642Y-120086380D02*
X149129404Y-120038761D01*
X149081785Y-119991142D01*
X149034166Y-119895904D01*
X149034166Y-119610190D01*
X149081785Y-119514952D01*
X149129404Y-119467333D01*
X149224642Y-119419714D01*
X149367500Y-119419714D01*
X149462738Y-119467333D01*
X149510357Y-119514952D01*
X149557976Y-119610190D01*
X149557976Y-119895904D01*
X149510357Y-119991142D01*
X149462738Y-120038761D01*
X149367500Y-120086380D01*
X149224642Y-120086380D01*
X149986547Y-120086380D02*
X149986547Y-119419714D01*
X149986547Y-119610190D02*
X150034166Y-119514952D01*
X150081785Y-119467333D01*
X150177023Y-119419714D01*
X150272261Y-119419714D01*
X150462738Y-119419714D02*
X150843690Y-119419714D01*
X150605595Y-119086380D02*
X150605595Y-119943523D01*
X150653214Y-120038761D01*
X150748452Y-120086380D01*
X150843690Y-120086380D01*
X143224642Y-126150666D02*
X143700833Y-126150666D01*
X143129404Y-126436380D02*
X143462738Y-125436380D01*
X143796071Y-126436380D01*
X144129404Y-126436380D02*
X144129404Y-125769714D01*
X144129404Y-125960190D02*
X144177023Y-125864952D01*
X144224642Y-125817333D01*
X144319880Y-125769714D01*
X144415119Y-125769714D01*
X144748452Y-126436380D02*
X144748452Y-125769714D01*
X144748452Y-125864952D02*
X144796071Y-125817333D01*
X144891309Y-125769714D01*
X145034166Y-125769714D01*
X145129404Y-125817333D01*
X145177023Y-125912571D01*
X145177023Y-126436380D01*
X145177023Y-125912571D02*
X145224642Y-125817333D01*
X145319880Y-125769714D01*
X145462738Y-125769714D01*
X145557976Y-125817333D01*
X145605595Y-125912571D01*
X145605595Y-126436380D01*
X146843690Y-126436380D02*
X146843690Y-125436380D01*
X147224642Y-125436380D01*
X147319880Y-125484000D01*
X147367500Y-125531619D01*
X147415119Y-125626857D01*
X147415119Y-125769714D01*
X147367500Y-125864952D01*
X147319880Y-125912571D01*
X147224642Y-125960190D01*
X146843690Y-125960190D01*
X147986547Y-126436380D02*
X147891309Y-126388761D01*
X147843690Y-126341142D01*
X147796071Y-126245904D01*
X147796071Y-125960190D01*
X147843690Y-125864952D01*
X147891309Y-125817333D01*
X147986547Y-125769714D01*
X148129404Y-125769714D01*
X148224642Y-125817333D01*
X148272261Y-125864952D01*
X148319880Y-125960190D01*
X148319880Y-126245904D01*
X148272261Y-126341142D01*
X148224642Y-126388761D01*
X148129404Y-126436380D01*
X147986547Y-126436380D01*
X148748452Y-126436380D02*
X148748452Y-125769714D01*
X148748452Y-125960190D02*
X148796071Y-125864952D01*
X148843690Y-125817333D01*
X148938928Y-125769714D01*
X149034166Y-125769714D01*
X149224642Y-125769714D02*
X149605595Y-125769714D01*
X149367500Y-125436380D02*
X149367500Y-126293523D01*
X149415119Y-126388761D01*
X149510357Y-126436380D01*
X149605595Y-126436380D01*
X144867476Y-135802666D02*
X145343666Y-135802666D01*
X144772238Y-136088380D02*
X145105571Y-135088380D01*
X145438904Y-136088380D01*
X146343666Y-136088380D02*
X146010333Y-135612190D01*
X145772238Y-136088380D02*
X145772238Y-135088380D01*
X146153190Y-135088380D01*
X146248428Y-135136000D01*
X146296047Y-135183619D01*
X146343666Y-135278857D01*
X146343666Y-135421714D01*
X146296047Y-135516952D01*
X146248428Y-135564571D01*
X146153190Y-135612190D01*
X145772238Y-135612190D01*
X146772238Y-136088380D02*
X146772238Y-135088380D01*
X147105571Y-135802666D01*
X147438904Y-135088380D01*
X147438904Y-136088380D01*
X116959595Y-119086380D02*
X117531023Y-119086380D01*
X117245309Y-120086380D02*
X117245309Y-119086380D01*
X118007214Y-120086380D02*
X117911976Y-120038761D01*
X117864357Y-119991142D01*
X117816738Y-119895904D01*
X117816738Y-119610190D01*
X117864357Y-119514952D01*
X117911976Y-119467333D01*
X118007214Y-119419714D01*
X118150071Y-119419714D01*
X118245309Y-119467333D01*
X118292928Y-119514952D01*
X118340547Y-119610190D01*
X118340547Y-119895904D01*
X118292928Y-119991142D01*
X118245309Y-120038761D01*
X118150071Y-120086380D01*
X118007214Y-120086380D01*
X119197690Y-119419714D02*
X119197690Y-120229238D01*
X119150071Y-120324476D01*
X119102452Y-120372095D01*
X119007214Y-120419714D01*
X118864357Y-120419714D01*
X118769119Y-120372095D01*
X119197690Y-120038761D02*
X119102452Y-120086380D01*
X118911976Y-120086380D01*
X118816738Y-120038761D01*
X118769119Y-119991142D01*
X118721500Y-119895904D01*
X118721500Y-119610190D01*
X118769119Y-119514952D01*
X118816738Y-119467333D01*
X118911976Y-119419714D01*
X119102452Y-119419714D01*
X119197690Y-119467333D01*
X120102452Y-119419714D02*
X120102452Y-120229238D01*
X120054833Y-120324476D01*
X120007214Y-120372095D01*
X119911976Y-120419714D01*
X119769119Y-120419714D01*
X119673880Y-120372095D01*
X120102452Y-120038761D02*
X120007214Y-120086380D01*
X119816738Y-120086380D01*
X119721500Y-120038761D01*
X119673880Y-119991142D01*
X119626261Y-119895904D01*
X119626261Y-119610190D01*
X119673880Y-119514952D01*
X119721500Y-119467333D01*
X119816738Y-119419714D01*
X120007214Y-119419714D01*
X120102452Y-119467333D01*
X120721500Y-120086380D02*
X120626261Y-120038761D01*
X120578642Y-119943523D01*
X120578642Y-119086380D01*
X121483404Y-120038761D02*
X121388166Y-120086380D01*
X121197690Y-120086380D01*
X121102452Y-120038761D01*
X121054833Y-119943523D01*
X121054833Y-119562571D01*
X121102452Y-119467333D01*
X121197690Y-119419714D01*
X121388166Y-119419714D01*
X121483404Y-119467333D01*
X121531023Y-119562571D01*
X121531023Y-119657809D01*
X121054833Y-119753047D01*
X122721500Y-120086380D02*
X122721500Y-119086380D01*
X123102452Y-119086380D01*
X123197690Y-119134000D01*
X123245309Y-119181619D01*
X123292928Y-119276857D01*
X123292928Y-119419714D01*
X123245309Y-119514952D01*
X123197690Y-119562571D01*
X123102452Y-119610190D01*
X122721500Y-119610190D01*
X123864357Y-120086380D02*
X123769119Y-120038761D01*
X123721500Y-119991142D01*
X123673880Y-119895904D01*
X123673880Y-119610190D01*
X123721500Y-119514952D01*
X123769119Y-119467333D01*
X123864357Y-119419714D01*
X124007214Y-119419714D01*
X124102452Y-119467333D01*
X124150071Y-119514952D01*
X124197690Y-119610190D01*
X124197690Y-119895904D01*
X124150071Y-119991142D01*
X124102452Y-120038761D01*
X124007214Y-120086380D01*
X123864357Y-120086380D01*
X124626261Y-120086380D02*
X124626261Y-119419714D01*
X124626261Y-119610190D02*
X124673880Y-119514952D01*
X124721500Y-119467333D01*
X124816738Y-119419714D01*
X124911976Y-119419714D01*
X125102452Y-119419714D02*
X125483404Y-119419714D01*
X125245309Y-119086380D02*
X125245309Y-119943523D01*
X125292928Y-120038761D01*
X125388166Y-120086380D01*
X125483404Y-120086380D01*
X111117285Y-142644880D02*
X111688714Y-142644880D01*
X111403000Y-143644880D02*
X111403000Y-142644880D01*
X112593476Y-143644880D02*
X112260142Y-143168690D01*
X112022047Y-143644880D02*
X112022047Y-142644880D01*
X112403000Y-142644880D01*
X112498238Y-142692500D01*
X112545857Y-142740119D01*
X112593476Y-142835357D01*
X112593476Y-142978214D01*
X112545857Y-143073452D01*
X112498238Y-143121071D01*
X112403000Y-143168690D01*
X112022047Y-143168690D01*
X113545857Y-142692500D02*
X113450619Y-142644880D01*
X113307761Y-142644880D01*
X113164904Y-142692500D01*
X113069666Y-142787738D01*
X113022047Y-142882976D01*
X112974428Y-143073452D01*
X112974428Y-143216309D01*
X113022047Y-143406785D01*
X113069666Y-143502023D01*
X113164904Y-143597261D01*
X113307761Y-143644880D01*
X113403000Y-143644880D01*
X113545857Y-143597261D01*
X113593476Y-143549642D01*
X113593476Y-143216309D01*
X113403000Y-143216309D01*
X114593476Y-143644880D02*
X114260142Y-143168690D01*
X114022047Y-143644880D02*
X114022047Y-142644880D01*
X114403000Y-142644880D01*
X114498238Y-142692500D01*
X114545857Y-142740119D01*
X114593476Y-142835357D01*
X114593476Y-142978214D01*
X114545857Y-143073452D01*
X114498238Y-143121071D01*
X114403000Y-143168690D01*
X114022047Y-143168690D01*
X102973738Y-119086380D02*
X103545166Y-119086380D01*
X103259452Y-120086380D02*
X103259452Y-119086380D01*
X103878500Y-120086380D02*
X103878500Y-119419714D01*
X103878500Y-119610190D02*
X103926119Y-119514952D01*
X103973738Y-119467333D01*
X104068976Y-119419714D01*
X104164214Y-119419714D01*
X104497547Y-120086380D02*
X104497547Y-119419714D01*
X104497547Y-119086380D02*
X104449928Y-119134000D01*
X104497547Y-119181619D01*
X104545166Y-119134000D01*
X104497547Y-119086380D01*
X104497547Y-119181619D01*
X105402309Y-119419714D02*
X105402309Y-120229238D01*
X105354690Y-120324476D01*
X105307071Y-120372095D01*
X105211833Y-120419714D01*
X105068976Y-120419714D01*
X104973738Y-120372095D01*
X105402309Y-120038761D02*
X105307071Y-120086380D01*
X105116595Y-120086380D01*
X105021357Y-120038761D01*
X104973738Y-119991142D01*
X104926119Y-119895904D01*
X104926119Y-119610190D01*
X104973738Y-119514952D01*
X105021357Y-119467333D01*
X105116595Y-119419714D01*
X105307071Y-119419714D01*
X105402309Y-119467333D01*
X106307071Y-119419714D02*
X106307071Y-120229238D01*
X106259452Y-120324476D01*
X106211833Y-120372095D01*
X106116595Y-120419714D01*
X105973738Y-120419714D01*
X105878500Y-120372095D01*
X106307071Y-120038761D02*
X106211833Y-120086380D01*
X106021357Y-120086380D01*
X105926119Y-120038761D01*
X105878500Y-119991142D01*
X105830880Y-119895904D01*
X105830880Y-119610190D01*
X105878500Y-119514952D01*
X105926119Y-119467333D01*
X106021357Y-119419714D01*
X106211833Y-119419714D01*
X106307071Y-119467333D01*
X107164214Y-120038761D02*
X107068976Y-120086380D01*
X106878500Y-120086380D01*
X106783261Y-120038761D01*
X106735642Y-119943523D01*
X106735642Y-119562571D01*
X106783261Y-119467333D01*
X106878500Y-119419714D01*
X107068976Y-119419714D01*
X107164214Y-119467333D01*
X107211833Y-119562571D01*
X107211833Y-119657809D01*
X106735642Y-119753047D01*
X107640404Y-120086380D02*
X107640404Y-119419714D01*
X107640404Y-119610190D02*
X107688023Y-119514952D01*
X107735642Y-119467333D01*
X107830880Y-119419714D01*
X107926119Y-119419714D01*
X109021357Y-120086380D02*
X109021357Y-119086380D01*
X109402309Y-119086380D01*
X109497547Y-119134000D01*
X109545166Y-119181619D01*
X109592785Y-119276857D01*
X109592785Y-119419714D01*
X109545166Y-119514952D01*
X109497547Y-119562571D01*
X109402309Y-119610190D01*
X109021357Y-119610190D01*
X110164214Y-120086380D02*
X110068976Y-120038761D01*
X110021357Y-119991142D01*
X109973738Y-119895904D01*
X109973738Y-119610190D01*
X110021357Y-119514952D01*
X110068976Y-119467333D01*
X110164214Y-119419714D01*
X110307071Y-119419714D01*
X110402309Y-119467333D01*
X110449928Y-119514952D01*
X110497547Y-119610190D01*
X110497547Y-119895904D01*
X110449928Y-119991142D01*
X110402309Y-120038761D01*
X110307071Y-120086380D01*
X110164214Y-120086380D01*
X110926119Y-120086380D02*
X110926119Y-119419714D01*
X110926119Y-119610190D02*
X110973738Y-119514952D01*
X111021357Y-119467333D01*
X111116595Y-119419714D01*
X111211833Y-119419714D01*
X111402309Y-119419714D02*
X111783261Y-119419714D01*
X111545166Y-119086380D02*
X111545166Y-119943523D01*
X111592785Y-120038761D01*
X111688023Y-120086380D01*
X111783261Y-120086380D01*
X103680095Y-126690380D02*
X103680095Y-125690380D01*
X104013428Y-126404666D01*
X104346761Y-125690380D01*
X104346761Y-126690380D01*
X104965809Y-126690380D02*
X104870571Y-126642761D01*
X104822952Y-126595142D01*
X104775333Y-126499904D01*
X104775333Y-126214190D01*
X104822952Y-126118952D01*
X104870571Y-126071333D01*
X104965809Y-126023714D01*
X105108666Y-126023714D01*
X105203904Y-126071333D01*
X105251523Y-126118952D01*
X105299142Y-126214190D01*
X105299142Y-126499904D01*
X105251523Y-126595142D01*
X105203904Y-126642761D01*
X105108666Y-126690380D01*
X104965809Y-126690380D01*
X105584857Y-126023714D02*
X105965809Y-126023714D01*
X105727714Y-125690380D02*
X105727714Y-126547523D01*
X105775333Y-126642761D01*
X105870571Y-126690380D01*
X105965809Y-126690380D01*
X106442000Y-126690380D02*
X106346761Y-126642761D01*
X106299142Y-126595142D01*
X106251523Y-126499904D01*
X106251523Y-126214190D01*
X106299142Y-126118952D01*
X106346761Y-126071333D01*
X106442000Y-126023714D01*
X106584857Y-126023714D01*
X106680095Y-126071333D01*
X106727714Y-126118952D01*
X106775333Y-126214190D01*
X106775333Y-126499904D01*
X106727714Y-126595142D01*
X106680095Y-126642761D01*
X106584857Y-126690380D01*
X106442000Y-126690380D01*
X107203904Y-126690380D02*
X107203904Y-126023714D01*
X107203904Y-126214190D02*
X107251523Y-126118952D01*
X107299142Y-126071333D01*
X107394380Y-126023714D01*
X107489619Y-126023714D01*
X108584857Y-126690380D02*
X108584857Y-125690380D01*
X108965809Y-125690380D01*
X109061047Y-125738000D01*
X109108666Y-125785619D01*
X109156285Y-125880857D01*
X109156285Y-126023714D01*
X109108666Y-126118952D01*
X109061047Y-126166571D01*
X108965809Y-126214190D01*
X108584857Y-126214190D01*
X109727714Y-126690380D02*
X109632476Y-126642761D01*
X109584857Y-126595142D01*
X109537238Y-126499904D01*
X109537238Y-126214190D01*
X109584857Y-126118952D01*
X109632476Y-126071333D01*
X109727714Y-126023714D01*
X109870571Y-126023714D01*
X109965809Y-126071333D01*
X110013428Y-126118952D01*
X110061047Y-126214190D01*
X110061047Y-126499904D01*
X110013428Y-126595142D01*
X109965809Y-126642761D01*
X109870571Y-126690380D01*
X109727714Y-126690380D01*
X110489619Y-126690380D02*
X110489619Y-126023714D01*
X110489619Y-126214190D02*
X110537238Y-126118952D01*
X110584857Y-126071333D01*
X110680095Y-126023714D01*
X110775333Y-126023714D01*
X110965809Y-126023714D02*
X111346761Y-126023714D01*
X111108666Y-125690380D02*
X111108666Y-126547523D01*
X111156285Y-126642761D01*
X111251523Y-126690380D01*
X111346761Y-126690380D01*
X145946833Y-143708380D02*
X145613500Y-143232190D01*
X145375404Y-143708380D02*
X145375404Y-142708380D01*
X145756357Y-142708380D01*
X145851595Y-142756000D01*
X145899214Y-142803619D01*
X145946833Y-142898857D01*
X145946833Y-143041714D01*
X145899214Y-143136952D01*
X145851595Y-143184571D01*
X145756357Y-143232190D01*
X145375404Y-143232190D01*
X146280166Y-142708380D02*
X146946833Y-143708380D01*
X146946833Y-142708380D02*
X146280166Y-143708380D01*
X145415095Y-146518380D02*
X145986523Y-146518380D01*
X145700809Y-147518380D02*
X145700809Y-146518380D01*
X146224619Y-146518380D02*
X146891285Y-147518380D01*
X146891285Y-146518380D02*
X146224619Y-147518380D01*
X143026190Y-139850761D02*
X143169047Y-139898380D01*
X143407142Y-139898380D01*
X143502380Y-139850761D01*
X143550000Y-139803142D01*
X143597619Y-139707904D01*
X143597619Y-139612666D01*
X143550000Y-139517428D01*
X143502380Y-139469809D01*
X143407142Y-139422190D01*
X143216666Y-139374571D01*
X143121428Y-139326952D01*
X143073809Y-139279333D01*
X143026190Y-139184095D01*
X143026190Y-139088857D01*
X143073809Y-138993619D01*
X143121428Y-138946000D01*
X143216666Y-138898380D01*
X143454761Y-138898380D01*
X143597619Y-138946000D01*
X144169047Y-139898380D02*
X144073809Y-139850761D01*
X144026190Y-139803142D01*
X143978571Y-139707904D01*
X143978571Y-139422190D01*
X144026190Y-139326952D01*
X144073809Y-139279333D01*
X144169047Y-139231714D01*
X144311904Y-139231714D01*
X144407142Y-139279333D01*
X144454761Y-139326952D01*
X144502380Y-139422190D01*
X144502380Y-139707904D01*
X144454761Y-139803142D01*
X144407142Y-139850761D01*
X144311904Y-139898380D01*
X144169047Y-139898380D01*
X144788095Y-139231714D02*
X145169047Y-139231714D01*
X144930952Y-139898380D02*
X144930952Y-139041238D01*
X144978571Y-138946000D01*
X145073809Y-138898380D01*
X145169047Y-138898380D01*
X145359523Y-139231714D02*
X145740476Y-139231714D01*
X145502380Y-138898380D02*
X145502380Y-139755523D01*
X145550000Y-139850761D01*
X145645238Y-139898380D01*
X145740476Y-139898380D01*
X145978571Y-139231714D02*
X146169047Y-139898380D01*
X146359523Y-139422190D01*
X146550000Y-139898380D01*
X146740476Y-139231714D01*
X147550000Y-139898380D02*
X147550000Y-139374571D01*
X147502380Y-139279333D01*
X147407142Y-139231714D01*
X147216666Y-139231714D01*
X147121428Y-139279333D01*
X147550000Y-139850761D02*
X147454761Y-139898380D01*
X147216666Y-139898380D01*
X147121428Y-139850761D01*
X147073809Y-139755523D01*
X147073809Y-139660285D01*
X147121428Y-139565047D01*
X147216666Y-139517428D01*
X147454761Y-139517428D01*
X147550000Y-139469809D01*
X148026190Y-139898380D02*
X148026190Y-139231714D01*
X148026190Y-139422190D02*
X148073809Y-139326952D01*
X148121428Y-139279333D01*
X148216666Y-139231714D01*
X148311904Y-139231714D01*
X149026190Y-139850761D02*
X148930952Y-139898380D01*
X148740476Y-139898380D01*
X148645238Y-139850761D01*
X148597619Y-139755523D01*
X148597619Y-139374571D01*
X148645238Y-139279333D01*
X148740476Y-139231714D01*
X148930952Y-139231714D01*
X149026190Y-139279333D01*
X149073809Y-139374571D01*
X149073809Y-139469809D01*
X148597619Y-139565047D01*
X107989809Y-133040380D02*
X107989809Y-132040380D01*
X108418380Y-132135619D02*
X108466000Y-132088000D01*
X108561238Y-132040380D01*
X108799333Y-132040380D01*
X108894571Y-132088000D01*
X108942190Y-132135619D01*
X108989809Y-132230857D01*
X108989809Y-132326095D01*
X108942190Y-132468952D01*
X108370761Y-133040380D01*
X108989809Y-133040380D01*
X109989809Y-132945142D02*
X109942190Y-132992761D01*
X109799333Y-133040380D01*
X109704095Y-133040380D01*
X109561238Y-132992761D01*
X109466000Y-132897523D01*
X109418380Y-132802285D01*
X109370761Y-132611809D01*
X109370761Y-132468952D01*
X109418380Y-132278476D01*
X109466000Y-132183238D01*
X109561238Y-132088000D01*
X109704095Y-132040380D01*
X109799333Y-132040380D01*
X109942190Y-132088000D01*
X109989809Y-132135619D01*
X143572219Y-151074380D02*
X143096028Y-151074380D01*
X143096028Y-150074380D01*
X143810314Y-150074380D02*
X144048409Y-151074380D01*
X144238885Y-150360095D01*
X144429361Y-151074380D01*
X144667457Y-150074380D01*
X146143647Y-150550571D02*
X146286504Y-150598190D01*
X146334123Y-150645809D01*
X146381742Y-150741047D01*
X146381742Y-150883904D01*
X146334123Y-150979142D01*
X146286504Y-151026761D01*
X146191266Y-151074380D01*
X145810314Y-151074380D01*
X145810314Y-150074380D01*
X146143647Y-150074380D01*
X146238885Y-150122000D01*
X146286504Y-150169619D01*
X146334123Y-150264857D01*
X146334123Y-150360095D01*
X146286504Y-150455333D01*
X146238885Y-150502952D01*
X146143647Y-150550571D01*
X145810314Y-150550571D01*
X146667457Y-150074380D02*
X147238885Y-150074380D01*
X146953171Y-151074380D02*
X146953171Y-150074380D01*
X148143647Y-151074380D02*
X147810314Y-150598190D01*
X147572219Y-151074380D02*
X147572219Y-150074380D01*
X147953171Y-150074380D01*
X148048409Y-150122000D01*
X148096028Y-150169619D01*
X148143647Y-150264857D01*
X148143647Y-150407714D01*
X148096028Y-150502952D01*
X148048409Y-150550571D01*
X147953171Y-150598190D01*
X147572219Y-150598190D01*
X148762695Y-150598190D02*
X148762695Y-151074380D01*
X148429361Y-150074380D02*
X148762695Y-150598190D01*
X149096028Y-150074380D01*
X116556920Y-143425182D02*
X116509301Y-143472801D01*
X116366444Y-143520420D01*
X116271206Y-143520420D01*
X116128349Y-143472801D01*
X116033111Y-143377563D01*
X115985492Y-143282325D01*
X115937873Y-143091849D01*
X115937873Y-142948992D01*
X115985492Y-142758516D01*
X116033111Y-142663278D01*
X116128349Y-142568040D01*
X116271206Y-142520420D01*
X116366444Y-142520420D01*
X116509301Y-142568040D01*
X116556920Y-142615659D01*
X117128349Y-143520420D02*
X117033111Y-143472801D01*
X116985492Y-143425182D01*
X116937873Y-143329944D01*
X116937873Y-143044230D01*
X116985492Y-142948992D01*
X117033111Y-142901373D01*
X117128349Y-142853754D01*
X117271206Y-142853754D01*
X117366444Y-142901373D01*
X117414063Y-142948992D01*
X117461682Y-143044230D01*
X117461682Y-143329944D01*
X117414063Y-143425182D01*
X117366444Y-143472801D01*
X117271206Y-143520420D01*
X117128349Y-143520420D01*
X117890254Y-142853754D02*
X117890254Y-143520420D01*
X117890254Y-142948992D02*
X117937873Y-142901373D01*
X118033111Y-142853754D01*
X118175968Y-142853754D01*
X118271206Y-142901373D01*
X118318825Y-142996611D01*
X118318825Y-143520420D01*
X118795016Y-142853754D02*
X118795016Y-143520420D01*
X118795016Y-142948992D02*
X118842635Y-142901373D01*
X118937873Y-142853754D01*
X119080730Y-142853754D01*
X119175968Y-142901373D01*
X119223587Y-142996611D01*
X119223587Y-143520420D01*
X102751166Y-133040380D02*
X102751166Y-132040380D01*
X103084500Y-132754666D01*
X103417833Y-132040380D01*
X103417833Y-133040380D01*
X104036880Y-133040380D02*
X103941642Y-132992761D01*
X103894023Y-132945142D01*
X103846404Y-132849904D01*
X103846404Y-132564190D01*
X103894023Y-132468952D01*
X103941642Y-132421333D01*
X104036880Y-132373714D01*
X104179738Y-132373714D01*
X104274976Y-132421333D01*
X104322595Y-132468952D01*
X104370214Y-132564190D01*
X104370214Y-132849904D01*
X104322595Y-132945142D01*
X104274976Y-132992761D01*
X104179738Y-133040380D01*
X104036880Y-133040380D01*
X104655928Y-132373714D02*
X105036880Y-132373714D01*
X104798785Y-132040380D02*
X104798785Y-132897523D01*
X104846404Y-132992761D01*
X104941642Y-133040380D01*
X105036880Y-133040380D01*
X105513071Y-133040380D02*
X105417833Y-132992761D01*
X105370214Y-132945142D01*
X105322595Y-132849904D01*
X105322595Y-132564190D01*
X105370214Y-132468952D01*
X105417833Y-132421333D01*
X105513071Y-132373714D01*
X105655928Y-132373714D01*
X105751166Y-132421333D01*
X105798785Y-132468952D01*
X105846404Y-132564190D01*
X105846404Y-132849904D01*
X105798785Y-132945142D01*
X105751166Y-132992761D01*
X105655928Y-133040380D01*
X105513071Y-133040380D01*
X106274976Y-133040380D02*
X106274976Y-132373714D01*
X106274976Y-132564190D02*
X106322595Y-132468952D01*
X106370214Y-132421333D01*
X106465452Y-132373714D01*
X106560690Y-132373714D01*
X114887571Y-160599428D02*
X115649476Y-160599428D01*
X115268523Y-160980380D02*
X115268523Y-160218476D01*
X116030428Y-159980380D02*
X116649476Y-159980380D01*
X116316142Y-160361333D01*
X116459000Y-160361333D01*
X116554238Y-160408952D01*
X116601857Y-160456571D01*
X116649476Y-160551809D01*
X116649476Y-160789904D01*
X116601857Y-160885142D01*
X116554238Y-160932761D01*
X116459000Y-160980380D01*
X116173285Y-160980380D01*
X116078047Y-160932761D01*
X116030428Y-160885142D01*
X117078047Y-160885142D02*
X117125666Y-160932761D01*
X117078047Y-160980380D01*
X117030428Y-160932761D01*
X117078047Y-160885142D01*
X117078047Y-160980380D01*
X117459000Y-159980380D02*
X118078047Y-159980380D01*
X117744714Y-160361333D01*
X117887571Y-160361333D01*
X117982809Y-160408952D01*
X118030428Y-160456571D01*
X118078047Y-160551809D01*
X118078047Y-160789904D01*
X118030428Y-160885142D01*
X117982809Y-160932761D01*
X117887571Y-160980380D01*
X117601857Y-160980380D01*
X117506619Y-160932761D01*
X117459000Y-160885142D01*
X120427857Y-160599428D02*
X121189761Y-160599428D01*
X120808809Y-160980380D02*
X120808809Y-160218476D01*
X122142142Y-159980380D02*
X121665952Y-159980380D01*
X121618333Y-160456571D01*
X121665952Y-160408952D01*
X121761190Y-160361333D01*
X121999285Y-160361333D01*
X122094523Y-160408952D01*
X122142142Y-160456571D01*
X122189761Y-160551809D01*
X122189761Y-160789904D01*
X122142142Y-160885142D01*
X122094523Y-160932761D01*
X121999285Y-160980380D01*
X121761190Y-160980380D01*
X121665952Y-160932761D01*
X121618333Y-160885142D01*
X143875404Y-154471642D02*
X143827785Y-154519261D01*
X143684928Y-154566880D01*
X143589690Y-154566880D01*
X143446833Y-154519261D01*
X143351595Y-154424023D01*
X143303976Y-154328785D01*
X143256357Y-154138309D01*
X143256357Y-153995452D01*
X143303976Y-153804976D01*
X143351595Y-153709738D01*
X143446833Y-153614500D01*
X143589690Y-153566880D01*
X143684928Y-153566880D01*
X143827785Y-153614500D01*
X143875404Y-153662119D01*
X144303976Y-154566880D02*
X144303976Y-153566880D01*
X144732547Y-154566880D02*
X144732547Y-154043071D01*
X144684928Y-153947833D01*
X144589690Y-153900214D01*
X144446833Y-153900214D01*
X144351595Y-153947833D01*
X144303976Y-153995452D01*
X145637309Y-154566880D02*
X145637309Y-154043071D01*
X145589690Y-153947833D01*
X145494452Y-153900214D01*
X145303976Y-153900214D01*
X145208738Y-153947833D01*
X145637309Y-154519261D02*
X145542071Y-154566880D01*
X145303976Y-154566880D01*
X145208738Y-154519261D01*
X145161119Y-154424023D01*
X145161119Y-154328785D01*
X145208738Y-154233547D01*
X145303976Y-154185928D01*
X145542071Y-154185928D01*
X145637309Y-154138309D01*
X146113500Y-154566880D02*
X146113500Y-153900214D01*
X146113500Y-154090690D02*
X146161119Y-153995452D01*
X146208738Y-153947833D01*
X146303976Y-153900214D01*
X146399214Y-153900214D01*
X147161119Y-153900214D02*
X147161119Y-154709738D01*
X147113500Y-154804976D01*
X147065880Y-154852595D01*
X146970642Y-154900214D01*
X146827785Y-154900214D01*
X146732547Y-154852595D01*
X147161119Y-154519261D02*
X147065880Y-154566880D01*
X146875404Y-154566880D01*
X146780166Y-154519261D01*
X146732547Y-154471642D01*
X146684928Y-154376404D01*
X146684928Y-154090690D01*
X146732547Y-153995452D01*
X146780166Y-153947833D01*
X146875404Y-153900214D01*
X147065880Y-153900214D01*
X147161119Y-153947833D01*
X148018261Y-154519261D02*
X147923023Y-154566880D01*
X147732547Y-154566880D01*
X147637309Y-154519261D01*
X147589690Y-154424023D01*
X147589690Y-154043071D01*
X147637309Y-153947833D01*
X147732547Y-153900214D01*
X147923023Y-153900214D01*
X148018261Y-153947833D01*
X148065880Y-154043071D01*
X148065880Y-154138309D01*
X147589690Y-154233547D01*
X148923023Y-154566880D02*
X148923023Y-153566880D01*
X148923023Y-154519261D02*
X148827785Y-154566880D01*
X148637309Y-154566880D01*
X148542071Y-154519261D01*
X148494452Y-154471642D01*
X148446833Y-154376404D01*
X148446833Y-154090690D01*
X148494452Y-153995452D01*
X148542071Y-153947833D01*
X148637309Y-153900214D01*
X148827785Y-153900214D01*
X148923023Y-153947833D01*
X143613500Y-158027642D02*
X143565880Y-158075261D01*
X143423023Y-158122880D01*
X143327785Y-158122880D01*
X143184928Y-158075261D01*
X143089690Y-157980023D01*
X143042071Y-157884785D01*
X142994452Y-157694309D01*
X142994452Y-157551452D01*
X143042071Y-157360976D01*
X143089690Y-157265738D01*
X143184928Y-157170500D01*
X143327785Y-157122880D01*
X143423023Y-157122880D01*
X143565880Y-157170500D01*
X143613500Y-157218119D01*
X144042071Y-158122880D02*
X144042071Y-157122880D01*
X144470642Y-158122880D02*
X144470642Y-157599071D01*
X144423023Y-157503833D01*
X144327785Y-157456214D01*
X144184928Y-157456214D01*
X144089690Y-157503833D01*
X144042071Y-157551452D01*
X145375404Y-158122880D02*
X145375404Y-157599071D01*
X145327785Y-157503833D01*
X145232547Y-157456214D01*
X145042071Y-157456214D01*
X144946833Y-157503833D01*
X145375404Y-158075261D02*
X145280166Y-158122880D01*
X145042071Y-158122880D01*
X144946833Y-158075261D01*
X144899214Y-157980023D01*
X144899214Y-157884785D01*
X144946833Y-157789547D01*
X145042071Y-157741928D01*
X145280166Y-157741928D01*
X145375404Y-157694309D01*
X145851595Y-158122880D02*
X145851595Y-157456214D01*
X145851595Y-157646690D02*
X145899214Y-157551452D01*
X145946833Y-157503833D01*
X146042071Y-157456214D01*
X146137309Y-157456214D01*
X146899214Y-157456214D02*
X146899214Y-158265738D01*
X146851595Y-158360976D01*
X146803976Y-158408595D01*
X146708738Y-158456214D01*
X146565880Y-158456214D01*
X146470642Y-158408595D01*
X146899214Y-158075261D02*
X146803976Y-158122880D01*
X146613500Y-158122880D01*
X146518261Y-158075261D01*
X146470642Y-158027642D01*
X146423023Y-157932404D01*
X146423023Y-157646690D01*
X146470642Y-157551452D01*
X146518261Y-157503833D01*
X146613500Y-157456214D01*
X146803976Y-157456214D01*
X146899214Y-157503833D01*
X147375404Y-158122880D02*
X147375404Y-157456214D01*
X147375404Y-157122880D02*
X147327785Y-157170500D01*
X147375404Y-157218119D01*
X147423023Y-157170500D01*
X147375404Y-157122880D01*
X147375404Y-157218119D01*
X147851595Y-157456214D02*
X147851595Y-158122880D01*
X147851595Y-157551452D02*
X147899214Y-157503833D01*
X147994452Y-157456214D01*
X148137309Y-157456214D01*
X148232547Y-157503833D01*
X148280166Y-157599071D01*
X148280166Y-158122880D01*
X149184928Y-157456214D02*
X149184928Y-158265738D01*
X149137309Y-158360976D01*
X149089690Y-158408595D01*
X148994452Y-158456214D01*
X148851595Y-158456214D01*
X148756357Y-158408595D01*
X149184928Y-158075261D02*
X149089690Y-158122880D01*
X148899214Y-158122880D01*
X148803976Y-158075261D01*
X148756357Y-158027642D01*
X148708738Y-157932404D01*
X148708738Y-157646690D01*
X148756357Y-157551452D01*
X148803976Y-157503833D01*
X148899214Y-157456214D01*
X149089690Y-157456214D01*
X149184928Y-157503833D01*
D11*
X122064000Y-147104000D02*
X140064000Y-147104000D01*
X122064000Y-132804000D02*
X122064000Y-133314000D01*
X140064000Y-132804000D02*
X140064000Y-133314000D01*
X122064000Y-132804000D02*
X140064000Y-132804000D01*
D12*
X120414000Y-134004000D02*
G75*
G03X120414000Y-134004000I-50000J0D01*
G01*
D13*
X105389500Y-152604500D02*
X105389500Y-150544500D01*
X110129500Y-152604500D02*
X110129500Y-150544500D01*
X110129500Y-153944500D02*
X110129500Y-153544500D01*
X105389500Y-153944500D02*
X110129500Y-153944500D01*
X105389500Y-153944500D02*
X105389500Y-153544500D01*
X110129500Y-149204500D02*
X110129500Y-149604500D01*
X105389500Y-149204500D02*
X105389500Y-149604500D01*
X105389500Y-149204500D02*
X110129500Y-149204500D01*
X115931767Y-134872000D02*
X115589233Y-134872000D01*
X115931767Y-135892000D02*
X115589233Y-135892000D01*
D14*
X125385000Y-127982000D02*
G75*
G03X125385000Y-127982000I-100000J0D01*
G01*
D11*
X128515000Y-130592000D02*
X126755000Y-130592000D01*
X126755000Y-127472000D02*
X128515000Y-127472000D01*
D13*
X115589233Y-137733500D02*
X115931767Y-137733500D01*
X115589233Y-136713500D02*
X115931767Y-136713500D01*
X115931767Y-133030500D02*
X115589233Y-133030500D01*
X115931767Y-134050500D02*
X115589233Y-134050500D01*
X115589233Y-139575000D02*
X115931767Y-139575000D01*
X115589233Y-138555000D02*
X115931767Y-138555000D01*
X130740000Y-120718000D02*
X130740000Y-124738000D01*
X130740000Y-124738000D02*
X138460000Y-124738000D01*
X138460000Y-124738000D02*
X138460000Y-120718000D01*
X138460000Y-120718000D02*
X130740000Y-120718000D01*
X130740000Y-122428000D02*
X131240000Y-122428000D01*
X131240000Y-122428000D02*
X131240000Y-121218000D01*
X131240000Y-121218000D02*
X137960000Y-121218000D01*
X137960000Y-121218000D02*
X137960000Y-122428000D01*
X137960000Y-122428000D02*
X138460000Y-122428000D01*
X130740000Y-123238000D02*
X131740000Y-123238000D01*
X131740000Y-123238000D02*
X131740000Y-124738000D01*
X138460000Y-123238000D02*
X137460000Y-123238000D01*
X137460000Y-123238000D02*
X137460000Y-124738000D01*
X130440000Y-122538000D02*
X130440000Y-125038000D01*
X130440000Y-125038000D02*
X132940000Y-125038000D01*
X103389000Y-125101500D02*
X105889000Y-125101500D01*
X103389000Y-122601500D02*
X103389000Y-125101500D01*
X110409000Y-123301500D02*
X110409000Y-124801500D01*
X111409000Y-123301500D02*
X110409000Y-123301500D01*
X104689000Y-123301500D02*
X104689000Y-124801500D01*
X103689000Y-123301500D02*
X104689000Y-123301500D01*
X110909000Y-122491500D02*
X111409000Y-122491500D01*
X110909000Y-121281500D02*
X110909000Y-122491500D01*
X104189000Y-121281500D02*
X110909000Y-121281500D01*
X104189000Y-122491500D02*
X104189000Y-121281500D01*
X103689000Y-122491500D02*
X104189000Y-122491500D01*
X111409000Y-120781500D02*
X103689000Y-120781500D01*
X111409000Y-124801500D02*
X111409000Y-120781500D01*
X103689000Y-124801500D02*
X111409000Y-124801500D01*
X103689000Y-120781500D02*
X103689000Y-124801500D01*
X142251000Y-131388000D02*
X144751000Y-131388000D01*
X142251000Y-128888000D02*
X142251000Y-131388000D01*
X149271000Y-129588000D02*
X149271000Y-131088000D01*
X150271000Y-129588000D02*
X149271000Y-129588000D01*
X143551000Y-129588000D02*
X143551000Y-131088000D01*
X142551000Y-129588000D02*
X143551000Y-129588000D01*
X149771000Y-128778000D02*
X150271000Y-128778000D01*
X149771000Y-127568000D02*
X149771000Y-128778000D01*
X143051000Y-127568000D02*
X149771000Y-127568000D01*
X143051000Y-128778000D02*
X143051000Y-127568000D01*
X142551000Y-128778000D02*
X143051000Y-128778000D01*
X150271000Y-127068000D02*
X142551000Y-127068000D01*
X150271000Y-131088000D02*
X150271000Y-127068000D01*
X142551000Y-131088000D02*
X150271000Y-131088000D01*
X142551000Y-127068000D02*
X142551000Y-131088000D01*
X103389000Y-131388000D02*
X105889000Y-131388000D01*
X103389000Y-128888000D02*
X103389000Y-131388000D01*
X110409000Y-129588000D02*
X110409000Y-131088000D01*
X111409000Y-129588000D02*
X110409000Y-129588000D01*
X104689000Y-129588000D02*
X104689000Y-131088000D01*
X103689000Y-129588000D02*
X104689000Y-129588000D01*
X110909000Y-128778000D02*
X111409000Y-128778000D01*
X110909000Y-127568000D02*
X110909000Y-128778000D01*
X104189000Y-127568000D02*
X110909000Y-127568000D01*
X104189000Y-128778000D02*
X104189000Y-127568000D01*
X103689000Y-128778000D02*
X104189000Y-128778000D01*
X111409000Y-127068000D02*
X103689000Y-127068000D01*
X111409000Y-131088000D02*
X111409000Y-127068000D01*
X103689000Y-131088000D02*
X111409000Y-131088000D01*
X103689000Y-127068000D02*
X103689000Y-131088000D01*
X142251000Y-125038000D02*
X144751000Y-125038000D01*
X142251000Y-122538000D02*
X142251000Y-125038000D01*
X149271000Y-123238000D02*
X149271000Y-124738000D01*
X150271000Y-123238000D02*
X149271000Y-123238000D01*
X143551000Y-123238000D02*
X143551000Y-124738000D01*
X142551000Y-123238000D02*
X143551000Y-123238000D01*
X149771000Y-122428000D02*
X150271000Y-122428000D01*
X149771000Y-121218000D02*
X149771000Y-122428000D01*
X143051000Y-121218000D02*
X149771000Y-121218000D01*
X143051000Y-122428000D02*
X143051000Y-121218000D01*
X142551000Y-122428000D02*
X143051000Y-122428000D01*
X150271000Y-120718000D02*
X142551000Y-120718000D01*
X150271000Y-124738000D02*
X150271000Y-120718000D01*
X142551000Y-124738000D02*
X150271000Y-124738000D01*
X142551000Y-120718000D02*
X142551000Y-124738000D01*
X115771500Y-125101500D02*
X118271500Y-125101500D01*
X115771500Y-122601500D02*
X115771500Y-125101500D01*
X125291500Y-123301500D02*
X125291500Y-124801500D01*
X126291500Y-123301500D02*
X125291500Y-123301500D01*
X117071500Y-123301500D02*
X117071500Y-124801500D01*
X116071500Y-123301500D02*
X117071500Y-123301500D01*
X125791500Y-122491500D02*
X126291500Y-122491500D01*
X125791500Y-121281500D02*
X125791500Y-122491500D01*
X116571500Y-121281500D02*
X125791500Y-121281500D01*
X116571500Y-122491500D02*
X116571500Y-121281500D01*
X116071500Y-122491500D02*
X116571500Y-122491500D01*
X126291500Y-120781500D02*
X116071500Y-120781500D01*
X126291500Y-124801500D02*
X126291500Y-120781500D01*
X116071500Y-124801500D02*
X126291500Y-124801500D01*
X116071500Y-120781500D02*
X116071500Y-124801500D01*
D15*
X121843798Y-127444503D02*
G75*
G02X121437400Y-127723900I-301017J2583D01*
G01*
X121843800Y-127444500D02*
X121259600Y-127444500D01*
X122250200Y-127444500D02*
X121843800Y-127444500D01*
X122250200Y-130492500D02*
X122250200Y-129578100D01*
X121259600Y-130492500D02*
X122250200Y-130492500D01*
X122250200Y-128358900D02*
X122250200Y-127444500D01*
D16*
X139458700Y-157632400D02*
G75*
G02X140068300Y-157632400I304800J0D01*
G01*
D15*
X140068300Y-157632400D02*
X140373100Y-157632400D01*
X139458700Y-157632400D02*
X140068300Y-157632400D01*
X139153900Y-157632400D02*
X139458700Y-157632400D01*
D17*
X128654000Y-155547000D02*
X125854000Y-155547000D01*
X125854000Y-158397000D02*
X128654000Y-158397000D01*
D13*
X105326000Y-159589500D02*
X105326000Y-157529500D01*
X110066000Y-159589500D02*
X110066000Y-157529500D01*
X110066000Y-160929500D02*
X110066000Y-160529500D01*
X105326000Y-160929500D02*
X110066000Y-160929500D01*
X105326000Y-160929500D02*
X105326000Y-160529500D01*
X110066000Y-156189500D02*
X110066000Y-156589500D01*
X105326000Y-156189500D02*
X105326000Y-156589500D01*
X105326000Y-156189500D02*
X110066000Y-156189500D01*
X135003000Y-129203267D02*
X135003000Y-128860733D01*
X133983000Y-129203267D02*
X133983000Y-128860733D01*
X132205000Y-128860733D02*
X132205000Y-129203267D01*
X133225000Y-128860733D02*
X133225000Y-129203267D01*
X116224233Y-157482000D02*
X116566767Y-157482000D01*
X116224233Y-156462000D02*
X116566767Y-156462000D01*
X150941500Y-140633267D02*
X150941500Y-140290733D01*
X149921500Y-140633267D02*
X149921500Y-140290733D01*
X150941500Y-144316267D02*
X150941500Y-143973733D01*
X149921500Y-144316267D02*
X149921500Y-143973733D01*
X108794733Y-136781000D02*
X109137267Y-136781000D01*
X108794733Y-135761000D02*
X109137267Y-135761000D01*
X114739267Y-152067800D02*
X114396733Y-152067800D01*
X114739267Y-153087800D02*
X114396733Y-153087800D01*
X113187267Y-146048000D02*
X112844733Y-146048000D01*
X113187267Y-147068000D02*
X112844733Y-147068000D01*
X104286233Y-136755600D02*
X104628767Y-136755600D01*
X104286233Y-135735600D02*
X104628767Y-135735600D01*
X150941500Y-136950267D02*
X150941500Y-136607733D01*
X149921500Y-136950267D02*
X149921500Y-136607733D01*
X139998267Y-158430500D02*
X139655733Y-158430500D01*
X139998267Y-159450500D02*
X139655733Y-159450500D01*
X150941500Y-155365267D02*
X150941500Y-155022733D01*
X149921500Y-155365267D02*
X149921500Y-155022733D01*
X135507000Y-158578733D02*
X135507000Y-158921267D01*
X136527000Y-158578733D02*
X136527000Y-158921267D01*
X140337000Y-129203267D02*
X140337000Y-128860733D01*
X139317000Y-129203267D02*
X139317000Y-128860733D01*
X138559000Y-129189267D02*
X138559000Y-128846733D01*
X137539000Y-129189267D02*
X137539000Y-128846733D01*
X121177233Y-157545500D02*
X121519767Y-157545500D01*
X121177233Y-156525500D02*
X121519767Y-156525500D01*
X149921500Y-151339733D02*
X149921500Y-151682267D01*
X150941500Y-151339733D02*
X150941500Y-151682267D01*
X150941500Y-148013267D02*
X150941500Y-147670733D01*
X149921500Y-148013267D02*
X149921500Y-147670733D01*
X117761807Y-146048000D02*
X117419273Y-146048000D01*
X117761807Y-147068000D02*
X117419273Y-147068000D01*
X109095000Y-143667267D02*
X109095000Y-143324733D01*
X108075000Y-143667267D02*
X108075000Y-143324733D01*
X109095000Y-139920767D02*
X109095000Y-139578233D01*
X108075000Y-139920767D02*
X108075000Y-139578233D01*
X115945767Y-127506000D02*
X115603233Y-127506000D01*
X115945767Y-128526000D02*
X115603233Y-128526000D01*
X115944467Y-129347500D02*
X115601933Y-129347500D01*
X115944467Y-130367500D02*
X115601933Y-130367500D01*
X115931767Y-131189000D02*
X115589233Y-131189000D01*
X115931767Y-132209000D02*
X115589233Y-132209000D01*
X122825000Y-163015000D02*
X122825000Y-161465000D01*
X122825000Y-163015000D02*
X123125000Y-163015000D01*
X123125000Y-165815000D02*
X123125000Y-163015000D01*
X131125000Y-163015000D02*
X131125000Y-161465000D01*
X130825000Y-163015000D02*
X131125000Y-163015000D01*
X130825000Y-165815000D02*
X130825000Y-163015000D01*
X126075000Y-159765000D02*
X125675000Y-160215000D01*
X125275000Y-159765000D02*
X126075000Y-159765000D01*
X125675000Y-160215000D02*
X125275000Y-159765000D01*
D14*
X104545000Y-144251000D02*
X104545000Y-142851000D01*
X107545000Y-142501000D02*
X104545000Y-142501000D01*
X107545000Y-140201000D02*
X107545000Y-142501000D01*
X104545000Y-140201000D02*
X107545000Y-140201000D01*
X104545000Y-142501000D02*
X104545000Y-140201000D01*
D13*
X118055500Y-158142000D02*
X115595500Y-158142000D01*
X118055500Y-159612000D02*
X118055500Y-158142000D01*
X115595500Y-159612000D02*
X118055500Y-159612000D01*
X147773500Y-140616000D02*
X145313500Y-140616000D01*
X147773500Y-142086000D02*
X147773500Y-140616000D01*
X145313500Y-142086000D02*
X147773500Y-142086000D01*
X147773500Y-144299000D02*
X145313500Y-144299000D01*
X147773500Y-145769000D02*
X147773500Y-144299000D01*
X145313500Y-145769000D02*
X147773500Y-145769000D01*
X110640000Y-133694500D02*
X108180000Y-133694500D01*
X110640000Y-135164500D02*
X110640000Y-133694500D01*
X108180000Y-135164500D02*
X110640000Y-135164500D01*
X112908000Y-151407800D02*
X115368000Y-151407800D01*
X112908000Y-149937800D02*
X112908000Y-151407800D01*
X115368000Y-149937800D02*
X112908000Y-149937800D01*
X114690000Y-144045000D02*
X112230000Y-144045000D01*
X114690000Y-145515000D02*
X114690000Y-144045000D01*
X112230000Y-145515000D02*
X114690000Y-145515000D01*
X106117500Y-133681800D02*
X103657500Y-133681800D01*
X106117500Y-135151800D02*
X106117500Y-133681800D01*
X103657500Y-135151800D02*
X106117500Y-135151800D01*
X147773500Y-136742500D02*
X145313500Y-136742500D01*
X147773500Y-138212500D02*
X147773500Y-136742500D01*
X145313500Y-138212500D02*
X147773500Y-138212500D01*
X147773500Y-147982000D02*
X145313500Y-147982000D01*
X147773500Y-149452000D02*
X147773500Y-147982000D01*
X145313500Y-149452000D02*
X147773500Y-149452000D01*
X119248000Y-144108500D02*
X116788000Y-144108500D01*
X119248000Y-145578500D02*
X119248000Y-144108500D01*
X116788000Y-145578500D02*
X119248000Y-145578500D01*
X147773500Y-155348000D02*
X145313500Y-155348000D01*
X147773500Y-156818000D02*
X147773500Y-155348000D01*
X145313500Y-156818000D02*
X147773500Y-156818000D01*
X147773500Y-158904000D02*
X145313500Y-158904000D01*
X147773500Y-160374000D02*
X147773500Y-158904000D01*
X145313500Y-160374000D02*
X147773500Y-160374000D01*
X123008500Y-158142000D02*
X120548500Y-158142000D01*
X123008500Y-159612000D02*
X123008500Y-158142000D01*
X120548500Y-159612000D02*
X123008500Y-159612000D01*
X147773500Y-151665000D02*
X145313500Y-151665000D01*
X147773500Y-153135000D02*
X147773500Y-151665000D01*
X145313500Y-153135000D02*
X147773500Y-153135000D01*
X103020400Y-139579533D02*
X103020400Y-139922067D01*
X104040400Y-139579533D02*
X104040400Y-139922067D01*
X104040400Y-143630467D02*
X104040400Y-143287933D01*
X103020400Y-143630467D02*
X103020400Y-143287933D01*
X133602000Y-158578733D02*
X133602000Y-158921267D01*
X134622000Y-158578733D02*
X134622000Y-158921267D01*
X136781000Y-129203267D02*
X136781000Y-128860733D01*
X135761000Y-129203267D02*
X135761000Y-128860733D01*
D18*
X126654091Y-136088735D02*
X126654091Y-136898858D01*
X126701745Y-136994167D01*
X126749400Y-137041821D01*
X126844708Y-137089475D01*
X127035325Y-137089475D01*
X127130634Y-137041821D01*
X127178288Y-136994167D01*
X127225942Y-136898858D01*
X127225942Y-136088735D01*
X128226682Y-137089475D02*
X127654831Y-137089475D01*
X127940757Y-137089475D02*
X127940757Y-136088735D01*
X127845448Y-136231698D01*
X127750140Y-136327007D01*
X127654831Y-136374661D01*
D19*
X106489666Y-153312761D02*
X106632523Y-153360380D01*
X106870619Y-153360380D01*
X106965857Y-153312761D01*
X107013476Y-153265142D01*
X107061095Y-153169904D01*
X107061095Y-153074666D01*
X107013476Y-152979428D01*
X106965857Y-152931809D01*
X106870619Y-152884190D01*
X106680142Y-152836571D01*
X106584904Y-152788952D01*
X106537285Y-152741333D01*
X106489666Y-152646095D01*
X106489666Y-152550857D01*
X106537285Y-152455619D01*
X106584904Y-152408000D01*
X106680142Y-152360380D01*
X106918238Y-152360380D01*
X107061095Y-152408000D01*
X107394428Y-152360380D02*
X107632523Y-153360380D01*
X107823000Y-152646095D01*
X108013476Y-153360380D01*
X108251571Y-152360380D01*
X109108714Y-152360380D02*
X108632523Y-152360380D01*
X108584904Y-152836571D01*
X108632523Y-152788952D01*
X108727761Y-152741333D01*
X108965857Y-152741333D01*
X109061095Y-152788952D01*
X109108714Y-152836571D01*
X109156333Y-152931809D01*
X109156333Y-153169904D01*
X109108714Y-153265142D01*
X109061095Y-153312761D01*
X108965857Y-153360380D01*
X108727761Y-153360380D01*
X108632523Y-153312761D01*
X108584904Y-153265142D01*
D20*
X127208325Y-156119862D02*
X127208325Y-156508434D01*
X127231182Y-156554148D01*
X127254040Y-156577005D01*
X127299754Y-156599862D01*
X127391182Y-156599862D01*
X127436897Y-156577005D01*
X127459754Y-156554148D01*
X127482611Y-156508434D01*
X127482611Y-156119862D01*
X127665468Y-156119862D02*
X127962611Y-156119862D01*
X127802611Y-156302720D01*
X127871182Y-156302720D01*
X127916897Y-156325577D01*
X127939754Y-156348434D01*
X127962611Y-156394148D01*
X127962611Y-156508434D01*
X127939754Y-156554148D01*
X127916897Y-156577005D01*
X127871182Y-156599862D01*
X127734040Y-156599862D01*
X127688325Y-156577005D01*
X127665468Y-156554148D01*
D19*
X106362666Y-158964261D02*
X106505523Y-159011880D01*
X106743619Y-159011880D01*
X106838857Y-158964261D01*
X106886476Y-158916642D01*
X106934095Y-158821404D01*
X106934095Y-158726166D01*
X106886476Y-158630928D01*
X106838857Y-158583309D01*
X106743619Y-158535690D01*
X106553142Y-158488071D01*
X106457904Y-158440452D01*
X106410285Y-158392833D01*
X106362666Y-158297595D01*
X106362666Y-158202357D01*
X106410285Y-158107119D01*
X106457904Y-158059500D01*
X106553142Y-158011880D01*
X106791238Y-158011880D01*
X106934095Y-158059500D01*
X107267428Y-158011880D02*
X107505523Y-159011880D01*
X107696000Y-158297595D01*
X107886476Y-159011880D01*
X108124571Y-158011880D01*
X108934095Y-158345214D02*
X108934095Y-159011880D01*
X108696000Y-157964261D02*
X108457904Y-158678547D01*
X109076952Y-158678547D01*
X128591666Y-159167380D02*
X128591666Y-159881666D01*
X128544047Y-160024523D01*
X128448809Y-160119761D01*
X128305952Y-160167380D01*
X128210714Y-160167380D01*
X128972619Y-159167380D02*
X129591666Y-159167380D01*
X129258333Y-159548333D01*
X129401190Y-159548333D01*
X129496428Y-159595952D01*
X129544047Y-159643571D01*
X129591666Y-159738809D01*
X129591666Y-159976904D01*
X129544047Y-160072142D01*
X129496428Y-160119761D01*
X129401190Y-160167380D01*
X129115476Y-160167380D01*
X129020238Y-160119761D01*
X128972619Y-160072142D01*
M02*
