M48
; DRILL file {KiCad (5.1.5)-2} date 1/6/2020 9:48:23 PM
; FORMAT={-:-/ absolute / inch / decimal}
; #@! TF.CreationDate,2020-01-06T21:48:23-06:00
; #@! TF.GenerationSoftware,Kicad,Pcbnew,(5.1.5)-2
; #@! TF.FileFunction,Plated,1,2,PTH
FMAT,2
INCH
T1C0.0118
T2C0.0157
T3C0.0256
T4C0.0276
T5C0.0354
T6C0.0374
T7C0.0394
%
G90
G05
T1
X4.04Y-5.575
X4.1625Y-5.72
X4.175Y-5.4125
X4.1975Y-5.72
X4.2325Y-5.72
X4.25Y-5.4125
X4.26Y-5.84
X4.27Y-5.81
X4.305Y-5.77
X4.305Y-5.81
X4.34Y-5.81
X4.3825Y-5.2925
X4.3825Y-5.33
X4.385Y-5.255
X4.4625Y-5.4325
X4.69Y-5.9875
X4.69Y-6.0175
X4.69Y-6.05
X4.742Y-5.405
X4.7775Y-6.015
X4.8075Y-6.0375
X4.8075Y-6.08
X4.86Y-5.335
X4.86Y-5.45
X4.86Y-5.6575
X4.86Y-5.715
X4.86Y-5.775
X4.86Y-5.805
X4.86Y-5.8375
X4.8775Y-5.9175
X4.895Y-6.24
X4.9Y-5.6575
X4.92Y-5.9675
X4.9375Y-5.59
X4.98Y-5.9525
X5.01Y-5.9525
X5.0375Y-5.6575
X5.04Y-5.9525
X5.07Y-5.9525
X5.1Y-5.9525
X5.1075Y-5.6875
X5.11Y-5.5685
X5.11Y-5.6
X5.1275Y-5.665
X5.1525Y-5.72
X5.1525Y-5.7525
X5.1525Y-5.785
X5.1525Y-5.8925
X5.1525Y-5.925
X5.195Y-6.2025
X5.2Y-5.55
X5.28Y-6.1
X5.2975Y-5.63
X5.3125Y-6.1
X5.315Y-5.7775
X5.3975Y-5.5625
X5.5125Y-5.725
X5.515Y-5.845
X5.515Y-5.92
X5.515Y-6.005
X5.5375Y-5.6975
X5.5475Y-5.8
X5.8525Y-5.5425
X5.865Y-5.6775
X5.865Y-5.82
X5.865Y-5.965
T2
X4.1375Y-5.4125
X4.2125Y-5.4125
X4.2875Y-5.4125
X4.4375Y-5.0125
X4.4375Y-5.25
X4.5225Y-5.565
X4.5225Y-5.615
X4.5225Y-5.665
X4.5225Y-5.715
X4.5225Y-5.765
X4.6825Y-5.095
X4.6825Y-5.565
X4.6825Y-5.615
X4.6825Y-5.665
X4.685Y-4.9425
X4.86Y-6.135
X4.91Y-4.9425
X4.92Y-6.135
X4.9625Y-5.7975
X5.0Y-5.76
X5.0Y-5.7975
X5.0Y-5.835
X5.0375Y-5.7975
X5.175Y-6.1
X5.23Y-6.135
X5.4125Y-6.2725
X5.43Y-5.9625
X5.585Y-5.4875
X5.585Y-5.76
X5.5925Y-6.2425
X5.6325Y-6.1275
X5.76Y-5.395
T5
X4.1Y-6.0831
X4.1Y-6.1816
X4.1Y-6.28
X4.2299Y-6.0831
X4.2299Y-6.1816
X4.2299Y-6.28
T6
X4.6725Y-4.8225
X4.7709Y-4.8225
X4.8694Y-4.8225
T7
X4.185Y-4.8225
X4.2834Y-4.8225
X5.715Y-4.82
X5.8134Y-4.82
X4.185Y-5.07
X4.2834Y-5.07
X5.25Y-4.82
X5.3484Y-4.82
X5.715Y-5.07
X5.8134Y-5.07
T3
G00X4.9037Y-6.3541
M15
G01X4.9037Y-6.3384
M16
G05
G00X5.0943Y-6.3541
M15
G01X5.0943Y-6.3384
M16
G05
T4
G00X4.8915Y-6.4742
M15
G01X4.8915Y-6.4545
M16
G05
G00X5.1065Y-6.4742
M15
G01X5.1065Y-6.4545
M16
G05
T0
M30
